<?xml version="1.0" encoding="UTF-8" standalone="no"?>
<svg
   width="44"
   height="44"
   viewBox="0 0 44 44"
   fill="none"
   version="1.1"
   id="svg1"
   sodipodi:docname="arrow-circle.svg"
   inkscape:version="1.3.2 (091e20e, 2023-11-25, custom)"
   xmlns:inkscape="http://www.inkscape.org/namespaces/inkscape"
   xmlns:sodipodi="http://sodipodi.sourceforge.net/DTD/sodipodi-0.dtd"
   xmlns="http://www.w3.org/2000/svg"
   xmlns:svg="http://www.w3.org/2000/svg">
  <defs
     id="defs1" />
  <sodipodi:namedview
     id="namedview1"
     pagecolor="#ffffff"
     bordercolor="#cccccc"
     borderopacity="1"
     inkscape:showpageshadow="0"
     inkscape:pageopacity="1"
     inkscape:pagecheckerboard="0"
     inkscape:deskcolor="#d1d1d1"
     inkscape:zoom="26.840909"
     inkscape:cx="21.981372"
     inkscape:cy="22"
     inkscape:window-width="3440"
     inkscape:window-height="1377"
     inkscape:window-x="-8"
     inkscape:window-y="-8"
     inkscape:window-maximized="1"
     inkscape:current-layer="svg1" />
  <path
     style="color:#000000;fill:#106fae;-inkscape-stroke:none"
     d="M 22,0 C 9.8206608,0 0,9.8206608 0,22 0,34.179339 9.8206608,44 22,44 34.179339,44 44,34.179339 44,22 44,9.8206608 34.179339,0 22,0 Z m 0,1 C 33.642637,1 43,10.357363 43,22 43,33.642637 33.642637,43 22,43 10.357363,43 1,33.642637 1,22 1,10.357363 10.357363,1 22,1 Z"
     id="rect1" />
  <path
     d="M38.3536 22.3536C38.5488 22.1583 38.5488 21.8417 38.3536 21.6464L35.1716 18.4645C34.9763 18.2692 34.6597 18.2692 34.4645 18.4645C34.2692 18.6597 34.2692 18.9763 34.4645 19.1716L37.2929 22L34.4645 24.8284C34.2692 25.0237 34.2692 25.3403 34.4645 25.5355C34.6597 25.7308 34.9763 25.7308 35.1716 25.5355L38.3536 22.3536ZM6 22.5H38V21.5H6V22.5Z"
     fill="#106FAE"
     id="path1" />
</svg>
