<svg width="32" height="32" viewBox="0 0 32 32" fill="none" xmlns="http://www.w3.org/2000/svg">
<path d="M8.03838 2.45846C8.08991 2.45816 8.14144 2.45786 8.19454 2.45755C8.30317 2.45734 8.41181 2.45791 8.52044 2.45922C8.68634 2.4609 8.85198 2.45924 9.01787 2.45724C9.12367 2.45745 9.22946 2.45785 9.33525 2.45846C9.40929 2.45751 9.40929 2.45751 9.48482 2.45654C9.73495 2.46184 9.85022 2.48358 10.0624 2.62785C10.218 2.85877 10.227 3.03893 10.2173 3.30783C10.2169 3.35455 10.2165 3.40127 10.216 3.44941C10.2143 3.59784 10.2103 3.74611 10.2063 3.8945C10.2048 3.99545 10.2034 4.0964 10.2021 4.19735C10.1989 4.44416 10.1928 4.69064 10.1868 4.93746C10.7437 4.93746 11.3006 4.93746 11.8743 4.93746C11.8721 4.7922 11.87 4.64694 11.8677 4.49728C11.8663 4.356 11.8651 4.21472 11.864 4.07343C11.8631 3.97553 11.8618 3.87763 11.8602 3.77973C11.8579 3.6387 11.8568 3.4977 11.856 3.35665C11.855 3.31315 11.8541 3.26965 11.8531 3.22483C11.853 2.95111 11.8938 2.78007 12.0618 2.56246C12.2678 2.45948 12.4969 2.48709 12.7234 2.48507C12.7768 2.48457 12.8301 2.48406 12.8851 2.48354C12.998 2.48268 13.111 2.48201 13.2239 2.48152C13.3966 2.48044 13.5693 2.4777 13.742 2.47494C13.8517 2.47431 13.9614 2.47377 14.0711 2.47335C14.1227 2.47226 14.1744 2.47116 14.2276 2.47004C14.5856 2.47139 14.5856 2.47139 14.78 2.61491C14.9552 2.86571 14.9451 3.09969 14.9429 3.39327C14.9428 3.45946 14.9428 3.45946 14.9427 3.52699C14.9423 3.66772 14.9415 3.80845 14.9407 3.94918C14.9404 4.04468 14.9401 4.14018 14.9399 4.23568C14.9392 4.46961 14.938 4.70353 14.9368 4.93746C15.4937 4.93746 16.0506 4.93746 16.6243 4.93746C16.6214 4.78245 16.6185 4.62744 16.6155 4.46774C16.6136 4.31736 16.6121 4.16698 16.6106 4.0166C16.6093 3.9122 16.6076 3.80781 16.6055 3.70342C16.6024 3.55324 16.601 3.40311 16.5999 3.25289C16.5986 3.20633 16.5973 3.15978 16.596 3.11181C16.5959 2.90847 16.6115 2.77137 16.7165 2.59547C16.9498 2.4543 17.1553 2.46529 17.4231 2.46896C17.4763 2.46887 17.5295 2.46878 17.5842 2.46868C17.6964 2.46879 17.8087 2.46951 17.9209 2.4708C18.0925 2.47261 18.264 2.47209 18.4356 2.47128C18.5447 2.47167 18.6539 2.47219 18.763 2.47286C18.8399 2.47259 18.8399 2.47259 18.9183 2.47231C19.1259 2.47574 19.2826 2.48421 19.4672 2.58369C19.6677 2.80356 19.6325 3.06536 19.6304 3.34445C19.6303 3.41272 19.6303 3.41272 19.6302 3.48237C19.6298 3.62756 19.629 3.77274 19.6282 3.91793C19.6279 4.01644 19.6276 4.11495 19.6274 4.21346C19.6267 4.4548 19.6255 4.69613 19.6243 4.93746C20.1812 4.93746 20.7381 4.93746 21.3118 4.93746C21.3082 4.78769 21.3046 4.63792 21.3008 4.48361C21.2984 4.33798 21.2965 4.19236 21.2947 4.04673C21.2931 3.94579 21.291 3.84485 21.2882 3.74394C21.2844 3.59855 21.2827 3.45325 21.2813 3.30783C21.2797 3.26296 21.2781 3.21809 21.2764 3.17186C21.2763 2.9424 21.307 2.81969 21.4353 2.62785C21.6899 2.45556 21.8781 2.45472 22.1792 2.45846C22.2323 2.45816 22.2854 2.45786 22.3401 2.45755C22.4519 2.45734 22.5637 2.45791 22.6756 2.45922C22.8467 2.4609 23.0175 2.45924 23.1886 2.45724C23.2975 2.45745 23.4063 2.45785 23.5152 2.45846C23.5918 2.45751 23.5918 2.45751 23.6699 2.45654C23.9136 2.46157 24.0257 2.47069 24.2195 2.62785C24.3352 2.85915 24.3435 3.05521 24.3362 3.30783C24.3359 3.35455 24.3355 3.40127 24.3352 3.44941C24.3338 3.59782 24.3306 3.74612 24.3274 3.8945C24.3262 3.99545 24.325 4.0964 24.324 4.19735C24.3213 4.44409 24.317 4.69076 24.3118 4.93746C24.3843 4.93648 24.4567 4.9355 24.5314 4.93449C24.8028 4.93107 25.0742 4.92893 25.3456 4.92716C25.4626 4.92623 25.5796 4.92495 25.6966 4.92332C26.7072 4.90957 27.502 4.98889 28.2923 5.68746C28.9462 6.38479 29.081 7.2739 29.0781 8.18735C29.0783 8.26795 29.0786 8.34855 29.0788 8.43159C29.0795 8.65406 29.0793 8.87652 29.0791 9.09898C29.0789 9.3394 29.0795 9.57982 29.08 9.82024C29.0807 10.2908 29.0809 10.7613 29.0807 11.2319C29.0806 11.6145 29.0807 11.9971 29.081 12.3797C29.081 12.4342 29.0811 12.4888 29.0811 12.5449C29.0812 12.6557 29.0812 12.7665 29.0813 12.8772C29.082 13.9154 29.0819 14.9536 29.0815 15.9917C29.0812 16.9406 29.0819 17.8894 29.083 18.8382C29.0843 19.8134 29.0848 20.7887 29.0845 21.7639C29.0844 22.311 29.0846 22.8581 29.0855 23.4052C29.0862 23.871 29.0863 24.3369 29.0855 24.8027C29.0852 25.0401 29.0851 25.2775 29.0858 25.515C29.0867 25.7729 29.086 26.0308 29.0852 26.2888C29.0857 26.363 29.0861 26.4373 29.0866 26.5139C29.0806 27.442 28.8369 28.1879 28.201 28.8703C27.5247 29.5004 26.7262 29.5909 25.8369 29.5867C25.7461 29.587 25.6554 29.5873 25.5646 29.5877C25.3169 29.5886 25.0692 29.5884 24.8215 29.5879C24.5537 29.5876 24.2859 29.5884 24.018 29.589C23.494 29.5901 22.97 29.5901 22.446 29.5898C22.0199 29.5896 21.5938 29.5897 21.1677 29.59C21.0766 29.5901 21.0766 29.5901 20.9837 29.5901C20.8603 29.5902 20.7369 29.5903 20.6135 29.5904C19.4574 29.5913 18.3013 29.5909 17.1451 29.5902C16.0884 29.5896 15.0318 29.5904 13.9751 29.5919C12.8889 29.5934 11.8027 29.594 10.7165 29.5936C10.1072 29.5934 9.49786 29.5935 8.88852 29.5946C8.36981 29.5955 7.8511 29.5956 7.33239 29.5945C7.06798 29.594 6.80359 29.5938 6.53918 29.5948C6.29667 29.5957 6.05419 29.5954 5.81169 29.5941C5.72442 29.5939 5.63715 29.5941 5.54989 29.5947C4.66613 29.6009 3.90895 29.4248 3.24932 28.8125C2.64688 28.1431 2.46114 27.4722 2.46757 26.5859C2.46728 26.5018 2.46689 26.4176 2.46639 26.3335C2.46535 26.104 2.46586 25.8746 2.46664 25.6452C2.4672 25.3971 2.46633 25.1489 2.46564 24.9008C2.46453 24.4154 2.46477 23.9301 2.46549 23.4447C2.46606 23.05 2.46613 22.6554 2.46586 22.2608C2.46582 22.2045 2.46579 22.1483 2.46575 22.0903C2.46567 21.976 2.46559 21.8617 2.4655 21.7474C2.46479 20.6767 2.46561 19.606 2.46695 18.5353C2.46807 17.6174 2.46788 16.6996 2.46672 15.7817C2.46539 14.7147 2.46486 13.6477 2.46563 12.5807C2.46571 12.4669 2.46579 12.353 2.46586 12.2391C2.46592 12.1551 2.46592 12.1551 2.46598 12.0694C2.4662 11.6754 2.46583 11.2815 2.46524 10.8875C2.46454 10.4071 2.46473 9.92675 2.46606 9.44637C2.46672 9.20147 2.46698 8.95659 2.46615 8.71169C2.4654 8.48715 2.46582 8.26264 2.46715 8.03811C2.46755 7.91917 2.46674 7.80022 2.46588 7.68128C2.47285 6.91227 2.70807 6.25742 3.2376 5.69137C3.81962 5.14689 4.4924 4.91561 5.27642 4.92526C5.33129 4.92543 5.38616 4.92561 5.44269 4.92579C5.61652 4.92649 5.79034 4.92806 5.96416 4.92965C6.08261 4.93028 6.20106 4.93085 6.31951 4.93136C6.60862 4.93273 6.89771 4.93489 7.18682 4.93746C7.18518 4.87473 7.18354 4.81199 7.18186 4.74735C7.17619 4.51383 7.17261 4.28031 7.16965 4.04673C7.16808 3.94579 7.16595 3.84485 7.16324 3.74394C7.15944 3.59855 7.15768 3.45325 7.1563 3.30783C7.15469 3.26296 7.15307 3.21809 7.15141 3.17186C7.15128 2.94173 7.18186 2.81982 7.31128 2.62785C7.56164 2.45758 7.74201 2.45466 8.03838 2.45846ZM8.31182 3.62496C8.31182 5.02746 8.31182 6.42996 8.31182 7.87496C8.55932 7.87496 8.80682 7.87496 9.06182 7.87496C9.06182 6.47246 9.06182 5.06996 9.06182 3.62496C8.81432 3.62496 8.56682 3.62496 8.31182 3.62496ZM12.9993 3.62496C12.9993 5.02746 12.9993 6.42996 12.9993 7.87496C13.2468 7.87496 13.4943 7.87496 13.7493 7.87496C13.7493 6.47246 13.7493 5.06996 13.7493 3.62496C13.5018 3.62496 13.2543 3.62496 12.9993 3.62496ZM17.7493 3.62496C17.7493 5.02746 17.7493 6.42996 17.7493 7.87496C17.9968 7.87496 18.2443 7.87496 18.4993 7.87496C18.4993 6.47246 18.4993 5.06996 18.4993 3.62496C18.2518 3.62496 18.0043 3.62496 17.7493 3.62496ZM22.4368 3.62496C22.4368 5.02746 22.4368 6.42996 22.4368 7.87496C22.6843 7.87496 22.9318 7.87496 23.1868 7.87496C23.1868 6.47246 23.1868 5.06996 23.1868 3.62496C22.9393 3.62496 22.6918 3.62496 22.4368 3.62496ZM4.31182 6.31246C4.2551 6.34856 4.19838 6.38465 4.13994 6.42184C3.88068 6.6811 3.71317 6.95704 3.62432 7.31246C3.62432 8.30246 3.62432 9.29246 3.62432 10.3125C11.6268 10.3125 19.6293 10.3125 27.8743 10.3125C28.1312 8.15301 28.1312 8.15301 27.3548 6.41012C26.9798 6.09366 26.5399 6.03467 26.0696 6.04415C26.019 6.04442 25.9684 6.04468 25.9162 6.04496C25.7564 6.046 25.5966 6.04835 25.4368 6.05075C25.3277 6.05169 25.2186 6.05254 25.1094 6.05331C24.8435 6.05536 24.5777 6.05859 24.3118 6.06246C24.3103 6.141 24.3087 6.21954 24.3071 6.30046C24.3012 6.59154 24.2949 6.88261 24.2885 7.17369C24.2858 7.29972 24.2832 7.42576 24.2807 7.5518C24.2771 7.73285 24.2731 7.91389 24.2691 8.09493C24.268 8.15139 24.267 8.20784 24.2659 8.266C24.2647 8.31854 24.2634 8.37108 24.2621 8.42521C24.2607 8.49454 24.2607 8.49454 24.2592 8.56526C24.2493 8.68746 24.2493 8.68746 24.1868 8.87496C23.8388 9.02484 23.3495 8.95663 22.9738 8.95934C22.8685 8.96038 22.7632 8.96209 22.658 8.96447C22.5055 8.9679 22.3532 8.96926 22.2007 8.97018C22.1539 8.9716 22.1071 8.97301 22.0589 8.97447C21.827 8.97354 21.6963 8.94366 21.5012 8.81611C21.3259 8.55207 21.3287 8.34463 21.3301 8.0339C21.3292 7.97746 21.3282 7.92103 21.3273 7.86288C21.3246 7.6833 21.324 7.50378 21.3235 7.32418C21.3221 7.20215 21.3205 7.08012 21.3188 6.95809C21.3146 6.65951 21.3133 6.36112 21.3118 6.06246C20.7549 6.06246 20.1981 6.06246 19.6243 6.06246C19.6234 6.24382 19.6225 6.42517 19.6216 6.61202C19.6197 6.78806 19.6173 6.96409 19.6148 7.14012C19.6133 7.26226 19.6124 7.38442 19.6121 7.50657C19.6115 7.6824 19.609 7.8581 19.606 8.0339C19.6063 8.08834 19.6065 8.14278 19.6068 8.19886C19.6005 8.4606 19.5828 8.59341 19.4349 8.81597C19.1991 8.97032 19.0082 8.97949 18.7354 8.97238C18.6865 8.97223 18.6376 8.97208 18.5872 8.97193C18.4842 8.97133 18.3812 8.96997 18.2782 8.96791C18.1207 8.96481 17.9633 8.96406 17.8058 8.96371C17.7055 8.96283 17.6052 8.96182 17.5049 8.96066C17.458 8.96032 17.411 8.95999 17.3627 8.95964C17.1308 8.95438 16.9424 8.94911 16.7493 8.81246C16.6787 8.67119 16.6773 8.58926 16.674 8.43231C16.6727 8.37976 16.6715 8.32722 16.6702 8.27308C16.6686 8.18792 16.6686 8.18792 16.667 8.10104C16.6657 8.04295 16.6644 7.98486 16.6631 7.92501C16.659 7.73906 16.6553 7.55311 16.6517 7.36715C16.649 7.24126 16.6462 7.11536 16.6435 6.98947C16.6367 6.68047 16.6305 6.37147 16.6243 6.06246C16.0674 6.06246 15.5106 6.06246 14.9368 6.06246C14.9345 6.23407 14.9321 6.40568 14.9297 6.58248C14.9268 6.74942 14.9236 6.91635 14.9204 7.08328C14.9183 7.19893 14.9166 7.3146 14.9152 7.43026C14.9131 7.59691 14.9098 7.76351 14.9063 7.93014C14.9059 7.98152 14.9055 8.0329 14.9051 8.08584C14.8973 8.39275 14.8567 8.6091 14.6868 8.87496C14.4875 8.97461 14.2715 8.94898 14.0525 8.95016C13.9767 8.95069 13.9767 8.95069 13.8993 8.95124C13.7923 8.95183 13.6852 8.95224 13.5781 8.95248C13.4145 8.95308 13.2509 8.95502 13.0872 8.957C12.9832 8.9574 12.8792 8.95773 12.7752 8.95797C12.7018 8.95913 12.7018 8.95913 12.627 8.96031C12.424 8.95948 12.2757 8.95173 12.0954 8.85415C11.9425 8.68837 11.9288 8.52752 11.924 8.31169C11.9227 8.26165 11.9215 8.21161 11.9202 8.16006C11.9186 8.07948 11.9186 8.07948 11.917 7.99728C11.9157 7.94205 11.9144 7.88683 11.9131 7.82993C11.909 7.65354 11.9053 7.47714 11.9017 7.30075C11.899 7.18116 11.8962 7.06157 11.8935 6.94198C11.8867 6.64881 11.8805 6.35564 11.8743 6.06246C11.3174 6.06246 10.7606 6.06246 10.1868 6.06246C10.183 6.24978 10.1792 6.4371 10.1753 6.63009C10.1715 6.81129 10.1675 6.99249 10.1635 7.17369C10.1608 7.29972 10.1582 7.42576 10.1557 7.5518C10.1521 7.73285 10.1481 7.91389 10.1441 8.09493C10.143 8.15139 10.142 8.20784 10.1409 8.266C10.1397 8.31854 10.1384 8.37108 10.1371 8.42521C10.1362 8.47143 10.1352 8.51764 10.1342 8.56526C10.1243 8.68746 10.1243 8.68746 10.0618 8.87496C9.71375 9.02484 9.22445 8.95663 8.84882 8.95934C8.74353 8.96038 8.63824 8.96209 8.53296 8.96447C8.38053 8.9679 8.2282 8.96926 8.07573 8.97018C8.02891 8.9716 7.9821 8.97301 7.93386 8.97447C7.70204 8.97354 7.57129 8.94366 7.37621 8.81611C7.20092 8.55207 7.20372 8.34463 7.20513 8.0339C7.20418 7.97746 7.20324 7.92103 7.20226 7.86288C7.19959 7.6833 7.19903 7.50378 7.19854 7.32418C7.19709 7.20215 7.1955 7.08012 7.19378 6.95809C7.18985 6.65954 7.18783 6.36104 7.18682 6.06246C6.86778 6.05624 6.54879 6.05173 6.22971 6.04873C6.12139 6.04748 6.01307 6.04578 5.90476 6.0436C5.07133 6.00986 5.07133 6.00986 4.31182 6.31246ZM3.62432 11.4375C3.61916 14.0246 3.614 16.6118 3.60869 19.2773C3.60642 20.0944 3.60414 20.9116 3.6018 21.7535C3.60096 22.4855 3.60096 22.4855 3.60046 23.2174C3.60022 23.5437 3.59931 23.8699 3.59792 24.1961C3.59616 24.6123 3.59569 25.0284 3.59605 25.4446C3.59598 25.5973 3.59548 25.75 3.59451 25.9027C3.59327 26.1091 3.59357 26.3155 3.59425 26.5219C3.59353 26.5815 3.5928 26.6411 3.59205 26.7026C3.59631 27.1819 3.71947 27.6407 4.06963 27.9882C4.58971 28.4469 5.16068 28.4738 5.82874 28.4692C5.91803 28.4695 6.00733 28.4699 6.09662 28.4704C6.34057 28.4714 6.58449 28.4709 6.82844 28.4701C7.09208 28.4696 7.35571 28.4705 7.61935 28.4711C8.13525 28.4722 8.65115 28.472 9.16705 28.4713C9.58644 28.4707 10.0058 28.4706 10.4252 28.4709C10.5148 28.471 10.5148 28.471 10.6063 28.471C10.7277 28.4711 10.8491 28.4712 10.9705 28.4713C12.1081 28.472 13.2456 28.4712 14.3832 28.4698C15.3588 28.4687 16.3343 28.4689 17.3098 28.4701C18.4434 28.4714 19.577 28.4719 20.7106 28.4712C20.8315 28.4711 20.9525 28.471 21.0734 28.4709C21.1329 28.4709 21.1924 28.4708 21.2537 28.4708C21.6725 28.4706 22.0912 28.4709 22.51 28.4715C23.0205 28.4722 23.531 28.472 24.0415 28.4707C24.3018 28.4701 24.5621 28.4698 24.8225 28.4706C25.0611 28.4714 25.2996 28.471 25.5382 28.4696C25.6648 28.4692 25.7914 28.47 25.9181 28.4709C26.4708 28.4662 26.8921 28.3709 27.3626 28.0781C27.6632 27.7689 27.8822 27.4185 27.882 26.9799C27.8821 26.9245 27.8823 26.869 27.8824 26.8118C27.8822 26.7509 27.882 26.6899 27.8818 26.6271C27.8819 26.5625 27.8819 26.498 27.882 26.4314C27.8821 26.2133 27.8818 25.9952 27.8814 25.7771C27.8814 25.6188 27.8814 25.4605 27.8814 25.3021C27.8814 24.9202 27.8812 24.5382 27.8808 24.1563C27.8803 23.7146 27.8803 23.273 27.8802 22.8313C27.8799 21.6649 27.879 20.4984 27.8782 19.332C27.8769 16.7268 27.8756 14.1216 27.8743 11.4375C19.8718 11.4375 11.8693 11.4375 3.62432 11.4375Z" fill="#3FC1C9"/>
<path d="M11.2311 22.0503C11.3403 22.0488 11.3403 22.0488 11.4517 22.0473C11.784 22.0445 12.1164 22.0419 12.4487 22.0405C12.6242 22.0397 12.7996 22.0379 12.975 22.0354C13.2277 22.0317 13.4804 22.0306 13.7332 22.0297C13.8509 22.0276 13.8509 22.0276 13.9709 22.0254C14.5762 22.0269 14.5762 22.0269 14.768 22.209C14.9148 22.434 14.9467 22.5971 14.9478 22.8599C14.9482 22.9201 14.9486 22.9804 14.949 23.0426C14.9491 23.1076 14.9492 23.1726 14.9493 23.2396C14.9496 23.3401 14.9496 23.3401 14.9499 23.4426C14.9502 23.5843 14.9503 23.7261 14.9503 23.8678C14.9505 24.0845 14.9516 24.3012 14.9528 24.518C14.953 24.6557 14.9531 24.7934 14.9532 24.9311C14.9536 24.9958 14.9541 25.0606 14.9545 25.1274C14.9543 25.1881 14.9541 25.2487 14.9539 25.3113C14.954 25.3644 14.9541 25.4176 14.9542 25.4723C14.93 25.7109 14.8735 25.8767 14.7039 26.049C14.5252 26.1458 14.3991 26.1495 14.1961 26.1511C14.085 26.1526 14.085 26.1526 13.9717 26.1542C13.8919 26.1542 13.8122 26.1542 13.73 26.1542C13.6068 26.1549 13.6068 26.1549 13.4811 26.1556C13.3074 26.1565 13.1336 26.1566 12.9599 26.1562C12.7377 26.1558 12.5155 26.1578 12.2933 26.1603C12.0808 26.1623 11.8683 26.162 11.6558 26.162C11.5762 26.163 11.4965 26.1641 11.4145 26.1651C10.8813 26.1609 10.8813 26.1609 10.6072 26.0147C10.4405 25.6963 10.4592 25.3928 10.4641 25.0387C10.4641 24.9635 10.4641 24.8882 10.4641 24.8106C10.4645 24.6517 10.4656 24.4928 10.4674 24.3339C10.47 24.0904 10.4699 23.847 10.4695 23.6035C10.4702 23.4491 10.471 23.2947 10.472 23.1403C10.472 23.0674 10.472 22.9944 10.472 22.9193C10.473 22.8515 10.474 22.7837 10.475 22.7139C10.4755 22.6543 10.4761 22.5947 10.4766 22.5334C10.5057 22.346 10.5579 22.2606 10.6888 22.1249C10.8845 22.0597 11.0256 22.0529 11.2311 22.0503ZM11.6263 23.1874C11.6263 23.7855 11.6263 24.3836 11.6263 24.9999C12.3275 24.9999 13.0288 24.9999 13.7513 24.9999C13.7513 24.4018 13.7513 23.8036 13.7513 23.1874C13.05 23.1874 12.3488 23.1874 11.6263 23.1874Z" fill="#3FC1C9"/>
<path d="M11.6701 17.1483C11.7545 17.1482 11.8389 17.1481 11.9234 17.1478C12.0999 17.1476 12.2765 17.1486 12.4531 17.1503C12.6792 17.1524 12.9052 17.152 13.1312 17.1509C13.3055 17.1502 13.4796 17.1508 13.6539 17.1517C13.7777 17.1522 13.9015 17.1517 14.0253 17.1512C14.1382 17.1527 14.1382 17.1527 14.2535 17.1542C14.3528 17.1548 14.3528 17.1548 14.4542 17.1554C14.6702 17.1957 14.7428 17.2667 14.8769 17.4376C14.9375 17.6194 14.9479 17.738 14.9494 17.9273C14.95 17.9886 14.9506 18.05 14.9512 18.1132C14.9515 18.1794 14.9518 18.2456 14.952 18.3138C14.9524 18.382 14.9528 18.4502 14.9531 18.5205C14.9537 18.6649 14.9541 18.8093 14.9544 18.9538C14.955 19.1743 14.9569 19.3949 14.9589 19.6154C14.9593 19.7558 14.9596 19.8961 14.9599 20.0365C14.9606 20.1023 14.9614 20.1681 14.9622 20.236C14.9612 20.5752 14.957 20.8391 14.7519 21.1251C14.5495 21.256 14.3838 21.2662 14.1457 21.2673C14.0741 21.2678 14.0026 21.2684 13.9289 21.2691C13.8518 21.269 13.7748 21.2689 13.6955 21.2689C13.6161 21.2692 13.5367 21.2694 13.455 21.2697C13.2871 21.2701 13.1193 21.2701 12.9514 21.2698C12.7367 21.2695 12.5221 21.2705 12.3075 21.272C12.1022 21.2731 11.8969 21.2729 11.6915 21.2728C11.6147 21.2734 11.5378 21.2739 11.4585 21.2745C11.3868 21.2741 11.315 21.2738 11.2411 21.2734C11.1782 21.2734 11.1152 21.2734 11.0504 21.2735C10.8472 21.2461 10.7292 21.1827 10.5644 21.0626C10.485 20.904 10.4922 20.7904 10.4898 20.6128C10.4888 20.545 10.4878 20.4772 10.4868 20.4073C10.484 20.0971 10.4814 19.7869 10.48 19.4767C10.4789 19.3129 10.4772 19.1492 10.4748 18.9855C10.4714 18.7497 10.4701 18.514 10.4691 18.2782C10.4677 18.205 10.4663 18.1318 10.4648 18.0564C10.4656 17.7651 10.4716 17.5585 10.6067 17.2977C10.9477 17.1169 11.2902 17.1444 11.6701 17.1483ZM11.6269 18.3126C11.6269 18.9107 11.6269 19.5088 11.6269 20.1251C12.3281 20.1251 13.0294 20.1251 13.7519 20.1251C13.7519 19.527 13.7519 18.9288 13.7519 18.3126C13.0506 18.3126 12.3494 18.3126 11.6269 18.3126Z" fill="#3FC1C9"/>
<path d="M22.4792 22.0454C22.552 22.0448 22.6248 22.0442 22.6999 22.0436C22.8179 22.0436 22.8179 22.0436 22.9384 22.0437C23.0192 22.0435 23.1001 22.0432 23.1833 22.0429C23.3545 22.0425 23.5257 22.0425 23.6969 22.0428C23.9158 22.0432 24.1347 22.0421 24.3536 22.0407C24.5628 22.0395 24.7721 22.0397 24.9813 22.0398C25.099 22.039 25.099 22.039 25.2191 22.0381C25.2923 22.0385 25.3655 22.0389 25.4409 22.0393C25.5373 22.0392 25.5373 22.0392 25.6356 22.0391C25.8405 22.0663 25.9584 22.1287 26.1244 22.25C26.2037 22.4086 26.1966 22.5222 26.199 22.6998C26.2 22.7676 26.201 22.8354 26.202 22.9053C26.2048 23.2155 26.2073 23.5257 26.2088 23.836C26.2098 23.9997 26.2115 24.1634 26.2139 24.3272C26.2173 24.5629 26.2187 24.7987 26.2196 25.0345C26.221 25.1076 26.2225 25.1808 26.2239 25.2562C26.2232 25.5481 26.2175 25.754 26.0811 26.015C25.7446 26.1942 25.4098 26.1683 25.0346 26.1643C24.9525 26.1645 24.8705 26.1646 24.7859 26.1648C24.6125 26.165 24.4392 26.1641 24.2658 26.1623C24.0441 26.1602 23.8224 26.1606 23.6007 26.1618C23.3885 26.1626 23.1764 26.1614 22.9643 26.1604C22.8451 26.1609 22.8451 26.1609 22.7235 26.1614C22.6495 26.1604 22.5755 26.1594 22.4992 26.1584C22.4342 26.158 22.3692 26.1576 22.3022 26.1572C22.0764 26.1164 21.9721 26.0373 21.8119 25.875C21.7384 25.6962 21.7409 25.5204 21.7393 25.3282C21.7387 25.2696 21.7381 25.2109 21.7375 25.1505C21.7373 25.0876 21.737 25.0246 21.7367 24.9598C21.7364 24.8946 21.736 24.8294 21.7356 24.7622C21.735 24.6243 21.7346 24.4864 21.7344 24.3485C21.7338 24.1382 21.7318 23.928 21.7299 23.7177C21.7295 23.5835 21.7291 23.4494 21.7289 23.3152C21.7277 23.2214 21.7277 23.2214 21.7266 23.1256C21.7277 22.7649 21.7573 22.5037 21.9369 22.1875C22.1505 22.0452 22.2282 22.0465 22.4792 22.0454ZM22.9369 23.1875C22.9369 23.7857 22.9369 24.3838 22.9369 25C23.6382 25 24.3394 25 25.0619 25C25.0619 24.4019 25.0619 23.8038 25.0619 23.1875C24.3607 23.1875 23.6594 23.1875 22.9369 23.1875Z" fill="#3FC1C9"/>
<path d="M22.4284 17.1622C22.5414 17.161 22.5414 17.161 22.6566 17.1598C22.738 17.16 22.8195 17.1601 22.9034 17.1603C22.9879 17.16 23.0723 17.1597 23.1568 17.1593C23.3338 17.1588 23.5109 17.1589 23.6879 17.1596C23.9144 17.1603 24.1409 17.159 24.3674 17.1572C24.5419 17.156 24.7163 17.1561 24.8908 17.1564C25.0148 17.1564 25.1387 17.1554 25.2627 17.1543C25.3384 17.1549 25.4141 17.1555 25.4921 17.1561C25.5918 17.1561 25.5918 17.1561 25.6935 17.1561C25.9248 17.1961 26.0276 17.2663 26.1871 17.4374C26.2264 17.5987 26.2264 17.5987 26.2265 17.7831C26.2273 17.8524 26.2281 17.9216 26.2289 17.993C26.2281 18.0675 26.2273 18.1419 26.2264 18.2187C26.2265 18.2954 26.2267 18.3722 26.2269 18.4512C26.2268 18.6135 26.226 18.7757 26.2244 18.9379C26.2223 19.1865 26.2231 19.4349 26.2243 19.6835C26.2239 19.8411 26.2233 19.9986 26.2225 20.1562C26.223 20.2679 26.223 20.2679 26.2234 20.3819C26.2224 20.4511 26.2215 20.5204 26.2204 20.5917C26.22 20.6526 26.2197 20.7135 26.2193 20.7762C26.1781 20.9823 26.0974 21.0559 25.9371 21.1874C25.7739 21.269 25.6528 21.2588 25.4701 21.26C25.3628 21.2609 25.3628 21.2609 25.2533 21.2618C25.1368 21.2622 25.1368 21.2622 25.0179 21.2626C24.9384 21.263 24.8588 21.2633 24.7769 21.2637C24.6083 21.2643 24.4397 21.2647 24.2711 21.2649C24.0554 21.2653 23.8398 21.2668 23.6242 21.2686C23.4182 21.27 23.2122 21.2701 23.0062 21.2704C22.9289 21.2712 22.8516 21.272 22.772 21.2728C22.6998 21.2726 22.6277 21.2724 22.5533 21.2722C22.49 21.2724 22.4267 21.2727 22.3614 21.2729C22.1567 21.2459 22.0399 21.1844 21.8746 21.0624C21.7038 20.7322 21.7315 20.3686 21.733 20.0055C21.7329 19.9402 21.7328 19.8749 21.7326 19.8076C21.7325 19.6699 21.7328 19.5323 21.7333 19.3946C21.734 19.184 21.7333 18.9735 21.7325 18.763C21.7326 18.629 21.7327 18.495 21.733 18.361C21.7327 18.2982 21.7325 18.2354 21.7322 18.1706C21.7326 18.1118 21.733 18.053 21.7334 17.9923C21.7335 17.9409 21.7336 17.8894 21.7337 17.8364C21.7573 17.6149 21.8252 17.445 21.9533 17.2632C22.1121 17.1526 22.236 17.1632 22.4284 17.1622ZM22.9371 18.3124C22.9371 18.9106 22.9371 19.5087 22.9371 20.1249C23.6383 20.1249 24.3396 20.1249 25.0621 20.1249C25.0621 19.5268 25.0621 18.9287 25.0621 18.3124C24.3608 18.3124 23.6596 18.3124 22.9371 18.3124Z" fill="#3FC1C9"/>
<path d="M11.2804 12.2399C11.3859 12.239 11.3859 12.239 11.4935 12.2381C11.5694 12.2379 11.6454 12.2376 11.7237 12.2373C11.8408 12.2368 11.8408 12.2368 11.9603 12.2362C12.1256 12.2357 12.2908 12.2352 12.4561 12.235C12.6675 12.2347 12.8788 12.2332 13.0902 12.2314C13.2922 12.2299 13.4943 12.2298 13.6964 12.2295C13.7721 12.2287 13.8478 12.228 13.9258 12.2272C13.9965 12.2274 14.0672 12.2275 14.1401 12.2277C14.2021 12.2275 14.2641 12.2273 14.328 12.2271C14.5355 12.2548 14.648 12.3078 14.8121 12.4375C14.9277 12.649 14.953 12.8287 14.9542 13.0674C14.9548 13.1289 14.9554 13.1905 14.9561 13.2539C14.956 13.3196 14.9559 13.3854 14.9559 13.4531C14.9561 13.5213 14.9564 13.5895 14.9567 13.6597C14.957 13.8037 14.9571 13.9476 14.9568 14.0916C14.9566 14.3117 14.9581 14.5318 14.9597 14.752C14.9598 14.8919 14.9598 15.0319 14.9598 15.1719C14.9604 15.2377 14.9609 15.3034 14.9615 15.3712C14.9589 15.78 14.922 16.0151 14.6246 16.3125C14.4641 16.3292 14.4641 16.3292 14.2586 16.3307C14.1435 16.3319 14.1435 16.3319 14.026 16.3331C13.9419 16.3333 13.8577 16.3334 13.7735 16.3335C13.6874 16.3339 13.6013 16.3343 13.5152 16.3348C13.3346 16.3355 13.1539 16.3358 12.9733 16.3357C12.742 16.3357 12.5107 16.3374 12.2793 16.3395C12.1014 16.3409 11.9235 16.3412 11.7456 16.3411C11.6604 16.3413 11.5751 16.3418 11.4898 16.3428C11.3705 16.344 11.2511 16.3435 11.1317 16.3429C11.0638 16.3431 10.9959 16.3432 10.9259 16.3434C10.7029 16.3043 10.6303 16.2459 10.4996 16.0625C10.4678 15.9013 10.4678 15.9013 10.4672 15.7168C10.4664 15.6476 10.4657 15.5783 10.4648 15.507C10.4653 15.4325 10.4659 15.358 10.4664 15.2813C10.4661 15.2045 10.4659 15.1278 10.4657 15.0487C10.4655 14.8865 10.4659 14.7243 10.467 14.562C10.4683 14.3135 10.467 14.065 10.4654 13.8164C10.4656 13.6589 10.4659 13.5013 10.4664 13.3438C10.4659 13.2693 10.4654 13.1948 10.4648 13.1181C10.4656 13.0488 10.4664 12.9796 10.4672 12.9082C10.4674 12.8474 10.4676 12.7865 10.4678 12.7238C10.5087 12.5161 10.5859 12.4429 10.7496 12.3125C10.9428 12.2481 11.0779 12.2413 11.2804 12.2399ZM11.6246 13.375C11.6246 13.9731 11.6246 14.5713 11.6246 15.1875C12.3258 15.1875 13.0271 15.1875 13.7496 15.1875C13.7496 14.5894 13.7496 13.9913 13.7496 13.375C13.0483 13.375 12.3471 13.375 11.6246 13.375Z" fill="#3FC1C9"/>
<path d="M22.5374 12.2329C22.6077 12.2323 22.678 12.2317 22.7504 12.2311C22.826 12.2311 22.9017 12.2312 22.9796 12.2312C23.0576 12.231 23.1356 12.2307 23.2159 12.2304C23.3809 12.2301 23.5457 12.23 23.7107 12.2303C23.9215 12.2307 24.1324 12.2296 24.3432 12.2282C24.5449 12.227 24.7467 12.2272 24.9484 12.2273C25.0239 12.2268 25.0994 12.2262 25.1773 12.2256C25.283 12.2262 25.283 12.2262 25.3909 12.2268C25.4527 12.2267 25.5146 12.2267 25.5783 12.2266C25.8392 12.2623 26.0033 12.3789 26.1869 12.5625C26.2036 12.7088 26.2036 12.7088 26.2051 12.894C26.2059 12.9633 26.2067 13.0326 26.2075 13.1039C26.2076 13.179 26.2078 13.2542 26.2079 13.3316C26.2085 13.447 26.2085 13.447 26.2092 13.5647C26.2098 13.7276 26.2101 13.8906 26.2101 14.0536C26.2101 14.2208 26.2109 14.388 26.2126 14.5552C26.2149 14.7958 26.2155 15.0363 26.2157 15.2769C26.2166 15.3518 26.2175 15.4266 26.2184 15.5038C26.2181 15.5734 26.2177 15.6431 26.2173 15.7148C26.2175 15.7761 26.2176 15.8373 26.2178 15.9004C26.177 16.1145 26.1132 16.1861 25.9369 16.3125C25.7614 16.3443 25.7614 16.3443 25.5568 16.3449C25.48 16.3457 25.4033 16.3465 25.3242 16.3473C25.2407 16.3468 25.1571 16.3463 25.0736 16.3457C24.9877 16.3459 24.9018 16.3461 24.8159 16.3465C24.636 16.3468 24.4561 16.3463 24.2762 16.3451C24.0458 16.3437 23.8156 16.3445 23.5852 16.346C23.4078 16.3469 23.2305 16.3466 23.0531 16.346C22.9682 16.3458 22.8833 16.346 22.7983 16.3466C22.6796 16.3472 22.5608 16.3461 22.442 16.3449C22.3745 16.3447 22.307 16.3445 22.2374 16.3443C22.0177 16.3045 21.9456 16.2387 21.8119 16.0625C21.7433 15.8815 21.7409 15.7082 21.7393 15.5157C21.7387 15.4571 21.7381 15.3984 21.7375 15.338C21.7373 15.2751 21.737 15.2121 21.7367 15.1473C21.7364 15.0821 21.736 15.0169 21.7356 14.9497C21.735 14.8118 21.7346 14.6739 21.7344 14.536C21.7338 14.3257 21.7318 14.1155 21.7299 13.9052C21.7295 13.771 21.7291 13.6369 21.7289 13.5027C21.7277 13.4089 21.7277 13.4089 21.7266 13.3131C21.7277 12.9536 21.7525 12.6879 21.9369 12.375C22.1358 12.2431 22.302 12.234 22.5374 12.2329ZM22.9369 13.375C22.9369 13.9732 22.9369 14.5713 22.9369 15.1875C23.6382 15.1875 24.3394 15.1875 25.0619 15.1875C25.0619 14.5894 25.0619 13.9913 25.0619 13.375C24.3607 13.375 23.6594 13.375 22.9369 13.375Z" fill="#3FC1C9"/>
<path d="M16.7962 17.1753C16.8715 17.1743 16.9469 17.1733 17.0245 17.1723C17.369 17.1695 17.7136 17.1669 18.0582 17.1655C18.2401 17.1647 18.422 17.1629 18.6039 17.1604C18.8237 17.1573 19.0435 17.1558 19.2633 17.1553C19.3876 17.1547 19.5118 17.1526 19.6361 17.1504C20.1827 17.1517 20.1827 17.1517 20.4571 17.2983C20.6206 17.6124 20.6054 17.9086 20.6013 18.2577C20.6015 18.3314 20.6016 18.4052 20.6018 18.4811C20.6017 18.6368 20.6009 18.7926 20.5993 18.9483C20.5972 19.1866 20.598 19.4247 20.5993 19.663C20.5988 19.8144 20.5982 19.9657 20.5974 20.1171C20.5979 20.2239 20.5979 20.2239 20.5984 20.3329C20.591 20.8264 20.591 20.8264 20.4426 21.0746C20.2338 21.2549 20.111 21.2584 19.8393 21.261C19.7301 21.2622 19.7301 21.2622 19.6187 21.2634C19.5396 21.2639 19.4606 21.2643 19.3792 21.2648C19.2982 21.2653 19.2173 21.2658 19.1339 21.2663C18.9624 21.2673 18.7908 21.2679 18.6193 21.2683C18.3999 21.269 18.1805 21.2712 17.9611 21.2737C17.7515 21.2757 17.5419 21.276 17.3323 21.2765C17.2143 21.2782 17.2143 21.2782 17.0939 21.2798C17.0205 21.2796 16.9471 21.2795 16.8715 21.2793C16.8071 21.2796 16.7427 21.28 16.6763 21.2804C16.4533 21.2419 16.3489 21.1547 16.187 20.9999C16.1089 20.8437 16.1158 20.7364 16.1145 20.5616C16.1139 20.4963 16.1133 20.431 16.1126 20.3637C16.1124 20.2929 16.1121 20.222 16.1118 20.1491C16.1115 20.0765 16.1111 20.0039 16.1108 19.929C16.1102 19.7752 16.1098 19.6213 16.1095 19.4674C16.1089 19.232 16.107 18.9966 16.105 18.7613C16.1046 18.6119 16.1043 18.4625 16.104 18.3131C16.1033 18.2427 16.1025 18.1722 16.1017 18.0996C16.1019 18.0337 16.1021 17.9679 16.1023 17.9C16.102 17.8422 16.1018 17.7844 16.1016 17.7249C16.1294 17.5281 16.1965 17.4102 16.312 17.2499C16.479 17.1664 16.6092 17.1776 16.7962 17.1753ZM17.2495 18.3124C17.2495 18.9105 17.2495 19.5086 17.2495 20.1249C17.9714 20.1249 18.6933 20.1249 19.437 20.1249C19.437 19.5268 19.437 18.9286 19.437 18.3124C18.7152 18.3124 17.9933 18.3124 17.2495 18.3124Z" fill="#3FC1C9"/>
<path d="M16.8464 22.0516C16.9192 22.0508 16.992 22.05 17.067 22.0492C17.1461 22.0488 17.2251 22.0483 17.3065 22.0478C17.4279 22.0471 17.4279 22.0471 17.5518 22.0463C17.7233 22.0454 17.8949 22.0447 18.0664 22.0443C18.2858 22.0436 18.5052 22.0414 18.7246 22.0389C18.9342 22.0369 19.1438 22.0366 19.3534 22.0361C19.4714 22.0345 19.4714 22.0345 19.5918 22.0328C19.6652 22.033 19.7386 22.0331 19.8142 22.0333C19.8786 22.033 19.9431 22.0326 20.0094 22.0322C20.2324 22.0707 20.3368 22.1579 20.4987 22.3127C20.5773 22.4699 20.5708 22.5808 20.5732 22.7568C20.5742 22.8233 20.5752 22.8899 20.5763 22.9584C20.579 23.2629 20.5816 23.5674 20.5831 23.8719C20.5841 24.0326 20.5858 24.1933 20.5882 24.354C20.5916 24.5855 20.593 24.8168 20.5939 25.0483C20.5953 25.1201 20.5967 25.1919 20.5982 25.2659C20.5974 25.5542 20.5905 25.7564 20.4564 26.0143C20.1156 26.1963 19.7731 26.1684 19.393 26.1645C19.3085 26.1646 19.2241 26.1647 19.1397 26.165C18.9631 26.1652 18.7865 26.1642 18.61 26.1625C18.3839 26.1604 18.1579 26.1608 17.9318 26.1619C17.7576 26.1626 17.5834 26.162 17.4092 26.1611C17.2854 26.1606 17.1616 26.1611 17.0378 26.1616C16.9625 26.1606 16.8872 26.1596 16.8096 26.1586C16.7102 26.158 16.7102 26.158 16.6089 26.1574C16.3941 26.1174 16.3216 26.0429 16.1862 25.8752C16.1082 25.7192 16.1145 25.6115 16.1126 25.4369C16.1118 25.3716 16.111 25.3063 16.1102 25.239C16.1097 25.1682 16.1093 25.0974 16.1088 25.0244C16.1083 24.9518 16.1078 24.8792 16.1073 24.8044C16.1064 24.6505 16.1057 24.4966 16.1052 24.3427C16.1042 24.1073 16.1014 23.8719 16.0987 23.6366C16.098 23.4872 16.0975 23.3378 16.0971 23.1884C16.096 23.118 16.0949 23.0475 16.0938 22.975C16.0951 22.4856 16.0951 22.4856 16.2425 22.2384C16.4517 22.0578 16.5742 22.0543 16.8464 22.0516ZM17.2487 23.1877C17.2487 23.7858 17.2487 24.384 17.2487 25.0002C17.9706 25.0002 18.6924 25.0002 19.4362 25.0002C19.4362 24.4021 19.4362 23.804 19.4362 23.1877C18.7143 23.1877 17.9924 23.1877 17.2487 23.1877Z" fill="#3FC1C9"/>
<path d="M5.5425 22.0461C5.61551 22.0457 5.68851 22.0453 5.76373 22.0449C5.84264 22.0452 5.92155 22.0454 6.00285 22.0457C6.08384 22.0456 6.16483 22.0454 6.24827 22.0453C6.4197 22.0451 6.59113 22.0454 6.76257 22.046C6.98205 22.0467 7.20151 22.0463 7.42099 22.0455C7.63057 22.045 7.84014 22.0454 8.04972 22.0457C8.1285 22.0454 8.20728 22.0452 8.28845 22.0449C8.36165 22.0453 8.43486 22.0457 8.51028 22.0461C8.57466 22.0462 8.63905 22.0463 8.70539 22.0464C8.8797 22.0628 8.97914 22.0908 9.12418 22.1873C9.26277 22.3952 9.26563 22.464 9.26833 22.7067C9.26933 22.7745 9.27033 22.8423 9.27136 22.9121C9.2717 22.9854 9.27203 23.0586 9.27238 23.1341C9.27294 23.2094 9.27351 23.2847 9.27409 23.3622C9.27499 23.5216 9.27555 23.681 9.27578 23.8404C9.27652 24.0843 9.2796 24.3282 9.28275 24.5721C9.28334 24.7268 9.2838 24.8816 9.2841 25.0364C9.28532 25.1094 9.28654 25.1824 9.2878 25.2576C9.28618 25.5482 9.27934 25.7543 9.1441 26.0143C8.80408 26.1954 8.46241 26.1705 8.08317 26.1685C7.99889 26.1689 7.9146 26.1693 7.83032 26.1698C7.654 26.1706 7.47772 26.1702 7.3014 26.169C7.07585 26.1675 6.85046 26.1692 6.62492 26.1718C6.45098 26.1734 6.27706 26.1732 6.10311 26.1725C5.97969 26.1724 5.85626 26.1738 5.73285 26.1753C5.10994 26.1672 5.10994 26.1672 4.91691 25.9804C4.73915 25.6896 4.76963 25.3423 4.77457 25.0132C4.77457 24.9424 4.77457 24.8715 4.77457 24.7985C4.7749 24.649 4.776 24.4996 4.77781 24.3501C4.78043 24.1214 4.78038 23.8929 4.77995 23.6642C4.7806 23.5188 4.78141 23.3734 4.78239 23.2281C4.7824 23.1598 4.78241 23.0915 4.78243 23.0211C4.79172 22.4246 4.79172 22.4246 4.99918 22.1873C5.21323 22.0446 5.29087 22.0465 5.5425 22.0461ZM5.93668 23.1873C5.93668 23.7854 5.93668 24.3835 5.93668 24.9998C6.65856 24.9998 7.38043 24.9998 8.12418 24.9998C8.12418 24.4017 8.12418 23.8035 8.12418 23.1873C7.40231 23.1873 6.68043 23.1873 5.93668 23.1873Z" fill="#3FC1C9"/>
<path d="M16.9045 12.2399C17.01 12.239 17.01 12.239 17.1176 12.2381C17.1935 12.2379 17.2695 12.2376 17.3478 12.2373C17.4649 12.2368 17.4649 12.2368 17.5844 12.2362C17.7497 12.2357 17.9149 12.2352 18.0802 12.235C18.2916 12.2347 18.5029 12.2332 18.7142 12.2314C18.9163 12.2299 19.1184 12.2298 19.3205 12.2295C19.3962 12.2287 19.4719 12.228 19.5499 12.2272C19.6206 12.2274 19.6913 12.2275 19.7641 12.2277C19.8262 12.2275 19.8882 12.2273 19.9521 12.2271C20.156 12.2543 20.2712 12.3162 20.4362 12.4375C20.5739 12.6441 20.5776 12.7105 20.5803 12.9512C20.5813 13.0177 20.5823 13.0843 20.5834 13.1528C20.5837 13.2247 20.584 13.2966 20.5844 13.3706C20.5849 13.4445 20.5855 13.5184 20.5861 13.5946C20.587 13.751 20.5875 13.9075 20.5878 14.064C20.5885 14.3033 20.5916 14.5426 20.5947 14.782C20.5953 14.9339 20.5958 15.0859 20.5961 15.2378C20.5973 15.3094 20.5985 15.3811 20.5998 15.4549C20.5982 15.7425 20.5902 15.9443 20.4562 16.2016C20.1154 16.3837 19.7731 16.3544 19.393 16.3496C19.3085 16.3495 19.2241 16.3495 19.1397 16.3496C18.9631 16.3495 18.7865 16.3484 18.61 16.3464C18.3839 16.3439 18.1579 16.3436 17.9318 16.3441C17.7576 16.3443 17.5834 16.3435 17.4092 16.3425C17.2854 16.3418 17.1616 16.3418 17.0378 16.3418C16.9625 16.3408 16.8872 16.3398 16.8096 16.3388C16.7433 16.3382 16.6771 16.3377 16.6089 16.3372C16.4123 16.3091 16.3268 16.2634 16.1862 16.125C16.124 15.9386 16.1147 15.812 16.1126 15.6171C16.1118 15.5518 16.111 15.4865 16.1102 15.4192C16.1097 15.3487 16.1093 15.2782 16.1088 15.2056C16.1083 15.1331 16.1078 15.0605 16.1073 14.9858C16.1064 14.8323 16.1057 14.6788 16.1052 14.5253C16.1042 14.2904 16.1014 14.0557 16.0987 13.8208C16.098 13.6717 16.0975 13.5226 16.0971 13.3736C16.096 13.3033 16.0949 13.233 16.0938 13.1607C16.0951 12.6745 16.0951 12.6745 16.2386 12.4259C16.454 12.2451 16.6332 12.2418 16.9045 12.2399ZM17.2487 13.375C17.2487 13.9731 17.2487 14.5713 17.2487 15.1875C17.9706 15.1875 18.6924 15.1875 19.4362 15.1875C19.4362 14.5894 19.4362 13.9913 19.4362 13.375C18.7143 13.375 17.9924 13.375 17.2487 13.375Z" fill="#3FC1C9"/>
<path d="M5.49144 17.1684C5.6044 17.1669 5.6044 17.1669 5.71964 17.1654C5.80109 17.165 5.88253 17.1647 5.96645 17.1643C6.05091 17.1638 6.13537 17.1632 6.21983 17.1626C6.39689 17.1616 6.57394 17.1611 6.75099 17.1609C6.9775 17.1606 7.20394 17.1583 7.43042 17.1554C7.6049 17.1535 7.77936 17.1531 7.95385 17.153C8.07783 17.1526 8.2018 17.1508 8.32577 17.1489C8.87064 17.1517 8.87064 17.1517 9.14505 17.2986C9.30883 17.6125 9.29351 17.9088 9.28945 18.2578C9.2896 18.3316 9.28975 18.4053 9.2899 18.4813C9.28984 18.637 9.28901 18.7927 9.28745 18.9484C9.2853 19.1867 9.28616 19.4248 9.28737 19.6631C9.28694 19.8145 9.28634 19.9659 9.28554 20.1172C9.28601 20.2241 9.28601 20.2241 9.28648 20.3331C9.27914 20.8265 9.27914 20.8265 9.13074 21.0747C8.92193 21.2551 8.79914 21.2585 8.52741 21.2611C8.4182 21.2623 8.4182 21.2623 8.30678 21.2635C8.22774 21.264 8.14871 21.2645 8.06728 21.2649C7.98635 21.2654 7.90542 21.2659 7.82204 21.2665C7.65049 21.2674 7.47895 21.268 7.30741 21.2685C7.08799 21.2692 6.86861 21.2713 6.6492 21.2738C6.4396 21.2758 6.23001 21.2761 6.0204 21.2766C5.90242 21.2783 5.90242 21.2783 5.78206 21.28C5.70866 21.2798 5.63526 21.2796 5.55963 21.2794C5.4952 21.2798 5.43076 21.2801 5.36437 21.2805C5.13995 21.2418 5.03598 21.1585 4.87514 21C4.81317 20.8141 4.80438 20.6909 4.80356 20.4969C4.80316 20.4326 4.80276 20.3684 4.80235 20.3022C4.80228 20.2329 4.80221 20.1635 4.80214 20.0921C4.80193 20.0208 4.80173 19.9495 4.80151 19.8761C4.8012 19.7252 4.80105 19.5744 4.80106 19.4236C4.80092 19.1926 4.79979 18.9616 4.7986 18.7306C4.79842 18.5842 4.79829 18.4377 4.79824 18.2913C4.79779 18.2221 4.79734 18.1529 4.79688 18.0816C4.79716 17.9849 4.79716 17.9849 4.79746 17.8863C4.79737 17.8297 4.79728 17.7731 4.79719 17.7147C4.81398 17.5493 4.84721 17.4515 4.93764 17.3125C5.15321 17.1688 5.23722 17.1709 5.49144 17.1684ZM5.93764 18.3125C5.93764 18.9107 5.93764 19.5088 5.93764 20.125C6.65952 20.125 7.38139 20.125 8.12514 20.125C8.12514 19.5269 8.12514 18.9288 8.12514 18.3125C7.40327 18.3125 6.68139 18.3125 5.93764 18.3125Z" fill="#3FC1C9"/>
<path d="M5.59998 12.2329C5.67028 12.2323 5.74057 12.2317 5.813 12.2311C5.88865 12.2311 5.96431 12.2312 6.04226 12.2312C6.12023 12.231 6.19821 12.2307 6.27855 12.2304C6.44347 12.2301 6.60837 12.23 6.77329 12.2303C6.98415 12.2307 7.19498 12.2296 7.40584 12.2282C7.60756 12.227 7.80928 12.2272 8.01101 12.2273C8.08653 12.2268 8.16206 12.2262 8.23988 12.2256C8.34562 12.2262 8.34562 12.2262 8.4535 12.2268C8.51533 12.2267 8.57717 12.2267 8.64089 12.2266C8.84424 12.2544 8.95982 12.3166 9.12453 12.4375C9.26225 12.6441 9.26595 12.7105 9.26868 12.9512C9.26968 13.0177 9.27068 13.0843 9.27171 13.1528C9.27204 13.2247 9.27238 13.2966 9.27272 13.3706C9.27329 13.4445 9.27385 13.5185 9.27443 13.5946C9.27534 13.7511 9.2759 13.9075 9.27613 14.064C9.27687 14.3034 9.27994 14.5426 9.2831 14.782C9.28369 14.934 9.28414 15.0859 9.28444 15.2378C9.28566 15.3095 9.28688 15.3811 9.28814 15.4549C9.28651 15.7424 9.27859 15.9443 9.14458 16.2015C8.80392 16.3838 8.46144 16.3557 8.08132 16.3518C7.99689 16.3519 7.91245 16.352 7.82802 16.3523C7.65143 16.3525 7.47489 16.3516 7.29831 16.3498C7.07223 16.3477 6.84623 16.3481 6.62014 16.3493C6.44593 16.3499 6.27174 16.3494 6.09753 16.3484C5.97372 16.3479 5.84992 16.3484 5.72612 16.3489C5.65081 16.3479 5.57551 16.3469 5.49793 16.3459C5.39858 16.3453 5.39858 16.3453 5.29723 16.3447C5.08244 16.3047 5.00994 16.2302 4.87453 16.0625C4.79713 15.9077 4.80327 15.8031 4.80196 15.63C4.80136 15.5659 4.80076 15.5019 4.80014 15.4359C4.79987 15.3664 4.79961 15.2969 4.79934 15.2254C4.79898 15.1542 4.79862 15.0829 4.79826 15.0096C4.79766 14.8586 4.79726 14.7077 4.79702 14.5567C4.79641 14.3259 4.79447 14.095 4.7925 13.8642C4.79209 13.7176 4.79176 13.5711 4.79152 13.4246C4.79075 13.3555 4.78998 13.2864 4.78918 13.2152C4.78937 13.1506 4.78956 13.086 4.78975 13.0194C4.78953 12.9627 4.7893 12.906 4.78906 12.8477C4.81756 12.649 4.87909 12.5349 4.99953 12.375C5.19445 12.2376 5.36532 12.234 5.59998 12.2329ZM5.93703 13.375C5.93703 13.9732 5.93703 14.5713 5.93703 15.1875C6.65891 15.1875 7.38078 15.1875 8.12453 15.1875C8.12453 14.5894 8.12453 13.9913 8.12453 13.375C7.40266 13.375 6.68078 13.375 5.93703 13.375Z" fill="#3FC1C9"/>
</svg>
