<svg width="17" height="16" viewBox="0 0 17 16" fill="none" xmlns="http://www.w3.org/2000/svg">
<path d="M10.8088 10.6987C11.3327 10.8733 11.899 10.5902 12.0737 10.0662C12.2483 9.54228 11.9652 8.97596 11.4412 8.80132L10.8088 10.6987ZM8.5 8.875H7.5C7.5 9.30543 7.77543 9.68757 8.18377 9.82368L8.5 8.875ZM9.5 5.21623C9.5 4.66395 9.05228 4.21623 8.5 4.21623C7.94772 4.21623 7.5 4.66395 7.5 5.21623H9.5ZM11.4412 8.80132L8.81623 7.92632L8.18377 9.82368L10.8088 10.6987L11.4412 8.80132ZM9.5 8.875V5.21623H7.5V8.875H9.5ZM14.5 8C14.5 11.3137 11.8137 14 8.5 14V16C12.9183 16 16.5 12.4183 16.5 8H14.5ZM8.5 14C5.18629 14 2.5 11.3137 2.5 8H0.5C0.5 12.4183 4.08172 16 8.5 16V14ZM2.5 8C2.5 4.68629 5.18629 2 8.5 2V0C4.08172 0 0.5 3.58172 0.5 8H2.5ZM8.5 2C11.8137 2 14.5 4.68629 14.5 8H16.5C16.5 3.58172 12.9183 0 8.5 0V2Z" fill="#106FAE"/>
</svg>
