<?xml version="1.0" encoding="UTF-8" standalone="no"?>
<svg
   width="17"
   height="21"
   viewBox="0 0 17 21"
   fill="none"
   version="1.1"
   id="svg2"
   sodipodi:docname="location.svg"
   inkscape:version="1.3.2 (091e20e, 2023-11-25, custom)"
   xmlns:inkscape="http://www.inkscape.org/namespaces/inkscape"
   xmlns:sodipodi="http://sodipodi.sourceforge.net/DTD/sodipodi-0.dtd"
   xmlns="http://www.w3.org/2000/svg"
   xmlns:svg="http://www.w3.org/2000/svg">
  <defs
     id="defs2" />
  <sodipodi:namedview
     id="namedview2"
     pagecolor="#ffffff"
     bordercolor="#cccccc"
     borderopacity="1"
     inkscape:showpageshadow="0"
     inkscape:pageopacity="1"
     inkscape:pagecheckerboard="0"
     inkscape:deskcolor="#d1d1d1"
     inkscape:zoom="56.238095"
     inkscape:cx="8.4995766"
     inkscape:cy="10.5"
     inkscape:window-width="3440"
     inkscape:window-height="1377"
     inkscape:window-x="-8"
     inkscape:window-y="-8"
     inkscape:window-maximized="1"
     inkscape:current-layer="svg2" />
  <path
     style="color:#000000;fill:#106fae;-inkscape-stroke:none"
     d="m 8.5,0.0546875 c -4.4064267,0 -8,3.5935733 -8,8 0,2.8333205 1.9201371,5.6202805 3.7265625,7.8281255 1.8064254,2.207844 3.609375,3.808593 3.609375,3.808593 L 8.5,20.283203 9.1640625,19.691406 c 0,0 1.8029495,-1.600749 3.6093755,-3.808593 C 14.579863,13.674968 16.5,10.888008 16.5,8.0546875 c 0,-4.406425 -3.593565,-8 -8,-8 z m 0,2 c 3.325557,0 6,2.6744527 6,6 0,1.8333153 -1.579866,4.4925885 -3.273437,6.5625005 C 9.8646827,16.2817 8.9820434,17.049679 8.5,17.496094 8.0179566,17.049679 7.1353173,16.2817 5.7734375,14.617188 4.0798664,12.547276 2.5,9.8880028 2.5,8.0546875 c 0,-3.3255455 2.6744545,-6 6,-6 z"
     id="path1" />
  <path
     style="color:#000000;fill:#106fae;-inkscape-stroke:none"
     d="m 8.5,4.5273437 c -1.7754078,0 -3.2363281,1.460915 -3.2363281,3.2363282 C 5.2636719,9.5390851 6.7246192,11 8.5,11 c 1.775381,0 3.236328,-1.4609203 3.236328,-3.2363281 0,-1.7754078 -1.46092,-3.2363282 -3.236328,-3.2363282 z m 0,2 c 0.6945297,0 1.2363281,0.5417984 1.2363281,1.2363282 C 9.7363281,8.4582016 9.1945567,9 8.5,9 7.8054433,9 7.2636719,8.4581962 7.2636719,7.7636719 7.2636719,7.0691475 7.8054703,6.5273437 8.5,6.5273437 Z"
     id="path2" />
</svg>
