<?xml version="1.0" encoding="UTF-8" standalone="no"?>
<svg
   width="17"
   height="18"
   viewBox="0 0 17 18"
   fill="none"
   version="1.1"
   id="svg1"
   sodipodi:docname="phone.svg"
   inkscape:version="1.3.2 (091e20e, 2023-11-25, custom)"
   xmlns:inkscape="http://www.inkscape.org/namespaces/inkscape"
   xmlns:sodipodi="http://sodipodi.sourceforge.net/DTD/sodipodi-0.dtd"
   xmlns="http://www.w3.org/2000/svg"
   xmlns:svg="http://www.w3.org/2000/svg">
  <defs
     id="defs1" />
  <sodipodi:namedview
     id="namedview1"
     pagecolor="#ffffff"
     bordercolor="#cccccc"
     borderopacity="1"
     inkscape:showpageshadow="0"
     inkscape:pageopacity="1"
     inkscape:pagecheckerboard="0"
     inkscape:deskcolor="#d1d1d1"
     inkscape:zoom="65.611111"
     inkscape:cx="8.5046571"
     inkscape:cy="9"
     inkscape:window-width="3440"
     inkscape:window-height="1377"
     inkscape:window-x="-8"
     inkscape:window-y="-8"
     inkscape:window-maximized="1"
     inkscape:current-layer="svg1" />
  <path
     style="color:#000000;fill:#106fae;stroke-linecap:round;stroke-linejoin:round;-inkscape-stroke:none"
     d="m 3.7929688,0.921875 c -0.5104399,0 -0.9296449,0.2417434 -1.2324219,0.5253906 A 1.0001,1.0001 0 0 0 2.5371094,1.46875 L 1.3046875,2.6992188 C 0.85688912,3.1461066 0.56951929,3.7632348 0.515625,4.3925781 a 1.0001,1.0001 0 0 0 0,0.00391 c -0.0689222,0.8392085 0.0980666,1.706308 0.46484375,2.6875 C 1.5699617,8.6735209 2.4638778,10.154244 3.75,11.701172 a 1.0001,1.0001 0 0 0 0.00391,0.0039 c 1.5801892,1.882491 3.4929493,3.37596 5.6660156,4.425781 a 1.0001,1.0001 0 0 0 0.00391,0.002 c 0.7855449,0.374945 1.8921509,0.856576 3.1835939,0.939454 0.101039,0.0067 0.178222,0.0059 0.232422,0.0059 0.781252,0 1.562208,-0.327714 2.08789,-0.888672 a 1.0001,1.0001 0 0 0 0.0332,-0.03516 c 0.08134,-0.09557 1.076171,-1.097656 1.076171,-1.097656 a 1.0001,1.0001 0 0 0 0.199219,-0.277344 c 0,0 0.146474,-0.287593 0.220703,-0.671875 0.07406,-0.383416 0.126864,-1.057936 -0.417969,-1.599609 l -0.002,-0.0039 -1.986328,-1.980468 0.02149,0.02148 c -0.223318,-0.244235 -0.61515,-0.5878907 -1.257813,-0.5878907 -0.660725,-1e-7 -1.038728,0.3496227 -1.251953,0.5624997 l -0.603516,0.601563 c -0.08802,-0.04735 -0.182802,-0.100288 -0.259765,-0.138672 h -0.002 c -0.144077,-0.07195 -0.262997,-0.132874 -0.355469,-0.191406 a 1.0001,1.0001 0 0 0 0,-0.002 C 9.283829,10.121387 8.3153349,9.2473833 7.375,8.0917969 7.374353,8.0910017 7.3736939,8.0906392 7.3730469,8.0898438 6.9059704,7.4969516 6.6432912,7.0402901 6.4335937,6.5683594 c 0.00666,-0.00538 0.00574,-0.00558 0.015625,-0.013672 C 6.5416759,6.4789716 6.5750366,6.4365354 6.6953125,6.3125 l 0.021484,-0.019531 C 6.8287575,6.1842298 6.9270586,6.0805639 7.0175781,5.9902344 a 1.0001,1.0001 0 0 0 0.00195,0 C 7.3201571,5.6902206 7.5996094,5.2556777 7.5996094,4.7246094 7.5996094,4.193541 7.3201571,3.7570451 7.0195312,3.4570313 L 6.0429687,2.4824219 C 5.9202667,2.3561446 5.8037407,2.2424501 5.6992187,2.1347656 5.4837358,1.9126759 5.2697368,1.6949301 5.0390625,1.4785156 v -0.00195 c -0.00377,-0.00353 -0.00794,-0.00623 -0.011719,-0.00977 C 4.8158345,1.2557266 4.4219564,0.921875 3.7929688,0.921875 Z m 0.15625,1.9628906 -0.021484,0.023437 c 7.379e-4,-6.913e-4 -0.00265,6.464e-4 -0.00195,0 z M 3.7851563,3.0488281 c 0.1563206,0.1508168 0.3088023,0.3035989 0.4785156,0.4785157 0.1195578,0.1231753 0.2351323,0.2378268 0.34375,0.3496093 a 1.0001,1.0001 0 0 0 0.011719,0.011719 L 5.4570312,4.7246094 C 5.4073823,4.7745929 5.3507784,4.8305177 5.3066406,4.8730469 a 1.0001,1.0001 0 0 0 -0.019531,0.021484 C 5.1331811,5.0518058 5.1166761,5.0610138 5.1816406,5.0078125 5.2466051,4.9546112 5.1231073,5.05083 4.9550781,5.2011719 a 1.0001,1.0001 0 0 0 -0.039063,0.037109 c 0.016035,-0.015991 -0.03566,0.050765 -0.029297,0.041016 C 4.6041978,5.5694901 4.4150165,5.9538445 4.375,6.2988281 c -0.040844,0.3521156 0.038441,0.6308472 0.087891,0.7871094 a 1.0001,1.0001 0 0 0 0.00391,0.015625 c 0.00339,0.010119 0.00786,0.019729 0.011719,0.03125 a 1.0001,1.0001 0 0 0 0.023437,0.066406 c 0.2986076,0.7219251 0.7208146,1.394386 1.3066406,2.1367188 a 1.0001,1.0001 0 0 0 0.013672,0.015625 c 6.243e-4,7.675e-4 0.00133,0.00119 0.00195,0.00195 1.0533178,1.2944914 2.1867612,2.3312594 3.4472657,3.1269534 0.2035127,0.128817 0.388917,0.218972 0.5332031,0.291015 0.1301303,0.06492 0.2323865,0.117434 0.2792965,0.146485 a 1.0001,1.0001 0 0 0 0.08008,0.04492 c -0.105765,-0.05252 -0.08294,-0.03736 0.04297,0.02539 0.234689,0.117058 0.52389,0.195313 0.804688,0.195313 0.716888,0 1.193604,-0.48091 1.253906,-0.541016 a 1.0001,1.0001 0 0 0 0.002,0 l 0.53711,-0.537109 1.673828,1.667969 c -0.0037,0.01274 -0.0041,0.01586 -0.0078,0.02734 -0.177187,0.170687 -0.717149,0.685302 -1.033203,1.056641 l 0.03125,-0.03516 c -0.204517,0.218241 -0.28256,0.255859 -0.628906,0.255859 -0.0542,0 -0.09205,5.01e-4 -0.09961,0 a 1.0001,1.0001 0 0 0 -0.0039,-0.002 c -0.852982,-0.05443 -1.737536,-0.407568 -2.447265,-0.746094 l -0.0039,-0.002 C 8.3684277,13.401457 6.6894608,12.090927 5.2851562,10.417969 4.1086117,9.0020293 3.3569432,7.7408712 2.8554688,6.3886719 a 1.0001,1.0001 0 0 0 -0.00195,-0.00195 C 2.5491,5.5733438 2.4703652,5.0402927 2.5097656,4.5605469 2.5283434,4.3500416 2.5659568,4.2657678 2.7167969,4.1152344 Z m 2.7128906,3.3632813 c -0.088269,0.176293 -0.04994,0.089152 -0.085937,0.1210937 -1.915e-4,-4.39e-4 1.913e-4,-0.00151 0,-0.00195 a 1.0001,1.0001 0 0 0 0.085937,-0.1191406 z m 4.5761721,4.7714846 0.02539,0.01367 c 2.41e-4,1.2e-4 -0.0021,-9.7e-5 -0.002,0 0.05946,0.02952 -0.0097,-0.0058 -0.02344,-0.01367 z"
     id="path1" />
</svg>
