<?xml version="1.0" encoding="UTF-8" standalone="no"?>
<svg
   width="22"
   height="12"
   viewBox="0 0 22 12"
   fill="none"
   version="1.1"
   id="svg2"
   sodipodi:docname="resize.svg"
   inkscape:version="1.3.2 (091e20e, 2023-11-25, custom)"
   xmlns:inkscape="http://www.inkscape.org/namespaces/inkscape"
   xmlns:sodipodi="http://sodipodi.sourceforge.net/DTD/sodipodi-0.dtd"
   xmlns="http://www.w3.org/2000/svg"
   xmlns:svg="http://www.w3.org/2000/svg">
  <defs
     id="defs2" />
  <sodipodi:namedview
     id="namedview2"
     pagecolor="#ffffff"
     bordercolor="#cccccc"
     borderopacity="1"
     inkscape:showpageshadow="0"
     inkscape:pageopacity="1"
     inkscape:pagecheckerboard="0"
     inkscape:deskcolor="#d1d1d1"
     inkscape:zoom="98.416667"
     inkscape:cx="11.004234"
     inkscape:cy="6"
     inkscape:window-width="3440"
     inkscape:window-height="1377"
     inkscape:window-x="-8"
     inkscape:window-y="-8"
     inkscape:window-maximized="1"
     inkscape:current-layer="svg2" />
  <path
     style="color:#000000;fill:#ffffff;stroke-linecap:round;stroke-linejoin:round;-inkscape-stroke:none"
     d="M 6,0.25 A 0.75,0.75 0 0 0 5.46875,0.46875 l -5,5 a 0.750075,0.750075 0 0 0 0,1.0625 l 5,5 a 0.75,0.75 0 0 0 1.0625,0 0.75,0.75 0 0 0 0,-1.0625 L 2.0625,6 6.53125,1.53125 a 0.75,0.75 0 0 0 0,-1.0625 A 0.75,0.75 0 0 0 6,0.25 Z"
     id="path1" />
  <path
     style="color:#000000;fill:#ffffff;stroke-linecap:round;stroke-linejoin:round;-inkscape-stroke:none"
     d="m 16,0.25 a 0.75,0.75 0 0 0 -0.53125,0.21875 0.75,0.75 0 0 0 0,1.0625 L 19.9375,6 15.46875,10.46875 a 0.75,0.75 0 0 0 0,1.0625 0.75,0.75 0 0 0 1.0625,0 l 5,-5 a 0.750075,0.750075 0 0 0 0,-1.0625 l -5,-5 A 0.75,0.75 0 0 0 16,0.25 Z"
     id="path2" />
</svg>
