<?xml version="1.0" encoding="UTF-8" standalone="no"?>
<svg
   width="26"
   height="26"
   viewBox="0 0 26 26"
   fill="none"
   version="1.1"
   id="svg1"
   sodipodi:docname="search.svg"
   inkscape:version="1.3.2 (091e20e, 2023-11-25, custom)"
   xmlns:inkscape="http://www.inkscape.org/namespaces/inkscape"
   xmlns:sodipodi="http://sodipodi.sourceforge.net/DTD/sodipodi-0.dtd"
   xmlns="http://www.w3.org/2000/svg"
   xmlns:svg="http://www.w3.org/2000/svg">
  <defs
     id="defs1" />
  <sodipodi:namedview
     id="namedview1"
     pagecolor="#ffffff"
     bordercolor="#cccccc"
     borderopacity="1"
     inkscape:showpageshadow="0"
     inkscape:pageopacity="1"
     inkscape:pagecheckerboard="0"
     inkscape:deskcolor="#d1d1d1"
     inkscape:zoom="45.423077"
     inkscape:cx="12.988992"
     inkscape:cy="13"
     inkscape:window-width="3440"
     inkscape:window-height="1377"
     inkscape:window-x="-8"
     inkscape:window-y="-8"
     inkscape:window-maximized="1"
     inkscape:current-layer="svg1" />
  <path
     style="color:#000000;fill:#106fae;stroke-linecap:round;stroke-linejoin:round;-inkscape-stroke:none"
     d="M 12.332031,0.25 C 5.6673984,0.25 0.25,5.6857579 0.25,12.373047 c 0,6.683078 5.4178292,12.11914 12.083984,12.11914 3.074752,0 5.812876,-1.247353 7.947266,-3.15039 l 4.1875,4.189453 a 0.75,0.75 0 0 0 1.0625,0 0.75,0.75 0 0 0 0,-1.0625 L 21.328125,20.267578 C 23.188474,18.13482 24.416016,15.42172 24.416016,12.371094 24.416016,5.6866119 18.998186,0.25 12.332031,0.25 Z m 0,1.5 c 5.852833,0 10.583985,4.7445882 10.583985,10.621094 0,5.876505 -4.730797,10.621093 -10.582032,10.621093 C 6.4811521,22.992187 1.75,18.247956 1.75,12.373047 1.75,6.4933484 6.4806766,1.75 12.332031,1.75 Z"
     id="path1" />
</svg>
