<?xml version="1.0" encoding="UTF-8" standalone="no"?>
<svg
   width="25"
   height="25"
   viewBox="0 0 25 25"
   fill="none"
   version="1.1"
   id="svg2"
   sodipodi:docname="star-outline.svg"
   inkscape:version="1.3.2 (091e20e, 2023-11-25, custom)"
   xmlns:inkscape="http://www.inkscape.org/namespaces/inkscape"
   xmlns:sodipodi="http://sodipodi.sourceforge.net/DTD/sodipodi-0.dtd"
   xmlns="http://www.w3.org/2000/svg"
   xmlns:svg="http://www.w3.org/2000/svg">
  <defs
     id="defs2" />
  <sodipodi:namedview
     id="namedview2"
     pagecolor="#ffffff"
     bordercolor="#cccccc"
     borderopacity="1"
     inkscape:showpageshadow="0"
     inkscape:pageopacity="1"
     inkscape:pagecheckerboard="0"
     inkscape:deskcolor="#d1d1d1"
     inkscape:zoom="47.24"
     inkscape:cx="12.489416"
     inkscape:cy="12.5"
     inkscape:window-width="3440"
     inkscape:window-height="1377"
     inkscape:window-x="-8"
     inkscape:window-y="-8"
     inkscape:window-maximized="1"
     inkscape:current-layer="svg2" />
  <mask
     id="path-1-inside-1_1719_1045"
     fill="white">
    <path
       d="M13.4403 2.33164C13.7454 2.56654 13.9526 2.86767 14.1183 3.21054C14.1362 3.24641 14.154 3.28228 14.1723 3.31924C14.2289 3.43334 14.2847 3.54776 14.3405 3.6622C14.377 3.73585 14.4134 3.80947 14.4499 3.88308C14.6324 4.25217 14.8113 4.62294 14.9882 4.99475C15.3172 5.68618 15.6598 6.37038 16.0051 7.05377C16.0798 7.20166 16.1542 7.34967 16.2286 7.49769C16.2515 7.5428 16.2744 7.5879 16.298 7.63437C16.3187 7.67571 16.3395 7.71704 16.3608 7.75963C16.3792 7.79593 16.3975 7.83223 16.4164 7.86962C16.4554 7.95908 16.4554 7.95908 16.4554 8.05674C16.5315 8.0646 16.5315 8.0646 16.6091 8.07263C17.2184 8.13712 17.824 8.22126 18.4301 8.31003C18.5329 8.32499 18.6357 8.33995 18.7384 8.35489C18.952 8.38598 19.1656 8.41718 19.3792 8.44846C19.652 8.4884 19.9249 8.52806 20.1977 8.56764C20.4093 8.59835 20.6208 8.62922 20.8322 8.66013C20.9329 8.67482 21.0335 8.68946 21.1341 8.70405C21.2746 8.72444 21.4151 8.74504 21.5556 8.7657C21.6169 8.77453 21.6169 8.77453 21.6794 8.78354C22.2643 8.8702 22.8004 8.98218 23.1817 9.4779C23.4523 9.88933 23.537 10.3202 23.4611 10.8092C23.2986 11.4422 22.769 11.8587 22.3187 12.3073C22.2383 12.3874 22.1581 12.4678 22.078 12.5483C22.0256 12.6006 21.9733 12.6529 21.9209 12.7051C21.8976 12.7285 21.8743 12.7519 21.8503 12.7761C21.7177 12.9077 21.5814 13.0328 21.44 13.1549C21.2464 13.3229 21.065 13.5003 20.885 13.6827C20.8529 13.715 20.8208 13.7473 20.7877 13.7805C20.6863 13.8826 20.585 13.9848 20.4837 14.087C20.3501 14.2219 20.2163 14.3567 20.0824 14.4914C20.0526 14.5216 20.0227 14.5519 19.9919 14.5831C19.8437 14.7321 19.693 14.8751 19.5338 15.0124C19.5035 15.0391 19.4732 15.0659 19.442 15.0935C19.3728 15.1538 19.3022 15.2125 19.2301 15.2693C19.0201 15.4472 19.0201 15.4472 18.9252 15.6966C18.9348 15.838 18.9576 15.9707 18.9865 16.1095C19 16.1876 19 16.1875 19.0137 16.2672C19.0439 16.4391 19.0772 16.6102 19.1104 16.7815C19.132 16.9015 19.1534 17.0216 19.1745 17.1417C19.225 17.4258 19.2773 17.7096 19.3307 17.9932C19.4315 18.529 19.528 19.0657 19.6242 19.6024C19.656 19.7775 19.6889 19.9523 19.7219 20.1272C20.0176 21.7209 20.0176 21.7209 19.7429 22.2209C19.4705 22.6142 19.169 22.9149 18.7015 23.047C17.9444 23.173 17.3988 22.8603 16.7484 22.5099C16.6719 22.4701 16.5953 22.4306 16.5185 22.3912C16.2845 22.2705 16.0525 22.1463 15.8206 22.0216C15.605 21.9056 15.3894 21.7896 15.1737 21.6737C15.1453 21.6584 15.1169 21.6432 15.0877 21.6274C14.5413 21.3337 13.9908 21.0483 13.4386 20.7657C13.3927 20.7421 13.3927 20.7421 13.3459 20.7181C13.2596 20.6739 13.1733 20.6298 13.0869 20.5857C12.9679 20.5228 12.8546 20.4565 12.7408 20.3849C12.5691 20.298 12.5345 20.308 12.3538 20.3614C12.2298 20.4187 12.1096 20.4779 11.9888 20.5413C11.9537 20.5594 11.9186 20.5775 11.8825 20.5962C11.7689 20.655 11.6555 20.7142 11.5421 20.7734C11.4637 20.8141 11.3853 20.8547 11.307 20.8953C11.086 21.0099 10.8654 21.125 10.6449 21.2403C10.5944 21.2667 10.544 21.2931 10.492 21.3202C10.306 21.4177 10.1202 21.5155 9.93457 21.6138C9.67551 21.7509 9.41553 21.8862 9.15561 22.0216C8.76095 22.2272 8.36676 22.4337 7.97343 22.6419C7.36838 22.9613 6.82169 23.1994 6.12788 22.997C5.707 22.8022 5.40108 22.5079 5.20053 22.0887C4.98401 21.4253 5.18215 20.6831 5.30208 20.0186C5.33424 19.8404 5.3656 19.662 5.39676 19.4836C5.46854 19.0735 5.54145 18.6636 5.61445 18.2538C5.68703 17.8462 5.75911 17.4386 5.83033 17.0307C5.86125 16.8549 5.89293 16.6793 5.92464 16.5036C5.94344 16.3964 5.96221 16.2892 5.98094 16.182C5.98997 16.1332 5.999 16.0844 6.0083 16.034C6.01597 15.9892 6.02364 15.9444 6.03154 15.8982C6.03848 15.8594 6.04541 15.8206 6.05255 15.7806C6.05624 15.6213 5.99477 15.523 5.89421 15.4036C5.87061 15.3802 5.84702 15.3568 5.82271 15.3327C5.79614 15.3062 5.76958 15.2798 5.74222 15.2525C5.70067 15.2119 5.70067 15.2119 5.65829 15.1704C5.63173 15.1439 5.60517 15.1173 5.5778 15.09C5.43683 14.9505 5.29268 14.8169 5.142 14.688C4.92616 14.4998 4.7243 14.2997 4.52304 14.0962C4.4855 14.0584 4.44796 14.0207 4.40929 13.9819C4.2504 13.8222 4.09181 13.6622 3.93319 13.5023C3.81659 13.3848 3.69985 13.2674 3.5831 13.1501C3.54789 13.1145 3.51268 13.0789 3.4764 13.0422C3.28088 12.8457 3.08048 12.6586 2.87053 12.4777C2.67756 12.3108 2.496 12.1321 2.31357 11.9538C2.25352 11.8971 2.25352 11.8971 2.19226 11.8393C1.86432 11.5174 1.57168 11.1385 1.52736 10.6654C1.52718 10.5984 1.52882 10.5315 1.53232 10.4646C1.53386 10.4113 1.53386 10.4113 1.53544 10.357C1.54948 10.0733 1.60355 9.85596 1.75815 9.61924C1.77829 9.58537 1.79843 9.55151 1.81918 9.51662C2.03296 9.19231 2.31776 8.99045 2.696 8.89692C2.78415 8.88117 2.78415 8.88117 2.87409 8.86511C2.90753 8.85912 2.94097 8.85314 2.97543 8.84697C3.47864 8.75894 3.9847 8.68784 4.49023 8.61464C4.60141 8.59843 4.71258 8.58222 4.82375 8.566C5.05502 8.53229 5.2863 8.4987 5.5176 8.46518C5.81415 8.42221 6.11066 8.37896 6.40716 8.33564C6.63594 8.30223 6.86473 8.26896 7.09353 8.23574C7.20295 8.21983 7.31236 8.20389 7.42177 8.1879C7.57399 8.16568 7.72624 8.14364 7.87849 8.12165C7.92359 8.11503 7.96869 8.10841 8.01515 8.10159C8.05661 8.09564 8.09807 8.08969 8.14078 8.08356C8.17667 8.07835 8.21257 8.07313 8.24955 8.06777C8.34994 8.05674 8.34994 8.05674 8.54526 8.05674C8.55698 8.0174 8.56871 7.97806 8.58079 7.93752C8.65676 7.72502 8.75401 7.52871 8.85553 7.32744C8.87698 7.28452 8.89844 7.2416 8.92054 7.19739C8.99133 7.05586 9.06241 6.91448 9.13348 6.77309C9.18301 6.67421 9.23253 6.57531 9.28203 6.47641C9.41243 6.21599 9.54306 5.95568 9.67374 5.6954C9.80584 5.4322 9.93771 5.1689 10.0696 4.90561C10.2183 4.60882 10.367 4.31205 10.5159 4.01535C10.5499 3.94754 10.5499 3.94754 10.5846 3.87836C10.6282 3.79151 10.6718 3.70467 10.7155 3.61785C10.8046 3.4404 10.8936 3.26288 10.9805 3.08433C11.0061 3.03217 11.0316 2.98002 11.0579 2.92628C11.0785 2.88342 11.0992 2.84056 11.1205 2.7964C11.3187 2.4391 11.6388 2.24493 12.0121 2.0997C12.5078 1.97788 13.0188 2.03198 13.4403 2.33164Z"
       id="path1" />
  </mask>
  <path
     style="color:#000000;fill:#3fc1c9;-inkscape-stroke:none"
     d="m 12.908203,1.0742187 c -0.386163,-0.058046 -0.776264,-0.033415 -1.134765,0.054687 l -0.0625,0.015625 -0.06055,0.023437 c -0.473965,0.1843929 -1.059098,0.5202797 -1.404297,1.1425782 l -0.01367,0.025391 -0.01172,0.025391 c -0.02116,0.043862 -0.04331,0.086861 -0.06445,0.1308594 -0.02527,0.051643 -0.05005,0.1030927 -0.07422,0.1523438 v 0.00195 c -0.083463,0.1714891 -0.1708474,0.34635 -0.2597654,0.5234375 -0.043737,0.086897 -0.087506,0.1734069 -0.1308593,0.2597656 -0.0347,0.06918 -0.036313,0.068909 -0.070312,0.1367188 h 0.00195 C 9.4739577,3.8634831 9.3244892,4.1602255 9.1757813,4.4570312 9.0438687,4.7203662 8.9111424,4.9834007 8.7792969,5.2460937 8.6485573,5.5064924 8.519333,5.7683554 8.3886719,6.0292969 8.3392202,6.1281004 8.289716,6.2273884 8.2402344,6.3261719 8.1694472,6.466999 8.0965347,6.607762 8.0253906,6.75 8.0033168,6.7941576 7.982443,6.8378282 7.9609375,6.8808594 7.9276732,6.9468083 7.8926622,7.0406239 7.8574219,7.1132812 l -0.125,0.019531 c -0.1511959,0.021839 -0.3033514,0.044258 -0.4550782,0.066406 -0.1091147,0.015947 -0.2188908,0.030992 -0.328125,0.046875 -0.228945,0.033241 -0.4583208,0.066141 -0.6875,0.099609 C 5.9653747,7.3890003 5.6709269,7.4317297 5.375,7.4746094 5.1434966,7.5081589 4.9112965,7.5424125 4.6796875,7.5761719 4.5685757,7.5923834 4.4568745,7.6087913 4.3457031,7.625 3.8435451,7.6977058 3.327364,7.769551 2.8027344,7.8613281 h -0.00195 l -0.00195,0.00195 c -0.034324,0.00615 -0.067932,0.011554 -0.1015625,0.017578 -0.087135,0.015559 -0.090515,0.015666 -0.1777343,0.03125 l -0.03125,0.00586 -0.033203,0.00781 C 1.8649092,8.0717164 1.3178247,8.4609448 0.984375,8.9667969 l -0.0136719,0.019531 -0.0117188,0.019531 c -0.013508,0.022713 -0.0258774,0.044236 -0.0390625,0.066406 C 0.67046215,9.4542327 0.55616807,9.92153 0.53710937,10.306641 v 0.01172 l -0.001953,0.0098 c -0.00158,0.0543 -4.1313e-4,0.05412 -0.001953,0.107422 -0.003661,0.07753 -0.006067,0.155107 -0.005859,0.232422 v 0.04492 l 0.003906,0.04492 c 0.0778233,0.830735 0.5652807,1.406552 0.9609375,1.794921 l 0.00586,0.0078 0.00781,0.0059 c 0.06126,0.0578 0.061044,0.05853 0.1210937,0.115235 0.1777204,0.173775 0.3690089,0.361734 0.5898438,0.552734 h 0.00195 c 0.1900298,0.163736 0.3704234,0.334373 0.5488281,0.513672 0.035691,0.0361 0.070899,0.07052 0.1054688,0.105469 l 0.00195,0.002 c 0.1165293,0.117078 0.2315381,0.234548 0.3476563,0.351562 0.1584286,0.159707 0.3187402,0.319879 0.4785156,0.480469 0.038465,0.03859 0.076363,0.07611 0.1132812,0.113281 0.205342,0.207607 0.4229587,0.425288 0.6699219,0.640625 l 0.00391,0.0039 0.00391,0.002 c 0.1307108,0.111817 0.2572074,0.22922 0.3828125,0.353515 0.025475,0.02542 0.049726,0.05174 0.076172,0.07813 l 0.00391,0.002 0.00391,0.0039 c 0.025923,0.02538 0.03714,0.03744 0.050781,0.05078 -0.00398,0.02152 -0.00775,0.043 -0.011719,0.06445 l -0.00195,0.0059 v 0.0039 c -0.018688,0.106962 -0.037872,0.213291 -0.056641,0.320312 l 0.00195,-0.0039 c -0.031718,0.175743 -0.064276,0.352569 -0.095703,0.53125 v 0.002 c -0.070971,0.406474 -0.1424028,0.811931 -0.2148437,1.21875 -0.07303,0.409967 -0.1466533,0.820512 -0.21875,1.232422 v 0.002 c -0.031035,0.177685 -0.062128,0.354078 -0.09375,0.529297 C 4.2095062,20.444923 3.9093891,21.354833 4.25,22.398437 l 0.019531,0.0625 0.029297,0.05859 c 0.2927719,0.611967 0.8065373,1.106291 1.4082031,1.384766 l 0.068359,0.03125 0.072266,0.02148 c 1.0317873,0.300996 1.9482701,-0.09193 2.5917969,-0.43164 h 0.00195 c 0.3908076,-0.206865 0.7824706,-0.412291 1.1757812,-0.617188 0.2596849,-0.135277 0.5220335,-0.270906 0.7851565,-0.410156 0.183392,-0.09711 0.368524,-0.194451 0.552734,-0.291016 l 0.002,-0.002 c 0.05231,-0.02726 0.101138,-0.05238 0.150391,-0.07813 0.219969,-0.115022 0.440649,-0.229924 0.660156,-0.34375 0.07799,-0.04044 0.155381,-0.08204 0.234375,-0.123047 h 0.002 c 0.1134,-0.0592 0.226361,-0.118052 0.337891,-0.175781 0.03504,-0.01815 0.07037,-0.03659 0.105469,-0.05469 l 0.0039,-0.002 h 0.002 c 0.01683,-0.0088 0.03399,-0.01675 0.05078,-0.02539 0.03937,0.022 0.07469,0.04693 0.115235,0.06836 l 0.0059,0.002 0.0078,0.0039 c 0.0856,0.04369 0.170619,0.0872 0.255859,0.13086 0.0468,0.024 0.0459,0.02328 0.0918,0.04687 l 0.002,0.002 c 0.548557,0.280736 1.091758,0.562855 1.628906,0.851562 0.0318,0.0172 0.06109,0.03244 0.08789,0.04687 h 0.002 c 0.215375,0.115726 0.430884,0.231657 0.646484,0.347657 0.232988,0.125284 0.469828,0.251578 0.712891,0.376953 v 0.002 h 0.002 c 0.07556,0.03876 0.150251,0.07655 0.224609,0.115234 0.636064,0.342903 1.486591,0.818377 2.578125,0.636719 l 0.05469,-0.0098 0.05273,-0.01367 c 0.74137,-0.209487 1.258586,-0.737649 1.591797,-1.21875 l 0.0293,-0.04297 0.02539,-0.04492 c 0.137349,-0.25 0.330583,-0.68909 0.326171,-1.128906 -0.0044,-0.439817 -0.09238,-0.832057 -0.240234,-1.628907 v -0.002 -0.002 c -0.03294,-0.174606 -0.06662,-0.346665 -0.09766,-0.517578 l 0.002,0.002 c -0.09626,-0.537055 -0.195082,-1.07611 -0.296875,-1.617187 -0.05292,-0.281062 -0.104535,-0.561848 -0.154297,-0.841797 l 0.002,0.002 c -0.02138,-0.121691 -0.0446,-0.24408 -0.06641,-0.365234 v -0.0059 l -0.002,-0.0059 c -0.0333,-0.171811 -0.06566,-0.338155 -0.09375,-0.498047 l 0.002,0.0039 c -0.01271,-0.07393 -0.0146,-0.08407 -0.02539,-0.146484 0.04166,-0.03458 0.08458,-0.06829 0.125,-0.103516 l 0.002,-0.002 0.0039,-0.0039 c 0.02831,-0.02504 0.05527,-0.04867 0.08203,-0.07227 l 0.0078,-0.0078 c 0.179612,-0.155365 0.346767,-0.312704 0.50586,-0.472656 l 0.002,-0.002 v -0.002 c 0.02957,-0.02996 0.05934,-0.05895 0.08789,-0.08789 l 0.0039,-0.0039 c 0.132952,-0.13375 0.265608,-0.268222 0.398437,-0.402343 0.100653,-0.101547 0.20244,-0.203698 0.302735,-0.304688 l 0.002,-0.002 c 0.03311,-0.03321 0.06424,-0.066 0.0957,-0.09766 h 0.002 l 0.002,-0.002 c 0.171072,-0.173353 0.332813,-0.330829 0.496094,-0.472657 l 0.002,-0.002 c 0.155822,-0.134625 0.308761,-0.274738 0.458984,-0.423828 l 0.002,-0.0039 0.0039,-0.002 c 0.02211,-0.02229 0.04414,-0.04404 0.06641,-0.06641 l 0.002,-0.0039 c 0.05229,-0.0521 0.105263,-0.103406 0.15625,-0.154297 v -0.002 h 0.002 c 0.07952,-0.07991 0.159354,-0.159647 0.238282,-0.238281 0.391815,-0.390336 1.137951,-0.919513 1.404296,-1.957031 l 0.01172,-0.04883 0.0078,-0.04687 c 0.10685,-0.6884 -0.03755,-1.4359675 -0.431641,-2.0351566 l -0.02148,-0.029297 -0.02148,-0.029297 C 23.36151,8.0720628 22.446983,7.8869025 21.826172,7.7949219 h -0.002 l -0.002,-0.00195 c -0.06058,-0.00873 -0.06519,-0.00953 -0.121094,-0.017578 h -0.0039 C 21.557755,7.7548773 21.417532,7.7351885 21.277344,7.7148437 21.177065,7.7003003 21.077035,7.6845787 20.976562,7.6699219 20.764996,7.6389875 20.55393,7.6089123 20.341797,7.578125 20.069152,7.5385675 19.79554,7.4988222 19.523437,7.4589844 19.309596,7.427669 19.096745,7.3963728 18.882812,7.3652344 18.780147,7.3502994 18.677019,7.3352725 18.574219,7.3203125 18.112134,7.2526352 17.640865,7.1936419 17.167969,7.1367187 c -0.01498,-0.029494 -0.03015,-0.058796 -0.04492,-0.087891 l -0.002,-0.00391 C 17.047332,6.8981724 16.973062,6.7512564 16.898437,6.6035156 16.554228,5.9222829 16.213869,5.2437853 15.890625,4.5644531 15.712158,4.1893497 15.531053,3.8143072 15.345703,3.4394531 15.310567,3.3685947 15.275944,3.2966738 15.240234,3.2246094 l -0.0039,-0.00586 C 15.181474,3.1062507 15.125907,2.9910101 15.068359,2.875 c -0.01659,-0.033517 -0.03227,-0.066399 -0.04883,-0.099609 -0.207998,-0.430394 -0.509723,-0.8829179 -0.96875,-1.2363281 l -0.01563,-0.011719 -0.01563,-0.00977 C 13.676404,1.2736364 13.294366,1.1322647 12.908203,1.0742187 Z M 12.304688,3.078125 c 0.228162,-0.044052 0.401282,-0.02858 0.541015,0.066406 0.142114,0.1143831 0.254673,0.2570118 0.373047,0.5019531 l 0.002,0.00586 0.002,0.00391 c 0.01724,0.034539 0.03469,0.070977 0.05274,0.1074219 h 0.002 c 0.0546,0.1100726 0.108282,0.2215388 0.164062,0.3359375 l 0.002,0.00391 0.002,0.00195 c 0.03622,0.073096 0.07254,0.1483628 0.109375,0.2226563 0.179252,0.3625604 0.356292,0.7279755 0.53125,1.0957031 0.334755,0.7035264 0.680954,1.3945322 1.027343,2.0800781 0.07412,0.1467339 0.148265,0.2953557 0.222657,0.4433594 v 0.00195 l 0.002,0.00195 c 0.02293,0.045163 0.04474,0.090206 0.06836,0.1367187 0.01634,0.032618 0.03296,0.064042 0.04883,0.095703 v 0.7753906 l 0.898438,0.091797 c 0.07513,0.00776 0.0757,0.0079 0.15039,0.015625 0.587734,0.062207 1.180006,0.144363 1.78125,0.2324218 0.1028,0.01496 0.20586,0.029977 0.308594,0.044922 0.213267,0.031042 0.427267,0.062506 0.640625,0.09375 0.273497,0.040042 0.547358,0.079538 0.820312,0.1191406 0.211067,0.030633 0.42158,0.062864 0.632813,0.09375 0.100927,0.014723 0.201813,0.028332 0.302734,0.042969 0.139534,0.02025 0.279698,0.04188 0.419922,0.0625 h 0.002 c 0.05942,0.00856 0.06412,0.00936 0.121094,0.017578 0.527781,0.078197 0.67738,0.1271263 0.822266,0.3027345 0.106481,0.172923 0.131625,0.306244 0.105468,0.521484 -0.07392,0.225615 -0.357009,0.513159 -0.847656,1.001953 -0.08187,0.08157 -0.163455,0.163053 -0.24414,0.244141 -0.05183,0.05174 -0.103766,0.102005 -0.154297,0.152344 l -0.002,0.002 V 12 c -0.0233,0.0234 -0.04735,0.04715 -0.07227,0.07227 -0.11253,0.111391 -0.229388,0.218986 -0.353516,0.326172 h -0.002 v 0.002 c -0.223252,0.193731 -0.42309,0.38933 -0.611328,0.580078 -0.03143,0.03163 -0.06204,0.06195 -0.09375,0.09375 h -0.002 v 0.002 c -0.101862,0.102565 -0.203388,0.204441 -0.304688,0.306641 -0.133074,0.134369 -0.26684,0.269949 -0.40039,0.404296 h -0.002 v 0.002 c -0.02979,0.03019 -0.06108,0.06068 -0.0918,0.0918 -0.133367,0.133933 -0.264288,0.259305 -0.398438,0.375 l -0.0039,0.002 -0.0039,0.0039 c -0.03123,0.02752 -0.06252,0.0544 -0.09375,0.08203 -0.0558,0.04848 -0.111486,0.09613 -0.167969,0.140625 l -0.01367,0.0098 -0.01367,0.01172 c -0.209999,0.1779 -0.49885,0.586538 -0.59375,0.835938 l -0.07813,0.203125 0.01563,0.21875 c 0.01398,0.205972 0.04665,0.388261 0.08008,0.548828 0.0071,0.04103 0.0087,0.06218 0.01953,0.125 h 0.002 v 0.002 c 0.03231,0.183907 0.06651,0.362414 0.09961,0.533203 0.02056,0.114292 0.04052,0.227821 0.06055,0.341797 v 0.002 c 0.05124,0.288251 0.104325,0.575191 0.158203,0.861328 0.09981,0.530522 0.196833,1.065219 0.292969,1.601563 v 0.002 c 0.03256,0.179287 0.0646,0.356057 0.09766,0.53125 0.147368,0.794505 0.208147,1.197766 0.208985,1.28125 3.82e-4,0.0381 -0.03703,0.07406 -0.03711,0.06641 -0.182314,0.261464 -0.277844,0.327569 -0.43164,0.38086 -0.383209,0.04806 -0.62196,-0.0706 -1.25586,-0.41211 l -0.0059,-0.002 -0.0078,-0.0039 c -0.07812,-0.04065 -0.154893,-0.08132 -0.232422,-0.121094 h -0.002 c -0.224443,-0.11579 -0.449391,-0.237491 -0.679687,-0.361328 -0.215096,-0.115728 -0.430967,-0.231853 -0.646484,-0.347656 h -0.002 c -0.02938,-0.01582 -0.05591,-0.03079 -0.08203,-0.04492 h -0.002 l -0.002,-0.002 c -0.554379,-0.297989 -1.109513,-0.585328 -1.664063,-0.869141 l -0.002,-0.002 c -0.04263,-0.02192 -0.04616,-0.02347 -0.0918,-0.04687 h -0.002 c -0.08243,-0.04222 -0.163821,-0.08496 -0.246093,-0.126953 -0.09417,-0.04978 -0.18516,-0.101652 -0.28125,-0.16211 l -0.03906,-0.02539 -0.04297,-0.02148 c -0.123786,-0.06265 -0.334708,-0.163079 -0.609375,-0.171875 -0.274667,-0.0088 -0.421003,0.05522 -0.511718,0.08203 L 12,19.423828 l -0.06641,0.0293 c -0.136056,0.06287 -0.269241,0.129527 -0.402344,0.199219 -4.94e-4,2.55e-4 -0.0015,-2.55e-4 -0.002,0 l -0.0059,0.0039 c -0.03269,0.01686 -0.06704,0.03485 -0.101563,0.05273 -0.11567,0.05987 -0.228397,0.118535 -0.341797,0.177735 -0.0773,0.04013 -0.15433,0.0806 -0.232422,0.121093 h -0.002 c -0.222493,0.115375 -0.443032,0.230126 -0.664062,0.345704 -0.05098,0.02665 -0.101541,0.0536 -0.152344,0.08008 h -0.002 c -0.1870082,0.09803 -0.3734548,0.1978 -0.5605471,0.296875 -0.2549963,0.134949 -0.5132829,0.268774 -0.7734375,0.404297 -0.3960086,0.206302 -0.7916485,0.413512 -1.1875,0.623046 -0.5312646,0.28045 -0.7145512,0.336988 -1.0292969,0.261719 -0.1423407,-0.079 -0.2427145,-0.170319 -0.3203125,-0.3125 -0.072081,-0.295246 0.00583,-0.818948 0.1308594,-1.511719 0.032698,-0.18118 0.064418,-0.359948 0.095703,-0.539062 h -0.00195 c 0.071463,-0.40829 0.1457799,-0.81693 0.21875,-1.226563 0.072719,-0.408379 0.1433749,-0.817237 0.2148437,-1.226562 0.030413,-0.172919 0.062048,-0.345828 0.09375,-0.521484 l 0.00195,-0.002 v -0.0039 c 0.018258,-0.104111 0.036485,-0.208333 0.054687,-0.3125 l 0.00195,-0.0098 c 0.00844,-0.04561 0.016649,-0.0913 0.025391,-0.138672 v -0.0059 l 0.00195,-0.0059 c 0.00723,-0.04221 0.014046,-0.08541 0.021484,-0.128906 l 0.00195,-0.0078 c 0.0065,-0.03634 0.012862,-0.07201 0.019531,-0.109375 l 0.013672,-0.07617 0.00195,-0.07617 C 7.062599,15.378823 6.8036235,14.932431 6.6582031,14.759766 l -0.027344,-0.03516 -0.033203,-0.03125 c -0.022847,-0.02265 -0.044637,-0.04484 -0.068359,-0.06836 l -0.00195,-0.002 c -0.026662,-0.02659 -0.05229,-0.05235 -0.078125,-0.07813 l -0.00391,-0.0039 -0.00391,-0.0039 c -0.03764,-0.03678 -0.044451,-0.04316 -0.076172,-0.07422 l -0.00781,-0.0078 c -0.023368,-0.02333 -0.048643,-0.04676 -0.074219,-0.07226 v -0.002 l -0.00195,-0.002 C 6.1268624,14.226129 5.9671431,14.077867 5.7988281,13.933594 l -0.00586,-0.0059 C 5.610925,13.768562 5.4289365,13.589305 5.234375,13.392578 h -0.00195 v -0.002 c -0.037515,-0.03777 -0.075095,-0.07497 -0.1132813,-0.113281 l -0.00195,-0.002 C 4.9598275,13.117224 4.8007396,12.958266 4.6425781,12.798828 4.5254965,12.680843 4.4079861,12.562834 4.2910156,12.445313 4.2567684,12.410686 4.2226811,12.375432 4.1875,12.339844 l -0.00195,-0.002 v -0.002 C 3.9732486,12.122575 3.7548637,11.918475 3.5253906,11.720703 h -0.00195 C 3.3631546,11.581998 3.1954478,11.417851 3.0117188,11.238281 l -0.00586,-0.0059 L 3,11.226563 C 2.9468937,11.176419 2.9357082,11.165695 2.8925781,11.125 l -0.00195,-0.002 C 2.6372038,10.87361 2.5428506,10.6973 2.5292969,10.582031 c 5.986e-4,-0.02166 8.229e-4,-0.04285 0.00195,-0.06445 v -0.01172 -0.01172 c 0.00126,-0.04362 0.003,-0.05674 0.00391,-0.08789 0.00902,-0.182289 8.069e-4,-0.148762 0.060547,-0.240234 l 0.011719,-0.01758 0.00977,-0.01758 c 0.012463,-0.02096 0.024477,-0.04321 0.037109,-0.06445 1.675e-4,-2.81e-4 0.00179,2.82e-4 0.00195,0 0.091535,-0.1387006 0.1169056,-0.1557859 0.2753906,-0.1953122 0.032497,-0.00581 0.059442,-0.010824 0.1191407,-0.021484 0.032008,-0.00573 0.064435,-0.011631 0.097656,-0.017578 0.4811404,-0.084169 0.9760629,-0.1549128 1.484375,-0.2285157 h 0.00195 C 4.745954,9.5873044 4.857522,9.570916 4.96875,9.5546875 5.1996805,9.521027 5.4290601,9.4885686 5.6601562,9.4550781 5.9573287,9.4120179 6.2541259,9.3675615 6.5507812,9.3242188 6.7791616,9.2908671 7.0076737,9.2578082 7.2363281,9.2246094 h 0.00195 c 0.1096057,-0.015937 0.21842,-0.030842 0.328125,-0.046875 0.1514375,-0.022106 0.3030406,-0.044447 0.4550782,-0.066406 h 0.00195 l 0.1347656,-0.019531 0.125,-0.017578 0.00195,-0.00195 c 0.024854,-0.00361 0.049219,-0.00614 0.074219,-0.00977 0.1003899,-0.01103 -0.00977,-0.00586 0.1855469,-0.00586 H 9.2910156 L 9.5039063,8.3417969 c 0.00825,-0.027681 0.016975,-0.05575 0.025391,-0.083984 0.050568,-0.1380851 0.1225152,-0.2896771 0.21875,-0.4804688 L 9.75,7.7753906 c 0.021394,-0.042809 0.042327,-0.086597 0.064453,-0.1308594 0.070175,-0.1402997 0.1417953,-0.2804346 0.2128909,-0.421875 v -0.00195 c 0.04958,-0.098976 0.09889,-0.1978787 0.148437,-0.296875 0.130139,-0.259898 0.261958,-0.5191361 0.392578,-0.7792969 0.132355,-0.2637063 0.262664,-0.5277711 0.394532,-0.7910156 0.148691,-0.2967736 0.298555,-0.5923493 0.447265,-0.8886719 v -0.00195 c 0.034,-0.06781 0.03366,-0.067539 0.06836,-0.1367187 0.04359,-0.086822 0.08746,-0.1715949 0.130859,-0.2578125 v -0.00195 C 11.698657,3.888594 11.78857,3.7070949 11.878906,3.5214844 v 0.00391 c 0.02603,-0.053039 0.05192,-0.1066128 0.07813,-0.1601562 v -0.00195 l 0.002,-0.00391 c 0.01247,-0.025948 0.02613,-0.053257 0.03906,-0.080078 0.0413,-0.073683 0.146029,-0.1294527 0.306641,-0.2011719 z m 7.55664,12.966797 v 0.002 l -0.01172,0.0078 c 0.004,-0.0032 0.0077,-0.0066 0.01172,-0.0098 z"
     id="path2" />
  <path
     style="color:#000000;fill:#3fc1c9;-inkscape-stroke:none"
     d="m 12.908203,1.0742187 c -0.386163,-0.058046 -0.776264,-0.033415 -1.134765,0.054687 l -0.0625,0.015625 -0.06055,0.023437 c -0.473965,0.1843929 -1.059098,0.5202797 -1.404297,1.1425782 l -0.01367,0.025391 -0.01172,0.025391 c -0.02116,0.043862 -0.04331,0.086861 -0.06445,0.1308594 -0.02527,0.051643 -0.05005,0.1030927 -0.07422,0.1523438 v 0.00195 c -0.083463,0.1714891 -0.1708474,0.34635 -0.2597654,0.5234375 -0.043737,0.086897 -0.087506,0.1734069 -0.1308593,0.2597656 -0.0347,0.06918 -0.036313,0.068909 -0.070312,0.1367188 h 0.00195 C 9.4739577,3.8634831 9.3244892,4.1602255 9.1757813,4.4570312 9.0438687,4.7203662 8.9111424,4.9834007 8.7792969,5.2460937 8.6485573,5.5064924 8.519333,5.7683554 8.3886719,6.0292969 8.3392202,6.1281004 8.289716,6.2273884 8.2402344,6.3261719 8.1694472,6.466999 8.0965347,6.607762 8.0253906,6.75 8.0033168,6.7941576 7.982443,6.8378282 7.9609375,6.8808594 7.9276732,6.9468083 7.8926622,7.0406239 7.8574219,7.1132812 l -0.125,0.019531 c -0.1511959,0.021839 -0.3033514,0.044258 -0.4550782,0.066406 -0.1091147,0.015947 -0.2188908,0.030992 -0.328125,0.046875 -0.228945,0.033241 -0.4583208,0.066141 -0.6875,0.099609 C 5.9653747,7.3890003 5.6709269,7.4317297 5.375,7.4746094 5.1434966,7.5081589 4.9112965,7.5424125 4.6796875,7.5761719 4.5685757,7.5923834 4.4568745,7.6087913 4.3457031,7.625 3.8435451,7.6977058 3.327364,7.769551 2.8027344,7.8613281 h -0.00195 l -0.00195,0.00195 c -0.034324,0.00615 -0.067932,0.011554 -0.1015625,0.017578 -0.087135,0.015559 -0.090515,0.015666 -0.1777343,0.03125 l -0.03125,0.00586 -0.033203,0.00781 C 1.8649092,8.0717164 1.3178247,8.4609448 0.984375,8.9667969 l -0.0136719,0.019531 -0.0117188,0.019531 c -0.013508,0.022713 -0.0258774,0.044236 -0.0390625,0.066406 C 0.67046215,9.4542327 0.55616807,9.92153 0.53710937,10.306641 v 0.01172 l -0.001953,0.0098 c -0.00158,0.0543 -4.1313e-4,0.05412 -0.001953,0.107422 -0.003661,0.07753 -0.006067,0.155107 -0.005859,0.232422 v 0.04492 l 0.003906,0.04492 c 0.0778233,0.830735 0.5652807,1.406552 0.9609375,1.794921 l 0.00586,0.0078 0.00781,0.0059 c 0.06126,0.0578 0.061044,0.05853 0.1210937,0.115235 0.1777204,0.173775 0.3690089,0.361734 0.5898438,0.552734 h 0.00195 c 0.1900298,0.163736 0.3704234,0.334373 0.5488281,0.513672 0.035691,0.0361 0.070899,0.07052 0.1054688,0.105469 l 0.00195,0.002 c 0.1165293,0.117078 0.2315381,0.234548 0.3476563,0.351562 0.1584286,0.159707 0.3187402,0.319879 0.4785156,0.480469 0.038465,0.03859 0.076363,0.07611 0.1132812,0.113281 0.205342,0.207607 0.4229587,0.425288 0.6699219,0.640625 l 0.00391,0.0039 0.00391,0.002 c 0.1307108,0.111817 0.2572074,0.22922 0.3828125,0.353515 0.025475,0.02542 0.049726,0.05174 0.076172,0.07813 l 0.00391,0.002 0.00391,0.0039 c 0.025923,0.02538 0.03714,0.03744 0.050781,0.05078 -0.00398,0.02152 -0.00775,0.043 -0.011719,0.06445 l -0.00195,0.0059 v 0.0039 c -0.018688,0.106962 -0.037872,0.213291 -0.056641,0.320312 l 0.00195,-0.0039 c -0.031718,0.175743 -0.064276,0.352569 -0.095703,0.53125 v 0.002 c -0.070971,0.406474 -0.1424028,0.811931 -0.2148437,1.21875 -0.07303,0.409967 -0.1466533,0.820512 -0.21875,1.232422 v 0.002 c -0.031035,0.177685 -0.062128,0.354078 -0.09375,0.529297 C 4.2095062,20.444923 3.9093891,21.354833 4.25,22.398437 l 0.019531,0.0625 0.029297,0.05859 c 0.2927719,0.611967 0.8065373,1.106291 1.4082031,1.384766 l 0.068359,0.03125 0.072266,0.02148 c 1.0317873,0.300996 1.9482701,-0.09193 2.5917969,-0.43164 h 0.00195 c 0.3908076,-0.206865 0.7824706,-0.412291 1.1757812,-0.617188 0.2596849,-0.135277 0.5220335,-0.270906 0.7851565,-0.410156 0.183392,-0.09711 0.368524,-0.194451 0.552734,-0.291016 l 0.002,-0.002 c 0.05231,-0.02726 0.101138,-0.05238 0.150391,-0.07813 0.219969,-0.115022 0.440649,-0.229924 0.660156,-0.34375 0.07799,-0.04044 0.155381,-0.08204 0.234375,-0.123047 h 0.002 c 0.1134,-0.0592 0.226361,-0.118052 0.337891,-0.175781 0.03504,-0.01815 0.07037,-0.03659 0.105469,-0.05469 l 0.0039,-0.002 h 0.002 c 0.01683,-0.0088 0.03399,-0.01675 0.05078,-0.02539 0.03937,0.022 0.07469,0.04693 0.115235,0.06836 l 0.0059,0.002 0.0078,0.0039 c 0.0856,0.04369 0.170619,0.0872 0.255859,0.13086 0.0468,0.024 0.0459,0.02328 0.0918,0.04687 l 0.002,0.002 c 0.548557,0.280736 1.091758,0.562855 1.628906,0.851562 0.0318,0.0172 0.06109,0.03244 0.08789,0.04687 h 0.002 c 0.215375,0.115726 0.430884,0.231657 0.646484,0.347657 0.232988,0.125284 0.469828,0.251578 0.712891,0.376953 v 0.002 h 0.002 c 0.07556,0.03876 0.150251,0.07655 0.224609,0.115234 0.636064,0.342903 1.486591,0.818377 2.578125,0.636719 l 0.05469,-0.0098 0.05273,-0.01367 c 0.74137,-0.209487 1.258586,-0.737649 1.591797,-1.21875 l 0.0293,-0.04297 0.02539,-0.04492 c 0.137349,-0.25 0.330583,-0.68909 0.326171,-1.128906 -0.0044,-0.439817 -0.09238,-0.832057 -0.240234,-1.628907 v -0.002 -0.002 c -0.03294,-0.174606 -0.06662,-0.346665 -0.09766,-0.517578 l 0.002,0.002 c -0.09626,-0.537055 -0.195082,-1.07611 -0.296875,-1.617187 -0.05292,-0.281062 -0.104535,-0.561848 -0.154297,-0.841797 l 0.002,0.002 c -0.02138,-0.121691 -0.0446,-0.24408 -0.06641,-0.365234 v -0.0059 l -0.002,-0.0059 c -0.0333,-0.171811 -0.06566,-0.338155 -0.09375,-0.498047 l 0.002,0.0039 c -0.01271,-0.07393 -0.0146,-0.08407 -0.02539,-0.146484 0.04166,-0.03458 0.08458,-0.06829 0.125,-0.103516 l 0.002,-0.002 0.0039,-0.0039 c 0.02831,-0.02504 0.05527,-0.04867 0.08203,-0.07227 l 0.0078,-0.0078 c 0.179612,-0.155365 0.346767,-0.312704 0.50586,-0.472656 l 0.002,-0.002 v -0.002 c 0.02957,-0.02996 0.05934,-0.05895 0.08789,-0.08789 l 0.0039,-0.0039 c 0.132952,-0.13375 0.265608,-0.268222 0.398437,-0.402343 0.100653,-0.101547 0.20244,-0.203698 0.302735,-0.304688 l 0.002,-0.002 c 0.03311,-0.03321 0.06424,-0.066 0.0957,-0.09766 h 0.002 l 0.002,-0.002 c 0.171072,-0.173353 0.332813,-0.330829 0.496094,-0.472657 l 0.002,-0.002 c 0.155822,-0.134625 0.308761,-0.274738 0.458984,-0.423828 l 0.002,-0.0039 0.0039,-0.002 c 0.02211,-0.02229 0.04414,-0.04404 0.06641,-0.06641 l 0.002,-0.0039 c 0.05229,-0.0521 0.105263,-0.103406 0.15625,-0.154297 v -0.002 h 0.002 c 0.07952,-0.07991 0.159354,-0.159647 0.238282,-0.238281 0.391815,-0.390336 1.137951,-0.919513 1.404296,-1.957031 l 0.01172,-0.04883 0.0078,-0.04687 c 0.10685,-0.6884 -0.03755,-1.4359675 -0.431641,-2.0351566 l -0.02148,-0.029297 -0.02148,-0.029297 C 23.36151,8.0720628 22.446983,7.8869025 21.826172,7.7949219 h -0.002 l -0.002,-0.00195 c -0.06058,-0.00873 -0.06519,-0.00953 -0.121094,-0.017578 h -0.0039 C 21.557755,7.7548773 21.417532,7.7351885 21.277344,7.7148437 21.177065,7.7003003 21.077035,7.6845787 20.976562,7.6699219 20.764996,7.6389875 20.55393,7.6089123 20.341797,7.578125 20.069152,7.5385675 19.79554,7.4988222 19.523437,7.4589844 19.309596,7.427669 19.096745,7.3963728 18.882812,7.3652344 18.780147,7.3502994 18.677019,7.3352725 18.574219,7.3203125 18.112134,7.2526352 17.640865,7.1936419 17.167969,7.1367187 c -0.01498,-0.029494 -0.03015,-0.058796 -0.04492,-0.087891 l -0.002,-0.00391 C 17.047332,6.8981724 16.973062,6.7512564 16.898437,6.6035156 16.554228,5.9222829 16.213869,5.2437853 15.890625,4.5644531 15.712158,4.1893497 15.531053,3.8143072 15.345703,3.4394531 15.310567,3.3685947 15.275944,3.2966738 15.240234,3.2246094 l -0.0039,-0.00586 C 15.181474,3.1062507 15.125907,2.9910101 15.068359,2.875 c -0.01659,-0.033517 -0.03227,-0.066399 -0.04883,-0.099609 -0.207998,-0.430394 -0.509723,-0.8829179 -0.96875,-1.2363281 l -0.01563,-0.011719 -0.01563,-0.00977 C 13.676404,1.2736364 13.294366,1.1322647 12.908203,1.0742187 Z M 12.304688,3.078125 c 0.228162,-0.044052 0.401282,-0.02858 0.541015,0.066406 0.142114,0.1143831 0.254673,0.2570118 0.373047,0.5019531 l 0.002,0.00586 0.002,0.00391 c 0.01724,0.034539 0.03469,0.070977 0.05274,0.1074219 h 0.002 c 0.0546,0.1100726 0.108282,0.2215388 0.164062,0.3359375 l 0.002,0.00391 0.002,0.00195 c 0.03622,0.073096 0.07254,0.1483628 0.109375,0.2226563 0.179252,0.3625604 0.356292,0.7279755 0.53125,1.0957031 0.334755,0.7035264 0.680954,1.3945322 1.027343,2.0800781 0.07412,0.1467339 0.148265,0.2953557 0.222657,0.4433594 v 0.00195 l 0.002,0.00195 c 0.02293,0.045163 0.04474,0.090206 0.06836,0.1367187 0.01634,0.032618 0.03296,0.064042 0.04883,0.095703 v 0.7753906 l 0.898438,0.091797 c 0.07513,0.00776 0.0757,0.0079 0.15039,0.015625 0.587734,0.062207 1.180006,0.144363 1.78125,0.2324218 0.1028,0.01496 0.20586,0.029977 0.308594,0.044922 0.213267,0.031042 0.427267,0.062506 0.640625,0.09375 0.273497,0.040042 0.547358,0.079538 0.820312,0.1191406 0.211067,0.030633 0.42158,0.062864 0.632813,0.09375 0.100927,0.014723 0.201813,0.028332 0.302734,0.042969 0.139534,0.02025 0.279698,0.04188 0.419922,0.0625 h 0.002 c 0.05942,0.00856 0.06412,0.00936 0.121094,0.017578 0.527781,0.078197 0.67738,0.1271263 0.822266,0.3027345 0.106481,0.172923 0.131625,0.306244 0.105468,0.521484 -0.07392,0.225615 -0.357009,0.513159 -0.847656,1.001953 -0.08187,0.08157 -0.163455,0.163053 -0.24414,0.244141 -0.05183,0.05174 -0.103766,0.102005 -0.154297,0.152344 l -0.002,0.002 V 12 c -0.0233,0.0234 -0.04735,0.04715 -0.07227,0.07227 -0.11253,0.111391 -0.229388,0.218986 -0.353516,0.326172 h -0.002 v 0.002 c -0.223252,0.193731 -0.42309,0.38933 -0.611328,0.580078 -0.03143,0.03163 -0.06204,0.06195 -0.09375,0.09375 h -0.002 v 0.002 c -0.101862,0.102565 -0.203388,0.204441 -0.304688,0.306641 -0.133074,0.134369 -0.26684,0.269949 -0.40039,0.404296 h -0.002 v 0.002 c -0.02979,0.03019 -0.06108,0.06068 -0.0918,0.0918 -0.133367,0.133933 -0.264288,0.259305 -0.398438,0.375 l -0.0039,0.002 -0.0039,0.0039 c -0.03123,0.02752 -0.06252,0.0544 -0.09375,0.08203 -0.0558,0.04848 -0.111486,0.09613 -0.167969,0.140625 l -0.01367,0.0098 -0.01367,0.01172 c -0.209999,0.1779 -0.49885,0.586538 -0.59375,0.835938 l -0.07813,0.203125 0.01563,0.21875 c 0.01398,0.205972 0.04665,0.388261 0.08008,0.548828 0.0071,0.04103 0.0087,0.06218 0.01953,0.125 h 0.002 v 0.002 c 0.03231,0.183907 0.06651,0.362414 0.09961,0.533203 0.02056,0.114292 0.04052,0.227821 0.06055,0.341797 v 0.002 c 0.05124,0.288251 0.104325,0.575191 0.158203,0.861328 0.09981,0.530522 0.196833,1.065219 0.292969,1.601563 v 0.002 c 0.03256,0.179287 0.0646,0.356057 0.09766,0.53125 0.147368,0.794505 0.208147,1.197766 0.208985,1.28125 3.82e-4,0.0381 -0.03703,0.07406 -0.03711,0.06641 -0.182314,0.261464 -0.277844,0.327569 -0.43164,0.38086 -0.383209,0.04806 -0.62196,-0.0706 -1.25586,-0.41211 l -0.0059,-0.002 -0.0078,-0.0039 c -0.07812,-0.04065 -0.154893,-0.08132 -0.232422,-0.121094 h -0.002 c -0.224443,-0.11579 -0.449391,-0.237491 -0.679687,-0.361328 -0.215096,-0.115728 -0.430967,-0.231853 -0.646484,-0.347656 h -0.002 c -0.02938,-0.01582 -0.05591,-0.03079 -0.08203,-0.04492 h -0.002 l -0.002,-0.002 c -0.554379,-0.297989 -1.109513,-0.585328 -1.664063,-0.869141 l -0.002,-0.002 c -0.04263,-0.02192 -0.04616,-0.02347 -0.0918,-0.04687 h -0.002 c -0.08243,-0.04222 -0.163821,-0.08496 -0.246093,-0.126953 -0.09417,-0.04978 -0.18516,-0.101652 -0.28125,-0.16211 l -0.03906,-0.02539 -0.04297,-0.02148 c -0.123786,-0.06265 -0.334708,-0.163079 -0.609375,-0.171875 -0.274667,-0.0088 -0.421003,0.05522 -0.511718,0.08203 L 12,19.423828 l -0.06641,0.0293 c -0.136056,0.06287 -0.269241,0.129527 -0.402344,0.199219 -4.94e-4,2.55e-4 -0.0015,-2.55e-4 -0.002,0 l -0.0059,0.0039 c -0.03269,0.01686 -0.06704,0.03485 -0.101563,0.05273 -0.11567,0.05987 -0.228397,0.118535 -0.341797,0.177735 -0.0773,0.04013 -0.15433,0.0806 -0.232422,0.121093 h -0.002 c -0.222493,0.115375 -0.443032,0.230126 -0.664062,0.345704 -0.05098,0.02665 -0.101541,0.0536 -0.152344,0.08008 h -0.002 c -0.1870082,0.09803 -0.3734548,0.1978 -0.5605471,0.296875 -0.2549963,0.134949 -0.5132829,0.268774 -0.7734375,0.404297 -0.3960086,0.206302 -0.7916485,0.413512 -1.1875,0.623046 -0.5312646,0.28045 -0.7145512,0.336988 -1.0292969,0.261719 -0.1423407,-0.079 -0.2427145,-0.170319 -0.3203125,-0.3125 -0.072081,-0.295246 0.00583,-0.818948 0.1308594,-1.511719 0.032698,-0.18118 0.064418,-0.359948 0.095703,-0.539062 h -0.00195 c 0.071463,-0.40829 0.1457799,-0.81693 0.21875,-1.226563 0.072719,-0.408379 0.1433749,-0.817237 0.2148437,-1.226562 0.030413,-0.172919 0.062048,-0.345828 0.09375,-0.521484 l 0.00195,-0.002 v -0.0039 c 0.018258,-0.104111 0.036485,-0.208333 0.054687,-0.3125 l 0.00195,-0.0098 c 0.00844,-0.04561 0.016649,-0.0913 0.025391,-0.138672 v -0.0059 l 0.00195,-0.0059 c 0.00723,-0.04221 0.014046,-0.08541 0.021484,-0.128906 l 0.00195,-0.0078 c 0.0065,-0.03634 0.012862,-0.07201 0.019531,-0.109375 l 0.013672,-0.07617 0.00195,-0.07617 C 7.062599,15.378823 6.8036235,14.932431 6.6582031,14.759766 l -0.027344,-0.03516 -0.033203,-0.03125 c -0.022847,-0.02265 -0.044637,-0.04484 -0.068359,-0.06836 l -0.00195,-0.002 c -0.026662,-0.02659 -0.05229,-0.05235 -0.078125,-0.07813 l -0.00391,-0.0039 -0.00391,-0.0039 c -0.03764,-0.03678 -0.044451,-0.04316 -0.076172,-0.07422 l -0.00781,-0.0078 c -0.023368,-0.02333 -0.048643,-0.04676 -0.074219,-0.07226 v -0.002 l -0.00195,-0.002 C 6.1268624,14.226129 5.9671431,14.077867 5.7988281,13.933594 l -0.00586,-0.0059 C 5.610925,13.768562 5.4289365,13.589305 5.234375,13.392578 h -0.00195 v -0.002 c -0.037515,-0.03777 -0.075095,-0.07497 -0.1132813,-0.113281 l -0.00195,-0.002 C 4.9598275,13.117224 4.8007396,12.958266 4.6425781,12.798828 4.5254965,12.680843 4.4079861,12.562834 4.2910156,12.445313 4.2567684,12.410686 4.2226811,12.375432 4.1875,12.339844 l -0.00195,-0.002 v -0.002 C 3.9732486,12.122575 3.7548637,11.918475 3.5253906,11.720703 h -0.00195 C 3.3631546,11.581998 3.1954478,11.417851 3.0117188,11.238281 l -0.00586,-0.0059 L 3,11.226563 C 2.9468937,11.176419 2.9357082,11.165695 2.8925781,11.125 l -0.00195,-0.002 C 2.6372038,10.87361 2.5428506,10.6973 2.5292969,10.582031 c 5.986e-4,-0.02166 8.229e-4,-0.04285 0.00195,-0.06445 v -0.01172 -0.01172 c 0.00126,-0.04362 0.003,-0.05674 0.00391,-0.08789 0.00902,-0.182289 8.069e-4,-0.148762 0.060547,-0.240234 l 0.011719,-0.01758 0.00977,-0.01758 c 0.012463,-0.02096 0.024477,-0.04321 0.037109,-0.06445 1.675e-4,-2.81e-4 0.00179,2.82e-4 0.00195,0 0.091535,-0.1387006 0.1169056,-0.1557859 0.2753906,-0.1953122 0.032497,-0.00581 0.059442,-0.010824 0.1191407,-0.021484 0.032008,-0.00573 0.064435,-0.011631 0.097656,-0.017578 0.4811404,-0.084169 0.9760629,-0.1549128 1.484375,-0.2285157 h 0.00195 C 4.745954,9.5873044 4.857522,9.570916 4.96875,9.5546875 5.1996805,9.521027 5.4290601,9.4885686 5.6601562,9.4550781 5.9573287,9.4120179 6.2541259,9.3675615 6.5507812,9.3242188 6.7791616,9.2908671 7.0076737,9.2578082 7.2363281,9.2246094 h 0.00195 c 0.1096057,-0.015937 0.21842,-0.030842 0.328125,-0.046875 0.1514375,-0.022106 0.3030406,-0.044447 0.4550782,-0.066406 h 0.00195 l 0.1347656,-0.019531 0.125,-0.017578 0.00195,-0.00195 c 0.024854,-0.00361 0.049219,-0.00614 0.074219,-0.00977 0.1003899,-0.01103 -0.00977,-0.00586 0.1855469,-0.00586 H 9.2910156 L 9.5039063,8.3417969 c 0.00825,-0.027681 0.016975,-0.05575 0.025391,-0.083984 0.050568,-0.1380851 0.1225152,-0.2896771 0.21875,-0.4804688 L 9.75,7.7753906 c 0.021394,-0.042809 0.042327,-0.086597 0.064453,-0.1308594 0.070175,-0.1402997 0.1417953,-0.2804346 0.2128909,-0.421875 v -0.00195 c 0.04958,-0.098976 0.09889,-0.1978787 0.148437,-0.296875 0.130139,-0.259898 0.261958,-0.5191361 0.392578,-0.7792969 0.132355,-0.2637063 0.262664,-0.5277711 0.394532,-0.7910156 0.148691,-0.2967736 0.298555,-0.5923493 0.447265,-0.8886719 v -0.00195 c 0.034,-0.06781 0.03366,-0.067539 0.06836,-0.1367187 0.04359,-0.086822 0.08746,-0.1715949 0.130859,-0.2578125 v -0.00195 C 11.698657,3.888594 11.78857,3.7070949 11.878906,3.5214844 v 0.00391 c 0.02603,-0.053039 0.05192,-0.1066128 0.07813,-0.1601562 v -0.00195 l 0.002,-0.00391 c 0.01247,-0.025948 0.02613,-0.053257 0.03906,-0.080078 0.0413,-0.073683 0.146029,-0.1294527 0.306641,-0.2011719 z m 7.55664,12.966797 v 0.002 l -0.01172,0.0078 c 0.004,-0.0032 0.0077,-0.0066 0.01172,-0.0098 z"
     id="path3" />
</svg>
