<svg width="15" height="15" viewBox="0 0 15 15" fill="none" xmlns="http://www.w3.org/2000/svg">
<path d="M8.05217 1.18081C8.23278 1.32597 8.35546 1.51206 8.45357 1.72395C8.46411 1.74612 8.47466 1.76828 8.48553 1.79112C8.519 1.86163 8.55205 1.93234 8.58511 2.00306C8.60666 2.04858 8.62825 2.09407 8.64986 2.13956C8.75791 2.36765 8.86377 2.59678 8.96849 2.82655C9.16325 3.25383 9.36606 3.67665 9.57048 4.09897C9.61469 4.19036 9.65876 4.28183 9.70281 4.37331C9.71635 4.40118 9.7299 4.42905 9.74385 4.45777C9.75613 4.48331 9.76842 4.50886 9.78107 4.53518C9.79193 4.55761 9.80278 4.58004 9.81396 4.60315C9.83706 4.65843 9.83706 4.65843 9.83706 4.71878C9.88211 4.72364 9.88211 4.72364 9.92807 4.7286C10.2887 4.76846 10.6472 4.82045 11.006 4.87531C11.0669 4.88456 11.1277 4.8938 11.1886 4.90303C11.315 4.92225 11.4414 4.94153 11.5679 4.96086C11.7294 4.98554 11.8909 5.01005 12.0524 5.03451C12.1776 5.05349 12.3028 5.07256 12.428 5.09167C12.4876 5.10074 12.5472 5.10979 12.6067 5.11881C12.6899 5.13141 12.7731 5.14414 12.8562 5.1569C12.8925 5.16236 12.8925 5.16236 12.9296 5.16793C13.2758 5.22148 13.5932 5.29068 13.8188 5.59703C13.979 5.85128 14.0292 6.11753 13.9843 6.41976C13.888 6.81092 13.5745 7.06832 13.308 7.34552C13.2604 7.39504 13.2129 7.44473 13.1655 7.49444C13.1345 7.52676 13.1035 7.55908 13.0725 7.59138C13.0587 7.60585 13.0449 7.62031 13.0307 7.63522C12.9522 7.71659 12.8715 7.79386 12.7878 7.86936C12.6732 7.97313 12.5658 8.08277 12.4593 8.19547C12.4403 8.21543 12.4213 8.23539 12.4017 8.25596C12.3416 8.31902 12.2817 8.38217 12.2217 8.44535C12.1426 8.52874 12.0634 8.61202 11.9842 8.69523C11.9665 8.71394 11.9488 8.73265 11.9306 8.75193C11.8428 8.84402 11.7536 8.93239 11.6594 9.0172C11.6415 9.03374 11.6235 9.05028 11.6051 9.06732C11.5641 9.10458 11.5223 9.14086 11.4796 9.17596C11.3553 9.28591 11.3553 9.28591 11.2991 9.44005C11.3048 9.52745 11.3183 9.60941 11.3354 9.69517C11.3434 9.74344 11.3434 9.74343 11.3515 9.79267C11.3694 9.89888 11.3891 10.0046 11.4088 10.1105C11.4215 10.1847 11.4342 10.2589 11.4467 10.3331C11.4766 10.5087 11.5076 10.684 11.5392 10.8593C11.5988 11.1904 11.6559 11.522 11.7129 11.8537C11.7317 11.9619 11.7512 12.07 11.7707 12.178C11.9458 13.1629 11.9458 13.1629 11.7832 13.4719C11.6219 13.715 11.4435 13.9008 11.1667 13.9824C10.7185 14.0603 10.3955 13.8671 10.0105 13.6505C9.96519 13.6259 9.91984 13.6015 9.87443 13.5772C9.73591 13.5026 9.59854 13.4258 9.46129 13.3487C9.33364 13.277 9.20599 13.2054 9.0783 13.1337C9.0615 13.1243 9.0447 13.1149 9.02739 13.1052C8.70395 12.9236 8.37806 12.7473 8.05118 12.5726C8.02401 12.5581 8.02401 12.5581 7.99628 12.5432C7.94521 12.5159 7.8941 12.4886 7.84299 12.4614C7.77254 12.4225 7.70548 12.3815 7.63813 12.3373C7.53645 12.2836 7.51599 12.2898 7.40903 12.3228C7.33561 12.3582 7.26442 12.3947 7.19292 12.4339C7.17216 12.4451 7.15139 12.4563 7.13 12.4679C7.06273 12.5042 6.99561 12.5408 6.92848 12.5774C6.88209 12.6025 6.8357 12.6276 6.78929 12.6527C6.65851 12.7235 6.5279 12.7947 6.39735 12.8659C6.3675 12.8822 6.33764 12.8985 6.30688 12.9153C6.19675 12.9755 6.08675 13.036 5.97687 13.0967C5.82352 13.1814 5.66962 13.265 5.51575 13.3487C5.28212 13.4758 5.04877 13.6034 4.81593 13.732C4.45775 13.9295 4.13413 14.0766 3.72341 13.9515C3.47425 13.8311 3.29316 13.6493 3.17444 13.3902C3.04626 12.9803 3.16356 12.5216 3.23456 12.111C3.25359 12.0008 3.27215 11.8906 3.2906 11.7803C3.33309 11.5269 3.37626 11.2736 3.41947 11.0203C3.46243 10.7684 3.50511 10.5165 3.54726 10.2645C3.56557 10.1559 3.58432 10.0473 3.60309 9.93876C3.61423 9.87251 3.62534 9.80626 3.63642 9.74001C3.64177 9.70984 3.64711 9.67966 3.65262 9.64857C3.65716 9.62088 3.6617 9.59318 3.66638 9.56465C3.67048 9.54065 3.67458 9.51665 3.67881 9.49192C3.681 9.39349 3.64461 9.33279 3.58508 9.25897C3.57111 9.24451 3.55714 9.23005 3.54275 9.21516C3.52703 9.1988 3.5113 9.18245 3.4951 9.16559C3.47051 9.14048 3.47051 9.14048 3.44542 9.11485C3.4297 9.09846 3.41397 9.08206 3.39777 9.06517C3.31432 8.97897 3.22899 8.89642 3.13979 8.81674C3.01202 8.70043 2.89252 8.57681 2.77338 8.45101C2.75116 8.4277 2.72894 8.40439 2.70604 8.38037C2.61198 8.28169 2.5181 8.18283 2.4242 8.08399C2.35518 8.01139 2.28607 7.93888 2.21696 7.86637C2.19611 7.84437 2.17527 7.82236 2.1538 7.79968C2.03805 7.67828 1.91942 7.56265 1.79513 7.45083C1.6809 7.34767 1.57342 7.23724 1.46542 7.1271C1.42988 7.09206 1.42988 7.09206 1.39361 7.05632C1.19948 6.85741 1.02624 6.62326 1.00001 6.33089C0.999904 6.2895 1.00087 6.2481 1.00294 6.20677C1.00386 6.17387 1.00386 6.17387 1.00479 6.1403C1.01311 5.96498 1.04511 5.83066 1.13663 5.68437C1.14855 5.66344 1.16048 5.64252 1.17276 5.62096C1.29931 5.42054 1.4679 5.29579 1.69182 5.238C1.744 5.22826 1.744 5.22826 1.79724 5.21834C1.81704 5.21464 1.83683 5.21094 1.85723 5.20713C2.15512 5.15273 2.4547 5.10879 2.75396 5.06355C2.81977 5.05354 2.88558 5.04352 2.95139 5.0335C3.0883 5.01266 3.22521 4.9919 3.36214 4.97119C3.53769 4.94464 3.71321 4.91791 3.88874 4.89113C4.02417 4.87049 4.15961 4.84993 4.29505 4.8294C4.35982 4.81957 4.42459 4.80972 4.48936 4.79984C4.57947 4.78611 4.6696 4.77249 4.75973 4.75889C4.78643 4.7548 4.81312 4.75071 4.84063 4.7465C4.86517 4.74282 4.88971 4.73915 4.915 4.73536C4.93624 4.73214 4.95749 4.72892 4.97938 4.7256C5.03881 4.71878 5.03881 4.71878 5.15443 4.71878C5.16138 4.69447 5.16832 4.67016 5.17547 4.64511C5.22045 4.51379 5.27802 4.39247 5.33811 4.26809C5.35081 4.24157 5.36351 4.21505 5.37659 4.18772C5.4185 4.10027 5.46058 4.01289 5.50265 3.92552C5.53197 3.86441 5.56129 3.8033 5.59059 3.74218C5.66778 3.58124 5.74511 3.42038 5.82247 3.25953C5.90067 3.09688 5.97874 2.93417 6.05682 2.77146C6.14484 2.58805 6.23287 2.40466 6.32099 2.2213C6.34113 2.1794 6.34113 2.1794 6.36167 2.13665C6.38748 2.08297 6.4133 2.02931 6.43915 1.97565C6.49194 1.86599 6.54458 1.75629 6.59607 1.64595C6.61117 1.61372 6.62627 1.58149 6.64183 1.54828C6.65408 1.52179 6.66633 1.4953 6.67895 1.46801C6.79625 1.24722 6.98574 1.12722 7.2067 1.03748C7.50019 0.96219 7.80269 0.995626 8.05217 1.18081Z" fill="#3FC1C9"/>
</svg>
