<svg width="35" height="35" viewBox="0 0 35 35" fill="none" xmlns="http://www.w3.org/2000/svg">
<g clip-path="url(#clip0_225_156)">
<path d="M13.4688 7.57542C13.5635 7.57474 13.5635 7.57474 13.6602 7.57405C13.8695 7.57271 14.0788 7.57191 14.2881 7.57123C14.3597 7.57095 14.4312 7.57067 14.5049 7.57038C14.8836 7.56896 15.2623 7.56798 15.641 7.56734C16.0317 7.56658 16.4224 7.56423 16.8131 7.56152C17.1139 7.55973 17.4146 7.55916 17.7154 7.55891C17.8594 7.55858 18.0034 7.55778 18.1474 7.55651C18.3493 7.55485 18.5511 7.55491 18.753 7.55539C18.8121 7.55451 18.8712 7.55364 18.9321 7.55273C19.4055 7.55677 19.7597 7.68669 20.1192 7.99767C20.527 8.72258 20.4681 9.56058 20.4657 10.3655C20.465 10.5912 20.4657 10.8168 20.4668 11.0425C20.4695 11.6836 20.4696 12.3247 20.4695 12.9659C20.4695 13.3595 20.4708 13.7532 20.4728 14.1468C20.4736 14.3681 20.4727 14.5893 20.4719 14.8105C20.4681 15.9165 20.4681 15.9165 20.9438 16.8929C21.1578 17.0458 21.2696 17.0947 21.5334 17.0895C23.9609 16.0302 25.5152 11.7182 26.4425 9.47568C26.4701 9.40966 26.4701 9.40966 26.4982 9.34231C26.5448 9.23027 26.5906 9.11787 26.6363 9.00544C26.8208 8.63113 27.0231 8.42373 27.4123 8.27111C27.7517 8.21083 28.0831 8.1929 28.4268 8.1939C28.5038 8.19372 28.5038 8.19372 28.5823 8.19354C28.7508 8.19324 28.9192 8.19344 29.0877 8.19367C29.2059 8.19362 29.3242 8.19356 29.4425 8.19347C29.6901 8.19337 29.9378 8.19352 30.1854 8.19384C30.5005 8.19422 30.8156 8.194 31.1307 8.19359C31.375 8.19334 31.6193 8.19343 31.8637 8.1936C31.9797 8.19365 32.0957 8.19359 32.2118 8.19343C34.3589 8.19111 34.3589 8.19111 34.8977 8.60863C35.1239 9.07059 35.0467 9.54756 34.8877 10.0239C34.3198 11.5687 33.2914 12.8826 32.3198 14.19C32.2001 14.3516 32.081 14.5136 31.9622 14.6758C31.6325 15.1257 31.3026 15.5751 30.9611 16.0163C30.5341 16.5681 30.1115 17.1171 29.7408 17.709C29.713 17.7533 29.6852 17.7977 29.6565 17.8433C29.426 18.2224 29.3303 18.5579 29.3947 19.0035C29.6017 19.6261 30.0508 20.0439 30.5099 20.4861C30.5795 20.5546 30.6491 20.6232 30.7185 20.6918C31.0458 21.0136 31.3795 21.3254 31.7275 21.6247C31.9637 21.8333 32.1847 22.0571 32.4068 22.2805C32.4525 22.3259 32.4982 22.3714 32.5453 22.4182C34.9738 24.8514 34.9738 24.8514 35.0259 26.1855C35.0129 26.5385 34.9489 26.8398 34.6974 27.1044C34.3441 27.4128 34.0495 27.4224 33.6008 27.4238C33.5416 27.4243 33.4824 27.4247 33.4215 27.4252C33.2252 27.4265 33.029 27.4273 32.8327 27.428C32.7319 27.4284 32.7319 27.4284 32.629 27.4289C32.2724 27.4303 31.9158 27.4313 31.5592 27.4319C31.1929 27.4327 30.8267 27.435 30.4604 27.4377C30.1772 27.4395 29.894 27.4401 29.6108 27.4403C29.4759 27.4407 29.341 27.4415 29.2062 27.4427C27.7221 27.4559 26.6637 27.1437 25.5877 26.0915C25.2184 25.7216 24.8634 25.3427 24.5213 24.9476C24.2096 24.5912 23.882 24.249 23.5569 23.9049C23.4658 23.8082 23.3756 23.7107 23.2857 23.613C22.9174 23.224 22.5203 22.8905 21.9649 22.8616C21.6574 22.8845 21.4857 22.9528 21.26 23.1735C20.7321 24.0184 20.6098 24.9062 20.5266 25.8799C20.4301 26.8522 20.4301 26.8522 20.0319 27.1808C19.9874 27.1992 19.9429 27.2176 19.8971 27.2366C19.8527 27.2562 19.8084 27.2759 19.7628 27.2961C19.4154 27.4106 19.077 27.4235 18.7139 27.4256C18.6592 27.4261 18.6046 27.4266 18.5483 27.4271C18.3712 27.4283 18.1942 27.4287 18.0172 27.4288C17.9569 27.4289 17.8966 27.4289 17.8345 27.429C14.581 27.425 11.6642 26.377 9.22873 24.1988C9.19165 24.166 9.15456 24.1331 9.11635 24.0992C8.3302 23.4 7.63881 22.6522 7.01004 21.8088C6.92673 21.6989 6.84207 21.59 6.75693 21.4815C6.30662 20.9069 5.89333 20.3126 5.49033 19.7042C5.45776 19.6552 5.4252 19.6062 5.39165 19.5557C4.79635 18.6588 4.2293 17.7488 3.69162 16.816C3.65332 16.75 3.61503 16.6839 3.57557 16.6158C2.6079 14.94 1.72928 13.2135 0.905979 11.4626C0.883664 11.4152 0.861349 11.3678 0.838358 11.3189C0.693512 11.0104 0.550946 10.7008 0.410374 10.3902C0.390483 10.3465 0.370593 10.3028 0.3501 10.2577C0.291888 10.129 0.23456 9.99988 0.177524 9.87061C0.144524 9.79627 0.111523 9.72193 0.0775222 9.64534C-0.0399211 9.32308 -0.0873758 9.01618 0.000217326 8.68126C0.160269 8.45739 0.355392 8.3578 0.615452 8.27111C0.775402 8.26066 0.935612 8.25406 1.09584 8.24948C1.16719 8.24734 1.16719 8.24734 1.23998 8.24516C1.39495 8.24063 1.54994 8.2366 1.70493 8.23266C1.75797 8.23123 1.81101 8.22981 1.86566 8.22834C3.37677 8.18783 3.37677 8.18783 4.10892 8.19991C4.30913 8.20278 4.50932 8.20392 4.70954 8.20505C4.90752 8.20663 5.10545 8.20981 5.30341 8.21332C5.40114 8.2148 5.49889 8.21573 5.59664 8.21608C6.63566 8.22089 6.63566 8.22089 7.04123 8.61291C7.42486 9.01153 7.61954 9.50241 7.83164 10.0057C7.90343 10.1712 7.97543 10.3365 8.04793 10.5016C8.06632 10.5435 8.08471 10.5855 8.10365 10.6287C9.668 14.353 9.668 14.353 12.4416 17.0895C12.7246 17.1255 12.865 17.1267 13.1039 16.9656C13.7077 16.1332 13.6929 14.9516 13.7234 13.962C13.7248 13.9171 13.7263 13.8722 13.7278 13.826C13.8458 11.5515 13.8458 11.5515 13.0302 9.52107C12.7109 9.20428 12.3106 9.10127 11.8889 8.98007C11.6897 8.88634 11.6897 8.88634 11.6146 8.72212C11.6252 8.44095 11.769 8.32744 11.9554 8.12985C12.428 7.69744 12.8348 7.57737 13.4688 7.57542Z" fill="#106FAE"/>
</g>
<defs>
<clipPath id="clip0_225_156">
<rect width="35" height="35" fill="white"/>
</clipPath>
</defs>
</svg>
