<svg width="35" height="35" viewBox="0 0 35 35" fill="none" xmlns="http://www.w3.org/2000/svg">
<path d="M28.5059 5.19559C28.5449 5.23036 28.584 5.26512 28.6243 5.30094C31.7847 8.12414 33.649 12.1918 33.9062 16.4065C34.0628 20.891 32.6093 25.167 29.5441 28.4762C28.1994 29.9034 26.685 31.0129 24.9512 31.9241C24.9067 31.9479 24.8622 31.9717 24.8164 31.9961C23.3384 32.7766 21.6723 33.2356 20.0293 33.4964C19.9781 33.5052 19.9268 33.5139 19.8741 33.523C17.3448 33.9466 14.5965 33.5786 12.1893 32.7658C12.0923 32.7333 12.0923 32.7333 11.9934 32.7001C11.6542 32.5792 11.3561 32.4416 11.0526 32.2472C10.4846 31.8927 10.0143 31.6483 9.33473 31.7991C9.14382 31.8497 8.95506 31.9063 8.76602 31.9634C8.66167 31.9928 8.55723 32.022 8.45273 32.051C8.23181 32.1124 8.01127 32.175 7.79089 32.2383C7.28441 32.3827 6.77395 32.5118 6.26374 32.6423C5.97783 32.7156 5.69219 32.79 5.40653 32.8643C5.29206 32.8941 5.17758 32.9238 5.0631 32.9535C4.97775 32.9757 4.97775 32.9757 4.89068 32.9983C4.65519 33.0595 4.41969 33.1206 4.18419 33.1817C3.95381 33.2415 3.72345 33.3013 3.49308 33.3612C3.38495 33.3893 3.27682 33.4173 3.16868 33.4454C3.01847 33.4844 2.86828 33.5234 2.71809 33.5624C2.6716 33.5745 2.62511 33.5865 2.57721 33.599C2.24563 33.6853 1.91568 33.7766 1.58664 33.8721C1.43555 33.9065 1.43555 33.9065 1.16211 33.9065C1.34026 33.1838 1.52678 32.4639 1.72234 31.7457C1.74925 31.6466 1.77616 31.5475 1.80306 31.4484C1.85945 31.2406 1.91592 31.0329 1.97244 30.8252C2.04543 30.5569 2.1182 30.2885 2.19091 30.0201C2.7118 28.0973 2.7118 28.0973 2.97657 27.1782C2.99349 27.1191 3.01042 27.06 3.02786 26.9991C3.10152 26.7419 3.17611 26.4851 3.25284 26.2289C3.27746 26.1435 3.30208 26.0581 3.32745 25.9702C3.35908 25.8639 3.35908 25.8639 3.39135 25.7555C3.42333 25.5287 3.3836 25.4275 3.28125 25.2249C3.24316 25.1444 3.24316 25.1444 3.2043 25.0624C3.17655 25.0066 3.14881 24.9507 3.12023 24.8932C1.07043 20.7246 0.755542 16.1586 2.25346 11.7519C2.42844 11.2601 2.63824 10.7894 2.87109 10.3225C2.90029 10.2638 2.92949 10.205 2.95958 10.1444C3.32134 9.42231 3.69406 8.72088 4.16992 8.06669C4.21742 8.0006 4.26491 7.93451 4.31385 7.86642C5.31376 6.50371 6.48434 5.22692 7.86133 4.23856C7.93235 4.18657 8.00338 4.13458 8.07655 4.08102C10.3887 2.4311 13.0965 1.37519 15.9277 1.09403C16.0026 1.08645 16.0775 1.07888 16.1547 1.07107C20.6763 0.682901 25.1318 2.18075 28.5059 5.19559ZM7.51099 8.35722C5.20579 10.9687 3.89816 14.5078 4.11118 17.9997C4.26465 20.2421 4.85456 22.6797 6.18082 24.5404C6.21275 24.5857 6.24468 24.6309 6.27758 24.6775C6.32236 24.7368 6.32236 24.7368 6.36805 24.7973C6.55481 25.2959 6.23322 25.985 6.09653 26.4716C6.07054 26.5654 6.04458 26.6591 6.01866 26.7529C5.95077 26.9982 5.88246 27.2435 5.81402 27.4886C5.70417 27.8822 5.5947 28.2758 5.48571 28.6696C5.44762 28.8069 5.40919 28.9441 5.37074 29.0812C5.34769 29.1643 5.32465 29.2474 5.30091 29.3329C5.28047 29.4061 5.26003 29.4793 5.23897 29.5547C5.18734 29.7387 5.18734 29.7387 5.19531 29.9417C5.78198 29.8473 6.35006 29.7053 6.92326 29.55C7.01501 29.5254 7.10677 29.5009 7.19854 29.4765C7.58463 29.3736 7.97054 29.2701 8.35628 29.1659C8.59369 29.1018 8.83126 29.0383 9.06894 28.9752C9.15903 28.9512 9.24905 28.9269 9.33901 28.9024C9.46427 28.8682 9.58978 28.8349 9.71529 28.8017C9.7865 28.7825 9.8577 28.7634 9.93106 28.7436C10.2297 28.6916 10.4092 28.7795 10.6635 28.9291C13.8827 30.7841 17.5299 31.3142 21.1411 30.3888C23.3661 29.7823 25.3436 28.5881 27.002 27.0022C27.0653 26.9425 27.1287 26.8827 27.1939 26.8212C27.6828 26.3482 28.1047 25.8408 28.5059 25.2933C28.5343 25.2545 28.5627 25.2158 28.592 25.1759C30.7038 22.2578 31.4557 18.6632 30.9356 15.1275C30.6079 13.1439 29.8334 11.1962 28.6426 9.57059C28.5909 9.49948 28.5391 9.42837 28.4858 9.3551C28.1003 8.83517 27.6771 8.35618 27.2299 7.88875C27.1521 7.80731 27.0753 7.72494 26.9987 7.64238C24.67 5.19922 21.2149 3.97458 17.9102 3.82841C13.8908 3.74129 10.2455 5.47741 7.51099 8.35722Z" fill="#106FAE"/>
<path d="M12.1559 9.76232C12.2263 9.76107 12.2263 9.76107 12.2981 9.75979C12.6179 9.75888 12.8946 9.78815 13.1941 9.91186C13.5254 10.2439 13.6788 10.6137 13.851 11.0451C13.8792 11.114 13.9074 11.1829 13.9364 11.2539C14.0258 11.4728 14.1141 11.6921 14.2024 11.9114C14.2628 12.0599 14.3232 12.2083 14.3837 12.3568C14.5163 12.6821 14.6482 13.0077 14.7795 13.3335C14.8174 13.4248 14.8589 13.5148 14.9031 13.6033C14.9755 13.94 14.9508 14.1977 14.7875 14.5032C14.4842 14.9452 14.1481 15.3521 13.7856 15.7475C13.6346 15.9881 13.6348 16.126 13.6726 16.406C13.7776 16.6351 13.7776 16.6351 13.9332 16.8546C13.9607 16.8954 13.9881 16.9363 14.0163 16.9783C15.3373 18.9142 17.1198 20.5093 19.3465 21.3279C19.6199 21.3528 19.7159 21.3541 19.9489 21.204C20.3358 20.8452 20.6497 20.4083 20.9687 19.9901C20.9995 19.9496 21.0304 19.9092 21.0622 19.8675C21.1223 19.7883 21.1822 19.7089 21.2418 19.6293C21.4508 19.3529 21.4508 19.3529 21.6023 19.2771C22.2564 19.2249 22.8255 19.577 23.3882 19.8624C23.4845 19.9103 23.5808 19.958 23.6771 20.0057C23.9171 20.1246 24.1563 20.245 24.3954 20.3656C24.5468 20.4417 24.6986 20.5172 24.8504 20.5924C24.9003 20.6172 24.9502 20.642 25.0016 20.6675C25.0968 20.7148 25.192 20.7619 25.2873 20.8089C25.4804 20.905 25.6608 21.0029 25.8406 21.1228C26.068 21.8052 25.8443 22.7055 25.5543 23.3402C25.0483 24.2472 24.0314 24.795 23.0678 25.0951C21.9615 25.3567 20.7454 25.1853 19.6883 24.8142C19.6324 24.7951 19.5765 24.7761 19.519 24.7565C18.0671 24.2546 16.691 23.6041 15.45 22.6951C15.4075 22.6641 15.365 22.6331 15.3212 22.6011C14.6584 22.112 14.0593 21.5578 13.4675 20.9861C13.4318 20.9519 13.3961 20.9176 13.3593 20.8824C12.9016 20.4427 12.4949 19.9786 12.1004 19.4822C12.0035 19.3668 11.9067 19.2514 11.8098 19.1361C10.4484 17.4634 9.14319 15.5122 9.29763 13.2615C9.42337 12.0452 9.93377 11.0455 10.8015 10.1853C11.2394 9.83372 11.6077 9.76283 12.1559 9.76232Z" fill="#106FAE"/>
</svg>
