<svg width="35" height="35" viewBox="0 0 35 35" fill="none" xmlns="http://www.w3.org/2000/svg">
<g clip-path="url(#clip0_225_158)">
<path d="M10.5866 5.11776C10.7551 5.11766 10.9235 5.11754 11.092 5.11739C11.4971 5.11712 11.9022 5.11715 12.3073 5.11735C12.6373 5.11751 12.9673 5.11753 13.2973 5.11745C13.3685 5.11744 13.3685 5.11744 13.4411 5.11742C13.5375 5.1174 13.6339 5.11738 13.7304 5.11736C14.6292 5.11716 15.5281 5.11738 16.4269 5.11775C17.1938 5.11806 17.9607 5.118 18.7276 5.11769C19.6238 5.11732 20.52 5.11718 21.4162 5.11739C21.5123 5.11741 21.6083 5.11743 21.7043 5.11745C21.7752 5.11747 21.7752 5.11747 21.8474 5.11749C22.176 5.11754 22.5046 5.11745 22.8333 5.11728C23.2777 5.11707 23.7221 5.11723 24.1665 5.11762C24.328 5.11771 24.4895 5.11768 24.651 5.11753C26.0717 5.11631 27.5044 5.11582 28.9168 5.28468C29.0313 5.29806 29.0313 5.29806 29.148 5.3117C30.8497 5.52129 32.6177 5.9676 33.7679 7.33733C34.2431 7.9789 34.52 8.66923 34.7103 9.43751C34.7239 9.49103 34.7375 9.54455 34.7514 9.59968C35.0708 10.9871 35.0223 12.427 35.0214 13.8411C35.0214 14.0778 35.0217 14.3145 35.022 14.5513C35.0228 15.1112 35.0228 15.671 35.0224 16.2309C35.022 16.8031 35.0228 17.3753 35.0243 17.9475C35.0255 18.4436 35.0259 18.9396 35.0257 19.4357C35.0256 19.7299 35.0257 20.024 35.0267 20.3182C35.0342 22.8179 34.9957 25.4633 33.4286 27.5485C33.3997 27.5886 33.3708 27.6287 33.341 27.67C32.2071 29.1236 30.2265 29.5189 28.5067 29.736C28.0165 29.7925 27.5274 29.8233 27.0345 29.8422C26.9602 29.8451 26.886 29.848 26.8095 29.851C25.9984 29.8801 25.1878 29.8823 24.3762 29.8815C24.2102 29.8816 24.0441 29.8818 23.878 29.8819C23.4785 29.8822 23.079 29.8821 22.6795 29.8819C22.3541 29.8818 22.0288 29.8818 21.7034 29.8818C21.6567 29.8819 21.6099 29.8819 21.5618 29.8819C21.4667 29.8819 21.3717 29.8819 21.2767 29.8819C20.3909 29.8821 19.5051 29.8819 18.6193 29.8815C17.863 29.8812 17.1068 29.8813 16.3506 29.8816C15.4672 29.882 14.5838 29.8821 13.7004 29.8819C13.6058 29.8819 13.5112 29.8819 13.4166 29.8818C13.3701 29.8818 13.3236 29.8818 13.2757 29.8818C12.9515 29.8818 12.6274 29.8818 12.3032 29.882C11.8652 29.8822 11.4272 29.8821 10.9892 29.8817C10.8298 29.8816 10.6704 29.8816 10.511 29.8818C4.0596 29.8874 4.0596 29.8874 1.95227 27.7957C1.89482 27.7367 1.83736 27.6777 1.77817 27.6168C1.70891 27.5473 1.70891 27.5473 1.63825 27.4764C-0.138364 25.5819 -0.021239 22.5478 -0.0197908 20.1323C-0.0197167 19.8873 -0.0200527 19.6422 -0.020378 19.3971C-0.0211321 18.8178 -0.0211694 18.2385 -0.0207535 17.6592C-0.0203411 17.0662 -0.0211822 16.4733 -0.0226384 15.8803C-0.0238516 15.3669 -0.0242509 14.8536 -0.0240298 14.3402C-0.0239073 14.0355 -0.0240725 13.7307 -0.0250364 13.426C-0.0388779 8.63684 -0.0388776 8.63684 1.4799 7.05936C3.15628 5.44671 5.65308 5.23968 7.87132 5.15706C7.94809 5.15418 8.02487 5.1513 8.10397 5.14833C8.93157 5.11953 9.75865 5.11697 10.5866 5.11776ZM13.6043 13.0563C13.5206 13.2237 13.5268 13.333 13.5259 13.5202C13.5254 13.5893 13.5249 13.6584 13.5244 13.7296C13.5243 13.8057 13.5241 13.8818 13.5239 13.9602C13.5234 14.0402 13.523 14.1201 13.5225 14.2024C13.5212 14.4679 13.5204 14.7334 13.5197 14.9989C13.5194 15.0904 13.5191 15.1818 13.5188 15.2733C13.5175 15.703 13.5166 16.1328 13.516 16.5626C13.5153 17.0583 13.5135 17.554 13.5108 18.0497C13.5087 18.433 13.5077 18.8164 13.5075 19.1997C13.5073 19.4286 13.5066 19.6574 13.505 19.8862C13.5033 20.1419 13.5034 20.3974 13.5039 20.653C13.503 20.7285 13.5021 20.8039 13.5012 20.8816C13.5042 21.3195 13.547 21.5876 13.8094 21.943C14.0946 22.1838 14.3245 22.2785 14.6981 22.2848C15.1263 22.1801 15.5098 21.991 15.8944 21.7807C16.0083 21.7195 16.1222 21.6585 16.2362 21.5975C16.2966 21.565 16.3571 21.5325 16.4194 21.499C16.7669 21.3136 17.1169 21.133 17.4666 20.9518C18.017 20.6661 18.5666 20.3789 19.1148 20.0892C19.5128 19.8793 19.9125 19.6727 20.3125 19.4666C20.6976 19.268 21.0817 19.0676 21.4657 18.8668C21.556 18.8198 21.556 18.8198 21.6481 18.7718C22.4744 18.3529 22.4744 18.3529 23.0379 17.6364C23.0635 17.2532 23.0522 17.0083 22.8329 16.6793C22.4999 16.3657 22.1327 16.1713 21.7263 15.9658C21.5847 15.8931 21.4431 15.8204 21.3014 15.7477C21.2275 15.7099 21.1536 15.6722 21.0774 15.6334C20.6989 15.4397 20.3219 15.2433 19.9447 15.0473C19.7887 14.9664 19.6328 14.8856 19.4768 14.8048C19.3601 14.7443 19.3601 14.7443 19.2411 14.6826C19.1631 14.6422 19.0851 14.6018 19.0047 14.5602C18.6914 14.3979 18.3781 14.2355 18.0648 14.0731C17.9888 14.0338 17.9128 13.9944 17.8346 13.9538C17.2597 13.6558 16.6855 13.3565 16.1119 13.0559C15.9946 12.9945 15.8771 12.9333 15.7596 12.8724C15.6401 12.8105 15.5209 12.748 15.4019 12.6852C15.3421 12.6541 15.2823 12.6231 15.2207 12.5911C15.1674 12.5632 15.1142 12.5353 15.0593 12.5065C14.4365 12.2454 13.9724 12.5383 13.6043 13.0563Z" fill="#106FAE"/>
</g>
<defs>
<clipPath id="clip0_225_158">
<rect width="35" height="35" fill="white"/>
</clipPath>
</defs>
</svg>
