<svg width="42" height="43" viewBox="0 0 42 43" fill="none" xmlns="http://www.w3.org/2000/svg">
<path d="M28.1838 27.4487C28.7077 27.6233 29.274 27.3402 29.4487 26.8162C29.6233 26.2923 29.3402 25.726 28.8162 25.5513L28.1838 27.4487ZM21 24H20C20 24.4304 20.2754 24.8126 20.6838 24.9487L21 24ZM22 13.5464C22 12.9941 21.5523 12.5464 21 12.5464C20.4477 12.5464 20 12.9941 20 13.5464H22ZM28.8162 25.5513L21.3162 23.0513L20.6838 24.9487L28.1838 27.4487L28.8162 25.5513ZM22 24V13.5464H20V24H22ZM40 21.5C40 31.9934 31.4934 40.5 21 40.5V42.5C32.598 42.5 42 33.098 42 21.5H40ZM21 40.5C10.5066 40.5 2 31.9934 2 21.5H0C0 33.098 9.40202 42.5 21 42.5V40.5ZM2 21.5C2 11.0066 10.5066 2.5 21 2.5V0.5C9.40202 0.5 0 9.90202 0 21.5H2ZM21 2.5C31.4934 2.5 40 11.0066 40 21.5H42C42 9.90202 32.598 0.5 21 0.5V2.5Z" fill="#106FAE"/>
</svg>
