<svg width="50" height="50" viewBox="0 0 50 50" fill="none" xmlns="http://www.w3.org/2000/svg">
<path d="M20.6395 22.6185C20.7444 22.618 20.8494 22.6174 20.9575 22.6169C21.3012 22.6156 21.6448 22.6165 21.9884 22.6175C22.2293 22.6173 22.4702 22.617 22.711 22.6166C23.2146 22.6162 23.7182 22.6168 24.2218 22.6182C24.8648 22.6198 25.5078 22.6189 26.1508 22.6171C26.6479 22.6161 27.1449 22.6164 27.642 22.6172C27.879 22.6174 28.116 22.6171 28.353 22.6164C28.6852 22.6157 29.0174 22.6168 29.3496 22.6185C29.446 22.6179 29.5423 22.6173 29.6416 22.6167C31.3754 22.6322 32.8267 23.3503 34.039 24.5664C34.4059 24.9602 34.6735 25.276 34.8641 25.7814C34.9406 25.7807 35.017 25.7801 35.0957 25.7794C35.8156 25.7735 36.5355 25.7691 37.2555 25.7662C37.6256 25.7647 37.9957 25.7626 38.3658 25.7593C38.7229 25.7561 39.08 25.7543 39.4372 25.7536C39.5735 25.753 39.7098 25.752 39.8461 25.7504C40.0369 25.7483 40.2277 25.7482 40.4185 25.7481C40.5271 25.7475 40.6357 25.7468 40.7477 25.7461C41.0165 25.7814 41.0165 25.7814 41.198 25.9166C41.3493 26.1308 41.3473 26.2756 41.3484 26.5367C41.3493 26.6765 41.3493 26.6765 41.3502 26.8191C41.3489 26.9198 41.3475 27.0204 41.3461 27.1241C41.3451 27.2289 41.3441 27.3336 41.3431 27.4416C41.2865 30.4335 40.4092 33.2609 39.5169 36.0907C39.3991 36.465 39.2821 36.8396 39.165 37.2141C39.1168 37.3684 39.0686 37.5227 39.0204 37.677C38.9963 37.754 38.9723 37.8311 38.9475 37.9104C38.8739 38.1455 38.8003 38.3805 38.7267 38.6155C38.4055 39.6409 38.088 40.6675 37.7735 41.695C37.7028 41.9256 37.6321 42.1563 37.5614 42.3869C37.5152 42.5377 37.4689 42.6885 37.4227 42.8392C37.4001 42.9129 37.3775 42.9865 37.3543 43.0623C37.2432 43.4245 37.1324 43.7868 37.022 44.1492C36.9186 44.4887 36.8146 44.828 36.7102 45.1672C36.6545 45.3486 36.5995 45.5301 36.5445 45.7116C35.7619 48.248 35.7619 48.248 34.6139 48.9137C33.667 49.4106 32.5733 49.479 31.5324 49.2494C30.5976 48.8999 29.8396 48.2601 29.3958 47.3618C29.103 46.6545 28.9236 45.9251 28.7475 45.1825C28.6923 44.9499 28.6362 44.7175 28.5797 44.4851C28.4399 43.9086 28.3015 43.3317 28.1635 42.7547C28.0465 42.2653 27.9286 41.7761 27.8098 41.2871C27.7547 41.0595 27.7008 40.8316 27.6469 40.6036C27.318 39.2091 27.318 39.2091 26.368 38.1837C25.8533 38.0121 25.2933 37.9897 24.7739 38.1608C24.0889 38.5314 23.8407 39.1886 23.6242 39.9057C23.5325 40.2484 23.4498 40.5931 23.3691 40.9386C23.3151 41.1698 23.2595 41.4006 23.2037 41.6314C23.0853 42.1217 22.9688 42.6124 22.8524 43.1032C22.7174 43.672 22.5815 44.2406 22.4441 44.8089C22.39 45.0341 22.3371 45.2596 22.2843 45.4852C21.7097 47.897 21.7097 47.897 20.8016 48.6329C19.6636 49.3155 18.5447 49.4971 17.2402 49.2532C16.2497 48.9545 15.6079 48.4425 15.0928 47.5548C14.8136 47.0187 14.6029 46.4563 14.3903 45.8913C14.3406 45.7608 14.2908 45.6303 14.241 45.4997C14.1377 45.2282 14.0352 44.9565 13.9331 44.6845C13.8026 44.3371 13.6698 43.9907 13.5364 43.6444C13.4333 43.3759 13.3317 43.1069 13.2305 42.8378C13.1821 42.7098 13.1333 42.582 13.0839 42.4544C13.0151 42.276 12.9485 42.0969 12.882 41.9177C12.8436 41.8163 12.8053 41.7149 12.7658 41.6105C12.6824 41.2489 12.7142 40.9858 12.7938 40.6251C12.9525 40.3871 12.9525 40.3871 13.1845 40.2345C13.577 40.1774 13.7824 40.179 14.1181 40.3965C14.3901 40.6576 14.4825 40.854 14.6102 41.207C14.6752 41.383 14.6752 41.383 14.7416 41.5626C14.7638 41.625 14.7861 41.6874 14.809 41.7517C14.8792 41.9485 14.9512 42.1446 15.0237 42.3406C15.1773 42.7569 15.3284 43.1741 15.4794 43.5914C15.6545 44.0746 15.8307 44.5574 16.0087 45.0395C16.0792 45.2318 16.1482 45.4247 16.2172 45.6175C16.592 46.6588 16.592 46.6588 17.4203 47.3451C18.0804 47.5613 18.5902 47.6079 19.2391 47.3634C19.7964 47.0633 20.1097 46.6913 20.3187 46.0909C20.3441 45.9865 20.3695 45.8821 20.3957 45.7745C20.4254 45.6551 20.4551 45.5357 20.4857 45.4126C20.5166 45.2832 20.5476 45.1537 20.5785 45.0242C20.6117 44.8891 20.645 44.7541 20.6784 44.619C20.7661 44.2635 20.8524 43.9077 20.9384 43.5518C21.0915 42.9192 21.2472 42.2872 21.4025 41.6551C21.4273 41.5539 21.4273 41.554 21.4526 41.4508C21.6459 40.6628 21.8405 39.8754 22.0544 39.0928C22.0724 39.0258 22.0903 38.9589 22.1088 38.89C22.3662 37.9708 22.843 37.2585 23.6337 36.7189C24.5895 36.2024 25.6031 36.0713 26.6721 36.2939C27.6736 36.6254 28.4259 37.245 28.9071 38.1837C29.2272 39.0632 29.4358 39.9806 29.6526 40.8898C29.7081 41.122 29.7642 41.354 29.8204 41.5859C29.9801 42.2443 30.1391 42.9029 30.2965 43.5619C30.3935 43.9676 30.4916 44.373 30.5904 44.7782C30.6276 44.9316 30.6643 45.0851 30.7006 45.2388C30.7514 45.4532 30.8035 45.6673 30.856 45.8814C30.8852 46.0029 30.9144 46.1244 30.9445 46.2496C31.0936 46.696 31.2958 47.0435 31.6598 47.3451C32.3247 47.6258 33.0184 47.6164 33.6923 47.3634C34.5722 46.8155 34.7679 45.7312 35.0553 44.7938C35.1117 44.6123 35.1681 44.4308 35.2245 44.2492C35.3056 43.9879 35.3862 43.7264 35.4668 43.4649C35.6391 42.9063 35.8126 42.348 35.9859 41.7897C36.0315 41.6428 36.0771 41.4958 36.1227 41.3488C36.4614 40.2564 36.8053 39.1658 37.1531 38.0763C37.2295 37.837 37.3058 37.5976 37.3819 37.3581C37.4069 37.2796 37.432 37.201 37.4577 37.12C37.5079 36.9623 37.5581 36.8046 37.6083 36.6469C37.7301 36.2642 37.8523 35.8816 37.9753 35.4993C38.8426 32.8027 39.5288 30.1803 39.747 27.3439C30.0145 27.3439 20.2821 27.3439 10.2548 27.3439C10.4668 29.1112 10.4668 29.1112 10.8346 30.829C10.8723 30.9751 10.8723 30.9751 10.9107 31.1242C11.0441 31.6327 11.1941 32.1288 11.3717 32.6234C11.5264 33.0661 11.5853 33.3413 11.4266 33.7892C11.2191 34.0333 11.2191 34.0333 10.9384 34.1798C10.5711 34.1798 10.3495 34.1556 10.0564 33.9284C9.80744 33.6217 9.69483 33.2999 9.57728 32.9286C9.54032 32.8144 9.54032 32.8144 9.50261 32.6979C9.03943 31.2145 8.73152 29.6727 8.59461 28.1251C8.58755 28.0496 8.58048 27.9741 8.5732 27.8963C8.55164 27.6574 8.53294 27.4184 8.51527 27.1791C8.50888 27.1053 8.50249 27.0316 8.49591 26.9556C8.46808 26.5062 8.50573 26.2338 8.78992 25.879C9.06029 25.7439 9.27862 25.7697 9.58114 25.7703C9.70626 25.7703 9.83137 25.7703 9.96028 25.7703C10.0974 25.7708 10.2344 25.7713 10.3715 25.7718C10.5113 25.772 10.6512 25.7722 10.791 25.7723C11.1593 25.7726 11.5276 25.7736 11.8959 25.7747C12.2716 25.7757 12.6474 25.7761 13.0231 25.7766C13.7605 25.7777 14.4979 25.7793 15.2352 25.7814C15.2637 25.7057 15.2921 25.63 15.3214 25.5521C15.5301 25.057 15.9399 24.698 16.3095 24.3165C16.37 24.2535 16.4306 24.1904 16.4929 24.1254C17.6063 23.0602 19.131 22.6092 20.6395 22.6185ZM17.4813 25.4884C17.4169 25.5851 17.3524 25.6818 17.286 25.7814C22.41 25.7814 27.5341 25.7814 32.8134 25.7814C31.4263 24.3943 29.8538 24.1947 27.9615 24.1917C27.7804 24.1921 27.5993 24.1925 27.4182 24.1929C27.2285 24.1928 27.0387 24.1926 26.8489 24.1924C26.4531 24.1921 26.0572 24.1925 25.6614 24.1934C25.1576 24.1945 24.6539 24.1939 24.1502 24.1927C23.7588 24.192 23.3674 24.1922 22.9761 24.1927C22.7905 24.1929 22.6049 24.1927 22.4193 24.1923C20.6165 24.1888 18.8787 24.1905 17.4813 25.4884Z" fill="#106FAE"/>
<path d="M17.4812 1.75769C17.5602 1.84392 17.6393 1.93015 17.7208 2.01899C18.1815 2.40863 18.8062 2.29229 19.3733 2.27038C19.606 2.26435 19.8387 2.25874 20.0714 2.2536C20.1808 2.25075 20.2903 2.2479 20.4031 2.24497C20.6622 2.24583 20.8989 2.26548 21.154 2.30624C21.499 2.3452 21.5961 2.34193 21.8635 2.1361C23.9095 0.709014 26.6221 0.476388 29.0318 0.891391C29.8449 1.05451 30.5948 1.3051 31.3514 1.64324C31.65 1.78159 31.65 1.78159 32.032 1.75769C32.2532 1.64379 32.2532 1.64379 32.4775 1.48913C33.7006 0.74217 34.9562 0.570425 36.3662 0.845591C38.0315 1.39355 39.0661 2.78238 39.8468 4.27195C40.9875 6.60938 41.4958 9.35871 41.5413 11.9445C41.5451 12.0766 41.5451 12.0766 41.549 12.2115C41.5492 12.2942 41.5494 12.3769 41.5496 12.4621C41.5504 12.5354 41.5513 12.6087 41.5521 12.6842C41.4794 13.0002 41.3834 13.0978 41.114 13.2811C40.7927 13.3402 40.4756 13.3382 40.1497 13.3364C40.0558 13.337 39.9619 13.3376 39.8651 13.3383C39.6668 13.339 39.4685 13.3387 39.2702 13.3374C38.9666 13.3361 38.6633 13.3394 38.3598 13.3431C38.167 13.3432 37.9743 13.343 37.7815 13.3425C37.6907 13.3438 37.6 13.3451 37.5065 13.3465C36.879 13.3374 36.879 13.3374 36.5646 13.0515C36.3946 12.733 36.3671 12.5631 36.4265 12.2069C36.5824 11.9474 36.5824 11.9474 36.8171 11.7186C37.1304 11.6632 37.1304 11.6632 37.4961 11.6709C37.5606 11.6716 37.6251 11.6723 37.6915 11.673C37.8966 11.6758 38.1014 11.6819 38.3064 11.6881C38.4457 11.6906 38.5851 11.6928 38.7245 11.6948C39.0653 11.7002 39.4061 11.7086 39.7468 11.7186C39.5386 9.76033 39.2476 7.92916 38.636 6.05456C38.5828 5.89021 38.5828 5.89021 38.5285 5.72254C38.0356 4.26348 37.431 3.15683 36.0359 2.44128C35.4031 2.23034 34.611 2.24301 34.0009 2.52852C32.9278 3.07778 32.173 3.82912 31.3614 4.69712C30.2553 5.87384 29.0618 6.73135 27.396 6.86251C25.7907 6.90793 24.5158 6.32651 23.3059 5.29658C22.1158 4.28933 20.797 3.6519 19.2043 3.72607C17.926 3.8849 16.7603 4.46175 15.76 5.2611C15.3297 5.53201 15.1479 5.55038 14.6492 5.46862C14.3598 5.22264 14.2747 5.06493 14.2036 4.69348C14.2862 4.24381 14.5605 3.95197 14.9151 3.67889C15.0944 3.55843 15.2761 3.44429 15.4609 3.33239C15.5554 3.27348 15.5554 3.27348 15.6519 3.21337C15.8053 3.11787 15.9596 3.02358 16.114 2.92956C15.5674 2.4977 14.9979 2.39347 14.3119 2.41114C13.4372 2.51713 12.766 3.06795 12.2264 3.73332C10.8031 5.77799 10.4606 8.58519 10.3013 11.0116C10.2968 11.0796 10.2923 11.1476 10.2876 11.2177C10.2766 11.3847 10.2656 11.5517 10.2546 11.7186C10.3812 11.7184 10.5078 11.7181 10.6381 11.7178C13.6404 11.7115 16.6427 11.7066 19.6449 11.7037C20.0142 11.7033 20.3835 11.7029 20.7528 11.7025C20.8263 11.7025 20.8998 11.7024 20.9756 11.7023C22.167 11.701 23.3585 11.6987 24.5499 11.696C25.7718 11.6933 26.9938 11.6917 28.2157 11.6911C28.9701 11.6907 29.7245 11.6894 30.4789 11.687C31.0567 11.6853 31.6346 11.6851 32.2124 11.6855C32.4499 11.6854 32.6874 11.6848 32.9249 11.6837C33.2481 11.6823 33.5713 11.6826 33.8945 11.6834C33.9894 11.6825 34.0843 11.6817 34.1821 11.6808C34.2684 11.6814 34.3547 11.682 34.4436 11.6826C34.5556 11.6824 34.5556 11.6824 34.6698 11.6822C34.9178 11.7287 35.0044 11.8141 35.157 12.0116C35.1959 12.2435 35.1959 12.2435 35.1936 12.4999C35.1944 12.5845 35.1951 12.6691 35.1959 12.7562C35.1487 13.0375 35.0859 13.1073 34.864 13.2811C34.6621 13.318 34.6621 13.318 34.4249 13.3183C34.2892 13.3195 34.2892 13.3195 34.1507 13.3208C34.0511 13.3202 33.9515 13.3196 33.8489 13.319C33.7433 13.3195 33.6376 13.32 33.5288 13.3206C33.173 13.322 32.8172 13.3213 32.4613 13.3206C32.207 13.3211 31.9526 13.3218 31.6982 13.3226C31.0779 13.3243 30.4577 13.3244 29.8374 13.3239C29.3333 13.3235 28.8293 13.3236 28.3252 13.3241C28.2177 13.3242 28.2177 13.3242 28.108 13.3244C27.9625 13.3245 27.8169 13.3246 27.6713 13.3248C26.3052 13.3261 24.9391 13.3256 23.573 13.3245C22.3226 13.3235 21.0722 13.3248 19.8218 13.3271C18.5386 13.3295 17.2554 13.3304 15.9722 13.3298C15.2515 13.3294 14.5308 13.3297 13.8101 13.3314C13.1326 13.333 12.455 13.3325 11.7775 13.3307C11.5284 13.3303 11.2792 13.3306 11.0301 13.3316C10.6909 13.3329 10.3518 13.3318 10.0126 13.3301C9.91321 13.331 9.81385 13.3319 9.71149 13.3329C9.04626 13.3259 9.04626 13.3259 8.73015 13.0945C7.91857 11.8741 8.66754 9.11933 8.93937 7.74519C9.42624 5.40324 10.21 3.04715 12.2078 1.56237C13.9933 0.474805 15.7628 0.544517 17.4812 1.75769ZM23.2429 3.12487C23.3926 3.52204 23.6714 3.73661 23.9997 3.98547C24.0553 4.02788 24.1108 4.0703 24.168 4.114C25.1002 4.80409 26.1536 5.40259 27.3445 5.27331C28.5787 4.95845 29.8524 4.19694 30.5671 3.12487C28.0887 2.02271 25.7318 2.29524 23.2429 3.12487Z" fill="#106FAE"/>
<path d="M24.9993 14.807C25.0839 14.8062 25.1685 14.8055 25.2556 14.8047C25.544 14.8531 25.61 14.9003 25.7805 15.1366C25.8227 15.4477 25.8227 15.4477 25.8305 15.8274C25.8322 15.8942 25.834 15.961 25.8358 16.0298C25.8411 16.2427 25.8444 16.4556 25.8477 16.6685C25.8509 16.8131 25.8543 16.9576 25.8578 17.1021C25.8661 17.456 25.8726 17.8099 25.8782 18.1639C25.9749 18.0995 26.0715 18.035 26.1711 17.9686C26.8454 17.9044 26.8454 17.9044 27.1965 18.1151C27.3617 18.3903 27.4168 18.6101 27.3983 18.9322C27.2856 19.3566 26.9657 19.623 26.6594 19.9217C26.5761 20.0073 26.4928 20.0929 26.4069 20.1811C25.5414 21.0644 25.5414 21.0644 25.042 21.1607C24.4185 21.1448 24.041 20.6324 23.6321 20.2147C23.5482 20.1331 23.4644 20.0515 23.378 19.9675C22.6661 19.2714 22.6661 19.2714 22.625 18.7621C22.6303 18.4692 22.6479 18.3715 22.8081 18.1151C23.1377 17.9122 23.3487 17.9218 23.7297 17.9686C23.8953 18.0615 24.0586 18.1585 24.218 18.2616C24.2165 18.1684 24.2149 18.0753 24.2134 17.9794C24.2081 17.6337 24.2047 17.2881 24.2019 16.9425C24.2005 16.7929 24.1985 16.6434 24.1959 16.4938C24.1924 16.2788 24.1907 16.0638 24.1894 15.8488C24.1879 15.7819 24.1864 15.7151 24.1848 15.6462C24.1847 15.3652 24.1864 15.1811 24.3518 14.948C24.5732 14.8028 24.7364 14.8046 24.9993 14.807Z" fill="#106FAE"/>
<path d="M36.23 3.80863C36.5912 4.09522 36.7151 4.38446 36.8587 4.81648C36.8995 4.9385 36.9404 5.06052 36.9825 5.18624C37.0247 5.31701 37.0669 5.44781 37.1089 5.57865C37.1412 5.67743 37.1412 5.67743 37.1741 5.7782C37.4283 6.55665 37.673 7.33668 37.8535 8.13603C37.8684 8.20106 37.8832 8.2661 37.8985 8.3331C37.9947 8.8026 38.0402 9.28791 37.9878 9.76567C37.8 10.0439 37.6694 10.1285 37.3591 10.2478C37.0289 10.2559 36.8813 10.1582 36.6206 9.96098C36.4383 9.68751 36.3878 9.5615 36.3269 9.25183C36.3095 9.16777 36.2921 9.08371 36.2742 8.9971C36.2556 8.90631 36.237 8.81551 36.2178 8.72196C35.9503 7.47588 35.631 6.12625 35.0581 4.98051C35.0304 4.69398 35.0103 4.47753 35.0581 4.19926C35.3983 3.78698 35.7108 3.73312 36.23 3.80863Z" fill="#106FAE"/>
<path d="M12.2073 35.6446C12.6245 35.8644 12.7531 36.2193 12.9153 36.6395C12.9415 36.7015 12.9677 36.7635 12.9947 36.8274C13.1808 37.297 13.2244 37.6789 13.1839 38.1837C12.9883 38.4771 12.8537 38.64 12.4995 38.7116C12.2279 38.7237 11.9941 38.7263 11.7637 38.5694C11.5491 38.2823 11.4339 37.9613 11.3101 37.6283C11.2835 37.5616 11.2569 37.495 11.2294 37.4263C11.0474 36.9431 10.9972 36.5515 11.0354 36.0352C11.3066 35.5833 11.7187 35.5387 12.2073 35.6446Z" fill="#106FAE"/>
</svg>
