<svg width="50" height="50" viewBox="0 0 50 50" fill="none" xmlns="http://www.w3.org/2000/svg">
<g clip-path="url(#clip0_16_604)">
<path d="M22.0703 11.4797C22.2719 11.5616 22.4738 11.6429 22.6758 11.7239C22.8582 11.7972 23.0401 11.8719 23.222 11.9467C24.9092 12.5752 26.6282 12.0817 28.1922 11.3824C30.8182 10.228 34.0624 10.1095 36.7383 11.1355C37.818 11.5772 38.7269 12.2169 39.5508 13.0362C39.6117 13.0958 39.6727 13.1554 39.7354 13.2167C41.756 15.3429 42.0686 18.4238 42.0154 21.2003C41.889 25.7406 39.7626 30.2367 37.6236 34.1527C36.1036 36.9366 35.5052 39.9893 34.8628 43.067C34.2012 46.2175 34.2012 46.2175 33.606 47.3352C33.5729 47.3992 33.5398 47.4631 33.5057 47.5289C33.2398 48.0261 32.9342 48.4507 32.5196 48.8371C32.443 48.9113 32.3665 48.9856 32.2876 49.062C31.5566 49.5302 30.7933 49.6131 29.9462 49.4827C29.2789 49.3148 28.894 48.9077 28.5157 48.3506C27.45 46.4026 27.3468 43.9222 27.105 41.7588C27.0863 41.5917 27.0863 41.5917 27.0672 41.4212C27.0044 40.8583 26.9428 40.2954 26.883 39.7323C26.6808 36.3862 26.6808 36.3862 25.293 33.4661C24.9871 33.4362 24.8744 33.4259 24.6094 33.5633C23.3193 35.2548 23.3289 38.119 23.1011 40.1517C23.0886 40.2629 23.0761 40.3741 23.0633 40.4887C23.0006 41.05 22.939 41.6115 22.8791 42.1731C22.7662 43.2167 22.6382 44.2542 22.4598 45.2888C22.4446 45.3777 22.4294 45.4666 22.4138 45.5582C22.1907 46.7983 21.8659 48.3563 20.8145 49.1726C20.1345 49.5852 19.3876 49.5988 18.6165 49.4835C17.818 49.2726 17.2051 48.7079 16.774 48.02C15.6377 46.0623 15.2919 43.7279 14.8342 41.5399C14.1896 38.4701 13.3289 35.7265 11.8271 32.9606C9.24773 28.1994 6.90045 22.2224 8.42327 16.76C9.07161 14.6135 10.2633 12.7614 12.2702 11.6545C15.3462 10.0124 18.9019 10.1579 22.0703 11.4797ZM11.2305 14.1064C9.4831 16.2105 9.09851 18.9305 9.29755 21.5733C9.72829 26.072 11.7521 30.2632 13.9012 34.1763C15.1303 36.4522 15.627 39.0435 16.1633 41.5482C16.1975 41.7075 16.2317 41.8669 16.2659 42.0263C16.3487 42.4114 16.4307 42.7967 16.511 43.1823C16.6645 43.9113 16.8355 44.6315 17.0441 45.347C17.0632 45.413 17.0822 45.4789 17.1018 45.5469C17.4329 46.6488 17.8756 47.5904 18.8843 48.1986C19.2774 48.2826 19.6324 48.2655 20.0196 48.1561C20.6405 47.6211 20.872 46.6438 21.0389 45.8699C21.0591 45.7761 21.0794 45.6824 21.1003 45.5858C21.4704 43.7592 21.6301 41.8869 21.8368 40.0365C22.4984 34.1257 22.4984 34.1257 23.6817 32.6817C24.2244 32.2627 24.6431 32.1453 25.3243 32.1683C25.8871 32.2394 26.2171 32.4983 26.5747 32.9249C27.9301 34.8983 27.952 37.7546 28.205 40.0648C28.2757 40.7101 28.3479 41.3552 28.4214 42.0001C28.4332 42.1034 28.4332 42.1034 28.4452 42.2088C28.6764 45.2945 28.6764 45.2945 29.8828 48.0588C30.2447 48.2839 30.5328 48.2898 30.9571 48.2534C31.7231 47.9634 32.1372 47.3866 32.5196 46.6968C32.6498 46.405 32.7533 46.1081 32.8522 45.8045C32.8809 45.7173 32.9097 45.6301 32.9393 45.5402C33.3267 44.3183 33.5746 43.0611 33.8379 41.8082C34.5523 38.4284 35.4296 35.4288 37.0619 32.3766C37.3834 31.7731 37.6915 31.1634 37.9883 30.5475C38.0225 30.4766 38.0566 30.4057 38.0918 30.3327C39.9927 26.3486 41.8166 21.1042 40.2575 16.7178C39.564 14.886 38.4975 13.4591 36.7188 12.5498C35.4645 11.9951 34.0892 11.6932 32.7149 11.7715C32.6883 11.8337 32.6618 11.8959 32.6344 11.96C32.5196 12.1607 32.5196 12.1607 32.2449 12.2579C31.9336 12.2579 31.9336 12.2579 31.7059 12.0607C31.4625 11.8442 31.4625 11.8442 31.1714 11.8563C30.0073 12.0702 28.9309 12.4527 27.8443 12.9085C26.8539 13.3223 25.978 13.4597 24.9024 13.5226C25.3449 14.0169 25.7822 14.204 26.4038 14.4104C26.6602 14.4955 26.6602 14.4955 26.7578 14.5928C26.7823 14.9272 26.7823 14.9272 26.7578 15.2738C26.3807 15.5243 26.1921 15.4849 25.7557 15.4277C24.6705 15.1979 23.9235 14.3997 23.1686 13.6427C21.9965 12.533 20.0363 11.9437 18.4571 11.8688C18.505 11.9523 18.505 11.9523 18.554 12.0375C18.7057 12.3774 18.6647 12.6672 18.6524 13.0362C18.3471 13.0839 18.0767 13.1026 17.7735 13.0362C17.4289 12.7003 17.2447 12.2201 17.0899 11.7715C14.934 11.6565 12.7099 12.548 11.2305 14.1064Z" fill="#106FAE"/>
<path d="M23.9925 0.921332C24.0726 0.92096 24.1528 0.920588 24.2354 0.920204C24.4041 0.91994 24.5729 0.920651 24.7416 0.922282C24.9988 0.924367 25.2558 0.922299 25.513 0.919812C25.6776 0.920069 25.8421 0.920568 26.0067 0.921332C26.1211 0.920151 26.1211 0.920151 26.2379 0.918945C26.7469 0.927574 27.037 1.02817 27.441 1.36215C27.8316 1.87418 27.8316 1.87418 27.8316 2.14043C27.8849 2.14438 27.9382 2.14833 27.9931 2.1524C28.7685 2.21905 29.528 2.3596 30.2921 2.50259C30.433 2.52866 30.5739 2.5547 30.7148 2.5807C31.0826 2.64863 31.4502 2.71705 31.8178 2.78557C32.1942 2.85564 32.5706 2.92525 32.9471 2.99491C33.6834 3.1312 34.4197 3.26801 35.1558 3.40514C35.2054 3.31423 35.2054 3.31423 35.256 3.22149C35.2997 3.14225 35.3433 3.06301 35.3882 2.98137C35.4314 2.90271 35.4745 2.82405 35.519 2.743C35.6576 2.50654 35.8018 2.33104 36.0103 2.15259C36.0682 2.10068 36.1261 2.04876 36.1858 1.99527C36.9163 1.54797 37.662 1.51403 38.5005 1.51742C38.6755 1.51641 38.6755 1.51641 38.854 1.51539C39.1714 1.51393 39.4887 1.51376 39.806 1.51432C40.0716 1.51462 40.3371 1.51402 40.6026 1.51344C41.2288 1.51208 41.8549 1.51222 42.4811 1.51333C43.1265 1.51445 43.7719 1.51307 44.4174 1.51047C44.9727 1.50832 45.5281 1.50767 46.0834 1.50824C46.4146 1.50857 46.7458 1.50833 47.077 1.50666C47.4457 1.50522 47.8143 1.50624 48.1829 1.50792C48.3472 1.50651 48.3472 1.50651 48.5149 1.50507C48.6654 1.5065 48.6654 1.5065 48.8189 1.50796C48.906 1.50799 48.9931 1.50801 49.0828 1.50803C49.3956 1.57334 49.5146 1.69562 49.7066 1.94586C49.7005 2.29852 49.7005 2.29852 49.609 2.62686C49.2912 2.8379 49.2033 2.84588 48.8361 2.84656C48.6876 2.84755 48.6876 2.84755 48.5362 2.84857C48.4276 2.84832 48.3191 2.84807 48.2073 2.84782C48.0358 2.84858 48.0358 2.84858 47.8608 2.84936C47.547 2.85062 47.2333 2.85104 46.9195 2.85119C46.5909 2.85163 46.2624 2.85338 45.9338 2.85506C44.956 2.85985 43.9782 2.86285 43.0004 2.86492C42.2408 2.86653 41.4813 2.86875 40.7218 2.87299C40.3948 2.87476 40.0679 2.87577 39.7409 2.87579C39.376 2.8758 39.0111 2.87758 38.6462 2.87974C38.5382 2.87929 38.4303 2.87885 38.3191 2.87839C37.7794 2.88346 37.3752 2.89848 36.9136 3.21057C36.6157 3.53858 36.4963 3.7968 36.4742 4.23206C36.4987 4.67182 36.598 4.9314 36.9136 5.25355C37.483 5.52013 38.0472 5.59 38.6688 5.59519C38.7872 5.59781 38.7872 5.59781 38.908 5.60048C39.1567 5.60569 39.4054 5.60903 39.6541 5.61229C39.8242 5.61552 39.9943 5.61888 40.1643 5.62236C40.5782 5.63057 40.992 5.63709 41.4058 5.64269C41.3973 5.48976 41.3973 5.48976 41.3887 5.33374C41.3841 5.19959 41.3796 5.06545 41.3753 4.9313C41.3692 4.83056 41.3692 4.83056 41.3629 4.7278C41.3581 4.53114 41.3581 4.53114 41.4058 4.18342C41.6324 3.98695 41.6324 3.98695 41.8941 3.89156C42.2054 3.95237 42.2054 3.95237 42.48 4.08613C42.7165 4.43947 42.6959 4.60987 42.6876 5.02858C42.6858 5.14333 42.684 5.25807 42.6822 5.3763C42.68 5.46421 42.6777 5.55212 42.6754 5.64269C42.7591 5.64183 42.8429 5.64096 42.9292 5.64007C43.7181 5.63228 44.507 5.62635 45.2959 5.62253C45.7015 5.6205 46.107 5.61774 46.5126 5.61334C46.904 5.60911 47.2952 5.60678 47.6866 5.60577C47.836 5.60505 47.9854 5.60365 48.1348 5.60155C48.3438 5.59873 48.5528 5.59833 48.7618 5.59851C48.8809 5.59765 48.9999 5.59679 49.1226 5.5959C49.4136 5.64269 49.4136 5.64269 49.602 5.82102C49.7496 6.11844 49.6979 6.30204 49.609 6.61554C49.3609 6.86269 49.2736 6.83504 48.9296 6.83678C48.8272 6.83775 48.7248 6.83872 48.6193 6.83972C48.4501 6.83982 48.4501 6.83982 48.2774 6.83992C48.159 6.84073 48.0405 6.84154 47.9184 6.84237C47.5927 6.84432 47.267 6.84536 46.9413 6.84586C46.7376 6.84621 46.5339 6.84682 46.3301 6.84751C45.6185 6.8499 44.907 6.85116 44.1954 6.85151C43.5336 6.85186 42.8719 6.85476 42.2101 6.85885C41.6412 6.86223 41.0722 6.86372 40.5033 6.86379C40.1638 6.86387 39.8244 6.86471 39.485 6.86749C39.1054 6.87053 38.7259 6.86964 38.3463 6.86842C38.1794 6.87058 38.1794 6.87058 38.0092 6.87279C37.1606 6.86509 36.5286 6.65225 35.873 6.1086C35.8136 6.03912 35.7542 5.96965 35.6929 5.89806C35.6315 5.82909 35.5701 5.76012 35.5068 5.68905C35.3161 5.39382 35.2387 5.10659 35.1558 4.76713C35.092 4.75647 35.0282 4.74581 34.9625 4.73483C33.3274 4.46043 31.6958 4.16862 30.0655 3.86724C29.9713 3.8499 29.8772 3.83257 29.7801 3.8147C29.5108 3.76506 29.2415 3.71512 28.9722 3.66507C28.8908 3.65009 28.8095 3.63511 28.7256 3.61968C28.42 3.56254 28.1271 3.50325 27.8316 3.40514C27.8243 3.48307 27.8169 3.561 27.8094 3.6413C27.7751 3.99844 27.7393 4.35542 27.7034 4.7124C27.6919 4.83499 27.6804 4.95757 27.6685 5.08387C27.5046 6.68755 27.5046 6.68755 27.0744 7.21445C27.0161 7.25759 26.9578 7.30073 26.8978 7.34518C26.8392 7.39032 26.7807 7.43547 26.7204 7.48199C26.3373 7.73945 26.0399 7.69298 25.5855 7.68568C25.587 7.76961 25.5886 7.85355 25.5902 7.94003C25.5952 8.25169 25.5988 8.56333 25.6016 8.87502C25.6031 9.00987 25.6051 9.14471 25.6076 9.27955C25.6112 9.47344 25.6127 9.66737 25.6141 9.86129C25.6157 9.97795 25.6172 10.0946 25.6188 10.2148C25.5855 10.5069 25.5855 10.5069 25.4556 10.6909C25.2006 10.8596 25.004 10.8358 24.7066 10.7988C24.5436 10.6909 24.5436 10.6909 24.4136 10.5069C24.3804 10.2148 24.3804 10.2148 24.385 9.86129C24.386 9.73494 24.3869 9.60859 24.3879 9.47842C24.3903 9.34497 24.3928 9.21152 24.3953 9.07807C24.3968 8.94348 24.3981 8.80889 24.3993 8.6743C24.4028 8.34472 24.4076 8.01522 24.4136 7.68568C24.3073 7.68806 24.2009 7.69044 24.0913 7.6929C23.6827 7.68473 23.4855 7.61302 23.1441 7.39382C22.6821 6.89518 22.5362 6.49202 22.4536 5.82244C22.4453 5.75473 22.4369 5.68702 22.4282 5.61726C22.4106 5.4738 22.3934 5.33029 22.3765 5.18674C22.3511 4.97141 22.3241 4.75632 22.2969 4.54121C22.0161 2.25433 22.0161 2.25433 22.3262 1.64793C22.8162 1.04424 23.2499 0.913667 23.9925 0.921332ZM23.4371 2.335C23.3993 3.08287 23.496 3.8145 23.5932 4.55444C23.6204 4.76285 23.6461 4.97141 23.6717 5.18002C23.6888 5.31285 23.7059 5.44566 23.7232 5.57847C23.7462 5.7581 23.7462 5.7581 23.7697 5.94136C23.8024 6.23707 23.8024 6.23707 24.023 6.42097C24.228 6.44952 24.228 6.44952 24.4625 6.44339C24.5491 6.4432 24.6357 6.44302 24.7249 6.44282C24.8156 6.44163 24.9062 6.44044 24.9996 6.43921C25.1355 6.43912 25.1355 6.43912 25.2742 6.43902C25.7382 6.45307 25.7382 6.45307 26.1715 6.32369C26.3886 5.48731 26.4427 4.59051 26.5377 3.73347C26.5524 3.61045 26.5671 3.48743 26.5823 3.36068C26.5953 3.24367 26.6082 3.12667 26.6216 3.00612C26.6336 2.90045 26.6457 2.79478 26.6581 2.6859C26.6589 2.56036 26.6589 2.56036 26.6597 2.43229C26.4761 2.20735 26.4761 2.20735 26.1749 2.21409C26.0538 2.21449 25.9327 2.21489 25.8079 2.2153C25.7111 2.21536 25.7111 2.21536 25.6124 2.21543C25.476 2.21573 25.3397 2.21649 25.2034 2.2177C24.994 2.21947 24.7846 2.21969 24.5752 2.21967C23.9589 2.15973 23.9589 2.15973 23.4371 2.335Z" fill="#106FAE"/>
<path d="M21.0334 15.438C21.4895 15.6025 21.5898 15.8146 21.828 16.2201C21.971 16.4377 22.0914 16.5495 22.3029 16.6966C22.5593 16.9277 22.5593 16.9277 22.6142 17.2803C22.5593 17.6087 22.5593 17.6087 22.4494 17.7971C22.1722 17.9536 21.9948 17.9435 21.6804 17.9005C21.1066 17.6028 20.6731 17.1435 20.3742 16.575C20.3049 16.3127 20.2716 16.1269 20.3132 15.8575C20.5291 15.5306 20.64 15.4743 21.0334 15.438Z" fill="#106FAE"/>
<path d="M23.4131 17.1953C25.0425 17.235 25.0425 17.235 25.4772 17.5461C25.666 17.8239 25.6264 18.0648 25.5859 18.3871C25.4395 18.5755 25.4395 18.5755 25.1953 18.6789C24.5175 18.7392 23.6627 18.7109 23.0553 18.3836C22.9187 18.2654 22.9187 18.2654 22.7539 17.9979C22.7644 17.4644 22.8525 17.2325 23.4131 17.1953Z" fill="#106FAE"/>
<path d="M28.3203 17.1219C28.5522 17.3287 28.5522 17.3287 28.7109 17.6084C28.7231 17.9124 28.7231 17.9124 28.6133 18.1921C28.0056 18.6502 27.0128 18.7181 26.2695 18.6785C26.0315 18.5265 26.0315 18.5265 25.8789 18.2894C25.8998 17.6848 25.8998 17.6848 26.1719 17.4138C26.4434 17.3522 26.7094 17.3004 26.9836 17.2557C27.0579 17.2427 27.1321 17.2296 27.2085 17.2162C27.9749 17.0862 27.9749 17.0862 28.3203 17.1219Z" fill="#106FAE"/>
<path d="M31.0486 12.2153C31.3477 12.2579 31.3477 12.2579 31.5857 12.416C31.7383 12.647 31.7383 12.647 31.7505 12.9085C31.6224 13.2843 31.4358 13.5636 31.2077 13.8867C31.0056 14.1768 30.8356 14.4785 30.6641 14.7873C30.3851 14.8101 30.1561 14.8279 29.8828 14.7873C29.6692 14.5988 29.6692 14.5988 29.5898 14.3009C29.6926 13.586 30.2655 12.3315 31.0486 12.2153Z" fill="#106FAE"/>
<path d="M30.0352 15.0976C30.3708 15.1766 30.3708 15.1766 30.5662 15.3712C30.7153 16.0892 30.6469 16.6182 30.2793 17.2561C30.0779 17.5114 30.0779 17.5114 29.7849 17.706C29.4431 17.7425 29.4431 17.7425 29.1013 17.706C28.8709 17.5061 28.8192 17.3772 28.7656 17.0797C28.8083 16.8304 28.8083 16.8304 28.9915 16.6176C29.2473 16.2803 29.2807 16.0077 29.3367 15.5954C29.4473 15.165 29.5946 15.0745 30.0352 15.0976Z" fill="#106FAE"/>
<path d="M19.7162 13.0985C20.1938 13.4045 20.7406 13.8877 20.9968 14.3982C21.0221 14.7923 21.0266 14.9375 20.8015 15.2737C20.487 15.326 20.3192 15.3516 20.0203 15.2737C19.845 15.1272 19.724 14.9713 19.5892 14.7873C19.416 14.5697 19.2259 14.4175 19.0071 14.2462C18.662 13.9537 18.662 13.9537 18.5859 13.5956C18.6579 13.3087 18.7057 13.2047 18.946 13.0362C19.2743 12.9272 19.4067 12.9585 19.7162 13.0985Z" fill="#106FAE"/>
</g>
<defs>
<clipPath id="clip0_16_604">
<rect width="50" height="49.8099" fill="white"/>
</clipPath>
</defs>
</svg>
