<svg width="45" height="45" viewBox="0 0 45 45" fill="none" xmlns="http://www.w3.org/2000/svg">
<g clip-path="url(#clip0_16_823)">
<path d="M19.3765 8.46871C19.4515 8.46794 19.5264 8.46717 19.6036 8.46638C19.8511 8.46445 20.0985 8.46573 20.3461 8.46721C20.5182 8.46692 20.6902 8.46649 20.8623 8.46594C21.2228 8.46529 21.5834 8.46623 21.9439 8.46829C22.4062 8.47079 22.8684 8.46935 23.3306 8.46672C23.6859 8.46513 24.0412 8.46563 24.3965 8.46677C24.5669 8.46706 24.7374 8.4667 24.9078 8.46568C25.146 8.46457 25.3841 8.46627 25.6223 8.46871C25.6928 8.46782 25.7633 8.46694 25.8359 8.46602C26.15 8.472 26.3337 8.50065 26.5864 8.69229C26.7773 9.08754 26.7645 9.43648 26.7581 9.87014C26.7581 9.96107 26.7582 10.052 26.7582 10.1457C26.758 10.4458 26.7552 10.7458 26.7525 11.0459C26.7518 11.2542 26.7513 11.4624 26.751 11.6707C26.7496 12.2184 26.7462 12.7662 26.7423 13.3139C26.7387 13.873 26.7371 14.4321 26.7353 14.9912C26.7316 16.088 26.7256 17.1847 26.7182 18.2814C26.8303 18.2801 26.9425 18.2787 27.0581 18.2773C27.475 18.2725 27.8918 18.2695 28.3087 18.267C28.489 18.2656 28.6693 18.2638 28.8496 18.2615C29.109 18.2583 29.3684 18.2568 29.6278 18.2557C29.7484 18.2536 29.7484 18.2536 29.8715 18.2516C30.2977 18.2515 30.5937 18.2614 30.9369 18.5451C31.0728 18.8168 31.0506 19.0368 31.0248 19.3361C30.8442 19.5737 30.739 19.6749 30.4431 19.7323C30.3124 19.7327 30.3124 19.7327 30.179 19.7332C30.0303 19.7348 30.0303 19.7348 29.8786 19.7365C29.7719 19.7358 29.6653 19.7351 29.5554 19.7344C29.4455 19.7347 29.3356 19.7351 29.2225 19.7354C28.9901 19.7356 28.7579 19.7352 28.5256 19.7335C28.2283 19.7315 27.931 19.7327 27.6337 19.7348C27.3496 19.7364 27.0655 19.7352 26.7813 19.7344C26.6747 19.7351 26.568 19.7358 26.4581 19.7365C26.359 19.7354 26.2598 19.7343 26.1577 19.7332C26.0705 19.7329 25.9834 19.7326 25.8936 19.7323C25.6635 19.6877 25.6635 19.6877 25.4593 19.566C25.2263 19.2025 25.2659 18.8477 25.272 18.4249C25.2719 18.3322 25.2719 18.2396 25.2718 18.1442C25.2721 17.8379 25.2748 17.5317 25.2776 17.2254C25.2782 17.0131 25.2787 16.8007 25.2791 16.5884C25.2804 16.0295 25.2839 15.4707 25.2878 14.9118C25.292 14.2412 25.2936 13.5707 25.2957 12.9002C25.2991 11.8814 25.3058 10.8627 25.3119 9.84394C23.4557 9.84394 21.5994 9.84394 19.6869 9.84394C19.691 10.5251 19.6951 11.2062 19.6993 11.908C19.7011 12.339 19.7028 12.77 19.7041 13.2009C19.7062 13.8853 19.7087 14.5697 19.7134 15.2541C19.7172 15.8057 19.7194 16.3574 19.7203 16.909C19.7209 17.1197 19.7222 17.3304 19.7241 17.541C19.7266 17.8357 19.727 18.1302 19.7268 18.4249C19.7281 18.5124 19.7293 18.5998 19.7307 18.69C19.7286 19.0266 19.7238 19.2661 19.5656 19.5664C19.1956 19.7613 18.8359 19.7335 18.4241 19.7276C18.3314 19.7276 18.2388 19.7277 18.1434 19.7278C17.8371 19.7275 17.5309 19.7248 17.2246 19.722C17.0123 19.7214 16.8 19.7209 16.5877 19.7205C16.0288 19.7192 15.4699 19.7157 14.911 19.7118C14.2405 19.7076 13.5699 19.706 12.8994 19.7039C11.8806 19.7005 10.8619 19.6938 9.84316 19.6877C9.84316 21.5439 9.84316 23.4002 9.84316 25.3127C10.5243 25.3086 11.2054 25.3045 11.9072 25.3003C12.3382 25.2985 12.7692 25.2968 13.2002 25.2955C13.8846 25.2934 14.5689 25.2909 15.2533 25.2862C15.805 25.2824 16.3566 25.2802 16.9082 25.2793C17.1189 25.2787 17.3296 25.2774 17.5403 25.2755C17.8349 25.273 18.1294 25.2726 18.4241 25.2728C18.5116 25.2715 18.5991 25.2702 18.6892 25.2689C19.0258 25.271 19.2653 25.2758 19.5656 25.434C19.7606 25.804 19.7328 26.1637 19.7268 26.5755C19.7269 26.6681 19.7269 26.7608 19.727 26.8562C19.7267 27.1625 19.724 27.4687 19.7212 27.775C19.7206 27.9873 19.7201 28.1996 19.7197 28.4119C19.7184 28.9708 19.7149 29.5297 19.711 30.0886C19.7068 30.7591 19.7052 31.4297 19.7032 32.1002C19.6997 33.119 19.693 34.1377 19.6869 35.1564C21.5432 35.1564 23.3994 35.1564 25.3119 35.1564C25.3078 34.4753 25.3038 33.7942 25.2995 33.0924C25.2978 32.6614 25.2961 32.2304 25.2947 31.7994C25.2926 31.115 25.2901 30.4307 25.2854 29.7463C25.2816 29.1946 25.2795 28.643 25.2786 28.0914C25.2779 27.8807 25.2766 27.67 25.2747 27.4593C25.2722 27.1647 25.2718 26.8702 25.272 26.5755C25.2707 26.488 25.2695 26.4005 25.2682 26.3104C25.2702 25.9738 25.275 25.7343 25.4332 25.434C25.8033 25.239 26.1629 25.2668 26.5747 25.2728C26.6674 25.2727 26.76 25.2727 26.8554 25.2726C27.1617 25.2729 27.4679 25.2756 27.7742 25.2784C27.9865 25.279 28.1988 25.2795 28.4112 25.2799C28.9701 25.2812 29.5289 25.2847 30.0878 25.2885C30.7584 25.2928 31.4289 25.2944 32.0994 25.2964C33.1182 25.2999 34.1369 25.3066 35.1557 25.3127C35.1557 23.4564 35.1557 21.6002 35.1557 19.6877C34.4886 19.6877 33.8215 19.6877 33.1342 19.6877C32.9892 19.5427 32.8441 19.3976 32.6947 19.2482C32.6947 18.9268 32.7111 18.7262 32.909 18.4682C33.3383 18.1591 33.9032 18.2582 34.4128 18.2555C34.6102 18.254 34.8074 18.2501 35.0048 18.2462C35.1307 18.2454 35.2567 18.2446 35.3826 18.244C35.497 18.2427 35.6114 18.2415 35.7293 18.2401C36.086 18.2884 36.2287 18.3731 36.474 18.633C36.5982 18.9636 36.5749 19.3147 36.5747 19.6629C36.5751 19.7648 36.5751 19.7648 36.5756 19.8688C36.5764 20.093 36.5766 20.3173 36.5767 20.5415C36.577 20.6976 36.5772 20.8537 36.5776 21.0098C36.5781 21.3369 36.5782 21.6639 36.5782 21.991C36.5782 22.4099 36.5794 22.8288 36.5809 23.2477C36.5819 23.57 36.5821 23.8923 36.582 24.2147C36.5821 24.3691 36.5825 24.5235 36.5832 24.6779C36.584 24.894 36.5838 25.11 36.5833 25.3261C36.5838 25.3897 36.5842 25.4533 36.5848 25.5188C36.5826 25.8689 36.559 26.1476 36.3861 26.4553C36.1346 26.6814 35.9754 26.7518 35.6386 26.7506C35.5597 26.751 35.4809 26.7514 35.3996 26.7517C35.3137 26.7508 35.2279 26.7498 35.1394 26.7489C35.0485 26.7489 34.9576 26.7489 34.8639 26.749C34.5634 26.7488 34.2628 26.7468 33.9623 26.7447C33.7539 26.7442 33.5455 26.7438 33.3371 26.7436C32.7887 26.7425 32.2402 26.74 31.6917 26.737C31.132 26.7343 30.5724 26.7331 30.0127 26.7318C28.9145 26.729 27.8163 26.7245 26.7182 26.7189C26.7189 26.8347 26.7197 26.9504 26.7205 27.0697C26.7276 28.1599 26.7329 29.2501 26.7364 30.3403C26.7382 30.9008 26.7407 31.4613 26.7447 32.0218C26.7485 32.5626 26.7506 33.1034 26.7515 33.6442C26.7522 33.8507 26.7534 34.0571 26.7553 34.2635C26.7579 34.5524 26.7582 34.8413 26.7581 35.1302C26.76 35.2585 26.76 35.2585 26.7619 35.3894C26.7597 35.7459 26.743 35.9839 26.5864 36.3081C26.2765 36.5431 25.9962 36.5364 25.6223 36.5317C25.5099 36.5328 25.5099 36.5328 25.3952 36.534C25.1477 36.5359 24.9003 36.5346 24.6527 36.5332C24.4807 36.5335 24.3086 36.5339 24.1365 36.5344C23.776 36.5351 23.4155 36.5341 23.0549 36.5321C22.5926 36.5296 22.1305 36.531 21.6682 36.5337C21.3129 36.5352 20.9576 36.5347 20.6024 36.5336C20.4319 36.5333 20.2615 36.5337 20.091 36.5347C19.8528 36.5358 19.6148 36.5341 19.3765 36.5317C19.306 36.5325 19.2355 36.5334 19.1629 36.5344C18.8488 36.5284 18.6651 36.4997 18.4124 36.3081C18.2215 35.9128 18.2343 35.5639 18.2407 35.1302C18.2407 35.0393 18.2406 34.9484 18.2406 34.8547C18.2408 34.5546 18.2436 34.2546 18.2463 33.9545C18.247 33.7462 18.2475 33.538 18.2478 33.3297C18.2492 32.7819 18.2526 32.2342 18.2565 31.6864C18.2601 31.1274 18.2617 30.5683 18.2635 30.0092C18.2673 28.9124 18.2733 27.8157 18.2807 26.7189C18.1649 26.7197 18.0492 26.7205 17.9299 26.7213C16.8397 26.7284 15.7495 26.7337 14.6593 26.7372C14.0988 26.739 13.5383 26.7415 12.9778 26.7455C12.437 26.7493 11.8962 26.7514 11.3554 26.7523C11.1489 26.7529 10.9425 26.7542 10.7361 26.7561C10.4471 26.7587 10.1583 26.759 9.86936 26.7588C9.78382 26.7601 9.69829 26.7614 9.61016 26.7627C9.23826 26.7604 9.02061 26.7515 8.69345 26.5626C8.37358 26.1923 8.42385 25.8085 8.42414 25.3374C8.42385 25.2695 8.42355 25.2016 8.42325 25.1316C8.42241 24.9073 8.42224 24.6831 8.42215 24.4588C8.42186 24.3028 8.42157 24.1467 8.42126 23.9906C8.42073 23.6635 8.42057 23.3364 8.42062 23.0094C8.42063 22.5905 8.41943 22.1716 8.41792 21.7527C8.41694 21.4304 8.41676 21.1081 8.41681 20.7857C8.41671 20.6313 8.41632 20.4769 8.41564 20.3224C8.41478 20.1064 8.41503 19.8904 8.41556 19.6743C8.41507 19.6107 8.41457 19.5471 8.41406 19.4815C8.41624 19.1314 8.43978 18.8528 8.61269 18.5451C8.86419 18.3189 9.02337 18.2485 9.36022 18.2497C9.47853 18.2492 9.47853 18.2492 9.59923 18.2486C9.728 18.2501 9.728 18.2501 9.85938 18.2515C9.9503 18.2515 10.0412 18.2514 10.1349 18.2514C10.4355 18.2516 10.736 18.2536 11.0365 18.2557C11.2449 18.2562 11.4533 18.2566 11.6617 18.2568C12.2102 18.2578 12.7586 18.2604 13.3071 18.2633C13.8668 18.266 14.4265 18.2672 14.9861 18.2686C16.0843 18.2714 17.1825 18.2759 18.2807 18.2814C18.2799 18.1657 18.2791 18.05 18.2783 17.9307C18.2712 16.8405 18.2659 15.7503 18.2624 14.6601C18.2606 14.0996 18.2581 13.5391 18.2541 12.9786C18.2503 12.4378 18.2482 11.897 18.2473 11.3562C18.2467 11.1497 18.2454 10.9433 18.2435 10.7369C18.2409 10.4479 18.2406 10.1591 18.2407 9.87014C18.2395 9.7846 18.2382 9.69907 18.2369 9.61094C18.2391 9.25449 18.2558 9.01646 18.4124 8.69229C18.7223 8.45725 19.0027 8.464 19.3765 8.46871Z" fill="#106FAE"/>
<path d="M40.5362 23.7643C40.6069 23.7692 40.6777 23.7742 40.7506 23.7793C40.9003 23.79 41.05 23.8011 41.1996 23.8125C41.4279 23.8294 41.6563 23.8436 41.8847 23.8577C42.0303 23.8685 42.1759 23.8795 42.3214 23.8906C42.3895 23.8944 42.4575 23.8982 42.5276 23.9021C42.8868 23.933 43.0375 23.9716 43.3303 24.2013C43.621 24.5862 43.5312 24.9365 43.4743 25.3871C43.1552 27.6023 42.5327 29.7079 41.5723 31.7287C41.5419 31.7928 41.5115 31.8569 41.4801 31.923C40.7684 33.3954 39.8462 34.8121 38.7598 36.0353C38.6941 36.1096 38.6284 36.1838 38.5607 36.2602C38.4282 36.4083 38.295 36.5557 38.161 36.7024C37.9747 36.9077 37.7933 37.1167 37.6117 37.3262C37.2864 37.6918 36.937 38.0065 36.5625 38.3205C36.4814 38.3918 36.4003 38.463 36.3167 38.5364C32.8829 41.5392 27.8567 43.8641 23.2032 43.5939C23.2086 43.6846 23.214 43.7752 23.2196 43.8686C23.1978 44.319 23.0943 44.5958 22.7582 44.9013C22.379 45.0465 22.0179 45.0984 21.6211 45.0002C20.9611 44.6307 20.4276 44.0122 19.8983 43.4809C19.7417 43.3241 19.5841 43.1684 19.4263 43.0129C19.3258 42.9126 19.2255 42.8123 19.1252 42.7119C19.0549 42.6428 19.0549 42.6428 18.9831 42.5724C18.6768 42.2622 18.4824 41.9958 18.4375 41.557C18.4831 40.9487 18.7348 40.6699 19.1602 40.2541C19.2569 40.1556 19.3535 40.0569 19.45 39.9581C19.9785 39.4197 20.5107 38.8884 21.0938 38.4084C21.2189 38.3051 21.2189 38.3051 21.3465 38.1996C21.6884 37.9382 21.9918 37.9252 22.4121 37.9689C22.8131 38.1329 23.0052 38.3787 23.2032 38.76C23.209 38.9649 23.2097 39.1702 23.2032 39.3752C27.9212 38.7891 32.3695 37.1029 35.4158 33.2706C35.8667 32.7242 35.8667 32.7242 36.2714 32.5801C36.5625 32.6076 36.5625 32.6076 36.8207 32.734C37.0189 32.9802 37.0829 33.146 37.06 33.4642C36.9321 33.9009 36.5999 34.2124 36.2989 34.5412C36.2163 34.6342 36.1338 34.7272 36.0513 34.8203C34.8794 36.1294 33.5515 37.2228 32.0557 38.1397C31.9122 38.2278 31.7697 38.3175 31.6273 38.4074C29.0515 39.9653 25.949 40.7533 22.9505 40.8144C22.8556 40.8193 22.8556 40.8193 22.7589 40.8244C22.4155 40.83 22.2548 40.7953 21.9775 40.5871C21.7982 40.3438 21.7345 40.2001 21.709 39.9025C21.4947 40.102 21.2805 40.3017 21.0663 40.5013C21.0057 40.5578 20.945 40.6142 20.8825 40.6724C20.7945 40.7544 20.7945 40.7544 20.7048 40.8381C20.651 40.8883 20.5971 40.9384 20.5416 40.9901C20.4009 41.1233 20.2633 41.2589 20.127 41.3967C20.2524 41.6831 20.4053 41.8715 20.6276 42.0902C20.6904 42.1525 20.7533 42.2148 20.8181 42.279C20.9165 42.3752 20.9165 42.3752 21.0169 42.4733C21.0832 42.5388 21.1494 42.6043 21.2177 42.6718C21.3811 42.8331 21.5449 42.994 21.709 43.1545C21.729 43.0439 21.7489 42.9333 21.7694 42.8194C21.8364 42.5604 21.8677 42.4678 22.0654 42.278C22.4229 42.1533 22.7501 42.1525 23.1263 42.1492C27.6128 42.0139 31.8097 40.3461 35.2332 37.4691C35.2792 37.4304 35.3252 37.3918 35.3726 37.352C35.6127 37.1473 35.8383 36.9361 36.0579 36.7093C36.2989 36.4748 36.2989 36.4748 36.4746 36.4748C36.5078 36.3978 36.5078 36.3978 36.5416 36.3193C36.6643 36.0982 36.7991 35.9696 36.9855 35.7991C37.9327 34.8718 38.696 33.7416 39.375 32.6076C39.4268 32.5227 39.4268 32.5227 39.4796 32.436C40.8054 30.2414 41.526 27.8131 42.0118 25.3127C41.5477 25.3127 41.0836 25.3127 40.6055 25.3127C40.5686 25.509 40.5686 25.509 40.531 25.7092C40.2202 27.3115 39.7888 28.8019 39.1004 30.284C39.0646 30.362 39.0287 30.4399 38.9918 30.5203C38.7967 30.9238 38.6332 31.2323 38.2325 31.465C37.9277 31.4598 37.7149 31.4307 37.4469 31.2838C37.2949 31.0065 37.3181 30.7163 37.3536 30.4103C37.4474 30.1768 37.543 29.9709 37.6612 29.7512C38.4989 28.0816 39.0007 26.2296 39.2353 24.3795C39.2957 24.1354 39.3796 24.0017 39.5508 23.8185C39.8878 23.7062 40.1877 23.7396 40.5362 23.7643Z" fill="#106FAE"/>
<path d="M22.9179 -0.0438843C22.9881 -0.0484161 23.0584 -0.052948 23.1307 -0.0576172C23.9154 0.124454 24.5515 0.966703 25.1021 1.51937C25.2587 1.6762 25.4164 1.83181 25.5742 1.98738C25.6746 2.08762 25.775 2.18793 25.8753 2.28831C25.9221 2.33437 25.969 2.38043 26.0173 2.42789C26.3236 2.73807 26.518 3.00445 26.5629 3.44324C26.5174 4.05154 26.2657 4.33035 25.8403 4.74615C25.7435 4.84465 25.6469 4.94331 25.5505 5.0421C25.0219 5.58051 24.4897 6.11187 23.9067 6.59186C23.8233 6.66074 23.7399 6.72963 23.654 6.8006C23.312 7.0621 23.0087 7.07505 22.5883 7.03131C22.1874 6.8673 21.9952 6.6215 21.7973 6.2403C21.7914 6.0353 21.7907 5.83003 21.7973 5.62506C17.8535 6.12893 14.2592 7.25617 11.2834 10.0031C11.0799 10.1905 10.8719 10.3715 10.6626 10.5524C10.2973 10.8781 9.97662 11.2218 9.66838 11.6016C9.56811 11.7248 9.56811 11.7248 9.46582 11.8505C8.88442 12.5788 8.38274 13.3477 7.91056 14.1505C7.87907 14.2037 7.84757 14.2569 7.81512 14.3117C6.76252 16.1137 6.15715 18.1397 5.83904 20.1922C5.82632 20.2702 5.8136 20.3481 5.8005 20.4285C5.78995 20.4975 5.7794 20.5666 5.76853 20.6378C5.69879 20.8806 5.63428 21.0068 5.44963 21.1817C4.83011 21.3313 4.20072 21.2427 3.57294 21.1877C3.37325 21.1707 3.17349 21.1566 2.97358 21.1426C2.84562 21.1318 2.71768 21.1208 2.58975 21.1096C2.47445 21.1003 2.35916 21.091 2.24037 21.0814C1.86974 20.9901 1.72665 20.8656 1.49455 20.5665C1.08062 16.9192 3.58214 12.3686 5.7133 9.58014C5.78128 9.49063 5.84925 9.40113 5.91929 9.30891C6.38229 8.74284 6.38229 8.74284 6.6976 8.63531C6.98798 8.61814 7.18318 8.68607 7.42716 8.83856C7.61354 9.14142 7.60074 9.315 7.559 9.66803C7.41943 9.91919 7.23861 10.1302 7.05363 10.3492C6.09117 11.5484 5.29714 12.8399 4.65861 14.2383C4.61517 14.332 4.61517 14.332 4.57085 14.4275C3.7995 16.1067 3.33255 17.8764 2.98869 19.6876C3.45275 19.6876 3.91681 19.6876 4.39494 19.6876C4.42054 19.5536 4.44615 19.4197 4.47253 19.2818C4.81046 17.56 5.30412 15.9951 6.06486 14.4141C6.0951 14.3512 6.12533 14.2884 6.15648 14.2236C8.17625 10.088 11.9639 6.7918 16.2842 5.2347C17.8774 4.69308 19.5848 4.29756 21.2699 4.21881C21.3288 4.21548 21.3877 4.21215 21.4483 4.20873C21.6489 4.19836 21.8493 4.1917 22.05 4.18585C22.1138 4.18249 22.1777 4.17912 22.2435 4.17566C22.5862 4.17037 22.7462 4.20538 23.0229 4.41313C23.2022 4.6565 23.2659 4.80019 23.2914 5.09772C23.5057 4.89821 23.7199 4.6986 23.9341 4.49896C24.0251 4.41425 24.0251 4.41425 24.118 4.32782C24.1766 4.27315 24.2352 4.21848 24.2956 4.16216C24.3495 4.11199 24.4033 4.06182 24.4588 4.01014C24.5995 3.87694 24.7372 3.74131 24.8735 3.60358C24.7481 3.31717 24.5951 3.12875 24.3729 2.91006C24.31 2.84775 24.2471 2.78544 24.1823 2.72124C24.1167 2.65711 24.0511 2.59299 23.9836 2.52692C23.9173 2.46143 23.851 2.39595 23.7827 2.32848C23.6193 2.16717 23.4556 2.00629 23.2914 1.84576C23.2615 2.01163 23.2615 2.01163 23.231 2.18085C23.1641 2.43988 23.1327 2.53249 22.9351 2.72227C22.5776 2.84696 22.2503 2.84772 21.8742 2.85101C17.6282 2.97908 12.8924 4.50734 9.7882 7.52261C9.54685 7.75128 9.36991 7.85309 9.04215 7.87177C8.70158 7.82233 8.70158 7.82233 8.48185 7.685C8.29789 7.38605 8.30155 7.20088 8.35002 6.85553C8.62423 6.44038 8.99518 6.16683 9.38822 5.87225C9.45482 5.82207 9.52142 5.77189 9.59003 5.72018C12.8994 3.24687 17.1159 1.35188 21.3249 1.40082C21.4598 1.40201 21.4598 1.40201 21.5975 1.40322C21.6634 1.40424 21.7293 1.40526 21.7973 1.40631C21.79 1.31749 21.7828 1.22866 21.7753 1.13715C21.8029 0.702244 21.8992 0.529514 22.1488 0.175842C22.4035 0.0145411 22.6183 -0.0324362 22.9179 -0.0438843Z" fill="#106FAE"/>
<path d="M5.2624 29.564C5.33703 29.5638 5.41166 29.5636 5.48855 29.5633C5.64582 29.5634 5.8031 29.5646 5.96036 29.5668C6.20095 29.5698 6.44127 29.5686 6.68187 29.5669C6.83494 29.5675 6.988 29.5684 7.14107 29.5695C7.21285 29.569 7.28464 29.5686 7.35859 29.5682C7.66461 29.5745 7.87165 29.5947 8.13145 29.7624C8.30311 30.0379 8.30154 30.22 8.29566 30.5435C8.29453 30.6534 8.2934 30.7633 8.29223 30.8765C8.28928 30.9909 8.28634 31.1054 8.2833 31.2233C8.28171 31.3391 8.28013 31.4548 8.27849 31.5741C8.27435 31.8601 8.26857 32.1459 8.26133 32.4318C8.36571 32.429 8.36571 32.429 8.47219 32.4262C8.78825 32.4189 9.10428 32.4143 9.42039 32.4098C9.52989 32.4068 9.63939 32.4039 9.75221 32.4009C9.91068 32.3992 9.91068 32.3992 10.0724 32.3974C10.218 32.3947 10.218 32.3947 10.3666 32.3919C10.6971 32.4411 10.8397 32.5491 11.0738 32.7833C11.1802 33.1025 11.1776 33.3977 11.1796 33.7302C11.1801 33.7971 11.1806 33.8639 11.1811 33.9328C11.1819 34.0742 11.1825 34.2156 11.1828 34.357C11.1837 34.5727 11.1864 34.7883 11.1892 35.0039C11.1898 35.1415 11.1902 35.2791 11.1906 35.4166C11.1916 35.4808 11.1927 35.545 11.1938 35.6111C11.1921 36.0018 11.1529 36.2607 10.898 36.5626C10.5767 36.7431 10.2993 36.7593 9.93503 36.7556C9.83731 36.755 9.73959 36.7544 9.63891 36.7539C9.48724 36.7516 9.48724 36.7516 9.3325 36.7494C9.22968 36.7486 9.12686 36.7478 9.02093 36.747C8.76771 36.7449 8.51453 36.742 8.26133 36.7384C8.26363 36.8111 8.26593 36.8838 8.2683 36.9587C8.27744 37.2881 8.28315 37.6174 8.28879 37.9469C8.29248 38.0613 8.29616 38.1758 8.29995 38.2937C8.30137 38.4036 8.30278 38.5135 8.30424 38.6267C8.30655 38.7279 8.30885 38.8292 8.31122 38.9335C8.26133 39.1993 8.26133 39.1993 8.0863 39.4078C7.73497 39.5979 7.45749 39.6032 7.06382 39.6007C6.99135 39.6012 6.91888 39.6018 6.84422 39.6023C6.69146 39.603 6.53869 39.6027 6.38593 39.6016C6.15264 39.6003 5.91967 39.6033 5.68641 39.6067C5.53763 39.6068 5.38886 39.6066 5.24009 39.6062C5.17068 39.6073 5.10127 39.6085 5.02976 39.6097C4.67189 39.6037 4.51765 39.5762 4.21761 39.3628C4.00871 39.0628 3.99107 38.9119 3.99966 38.5494C4.00108 38.4438 4.0025 38.3381 4.00395 38.2293C4.00764 38.1198 4.01132 38.0103 4.01511 37.8975C4.0171 37.7863 4.01908 37.6751 4.02112 37.5605C4.02629 37.2864 4.03352 37.0124 4.04258 36.7384C3.97832 36.7393 3.91406 36.7402 3.84785 36.7412C3.55571 36.7449 3.26357 36.7471 2.97141 36.7494C2.87029 36.7509 2.76918 36.7523 2.665 36.7539C2.56728 36.7544 2.46956 36.755 2.36888 36.7556C2.23425 36.757 2.23425 36.757 2.0969 36.7584C1.82874 36.7371 1.64398 36.6869 1.40586 36.5626C1.17567 36.2173 1.2 35.9176 1.19746 35.5165C1.19667 35.4397 1.19588 35.3629 1.19506 35.2837C1.19378 35.1213 1.193 34.9588 1.19268 34.7963C1.19163 34.5478 1.18731 34.2995 1.18287 34.051C1.18204 33.8932 1.1814 33.7353 1.18098 33.5774C1.17927 33.5032 1.17755 33.4289 1.17578 33.3524C1.17851 32.9973 1.18341 32.8388 1.41775 32.5601C1.71358 32.4093 1.90059 32.3912 2.23155 32.3974C2.3372 32.3986 2.44285 32.3997 2.5517 32.4009C2.6612 32.4038 2.7707 32.4068 2.88352 32.4098C2.99472 32.4114 3.10592 32.413 3.22049 32.4146C3.49459 32.4187 3.76855 32.4245 4.04258 32.4318C4.04028 32.3622 4.03798 32.2926 4.0356 32.2209C4.02646 31.9049 4.02075 31.5888 4.01511 31.2727C4.01143 31.1632 4.00775 31.0537 4.00395 30.9409C4.00254 30.8352 4.00112 30.7296 3.99966 30.6207C3.99736 30.5236 3.99506 30.4265 3.99269 30.3264C4.12669 29.6074 4.64284 29.5539 5.2624 29.564ZM5.44883 31.0255C5.44554 31.1927 5.44226 31.36 5.43887 31.5323C5.4331 31.7515 5.42726 31.9708 5.42136 32.1901C5.41938 32.3003 5.4174 32.4105 5.41535 32.5241C5.41224 32.63 5.40912 32.736 5.40591 32.8451C5.40361 32.9427 5.40131 33.0403 5.39894 33.1408C5.35603 33.4319 5.31836 33.5556 5.09727 33.7501C4.84143 33.7981 4.84143 33.7981 4.53319 33.8037C4.42301 33.8065 4.31282 33.8093 4.19931 33.8123C4.08414 33.8135 3.96897 33.8148 3.85032 33.816C3.73296 33.8185 3.6156 33.8211 3.49824 33.8239C3.21097 33.8302 2.92365 33.8343 2.63633 33.838C2.63633 34.3311 2.63633 34.8241 2.63633 35.3322C2.81092 35.3344 2.98551 35.3367 3.16539 35.339C3.33469 35.3427 3.50398 35.3464 3.67327 35.3504C3.84859 35.3541 4.02395 35.356 4.19931 35.3579C4.30949 35.3607 4.41967 35.3636 4.53319 35.3665C4.63491 35.3683 4.73662 35.3702 4.84143 35.3721C5.09727 35.42 5.09727 35.42 5.26155 35.5646C5.38829 35.8286 5.39901 36.0324 5.40591 36.325C5.41059 36.4839 5.41059 36.4839 5.41535 36.646C5.41734 36.7563 5.41932 36.8665 5.42136 36.9801C5.42437 37.0917 5.42737 37.2033 5.43046 37.3183C5.43771 37.5937 5.44342 37.8692 5.44883 38.1447C5.91289 38.1447 6.37695 38.1447 6.85508 38.1447C6.85836 37.9774 6.86165 37.8102 6.86504 37.6379C6.87081 37.4186 6.87665 37.1994 6.88254 36.9801C6.88453 36.8699 6.88651 36.7596 6.88855 36.646C6.89167 36.5401 6.89478 36.4342 6.89799 36.325C6.9003 36.2275 6.9026 36.1299 6.90497 36.0294C6.94797 35.7377 6.98429 35.6143 7.20664 35.42C7.47055 35.3721 7.47055 35.3721 7.78995 35.3665C7.90409 35.3637 8.01824 35.3608 8.13584 35.3579C8.25641 35.3566 8.37697 35.3553 8.49753 35.3541C8.61913 35.3517 8.74073 35.349 8.86232 35.3462C9.16001 35.34 9.45774 35.3359 9.75547 35.3322C9.75547 34.8391 9.75547 34.346 9.75547 33.838C9.58088 33.8337 9.40629 33.8294 9.22641 33.825C9.05711 33.8201 8.88782 33.8152 8.71853 33.8101C8.5432 33.8051 8.36784 33.801 8.19249 33.7968C8.08231 33.7934 7.97213 33.79 7.85861 33.7865C7.75689 33.7838 7.65517 33.781 7.55037 33.7781C7.29453 33.7501 7.29453 33.7501 7.03086 33.5743C6.93784 33.2953 6.92518 33.0784 6.91516 32.785C6.91148 32.6828 6.9078 32.5805 6.904 32.4752C6.90055 32.3684 6.89709 32.2616 6.89353 32.1516C6.88974 32.0438 6.88594 31.936 6.88203 31.8249C6.8727 31.5585 6.86384 31.292 6.85508 31.0255C6.39102 31.0255 5.92695 31.0255 5.44883 31.0255Z" fill="#106FAE"/>
<path d="M37.9367 5.39965C38.0091 5.3991 38.0816 5.39856 38.1563 5.398C38.309 5.39738 38.4618 5.39765 38.6146 5.39877C38.8478 5.39999 39.0808 5.39699 39.3141 5.39364C39.4629 5.39356 39.6116 5.39372 39.7604 5.39416C39.8298 5.39299 39.8992 5.39183 39.9707 5.39062C40.3286 5.39665 40.4828 5.4241 40.7829 5.63749C40.9918 5.93752 41.0094 6.08848 41.0008 6.4509C40.9994 6.55655 40.998 6.6622 40.9965 6.77105C40.9929 6.88055 40.9892 6.99005 40.9854 7.10287C40.9834 7.21407 40.9814 7.32527 40.9794 7.43984C40.9742 7.71398 40.967 7.9879 40.9579 8.26193C41.0222 8.26101 41.0864 8.26009 41.1526 8.25914C41.4448 8.25548 41.7369 8.2532 42.0291 8.25094C42.1302 8.24947 42.2313 8.248 42.3355 8.24648C42.4332 8.24592 42.5309 8.24535 42.6316 8.24477C42.7214 8.24384 42.8111 8.24292 42.9036 8.24198C43.1718 8.26325 43.3565 8.31348 43.5946 8.43771C43.8248 8.783 43.8005 9.08269 43.803 9.48382C43.8038 9.56064 43.8046 9.63747 43.8054 9.71662C43.8067 9.87908 43.8075 10.0415 43.8078 10.204C43.8089 10.4525 43.8132 10.7008 43.8176 10.9493C43.8184 11.1072 43.8191 11.265 43.8195 11.4229C43.8212 11.4972 43.8229 11.5714 43.8247 11.6479C43.822 12.003 43.8171 12.1615 43.5827 12.4403C43.2869 12.591 43.0999 12.6092 42.7689 12.6029C42.6633 12.6018 42.5576 12.6006 42.4488 12.5995C42.3393 12.5965 42.2298 12.5936 42.117 12.5905C42.0058 12.589 41.8946 12.5874 41.78 12.5857C41.5059 12.5816 41.2319 12.5758 40.9579 12.5686C40.9602 12.6382 40.9625 12.7077 40.9649 12.7794C40.974 13.0955 40.9797 13.4115 40.9854 13.7276C40.9891 13.8371 40.9927 13.9466 40.9965 14.0595C40.9979 14.1651 40.9994 14.2707 41.0008 14.3796C41.0031 14.4767 41.0054 14.5738 41.0078 14.6739C40.9388 15.0441 40.8248 15.1643 40.5185 15.3811C40.2572 15.4419 40.0054 15.4407 39.7381 15.4363C39.6261 15.4367 39.6261 15.4367 39.5119 15.437C39.3547 15.4369 39.1974 15.4357 39.0401 15.4335C38.7995 15.4305 38.5592 15.4317 38.3186 15.4334C38.1655 15.4328 38.0125 15.432 37.8594 15.4309C37.7876 15.4313 37.7159 15.4317 37.6419 15.4322C37.3359 15.4258 37.1288 15.4057 36.869 15.238C36.6974 14.9625 36.6989 14.7804 36.7048 14.4568C36.706 14.3469 36.7071 14.2371 36.7083 14.1238C36.7112 14.0094 36.7142 13.895 36.7172 13.7771C36.7188 13.6613 36.7204 13.5455 36.722 13.4262C36.7261 13.1403 36.7319 12.8544 36.7392 12.5686C36.6348 12.5713 36.6348 12.5713 36.5283 12.5742C36.2122 12.5815 35.8962 12.586 35.5801 12.5905C35.4706 12.5935 35.3611 12.5964 35.2483 12.5995C35.0898 12.6012 35.0898 12.6012 34.9281 12.6029C34.7825 12.6057 34.7825 12.6057 34.6338 12.6085C34.3034 12.5592 34.1608 12.4512 33.9267 12.217C33.8203 11.8978 33.8228 11.6026 33.8209 11.2701C33.8204 11.2033 33.8199 11.1364 33.8194 11.0675C33.8186 10.9261 33.818 10.7847 33.8177 10.6433C33.8168 10.4276 33.8141 10.212 33.8113 9.9964C33.8107 9.85884 33.8103 9.72128 33.8099 9.58372C33.8088 9.51953 33.8078 9.45534 33.8066 9.3892C33.8083 8.99857 33.8475 8.73963 34.1024 8.43771C34.4238 8.25721 34.7012 8.24103 35.0655 8.24477C35.1632 8.24533 35.2609 8.2459 35.3616 8.24648C35.5133 8.24869 35.5133 8.24869 35.668 8.25094C35.7708 8.25174 35.8736 8.25253 35.9796 8.25335C36.2328 8.25542 36.486 8.2583 36.7392 8.26193C36.7369 8.18922 36.7346 8.11651 36.7322 8.0416C36.7231 7.71223 36.7173 7.38289 36.7117 7.05343C36.708 6.93901 36.7043 6.82458 36.7005 6.70668C36.6991 6.59678 36.6977 6.48688 36.6962 6.37366C36.6939 6.2724 36.6916 6.17114 36.6893 6.06681C36.7392 5.80099 36.7392 5.80099 36.9142 5.59253C37.2655 5.4024 37.543 5.39718 37.9367 5.39965ZM38.1454 6.85568C38.1421 7.02291 38.1388 7.19013 38.1355 7.36243C38.1297 7.5817 38.1238 7.80096 38.1179 8.02023C38.116 8.13047 38.114 8.24071 38.1119 8.35429C38.1088 8.46022 38.1057 8.56615 38.1025 8.67529C38.1002 8.77287 38.0979 8.87045 38.0955 8.97098C38.0525 9.26263 38.0162 9.38608 37.7938 9.58029C37.5299 9.62827 37.5299 9.62827 37.2105 9.63385C37.0964 9.63668 36.9822 9.63951 36.8646 9.64243C36.7441 9.64373 36.6235 9.64499 36.503 9.64621C36.3814 9.64868 36.2598 9.65131 36.1382 9.6541C35.8405 9.66033 35.5427 9.66445 35.245 9.66818C35.245 10.1612 35.245 10.6543 35.245 11.1623C35.4196 11.1666 35.5942 11.1709 35.7741 11.1754C35.9434 11.1803 36.1127 11.1852 36.282 11.1902C36.4573 11.1952 36.6326 11.1994 36.808 11.2035C36.9182 11.2069 37.0284 11.2103 37.1419 11.2138C37.2436 11.2166 37.3453 11.2193 37.4501 11.2222C37.706 11.2502 37.706 11.2502 37.9696 11.426C38.0626 11.7051 38.0753 11.9219 38.0853 12.2153C38.089 12.3175 38.0927 12.4198 38.0965 12.5251C38.0999 12.6319 38.1034 12.7387 38.107 12.8487C38.1108 12.9565 38.1145 13.0643 38.1185 13.1754C38.1278 13.4419 38.1366 13.7083 38.1454 13.9748C38.6095 13.9748 39.0735 13.9748 39.5517 13.9748C39.5549 13.8076 39.5582 13.6404 39.5616 13.4681C39.5674 13.2488 39.5732 13.0295 39.5791 12.8103C39.5811 12.7 39.5831 12.5898 39.5851 12.4762C39.5882 12.3703 39.5914 12.2644 39.5946 12.1552C39.5969 12.0576 39.5992 11.9601 39.6015 11.8595C39.6445 11.5685 39.6821 11.4447 39.9032 11.2502C40.1591 11.2022 40.1591 11.2022 40.4673 11.1967C40.5775 11.1938 40.6877 11.191 40.8012 11.1881C40.9739 11.1862 40.9739 11.1862 41.1502 11.1843C41.2675 11.1818 41.3849 11.1792 41.5022 11.1764C41.7895 11.1702 42.0768 11.1661 42.3642 11.1623C42.3642 10.6693 42.3642 10.1762 42.3642 9.66818C42.1896 9.66592 42.015 9.66365 41.8351 9.66131C41.6658 9.65765 41.4965 9.65397 41.3272 9.64994C41.1519 9.64625 40.9765 9.64433 40.8012 9.64243C40.691 9.6396 40.5808 9.63677 40.4673 9.63385C40.3656 9.63201 40.2639 9.63017 40.1591 9.62827C39.9032 9.58029 39.9032 9.58029 39.7389 9.43575C39.6122 9.17176 39.6015 8.96792 39.5946 8.67529C39.5915 8.56936 39.5883 8.46343 39.5851 8.35429C39.5822 8.18893 39.5822 8.18893 39.5791 8.02023C39.5761 7.90863 39.5731 7.79704 39.57 7.68206C39.5628 7.40663 39.5571 7.13116 39.5517 6.85568C39.0876 6.85568 38.6235 6.85568 38.1454 6.85568Z" fill="#106FAE"/>
<path d="M13.3595 39.1994C13.595 39.3316 13.595 39.3316 13.7989 39.551C13.8316 39.8117 13.8412 40.0184 13.8264 40.2761C13.8244 40.3416 13.8224 40.4071 13.8204 40.4745C13.8152 40.6355 13.8073 40.7964 13.7989 40.9572C13.934 40.9511 13.934 40.9511 14.0718 40.9449C14.1914 40.9416 14.311 40.9384 14.4306 40.9353C14.4898 40.9323 14.549 40.9294 14.61 40.9263C14.9304 40.9201 15.1019 40.9474 15.3744 41.1213C15.5895 41.3425 15.6446 41.4402 15.6446 41.7483C15.4445 42.2438 15.4445 42.2438 15.2052 42.3635C14.9663 42.3698 14.7298 42.3717 14.491 42.369C14.3916 42.3684 14.3916 42.3684 14.2902 42.3678C14.1264 42.3667 13.9627 42.3652 13.7989 42.3635C13.803 42.4609 13.8071 42.5584 13.8113 42.6587C13.8146 42.7874 13.8178 42.916 13.8209 43.0446C13.8253 43.1408 13.8253 43.1408 13.8298 43.239C13.8354 43.5489 13.8255 43.7322 13.6441 43.9884C13.3218 44.2061 13.1275 44.1639 12.7442 44.1213C12.5092 43.9621 12.4841 43.8684 12.3927 43.594C12.3865 43.3835 12.3852 43.1728 12.3872 42.9622C12.388 42.8504 12.3887 42.7386 12.3896 42.6234C12.3906 42.5376 12.3916 42.4519 12.3927 42.3635C12.3026 42.3686 12.2125 42.3737 12.1197 42.3789C12.0001 42.3831 11.8805 42.3871 11.7609 42.391C11.6721 42.3965 11.6721 42.3965 11.5816 42.4021C11.238 42.4105 11.0888 42.3745 10.8123 42.1647C10.6348 41.924 10.6348 41.924 10.5957 41.7366C10.605 41.6788 10.6143 41.621 10.6239 41.5615C10.6309 41.5033 10.6379 41.445 10.6451 41.385C10.7649 41.1318 10.9084 41.0689 11.1622 40.9572C11.4743 40.9315 11.4743 40.9315 11.8049 40.9408C11.9702 40.9443 11.9702 40.9443 12.1389 40.948C12.2227 40.951 12.3064 40.9541 12.3927 40.9572C12.3896 40.8735 12.3865 40.7898 12.3834 40.7035C12.381 40.5933 12.3786 40.483 12.3762 40.3695C12.3731 40.2604 12.3701 40.1513 12.3669 40.0389C12.3942 39.7077 12.4562 39.5485 12.6563 39.2873C12.9071 39.1619 13.0812 39.1722 13.3595 39.1994Z" fill="#106FAE"/>
<path d="M32.2559 0.879034C32.4909 1.03826 32.5159 1.13195 32.6074 1.40638C32.6135 1.61687 32.6148 1.82752 32.6129 2.03809C32.6121 2.14992 32.6113 2.26174 32.6105 2.37695C32.6095 2.46272 32.6085 2.54848 32.6074 2.63685C32.6975 2.63175 32.7876 2.62665 32.8804 2.6214C33 2.61727 33.1195 2.61327 33.2391 2.60938C33.2983 2.6057 33.3575 2.60202 33.4185 2.59822C33.7621 2.58984 33.9113 2.62586 34.1877 2.83563C34.3652 3.0763 34.3652 3.0763 34.4044 3.26375C34.3951 3.32154 34.3858 3.37932 34.3762 3.43885C34.3692 3.49708 34.3622 3.55532 34.3549 3.61532C34.2352 3.86852 34.0917 3.93147 33.8379 4.0431C33.5258 4.06885 33.5258 4.06885 33.1952 4.05958C33.085 4.0572 32.9747 4.05482 32.8611 4.05237C32.7774 4.04931 32.6937 4.04625 32.6074 4.0431C32.612 4.16869 32.612 4.16869 32.6167 4.29681C32.6191 4.40705 32.6214 4.51729 32.6239 4.63087C32.6285 4.79452 32.6285 4.79452 32.6332 4.96149C32.6059 5.29261 32.5439 5.4518 32.3438 5.71302C32.093 5.83841 31.9188 5.82819 31.6406 5.80091C31.4051 5.66873 31.4051 5.66873 31.2012 5.44935C31.1684 5.1886 31.1589 4.98189 31.1737 4.72425C31.1757 4.65876 31.1777 4.59328 31.1797 4.52581C31.1849 4.36483 31.1928 4.20394 31.2012 4.0431C31.1111 4.04718 31.021 4.05125 30.9282 4.05546C30.8086 4.05876 30.6891 4.06195 30.5695 4.06507C30.5103 4.06802 30.4511 4.07096 30.3901 4.074C30.0696 4.08025 29.8982 4.05291 29.6257 3.87899C29.4106 3.65782 29.3555 3.5601 29.3555 3.25208C29.5556 2.75651 29.5556 2.75651 29.7949 2.63685C30.0338 2.63053 30.2703 2.62867 30.509 2.63135C30.5753 2.63175 30.6416 2.63215 30.7099 2.63256C30.8736 2.63359 31.0374 2.63517 31.2012 2.63685C31.1971 2.53941 31.193 2.44198 31.1888 2.34159C31.1855 2.21296 31.1823 2.08433 31.1792 1.95569C31.1763 1.89157 31.1733 1.82744 31.1703 1.76137C31.1646 1.45148 31.1746 1.26811 31.356 1.0119C31.6782 0.794276 31.8726 0.836449 32.2559 0.879034Z" fill="#106FAE"/>
</g>
<defs>
<clipPath id="clip0_16_823">
<rect width="45" height="45" fill="white"/>
</clipPath>
</defs>
</svg>
