<svg width="61" height="50" viewBox="0 0 61 50" fill="none" xmlns="http://www.w3.org/2000/svg">
<path d="M43.6289 7.35549C46.8826 10.1425 49.1282 13.4132 50.6659 17.4083C50.8331 17.4114 50.8331 17.4114 51.0036 17.4145C52.8669 17.4968 54.4557 17.9972 55.8359 19.2753C55.9255 19.3536 56.0151 19.4319 56.1075 19.5126C57.4475 20.7507 58.1895 22.4372 58.3004 24.2462C58.3594 26.2254 57.8203 27.9946 56.5181 29.4987C54.9426 31.1492 53.316 31.9485 51.0036 32.0506C50.8922 32.0526 50.7807 32.0547 50.6659 32.0568C50.6335 32.1369 50.6011 32.2169 50.5678 32.2994C48.1713 38.1773 44.1042 42.8769 38.1706 45.3913C36.276 46.1689 34.3167 46.7234 32.2836 46.9924C32.1625 47.0086 32.0414 47.0247 31.9167 47.0413C26.0502 47.6921 20.0278 45.974 15.4125 42.292C12.0827 39.5637 9.63609 36.1056 8.15672 32.0568C8.04027 32.0531 7.92383 32.0494 7.80386 32.0456C5.60588 31.933 3.79797 31.1369 2.27423 29.5324C0.886084 27.8836 0.403346 25.9972 0.545273 23.8709C0.88418 21.7574 1.87434 20.1394 3.54318 18.7996C4.68322 17.9938 5.87929 17.5678 7.25914 17.4712C7.42723 17.4591 7.59533 17.4471 7.76851 17.4347C7.89662 17.426 8.02473 17.4173 8.15672 17.4083C8.1891 17.3283 8.22149 17.2482 8.25485 17.1657C10.6513 11.2878 14.7184 6.58818 20.652 4.07387C28.3351 0.92042 37.1712 2.07267 43.6289 7.35549ZM16.3426 9.65329C16.2301 9.74807 16.1175 9.84286 16.0015 9.94051C15.2826 10.5623 14.6378 11.2083 14.0448 11.9511C13.9588 12.0584 13.9588 12.0584 13.871 12.1679C12.3543 14.0822 11.1693 16.1716 10.4383 18.5081C10.2773 19.016 10.1609 19.3755 9.73645 19.7061C9.43348 19.7723 9.43348 19.7723 9.08515 19.7908C8.95773 19.7994 8.83032 19.8079 8.69905 19.8167C8.56451 19.8247 8.42997 19.8326 8.29135 19.8408C6.67069 19.9698 5.49961 20.2225 4.28592 21.3695C3.41401 22.3994 2.93102 23.6365 2.95639 24.9861C3.07906 26.2856 3.63983 27.4259 4.58212 28.3245C5.86568 29.3802 7.0758 29.5431 8.68264 29.6401C8.81213 29.6497 8.94163 29.6593 9.07505 29.6692C9.25022 29.6798 9.25022 29.6798 9.42892 29.6905C9.80716 29.7747 9.93299 29.8846 10.1673 30.1898C10.288 30.4505 10.288 30.4505 10.3838 30.743C10.4211 30.8521 10.4583 30.9613 10.4967 31.0738C10.5361 31.1908 10.5755 31.3079 10.6161 31.4285C11.8014 34.7652 13.8376 37.8781 16.6298 40.0991C16.7012 40.1562 16.7725 40.2134 16.846 40.2723C19.7284 42.5561 23.0438 43.995 26.6827 44.551C26.861 44.5791 26.861 44.5791 27.0428 44.6077C32.1264 45.2539 37.3727 43.7558 41.427 40.669C41.7831 40.3889 42.1327 40.1027 42.48 39.8118C42.582 39.7276 42.684 39.6434 42.7891 39.5566C43.4747 38.9763 44.0667 38.353 44.6342 37.6577C44.7453 37.5233 44.8563 37.3889 44.9708 37.2504C46.6587 35.1624 47.7316 32.8182 48.6755 30.3177C48.799 30.0462 48.799 30.0462 49.0862 29.759C49.3728 29.7091 49.3728 29.7091 49.7235 29.6883C49.9153 29.6748 49.9153 29.6748 50.111 29.661C50.2467 29.6519 50.3824 29.6427 50.5223 29.6333C52.2971 29.4844 53.6328 29.1635 54.8307 27.7484C55.6002 26.502 56.0497 25.2814 55.7697 23.8103C55.3801 22.3344 54.5713 21.2083 53.2509 20.4242C52.2211 19.9588 51.2574 19.8925 50.14 19.8251C50.0105 19.8154 49.881 19.8058 49.7476 19.7959C49.5724 19.7853 49.5724 19.7853 49.3937 19.7746C49.0155 19.6904 48.8896 19.5805 48.6553 19.2753C48.5347 19.0147 48.5347 19.0147 48.4388 18.7222C48.4016 18.613 48.3643 18.5038 48.3259 18.3914C48.2865 18.2743 48.2471 18.1573 48.2066 18.0366C47.0213 14.6999 44.985 11.587 42.1928 9.36606C42.1214 9.30891 42.0501 9.25175 41.9766 9.19286C40.1498 7.74537 37.3077 5.63215 34.8686 5.63215C34.8997 5.72823 34.9308 5.82431 34.9628 5.9233C35.5485 7.94323 35.5349 9.85035 34.5404 11.7244C33.6958 13.1266 32.3939 13.9243 30.8474 14.3925C28.8651 14.7813 27.1881 14.2816 25.5192 13.1897C24.4894 12.3913 23.7618 11.0716 23.5232 9.7969C23.3835 8.13394 23.3835 8.13394 23.7061 7.66291C24.0035 7.46643 24.174 7.44122 24.5285 7.44525C24.6262 7.44414 24.724 7.44303 24.8247 7.44188C25.2063 7.52036 25.3102 7.60778 25.5338 7.92994C25.6272 8.29619 25.7049 8.65468 25.7761 9.02498C26.0442 10.2312 26.5126 10.9975 27.5415 11.72C28.4554 12.238 29.3999 12.3461 30.4166 12.1037C31.4576 11.7453 32.2878 11.0274 32.7952 10.0482C33.1897 8.98692 33.1736 7.90169 32.7054 6.8708C32.1876 5.9647 31.4935 5.31342 30.4817 4.99094C25.5185 3.90821 20.0409 6.53898 16.3426 9.65329Z" fill="#106FAE"/>
<path d="M42.3449 25.9721C42.4816 26.0118 42.6183 26.0516 42.7591 26.0926C43.9861 26.4745 43.9861 26.4745 44.3465 27.0312C44.5471 27.7877 44.4566 28.3774 44.2119 29.1046C44.1797 29.2031 44.1476 29.3016 44.1145 29.4031C43.3114 31.7555 42.0242 33.7014 40.3254 35.5043C40.2389 35.6017 40.1524 35.6991 40.0634 35.7994C37.7801 38.266 34.1316 39.7687 30.8261 39.986C30.3659 39.9997 29.9071 40.0036 29.4467 40.0012C29.2017 40 29.2017 40 28.9517 39.9987C24.7315 39.9382 21.0347 38.1395 18.0775 35.155C16.2648 33.2546 14.2975 30.1807 14.3405 27.471C14.5028 26.9409 14.6126 26.7987 15.0496 26.4568C15.5319 26.2527 16.0278 26.1079 16.5306 25.9631C16.677 25.92 16.8233 25.8769 16.974 25.8325C25.2442 23.4513 34.0977 23.5397 42.3449 25.9721ZM24.8152 26.8876C24.801 27.5316 24.7906 28.1754 24.7837 28.8195C24.7808 29.0385 24.7769 29.2575 24.7719 29.4764C24.7649 29.7916 24.7617 30.1066 24.7591 30.4218C24.7561 30.6113 24.7531 30.8009 24.75 30.9961C24.8277 31.5761 24.9374 31.7023 25.3897 32.0577C25.7666 32.144 25.7666 32.144 26.184 32.132C26.4227 32.1347 26.4227 32.1347 26.6662 32.1375C26.8374 32.1363 27.0085 32.1351 27.1848 32.1339C27.4493 32.1348 27.4493 32.1348 27.7192 32.1356C28.092 32.136 28.4647 32.1349 28.8375 32.1325C29.4087 32.1295 29.9796 32.1325 30.5508 32.1362C30.9128 32.1358 31.2748 32.1351 31.6368 32.1339C31.808 32.1351 31.9791 32.1363 32.1555 32.1375C32.3146 32.1357 32.4737 32.1339 32.6376 32.132C32.7775 32.1315 32.9173 32.1311 33.0614 32.1306C33.54 32.0364 33.7114 31.8653 34.0064 31.4832C34.0856 30.9831 34.0856 30.9831 34.0625 30.4218C34.0613 30.27 34.0613 30.27 34.0601 30.1152C34.0569 29.7932 34.0496 29.4714 34.0423 29.1495C34.0394 28.9307 34.0368 28.7119 34.0345 28.4932C34.0282 27.9579 34.0182 27.4228 34.0064 26.8876C32.8544 26.3116 31.0293 26.5782 29.7516 26.5817C29.4114 26.5824 29.0712 26.5817 28.7309 26.5808C26.7147 26.4652 26.7147 26.4652 24.8152 26.8876Z" fill="#106FAE"/>
</svg>
