<svg width="42" height="43" viewBox="0 0 42 43" fill="none" xmlns="http://www.w3.org/2000/svg">
<path d="M40.5349 36.7679C40.5349 36.7679 37.9222 39.334 37.282 40.0863C36.239 41.1994 35.0101 41.7249 33.3991 41.7249C33.2442 41.7249 33.079 41.7249 32.9241 41.7146C29.8571 41.5188 27.0069 40.3234 24.8693 39.3031C19.0243 36.4794 13.892 32.4705 9.62703 27.3898C6.10562 23.1542 3.75113 19.2381 2.1918 15.0334C1.23141 12.4673 0.880301 10.468 1.0352 8.58207C1.13847 7.37632 1.60317 6.37667 2.46029 5.52131L5.9817 2.00709C6.48771 1.53303 7.0247 1.27539 7.55136 1.27539C8.20195 1.27539 8.72861 1.667 9.05906 1.99678C9.06939 2.00709 9.07972 2.0174 9.09004 2.0277C9.71997 2.61512 10.3189 3.22315 10.9489 3.87241C11.269 4.20219 11.5994 4.53197 11.9299 4.87205L14.7491 7.68549C15.8437 8.77788 15.8437 9.78783 14.7491 10.8802C14.4496 11.1791 14.1605 11.478 13.861 11.7665C12.9935 12.6528 13.675 11.9728 12.7765 12.7766C12.7559 12.7972 12.7352 12.8075 12.7249 12.8281C11.8368 13.7144 12.002 14.5801 12.1879 15.1675C12.1982 15.1984 12.2086 15.2293 12.2189 15.2602C12.9521 17.0328 13.9848 18.7023 15.5544 20.6913L15.5648 20.7016C18.4149 24.2055 21.42 26.9365 24.7349 29.0285C25.1583 29.2965 25.592 29.5129 26.0051 29.719C26.3768 29.9045 26.7279 30.0797 27.0274 30.2652C27.0687 30.2858 27.11 30.3168 27.1513 30.3374C27.5024 30.5126 27.8329 30.595 28.1737 30.595C29.0308 30.595 29.5678 30.0591 29.7433 29.8839L31.7675 27.8639C32.1186 27.5135 32.6763 27.091 33.3269 27.091C33.9671 27.091 34.4938 27.4929 34.8139 27.8433C34.8242 27.8536 34.8242 27.8536 34.8346 27.8639L40.5246 33.5423C41.5882 34.5935 40.5349 36.7679 40.5349 36.7679Z" stroke="#106FAE" stroke-width="2" stroke-linecap="round" stroke-linejoin="round"/>
</svg>
