<svg width="50" height="50" viewBox="0 0 50 50" fill="none" xmlns="http://www.w3.org/2000/svg">
<path d="M20.7956 26.0021C20.8918 26.0016 20.9879 26.001 21.0869 26.0004C21.8657 26.006 22.5346 26.1366 23.116 26.6799C23.6722 27.4013 23.6066 27.7531 23.6066 28.7683C24.5241 28.7683 25.4416 28.7683 26.387 28.7683C26.387 28.3707 26.387 27.9731 26.387 27.5634C26.4901 27.2958 26.5543 27.1401 26.7141 26.9208C26.7596 26.8496 26.8051 26.7784 26.8521 26.705C27.5287 26.0403 28.2725 26.0193 29.1775 26.0122C29.2745 26.0099 29.3715 26.0075 29.4714 26.0051C30.1863 26.0001 30.7666 26.0852 31.3442 26.5198C32.0434 27.3203 32.0668 28.07 32.0294 29.0896C32.082 29.0877 32.1346 29.0858 32.1887 29.0839C32.9957 29.0687 33.7848 29.16 34.5849 29.2502C34.7262 29.2657 34.8675 29.2812 35.0088 29.2966C35.3514 29.3342 35.6939 29.3723 36.0364 29.4109C36.0672 29.3128 36.0672 29.3128 36.0986 29.2127C36.1405 29.0834 36.1405 29.0834 36.1833 28.9515C36.2242 28.8236 36.2242 28.8236 36.266 28.6931C36.4883 28.1319 36.8851 27.784 37.4352 27.5386C37.9179 27.3656 38.3947 27.382 38.9036 27.3777C39.0363 27.3742 39.0363 27.3742 39.1717 27.3706C39.8829 27.3652 40.5406 27.4628 41.1013 27.9199C41.1569 27.9878 41.2126 28.0557 41.2699 28.1257C41.329 28.1903 41.388 28.2549 41.4488 28.3215C41.7791 28.7801 41.7917 29.26 41.8117 29.8024C41.8149 29.873 41.818 29.9437 41.8213 30.0164C41.8289 30.1894 41.8357 30.3624 41.8424 30.5354C41.9334 30.5627 42.0245 30.59 42.1183 30.6182C43.4906 31.0414 45.0564 31.5611 45.8242 32.8434C46.0471 33.3905 45.9974 33.9895 45.9905 34.57C45.9904 34.7116 45.9905 34.8532 45.9907 34.9948C45.9907 35.2902 45.989 35.5855 45.9861 35.8808C45.9823 36.2584 45.9823 36.6359 45.9834 37.0135C45.9839 37.3054 45.9828 37.5972 45.9812 37.889C45.9806 38.0282 45.9804 38.1674 45.9807 38.3066C45.9807 38.5013 45.9787 38.6959 45.976 38.8906C45.9766 38.9758 45.9766 38.9758 45.9772 39.0627C45.9679 39.4972 45.8472 39.7432 45.604 40.0938C45.42 40.2093 45.42 40.2093 45.2769 40.2545C45.2807 40.3379 45.2845 40.4214 45.2884 40.5074C45.3136 41.3014 45.2428 41.8804 44.8067 42.5688C44.2437 43.1064 43.7367 43.2401 42.9668 43.2315C42.9058 43.2311 42.8449 43.2307 42.7821 43.2304C42.6324 43.2294 42.4827 43.228 42.333 43.2264C42.3088 43.3017 42.2845 43.377 42.2595 43.4545C42.0677 43.9951 41.6839 44.2516 41.1882 44.5116C40.8654 44.6173 40.557 44.6034 40.2206 44.6026C40.1495 44.6027 40.0784 44.6027 40.0052 44.6028C39.8547 44.6029 39.7042 44.6027 39.5538 44.6024C39.3244 44.602 39.0951 44.6024 38.8657 44.6029C38.7194 44.6029 38.573 44.6028 38.4267 44.6026C38.3243 44.6028 38.3243 44.6028 38.2199 44.6031C37.9339 44.602 37.6725 44.592 37.3897 44.5444C37.1781 44.4875 37.1781 44.4875 37.0161 44.6183C36.9435 44.6947 36.9435 44.6947 36.8694 44.7727C36.481 45.1803 35.9619 45.3222 35.4039 45.3447C35.2672 45.3458 35.1304 45.3455 34.9937 45.344C34.8836 45.3441 34.8836 45.3441 34.7712 45.3441C34.617 45.3439 34.4628 45.3432 34.3086 45.3418C34.0744 45.3399 33.8403 45.3402 33.6061 45.3407C33.4554 45.3403 33.3046 45.3397 33.1538 45.339C33.0848 45.3391 33.0158 45.3391 32.9447 45.3392C32.5334 45.3345 32.1714 45.2845 31.776 45.1713C31.5929 45.1331 31.5929 45.1331 31.3905 45.3299C31.302 45.4417 31.302 45.4417 31.2117 45.5558C30.8399 45.8639 30.497 45.977 30.0118 45.9808C29.9206 45.9818 29.8294 45.9828 29.7355 45.9839C29.6377 45.984 29.5399 45.9842 29.4391 45.9844C29.3378 45.9849 29.2365 45.9855 29.1321 45.986C28.9178 45.9868 28.7036 45.9872 28.4893 45.9872C28.2705 45.9872 28.0517 45.9883 27.8329 45.9905C27.5165 45.9934 27.2001 45.9942 26.8837 45.9944C26.7377 45.9962 26.7377 45.9962 26.5888 45.9979C26.0133 45.9948 25.6563 45.9228 25.1603 45.6361C24.895 45.6425 24.7528 45.7157 24.5186 45.8395C24.0734 46.0261 23.6026 45.9934 23.1265 45.9922C23.0254 45.9927 22.9243 45.9931 22.8202 45.9935C22.6069 45.994 22.3936 45.9939 22.1803 45.9932C21.855 45.9926 21.5297 45.9949 21.2043 45.9974C20.9967 45.9976 20.789 45.9975 20.5813 45.9973C20.4845 45.9982 20.3877 45.9991 20.288 46C19.5979 45.9943 19.1475 45.9025 18.6337 45.4203C18.5747 45.359 18.5156 45.2977 18.4548 45.2345C18.1759 45.1432 18.0748 45.1919 17.8042 45.2746C17.4919 45.3498 17.1757 45.3393 16.8558 45.339C16.7821 45.3393 16.7084 45.3397 16.6325 45.34C16.4773 45.3405 16.3221 45.3405 16.1669 45.3402C15.9313 45.3399 15.6958 45.3418 15.4602 45.3439C15.3086 45.344 15.1571 45.3441 15.0056 45.344C14.9361 45.3448 14.8665 45.3455 14.7949 45.3463C14.2445 45.3421 13.7142 45.2609 13.2689 44.9245C13.1717 44.8225 13.0746 44.7204 12.9775 44.6183C12.7398 44.4647 12.6006 44.5443 12.3217 44.5919C12.075 44.6065 11.8284 44.6089 11.5813 44.6111C11.5109 44.6117 11.4406 44.6124 11.3681 44.613C11.2198 44.6141 11.0715 44.615 10.9231 44.6156C10.7723 44.6166 10.6215 44.6182 10.4707 44.6206C10.2514 44.624 10.0322 44.6253 9.81292 44.6261C9.74628 44.6275 9.67965 44.6289 9.611 44.6304C9.02753 44.6282 8.6122 44.4536 8.17168 44.0799C7.66059 43.4942 7.66059 43.4942 7.66059 43.2264C7.57373 43.2292 7.48687 43.232 7.39737 43.2349C6.60569 43.253 5.95023 43.2676 5.32043 42.7115C4.8256 42.1527 4.70317 41.5972 4.71159 40.877C4.71196 40.8171 4.71233 40.7573 4.71271 40.6956C4.71367 40.5486 4.71513 40.4015 4.7167 40.2545C4.66948 40.2396 4.62225 40.2247 4.57359 40.2093C4.30773 40.0424 4.18297 39.8106 4.0625 39.5316C4.03123 39.307 4.01599 39.1143 4.01758 38.8906C4.01675 38.8291 4.01591 38.7677 4.01505 38.7043C4.01279 38.5026 4.01293 38.301 4.01331 38.0992C4.01267 37.9579 4.01197 37.8166 4.01119 37.6752C4.00997 37.3794 4.01001 37.0837 4.01088 36.7879C4.01182 36.4105 4.00906 36.0333 4.00526 35.656C4.00284 35.3642 4.00271 35.0724 4.00322 34.7805C4.00313 34.6415 4.00229 34.5025 4.00063 34.3635C3.99102 33.4431 4.08495 32.8111 4.73395 32.1061C5.75767 31.3256 6.92355 30.9038 8.15123 30.5354C8.1544 30.3827 8.1544 30.3827 8.15762 30.2269C8.20388 28.7007 8.20388 28.7007 8.75432 28.0604C9.49665 27.4528 10.0951 27.3737 11.0338 27.3727C11.1212 27.3707 11.2086 27.3687 11.2986 27.3667C12.0381 27.364 12.7269 27.4847 13.2979 27.9751C13.671 28.3819 13.8268 28.8883 13.9572 29.4109C14.0437 29.4011 14.1303 29.3914 14.2194 29.3814C14.5449 29.3449 14.8704 29.3091 15.196 29.2736C15.3361 29.2582 15.4761 29.2426 15.6162 29.2268C16.4012 29.1385 17.1724 29.0615 17.9642 29.0896C17.9613 29.0119 17.9585 28.9342 17.9556 28.8542C17.9356 27.9098 18.007 27.2553 18.6494 26.5198C19.3066 26.0254 19.9921 25.9886 20.7956 26.0021ZM19.5997 27.7241C19.4148 27.9785 19.4185 28.2005 19.4259 28.5072C19.4274 28.5863 19.4289 28.6654 19.4304 28.7469C19.4323 28.807 19.4342 28.867 19.4361 28.9289C20.3397 28.9388 21.2335 28.9153 22.1347 28.8486C22.1436 28.6947 22.1499 28.5407 22.1551 28.3867C22.1589 28.301 22.1627 28.2153 22.1666 28.1269C22.1275 27.8305 22.0422 27.7461 21.8076 27.5634C21.512 27.4182 21.1671 27.4648 20.8416 27.463C20.7309 27.4605 20.7309 27.4605 20.6179 27.458C20.0665 27.454 20.0665 27.454 19.5997 27.7241ZM27.9407 27.7241C27.8276 27.9461 27.8511 28.1294 27.8538 28.3767C27.8545 28.4647 27.8553 28.5527 27.856 28.6434C27.857 28.7111 27.8579 28.7788 27.8589 28.8486C28.7601 28.9153 29.6538 28.9388 30.5575 28.9289C30.6161 28.2374 30.6161 28.2374 30.3121 27.6437C29.9447 27.4255 29.5902 27.4565 29.1724 27.458C29.0993 27.4567 29.0262 27.4554 28.9509 27.4541C28.5495 27.4538 28.2631 27.4611 27.9407 27.7241ZM9.8685 29.0092C9.682 29.284 9.68702 29.3853 9.69473 29.707C9.6962 29.7869 9.69768 29.8667 9.6992 29.949C9.7011 30.0099 9.70299 30.0709 9.70495 30.1338C10.268 30.079 10.82 29.9935 11.3762 29.8928C11.4573 29.8785 11.5384 29.8642 11.622 29.8495C11.6993 29.8356 11.7767 29.8217 11.8563 29.8074C11.9611 29.7887 11.9611 29.7887 12.0679 29.7695C12.2435 29.7386 12.2435 29.7386 12.4035 29.6518C12.3695 29.3152 12.3695 29.3152 12.2093 29.0243C11.8687 28.7798 11.4659 28.8338 11.0645 28.8335C10.9949 28.8325 10.9253 28.8316 10.8536 28.8305C10.3411 28.8284 10.3411 28.8284 9.8685 29.0092ZM37.7536 29.0896C37.6117 29.3019 37.5901 29.3936 37.5901 29.6518C38.098 29.7818 38.6078 29.887 39.1234 29.9832C39.1996 29.9978 39.2758 30.0124 39.3543 30.0274C39.4278 30.0412 39.5012 30.0549 39.5769 30.0691C39.643 30.0816 39.7091 30.094 39.7772 30.1068C39.9844 30.1416 39.9844 30.1416 40.2886 30.1338C40.3455 29.5564 40.3455 29.5564 40.1404 29.0394C39.757 28.8026 39.3869 28.8311 38.9496 28.8285C38.88 28.8269 38.8104 28.8252 38.7388 28.8235C38.3428 28.8211 38.0739 28.8339 37.7536 29.0896ZM5.72754 33.1765C5.43582 33.555 5.48338 33.9002 5.49452 34.3623C5.49539 34.4979 5.49539 34.4979 5.49627 34.6361C5.49856 34.9243 5.50369 35.2123 5.50889 35.5003C5.51094 35.6959 5.51281 35.8914 5.51448 36.0869C5.51899 36.5658 5.52583 37.0446 5.53445 37.5235C5.57877 37.5065 5.6231 37.4894 5.66877 37.4719C5.72723 37.4498 5.7857 37.4277 5.84593 37.405C5.90375 37.383 5.96157 37.361 6.02114 37.3384C6.66796 37.1227 7.36969 37.2979 7.98768 37.5235C8.02732 37.475 8.06695 37.4266 8.10779 37.3766C8.466 36.9571 8.77081 36.6691 9.29608 36.4793C9.38547 36.4462 9.47486 36.413 9.56696 36.3789C10.5321 36.1861 11.4906 36.3627 12.3342 36.8589C12.5162 36.9822 12.669 37.1172 12.8124 37.2825C13.0916 37.1911 13.1344 37.124 13.3081 36.901C13.8323 36.2962 14.5745 36.0471 15.3646 35.9826C16.3988 35.9523 17.3428 36.2673 18.1351 36.9142C18.3009 37.0539 18.3009 37.0539 18.5366 37.2022C18.5713 37.1547 18.606 37.1071 18.6417 37.0582C18.9477 36.6532 19.2271 36.3195 19.6814 36.0777C19.7684 36.0305 19.7684 36.0305 19.8571 35.9823C20.3778 35.75 20.8818 35.7254 21.4447 35.7212C21.5162 35.7204 21.5877 35.7196 21.6613 35.7188C22.761 35.7331 23.71 36.1604 24.5135 36.8837C24.6634 37.0352 24.7906 37.1908 24.915 37.3628C25.157 37.2748 25.253 37.1887 25.4159 36.9863C25.9599 36.318 26.8406 35.8813 27.6954 35.7564C28.9669 35.6662 29.9642 35.7524 30.9788 36.5772C31.1819 36.7695 31.3193 36.961 31.457 37.2022C31.4966 37.1721 31.5363 37.1419 31.5771 37.1109C32.3578 36.5254 33.0721 36.0837 34.0738 35.9973C34.1331 35.9922 34.1925 35.987 34.2536 35.9817C35.0558 35.9436 35.8518 36.1656 36.4733 36.6726C36.6752 36.8634 36.8479 37.0636 37.0177 37.2825C37.2157 37.1961 37.3637 37.1063 37.5307 36.9684C37.7609 36.7951 37.9712 36.6921 38.2392 36.5847C38.3209 36.5513 38.4026 36.5178 38.4867 36.4834C39.2801 36.2136 40.0878 36.2471 40.8713 36.5267C41.3443 36.7546 41.715 37.0949 42.0059 37.5235C42.0536 37.5061 42.1012 37.4887 42.1503 37.4708C42.8158 37.2488 43.479 37.1507 44.1477 37.405C44.2061 37.4271 44.2646 37.4492 44.3248 37.4719C44.3913 37.4974 44.3913 37.4974 44.4591 37.5235C44.4758 36.9504 44.4872 36.3774 44.4951 35.8042C44.4984 35.6093 44.5028 35.4144 44.5085 35.2196C44.5165 34.9391 44.5201 34.6587 44.523 34.378C44.5264 34.2913 44.5298 34.2046 44.5333 34.1153C44.5356 33.6494 44.5356 33.6494 44.3191 33.2486C39.6407 29.1372 27.8757 30.1055 5.72754 33.1765ZM19.8076 37.8937C19.3835 38.5391 19.3997 39.1702 19.4035 39.9162C19.4034 40.0312 19.4031 40.1462 19.4028 40.2612C19.4025 40.5011 19.403 40.7411 19.4041 40.981C19.4055 41.2876 19.4047 41.5942 19.4033 41.9008C19.4024 42.1379 19.4027 42.3749 19.4033 42.612C19.4035 42.725 19.4033 42.8381 19.4027 42.9511C19.4021 43.1093 19.4032 43.2674 19.4044 43.4256C19.4046 43.5153 19.4048 43.605 19.405 43.6975C19.4408 43.9874 19.5285 44.1821 19.6814 44.4313C19.8785 44.5281 20.006 44.5233 20.2262 44.5258C20.3054 44.5268 20.3845 44.5279 20.4661 44.5289C20.5947 44.5298 20.5947 44.5298 20.726 44.5307C20.8139 44.5314 20.9019 44.532 20.9924 44.5327C21.1787 44.5338 21.365 44.5347 21.5513 44.5353C21.8365 44.5367 22.1217 44.5402 22.4068 44.5438C22.5876 44.5446 22.7684 44.5453 22.9492 44.5458C23.0347 44.5472 23.1201 44.5486 23.2082 44.5501C23.6683 44.5572 23.6683 44.5572 24.0668 44.3589C24.2489 44.0854 24.2717 43.93 24.274 43.6039C24.2748 43.5148 24.2756 43.4258 24.2764 43.334C24.2767 43.2372 24.2771 43.1404 24.2774 43.0407C24.2781 42.8914 24.2781 42.8914 24.2788 42.7392C24.2796 42.528 24.2802 42.3168 24.2805 42.1056C24.2808 41.8901 24.282 41.6746 24.2838 41.4591C24.2863 41.1479 24.2872 40.8368 24.2877 40.5256C24.2887 40.4301 24.2897 40.3346 24.2907 40.2362C24.2883 39.3525 24.1185 38.6083 23.5249 37.9251C22.9052 37.3447 22.3732 37.1132 21.5214 37.0867C20.7204 37.1062 20.3313 37.3122 19.8076 37.8937ZM27.1229 37.4432C27.066 37.4772 27.0091 37.5113 26.9504 37.5464C26.2494 38.0111 25.9109 38.6546 25.7328 39.4512C25.6992 39.8069 25.6983 40.1601 25.7002 40.5171C25.6999 40.6166 25.6997 40.7162 25.6995 40.8187C25.6993 41.0278 25.6998 41.2368 25.7008 41.4459C25.7017 41.6598 25.7019 41.8735 25.7008 42.0874C25.6993 42.3973 25.6995 42.7072 25.7002 43.0172C25.6997 43.1127 25.6992 43.2083 25.6987 43.3067C25.6995 43.3958 25.7002 43.4848 25.701 43.5765C25.7012 43.6546 25.7014 43.7326 25.7016 43.813C25.7386 44.07 25.8239 44.2222 25.9781 44.4313C26.1752 44.5281 26.3026 44.5233 26.5228 44.5258C26.602 44.5268 26.6812 44.5279 26.7627 44.5289C26.8914 44.5298 26.8914 44.5298 27.0226 44.5307C27.1106 44.5314 27.1985 44.532 27.2891 44.5327C27.4754 44.5338 27.6617 44.5347 27.848 44.5353C28.1332 44.5367 28.4183 44.5402 28.7035 44.5438C28.8843 44.5446 29.0651 44.5453 29.2459 44.5458C29.3313 44.5472 29.4168 44.5486 29.5048 44.5501C29.9632 44.5563 29.9632 44.5563 30.3635 44.3639C30.5609 44.0585 30.5688 43.8094 30.5719 43.4555C30.573 43.3535 30.574 43.2516 30.5751 43.1466C30.5758 43.0351 30.5764 42.9235 30.577 42.812C30.5773 42.7556 30.5776 42.6992 30.578 42.6411C30.5797 42.3423 30.5808 42.0435 30.5816 41.7446C30.5825 41.4377 30.5853 41.1309 30.5886 40.824C30.5907 40.5866 30.5914 40.3492 30.5917 40.1118C30.5921 39.9988 30.593 39.8858 30.5946 39.7728C30.6051 38.9419 30.5463 38.244 29.9595 37.6088C29.3914 37.1128 28.9068 37.0773 28.1582 37.0939C27.754 37.1317 27.4641 37.2314 27.1229 37.4432ZM14.2441 37.926C13.8089 38.4897 13.8405 39.1236 13.8457 39.7989C13.8457 39.9006 13.8457 40.0024 13.8456 40.1072C13.8458 40.3213 13.8465 40.5354 13.848 40.7496C13.8498 41.0236 13.8499 41.2977 13.8493 41.5717C13.849 41.8342 13.8499 42.0967 13.8509 42.3592C13.8508 42.4574 13.8507 42.5557 13.8506 42.6569C13.8514 42.748 13.8522 42.8392 13.853 42.9331C13.8534 43.0133 13.8537 43.0934 13.8541 43.1759C13.8761 43.3937 13.9212 43.5241 14.039 43.7084C14.3375 43.9358 14.706 43.8921 15.0663 43.8904C15.134 43.8905 15.2018 43.8907 15.2716 43.8908C15.4145 43.8909 15.5575 43.8906 15.7004 43.89C15.919 43.8891 16.1376 43.89 16.3562 43.891C16.4952 43.8909 16.6343 43.8907 16.7733 43.8904C16.8386 43.8907 16.9039 43.891 16.9711 43.8913C17.4132 43.8917 17.4132 43.8917 17.8006 43.7084C17.978 43.447 17.9858 43.3676 17.9905 43.0645C17.9921 42.9824 17.9937 42.9003 17.9953 42.8158C17.996 42.7269 17.9967 42.6381 17.9974 42.5465C17.9988 42.4087 17.9988 42.4087 18.0002 42.2681C18.0018 42.0732 18.0028 41.8783 18.0035 41.6833C18.005 41.3876 18.0101 41.0921 18.0153 40.7965C18.0164 40.6067 18.0172 40.417 18.0178 40.2272C18.0199 40.1398 18.0219 40.0524 18.024 39.9624C18.0197 39.2375 17.8063 38.6105 17.3067 38.0639C16.3897 37.2141 15.2114 37.148 14.2441 37.926ZM32.7654 38.0054C32.1968 38.5639 31.9935 39.1557 31.984 39.933C31.9846 40.0214 31.9853 40.1098 31.986 40.2008C31.9857 40.2935 31.9853 40.3862 31.985 40.4818C31.9848 40.6765 31.9854 40.8713 31.9868 41.066C31.9885 41.3644 31.9868 41.6627 31.9847 41.9612C31.9849 42.1509 31.9853 42.3405 31.986 42.5302C31.9853 42.6194 31.9846 42.7086 31.984 42.8005C31.985 42.8833 31.986 42.9662 31.9871 43.0516C31.9873 43.1243 31.9876 43.1971 31.9879 43.272C32.0423 43.5282 32.1545 43.6238 32.3565 43.7887C32.6217 43.9189 32.9129 43.8821 33.2043 43.8825C33.2722 43.8828 33.3402 43.883 33.4102 43.8833C33.5542 43.8837 33.6981 43.8839 33.8421 43.8839C34.0621 43.8841 34.2821 43.8855 34.5021 43.8871C34.6419 43.8873 34.7817 43.8875 34.9215 43.8875C34.9873 43.8881 35.0531 43.8887 35.1208 43.8893C35.5671 43.895 35.5671 43.895 35.9546 43.7084C36.1217 43.4468 36.1392 43.239 36.1406 42.9331C36.1414 42.842 36.1422 42.7508 36.143 42.6569C36.1429 42.5586 36.1428 42.4604 36.1427 42.3592C36.1433 42.2071 36.1433 42.2071 36.1438 42.0518C36.1443 41.8371 36.1444 41.6224 36.144 41.4077C36.1435 41.134 36.1449 40.8604 36.1468 40.5867C36.1483 40.3241 36.1479 40.0615 36.1478 39.7989C36.1486 39.7013 36.1493 39.6037 36.1501 39.5032C36.1469 38.9182 36.1226 38.4092 35.7495 37.926C34.7941 37.1576 33.701 37.245 32.7654 38.0054ZM9.26541 38.2012C8.95101 38.6882 8.9449 39.0956 8.94726 39.6596C8.9471 39.7419 8.94694 39.8241 8.94678 39.9089C8.94667 40.0825 8.94697 40.2562 8.94766 40.4298C8.94853 40.6953 8.94766 40.9607 8.94662 41.2262C8.94673 41.3951 8.94694 41.564 8.94726 41.7329C8.94693 41.8122 8.9466 41.8914 8.94625 41.9731C8.94287 42.5004 8.94287 42.5004 9.13253 42.9855C9.53747 43.2506 10.0221 43.176 10.4964 43.1759C10.6802 43.1762 10.8639 43.1791 11.0477 43.1822C11.1648 43.1827 11.2818 43.183 11.3989 43.1831C11.5053 43.1838 11.6116 43.1845 11.7212 43.1851C12.0379 43.1399 12.13 43.0705 12.3217 42.8248C12.4612 42.5507 12.4204 42.2376 12.423 41.9359C12.4237 41.863 12.4243 41.7901 12.425 41.7149C12.4261 41.5601 12.427 41.4052 12.4276 41.2504C12.429 41.0154 12.4326 40.7805 12.4363 40.5455C12.4371 40.3948 12.4378 40.2442 12.4383 40.0935C12.4398 40.024 12.4412 39.9544 12.4427 39.8827C12.4403 39.2234 12.2226 38.6447 11.7493 38.1661C10.9546 37.5589 9.99161 37.4691 9.26541 38.2012ZM38.1219 38.2665C37.7922 38.6434 37.5817 39.1242 37.5769 39.6213C37.5761 39.6875 37.5753 39.7537 37.5745 39.822C37.5742 39.8932 37.5738 39.9645 37.5735 40.038C37.573 40.1116 37.5725 40.1852 37.5721 40.261C37.5713 40.4167 37.5708 40.5724 37.5704 40.7281C37.5696 40.9659 37.5671 41.2036 37.5645 41.4414C37.564 41.5928 37.5636 41.7441 37.5632 41.8955C37.5622 41.9664 37.5612 42.0374 37.5602 42.1105C37.5616 42.4942 37.5777 42.7558 37.8354 43.0658C38.2029 43.2463 38.7027 43.1677 39.1113 43.1698C39.2959 43.1712 39.4803 43.1747 39.6648 43.1783C39.7822 43.1791 39.8997 43.1798 40.0171 43.1803C40.124 43.1815 40.2309 43.1827 40.341 43.1839C40.6198 43.1682 40.6198 43.1682 40.8116 42.9984C41.0064 42.7408 41.0352 42.5317 41.0391 42.2201C41.0401 42.1466 41.0412 42.0732 41.0423 41.9974C41.0429 41.9181 41.0435 41.8388 41.0441 41.7571C41.0448 41.6752 41.0454 41.5932 41.0461 41.5088C41.0472 41.3352 41.0481 41.1616 41.0488 40.988C41.0502 40.7238 41.0537 40.4596 41.0574 40.1953C41.0582 40.0265 41.0589 39.8576 41.0594 39.6888C41.0609 39.6103 41.0623 39.5318 41.0638 39.4509C41.062 38.9019 40.9692 38.4534 40.5791 38.0409C40.2541 37.7573 40.0374 37.6963 39.6191 37.6641C39.031 37.7019 38.5571 37.8698 38.1219 38.2665ZM6.37775 38.7534C6.06444 39.1491 6.17356 39.7356 6.17331 40.2093C6.17231 40.309 6.17131 40.4086 6.17028 40.5113C6.17012 40.607 6.16996 40.7027 6.1698 40.8014C6.16946 40.889 6.16912 40.9766 6.16878 41.0669C6.18872 41.2996 6.22019 41.4279 6.35219 41.62C6.63194 41.8032 6.73505 41.7982 7.06261 41.7907C7.14388 41.7892 7.22515 41.7878 7.30889 41.7863C7.37098 41.7844 7.43307 41.7825 7.49704 41.7806C7.50312 41.4334 7.50756 41.0861 7.51051 40.7388C7.51174 40.6208 7.51341 40.5028 7.51554 40.3847C7.51853 40.2147 7.51991 40.0446 7.52099 39.8745C7.52228 39.7723 7.52356 39.6701 7.52489 39.5648C7.49492 39.2698 7.43233 39.1234 7.25171 38.889C6.97394 38.6861 6.69428 38.5116 6.37775 38.7534ZM42.6601 38.9693C42.4593 39.2569 42.4777 39.5252 42.4806 39.8667C42.4809 39.9489 42.4809 39.9489 42.4813 40.0328C42.4822 40.2071 42.4842 40.3814 42.4863 40.5557C42.4872 40.6742 42.4879 40.7927 42.4886 40.9112C42.4904 41.201 42.4932 41.4908 42.4966 41.7806C42.642 41.7847 42.7874 41.7876 42.9329 41.79C43.0139 41.7918 43.0949 41.7935 43.1783 41.7953C43.4103 41.7984 43.4103 41.7984 43.6107 41.63C43.8965 41.1962 43.8233 40.7341 43.8254 40.2294C43.8271 40.13 43.8288 40.0307 43.8305 39.9283C43.8309 39.8325 43.8313 39.7367 43.8318 39.6379C43.8325 39.5502 43.8333 39.4625 43.8341 39.3721C43.8011 39.0979 43.727 38.9482 43.5596 38.7283C43.1745 38.5545 42.9677 38.7209 42.6601 38.9693Z" fill="#106FAE"/>
<path d="M4.89871 4C5.19276 4.09527 5.33771 4.31094 5.49817 4.56929C5.60392 4.78782 5.68714 5.01224 5.76957 5.24107C6.40694 6.9087 7.32875 8.27435 8.52968 9.56265C8.58217 9.62221 8.63467 9.68178 8.68875 9.74315C10.6002 11.8498 13.707 13.19 16.4819 13.3099C16.9383 13.3222 17.3946 13.3209 17.8511 13.3194C18.0249 13.3197 18.1987 13.3202 18.3725 13.3207C18.8401 13.3219 19.3076 13.3214 19.7752 13.3206C20.2672 13.32 20.7593 13.3206 21.2513 13.321C22.0772 13.3214 22.9031 13.3208 23.729 13.3196C24.6803 13.3182 25.6317 13.3187 26.5831 13.3201C27.4037 13.3212 28.2242 13.3214 29.0448 13.3207C29.5333 13.3203 30.0217 13.3203 30.5102 13.3211C30.9696 13.3219 31.4291 13.3213 31.8886 13.3199C32.056 13.3195 32.2234 13.3196 32.3909 13.3202C33.7013 13.3242 34.9652 13.2135 36.223 12.8052C36.2905 12.7836 36.3579 12.762 36.4274 12.7398C39.529 11.7135 42.1435 9.48475 43.6789 6.51585C43.9832 5.89543 44.2586 5.26133 44.5238 4.62219C44.7019 4.22703 44.7019 4.22703 44.9079 4.06149C45.2487 3.98952 45.5514 4.00711 45.8552 4.18315C46.0312 4.50722 46.0136 4.7971 45.973 5.16172C45.8903 5.45802 45.7743 5.73317 45.6504 6.01334C45.6169 6.09088 45.5835 6.16841 45.549 6.2483C44.815 7.92021 43.8462 9.34211 42.6138 10.6629C42.5604 10.7223 42.5071 10.7818 42.4521 10.8431C39.8945 13.6196 36.141 14.8875 32.5158 14.9841C32.064 14.9918 31.6121 14.9916 31.1603 14.9915C31.0116 14.9917 30.863 14.992 30.7144 14.9923C30.3148 14.9931 29.9153 14.9933 29.5157 14.9933C29.2648 14.9934 29.0139 14.9936 28.763 14.9938C27.8841 14.9946 27.0052 14.9949 26.1263 14.9949C25.3129 14.9948 24.4995 14.9957 23.6861 14.997C22.983 14.9981 22.2798 14.9986 21.5766 14.9985C21.1588 14.9985 20.741 14.9987 20.3231 14.9997C16.9279 15.0065 13.7112 14.9293 10.6599 13.2019C10.5605 13.1473 10.4611 13.0928 10.3616 13.0382C9.28163 12.4347 8.37934 11.6477 7.49636 10.7747C7.40133 10.6813 7.30464 10.5897 7.20755 10.4986C5.93556 9.26729 5.03641 7.62694 4.33574 5.99747C4.30403 5.92533 4.27232 5.85319 4.23965 5.77887C4.04969 5.31739 3.95201 4.90284 4.02337 4.40002C4.23077 4.01814 4.50832 4.01823 4.89871 4Z" fill="#106FAE"/>
<path d="M10.8081 17.0431C11.0348 17.2203 11.2182 17.4432 11.4071 17.675C11.5561 17.8571 11.7076 18.0361 11.8591 18.2153C12.0918 18.4918 12.3241 18.7688 12.555 19.0476C12.6286 19.1363 12.6286 19.1363 12.7036 19.2268C12.9396 19.5323 13.0093 19.7484 12.999 20.1682C12.972 20.3426 12.972 20.3426 12.8232 20.603C12.6113 20.7767 12.6113 20.7767 12.3724 20.8418C11.9927 20.7488 11.7957 20.4941 11.5294 20.1689C11.4333 20.0531 11.3371 19.9373 11.2409 19.8216C11.2405 19.8902 11.24 19.9589 11.2396 20.0296C11.2354 20.6773 11.2302 21.325 11.2239 21.9727C11.2207 22.3057 11.2178 22.6386 11.2159 22.9716C11.214 23.2931 11.2111 23.6146 11.2075 23.936C11.2063 24.0585 11.2054 24.181 11.205 24.3035C11.2043 24.4754 11.2022 24.6473 11.1999 24.8192C11.1991 24.9169 11.1983 25.0147 11.1975 25.1154C11.1651 25.4122 11.1005 25.5741 10.9524 25.8127C10.7008 26.0146 10.5988 26.0154 10.3032 25.9864C10.0621 25.8816 10.0185 25.8196 9.87044 25.5522C9.85036 25.3033 9.85036 25.3033 9.84744 24.9966C9.84672 24.9407 9.846 24.8847 9.84525 24.8271C9.84302 24.6425 9.8418 24.4579 9.84058 24.2732C9.83923 24.1451 9.83782 24.017 9.83634 23.8889C9.83264 23.5519 9.82978 23.2149 9.8271 22.8778C9.82421 22.5339 9.82053 22.1899 9.81691 21.8459C9.80993 21.1712 9.80384 20.4964 9.79831 19.8216C9.74792 19.8833 9.69753 19.9449 9.6456 20.0085C9.57996 20.0883 9.51432 20.1681 9.44669 20.2503C9.38142 20.3299 9.31614 20.4095 9.2489 20.4915C9.03918 20.7336 8.98382 20.7709 8.69384 20.8038C8.38148 20.772 8.27489 20.7088 8.06722 20.4294C7.97762 20.1193 7.97448 19.97 8.07664 19.6648C8.23406 19.341 8.4162 19.1065 8.63777 18.8458C8.67875 18.7966 8.71973 18.7475 8.76195 18.6968C8.84808 18.5937 8.93448 18.4909 9.02112 18.3884C9.15401 18.2311 9.28611 18.073 9.41809 17.9146C9.50205 17.8143 9.58606 17.7141 9.67012 17.6139C9.72951 17.543 9.72951 17.543 9.79011 17.4706C10.1075 17.0958 10.3536 16.9096 10.8081 17.0431Z" fill="#106FAE"/>
<path d="M29.1512 16.0009C29.3773 16.0478 29.4752 16.1206 29.6454 16.2614C29.705 16.3105 29.7646 16.3597 29.826 16.4103C30.2082 16.7378 30.5867 17.0681 30.9612 17.4028C31.0437 17.4753 31.1262 17.5479 31.2087 17.6204C31.3255 17.7248 31.3255 17.7248 31.4447 17.8313C31.5152 17.8939 31.5856 17.9565 31.6582 18.021C31.9067 18.2836 32.0074 18.4843 31.9996 18.8292C31.8948 19.1243 31.7874 19.214 31.4885 19.3659C31.2141 19.4288 31.2141 19.4288 30.8859 19.3659C30.5737 19.1557 30.2988 18.9188 30.025 18.6696C29.9682 18.6186 29.9114 18.5675 29.8528 18.5149C29.8525 18.5782 29.8522 18.6415 29.8519 18.7067C29.8486 19.3032 29.8437 19.8996 29.837 20.4961C29.8336 20.8027 29.8308 21.1094 29.8295 21.416C29.8282 21.712 29.8253 22.0079 29.8211 22.3039C29.8199 22.4168 29.8192 22.5297 29.8191 22.6426C29.8189 22.8008 29.8166 22.9589 29.8138 23.117C29.8126 23.2521 29.8126 23.2521 29.8114 23.3898C29.7572 23.6702 29.6722 23.7603 29.4224 23.9303C29.0865 24.0127 28.9009 24.0384 28.5777 23.9158C28.3056 23.7132 28.227 23.558 28.1933 23.241C28.1921 23.1537 28.191 23.0664 28.1898 22.9765C28.1881 22.8774 28.1864 22.7783 28.1846 22.6762C28.1836 22.5684 28.1826 22.4606 28.1816 22.3528C28.18 22.2423 28.1783 22.1317 28.1765 22.0212C28.1721 21.7307 28.1687 21.4402 28.1655 21.1497C28.1621 20.8531 28.1577 20.5564 28.1534 20.2598C28.145 19.6782 28.1378 19.0965 28.1312 18.5149C28.071 18.5699 28.0109 18.6248 27.9489 18.6814C27.8706 18.7525 27.7922 18.8236 27.7115 18.8969C27.6336 18.9678 27.5557 19.0387 27.4754 19.1117C27.2263 19.3265 27.1567 19.3599 26.813 19.3949C26.4956 19.3659 26.4956 19.3659 26.2427 19.2112C26.0636 18.977 25.9786 18.8179 26.0046 18.5303C26.126 18.1892 26.4125 17.9638 26.6916 17.7178C26.8722 17.5579 27.0496 17.3955 27.2273 17.233C27.5015 16.9834 27.776 16.7341 28.0525 16.4865C28.1111 16.4339 28.1697 16.3813 28.2301 16.3271C28.5244 16.0812 28.7449 15.9897 29.1512 16.0009Z" fill="#106FAE"/>
<path d="M21.3697 16.0384C21.6418 16.1964 21.8619 16.395 22.0885 16.6015C22.2673 16.7638 22.4491 16.9233 22.6309 17.083C22.9101 17.3295 23.189 17.5762 23.466 17.8247C23.5543 17.9038 23.5543 17.9038 23.6443 17.9844C23.9275 18.2566 24.0112 18.4492 23.9988 18.8234C23.9664 18.9787 23.9664 18.9787 23.7879 19.2108C23.5336 19.3656 23.5336 19.3656 23.2469 19.4236C22.7912 19.3408 22.5549 19.1138 22.2353 18.824C22.1199 18.7207 22.0045 18.6176 21.8891 18.5145C21.8886 18.5756 21.8881 18.6368 21.8875 18.6999C21.8825 19.2771 21.8763 19.8542 21.8687 20.4314C21.8648 20.7281 21.8614 21.0249 21.8591 21.3216C21.8568 21.6081 21.8533 21.8945 21.849 22.181C21.8475 22.2902 21.8465 22.3994 21.846 22.5085C21.8452 22.6617 21.8426 22.8149 21.8399 22.968C21.839 23.0551 21.838 23.1423 21.837 23.232C21.7909 23.5452 21.6711 23.7634 21.3914 23.9598C21.0979 24.0327 20.8842 23.9964 20.5907 23.9308C20.3391 23.7611 20.2541 23.6707 20.1996 23.3902C20.1988 23.3002 20.1981 23.2101 20.1973 23.1174C20.1959 23.0426 20.1959 23.0426 20.1946 22.9663C20.192 22.8022 20.1919 22.6381 20.1918 22.4739C20.1905 22.3599 20.189 22.2458 20.1874 22.1318C20.1837 21.8321 20.1819 21.5324 20.1806 21.2327C20.1789 20.9267 20.1753 20.6207 20.1718 20.3147C20.1653 19.7146 20.161 19.1145 20.158 18.5145C20.1048 18.5629 20.0515 18.6114 19.9967 18.6613C19.9267 18.7246 19.8568 18.7878 19.7847 18.853C19.7154 18.9158 19.6461 18.9787 19.5747 19.0434C19.3212 19.2603 19.1805 19.3595 18.8272 19.3946C18.4582 19.3605 18.3267 19.3019 18.0807 19.0561C17.9731 18.7797 17.9694 18.6467 18.092 18.3748C18.2809 18.0862 18.4994 17.8772 18.7653 17.6449C18.8145 17.6011 18.8637 17.5572 18.9143 17.5121C19.0177 17.4202 19.1214 17.3286 19.2253 17.2373C19.3848 17.0971 19.5433 16.9562 19.7017 16.815C19.8025 16.7257 19.9033 16.6364 20.0041 16.5471C20.0754 16.4839 20.0754 16.4839 20.1481 16.4194C20.529 16.0853 20.8244 15.9194 21.3697 16.0384Z" fill="#106FAE"/>
<path d="M39.373 17.0337C39.6133 17.1812 39.7941 17.3733 39.9861 17.5786C40.0406 17.6341 40.0951 17.6896 40.1513 17.7468C40.3242 17.9237 40.4945 18.103 40.6649 18.2823C40.7817 18.4024 40.8986 18.5223 41.0157 18.642C41.9541 19.6068 41.9541 19.6068 42 20.0141C41.9676 20.3344 41.9676 20.3344 41.7946 20.5896C41.5355 20.7685 41.3574 20.852 41.0392 20.8355C40.6048 20.6874 40.2913 20.3111 39.9784 19.987C39.9498 19.9583 39.9213 19.9296 39.8919 19.9001C39.8912 19.9666 39.8905 20.0331 39.8898 20.1016C39.883 20.7291 39.8755 21.3566 39.867 21.9841C39.8627 22.3067 39.8587 22.6292 39.8554 22.9518C39.8522 23.2633 39.8482 23.5747 39.8436 23.8861C39.842 24.0048 39.8407 24.1235 39.8397 24.2422C39.8382 24.4087 39.8356 24.5752 39.833 24.7418C39.8318 24.8365 39.8307 24.9312 39.8295 25.0288C39.7971 25.3743 39.7228 25.6257 39.4811 25.8772C39.2216 26.0147 39.0579 26.016 38.7676 25.9803C38.3669 25.7836 38.3669 25.7836 38.2486 25.546C38.2382 25.3642 38.2333 25.1821 38.2309 25C38.23 24.9441 38.2292 24.8882 38.2283 24.8305C38.2256 24.6454 38.2234 24.4602 38.2213 24.275C38.2195 24.1467 38.2177 24.0184 38.2158 23.8902C38.2111 23.5523 38.2068 23.2144 38.2026 22.8766C38.1983 22.5319 38.1935 22.1872 38.1887 21.8426C38.1794 21.1661 38.1706 20.4897 38.1622 19.8132C38.109 19.8677 38.0558 19.9221 38.001 19.9781C37.9311 20.0491 37.8612 20.1201 37.7892 20.1933C37.72 20.2638 37.6507 20.3343 37.5794 20.407C37.3026 20.673 37.1718 20.7642 36.7838 20.8013C36.529 20.7933 36.4428 20.7754 36.2216 20.633C36.0391 20.347 36 20.1531 36 19.8132C36.2313 19.409 36.5191 19.0936 36.8466 18.7692C36.9173 18.6983 36.9173 18.6983 36.9893 18.626C37.0881 18.5271 37.1871 18.4283 37.2863 18.3298C37.4385 18.1786 37.5899 18.0267 37.7412 17.8747C37.8376 17.7783 37.934 17.682 38.0304 17.5858C38.0757 17.5403 38.121 17.4949 38.1677 17.4481C38.5459 17.0733 38.8324 16.9277 39.373 17.0337Z" fill="#106FAE"/>
</svg>
