<svg width="45" height="45" viewBox="0 0 45 45" fill="none" xmlns="http://www.w3.org/2000/svg">
<g clip-path="url(#clip0_16_837)">
<path d="M24.2574 0.351345C24.318 0.382161 24.3786 0.412978 24.441 0.444728C25.2612 0.912465 25.9113 1.648 26.5696 2.31363C26.8804 2.62681 27.1983 2.92499 27.5368 3.20848C27.6859 3.34032 27.8119 3.48153 27.9433 3.63076C28.2496 3.93756 28.5817 3.99496 29.0035 4.04275C29.2952 4.03478 29.5765 3.99245 29.8642 3.94456C29.944 3.93261 30.0239 3.92065 30.1061 3.90834C30.3595 3.87026 30.6126 3.83033 30.8656 3.79007C34.359 3.24206 34.359 3.24206 35.771 4.25698C35.829 4.3023 35.8871 4.34762 35.9468 4.39431C36.0201 4.44858 36.0934 4.50285 36.1689 4.55876C36.3962 4.7544 36.5391 4.93827 36.6994 5.19082C36.7484 5.26616 36.7975 5.34151 36.848 5.41913C37.3855 6.4472 37.524 7.55254 37.7101 8.68447C37.7688 9.04044 37.8286 9.39619 37.889 9.75186C37.9019 9.83262 37.9148 9.91338 37.9281 9.99659C38.0494 10.7315 38.0494 10.7315 38.4954 11.3062C38.563 11.3432 38.6306 11.3802 38.7003 11.4184C38.7784 11.4619 38.8565 11.5055 38.937 11.5503C39.0234 11.5962 39.1098 11.642 39.1988 11.6892C39.292 11.7395 39.3851 11.7898 39.4812 11.8415C39.7358 11.9778 39.9911 12.1128 40.2467 12.2473C43.3225 13.8692 43.3225 13.8692 44.017 15.5557C44.2494 16.3186 44.2193 17.2699 43.9449 18.0174C43.9199 18.0862 43.895 18.1551 43.8693 18.2261C43.626 18.8468 43.3268 19.4382 43.0275 20.0334C42.9641 20.1597 42.9641 20.1597 42.8994 20.2885C42.565 20.9539 42.565 20.9539 42.443 21.1934C42.3655 21.3462 42.2899 21.5 42.2145 21.6538C42.1743 21.7343 42.1341 21.8147 42.0926 21.8976C41.9056 22.4736 41.9983 22.9049 42.2569 23.4311C42.2923 23.4997 42.3277 23.5683 42.3642 23.6389C42.4004 23.7119 42.4367 23.7849 42.474 23.8601C42.5895 24.0922 42.7068 24.3232 42.8243 24.5542C42.9401 24.7848 43.0556 25.0155 43.1708 25.2464C43.2423 25.3895 43.3142 25.5324 43.3868 25.6749C43.9788 26.8497 44.3773 28.0393 44.0273 29.3662C43.3204 31.3712 41.5147 32.0699 39.7635 32.9853C39.5914 33.0754 39.4196 33.166 39.2479 33.2568C39.0974 33.3357 39.0974 33.3357 38.9438 33.4162C38.3839 33.7334 38.3839 33.7334 38.0916 34.2775C37.8764 35.1012 37.7636 35.9538 37.628 36.7934C37.3766 38.3403 37.0824 39.8131 35.7498 40.8054C34.0876 41.8437 32.3252 41.4449 30.5029 41.1622C30.2416 41.1221 29.98 41.0841 29.7183 41.0464C29.6392 41.0335 29.5602 41.0206 29.4788 41.0073C28.9433 40.932 28.6134 40.9839 28.1246 41.2205C27.8643 41.4313 27.8643 41.4313 27.6412 41.6819C27.3776 41.9596 27.1166 42.2323 26.8227 42.4784C26.5341 42.723 26.2712 42.9867 26.0073 43.2572C25.0902 44.195 24.1144 44.9927 22.7462 45.0255C22.0129 45.0317 21.4071 44.9905 20.7417 44.6482C20.6811 44.6174 20.6205 44.5866 20.5581 44.5548C19.7379 44.0871 19.0878 43.3516 18.4295 42.6859C18.1188 42.3728 17.8008 42.0749 17.4627 41.7911C17.3128 41.6589 17.1837 41.5174 17.0503 41.3688C16.7716 41.0901 16.4687 41.0045 16.0835 40.9568C15.7886 40.965 15.5032 41.008 15.2122 41.055C15.0893 41.0729 15.0893 41.0729 14.9639 41.0912C14.7034 41.1294 14.4431 41.1693 14.1829 41.2095C10.5843 41.7587 10.5843 41.7587 8.9644 40.6053C7.59762 39.4036 7.49404 37.4878 7.21118 35.8065C7.17285 35.5796 7.13349 35.3529 7.09398 35.1262C7.08271 35.0575 7.07144 34.9888 7.05983 34.9181C6.97736 34.4505 6.88743 34.0088 6.50372 33.6934C6.43611 33.6564 6.3685 33.6194 6.29884 33.5812C6.18166 33.5159 6.18166 33.5159 6.06212 33.4492C5.97573 33.4034 5.88934 33.3576 5.80034 33.3103C5.70715 33.2601 5.61396 33.2098 5.51795 33.158C5.2633 33.0217 5.00801 32.8867 4.75237 32.7523C1.6766 31.1304 1.6766 31.1304 0.982144 29.4438C0.749697 28.681 0.779776 27.7297 1.05424 26.9822C1.09163 26.8789 1.09163 26.8789 1.12977 26.7735C1.37311 26.1528 1.67232 25.5614 1.9716 24.9662C2.01389 24.882 2.05618 24.7978 2.09975 24.711C2.43413 24.0457 2.43413 24.0457 2.55611 23.8062C2.6336 23.6534 2.70919 23.4996 2.78459 23.3457C2.82481 23.2653 2.86503 23.1848 2.90647 23.102C3.09347 22.526 3.00078 22.0947 2.74225 21.5685C2.70682 21.4999 2.6714 21.4313 2.6349 21.3606C2.58055 21.2511 2.58055 21.2511 2.52511 21.1394C2.40965 20.9074 2.29235 20.6763 2.17485 20.4453C2.05898 20.2148 1.94351 19.984 1.82835 19.7531C1.75685 19.6101 1.68488 19.4672 1.61235 19.3246C1.02032 18.1499 0.621854 16.9603 0.971844 15.6333C1.67869 13.6284 3.4844 12.9297 5.23559 12.0143C5.40769 11.9242 5.57948 11.8335 5.75124 11.7428C5.90174 11.6639 5.90174 11.6639 6.05527 11.5834C6.61519 11.2661 6.61519 11.2661 6.90755 10.7221C7.12266 9.89834 7.23553 9.04581 7.37114 8.20616C7.62249 6.65926 7.91671 5.18651 9.24936 4.19416C10.8853 3.17229 12.5963 3.54548 14.3889 3.83071C14.6374 3.8699 14.8861 3.90731 15.1349 3.94456C15.247 3.96322 15.247 3.96322 15.3614 3.98226C15.8979 4.06144 16.4817 4.08474 16.9429 3.75539C17.0785 3.63299 17.1987 3.50406 17.3195 3.36709C17.4103 3.27023 17.5013 3.17353 17.5924 3.07698C17.6354 3.03069 17.6784 2.98439 17.7227 2.93669C17.8672 2.78515 18.0211 2.64963 18.1819 2.51565C18.4688 2.27311 18.7295 2.01111 18.9916 1.74257C20.3933 0.309277 22.2888 -0.661271 24.2574 0.351345ZM21.2093 3.39868C21.0371 3.57152 20.8619 3.72891 20.6769 3.88757C20.3535 4.16762 20.0553 4.46524 19.7583 4.77278C18.8539 5.70746 17.8823 6.60534 16.5142 6.6979C15.371 6.71378 14.2678 6.53745 13.1413 6.35754C12.8872 6.31738 12.6328 6.27944 12.3784 6.24173C12.3018 6.22884 12.2253 6.21594 12.1464 6.20265C11.6177 6.12586 11.2938 6.1843 10.8101 6.4158C10.2782 6.84044 10.237 7.44468 10.1322 8.08469C10.1011 8.27462 10.0681 8.4641 10.0344 8.6536C9.98991 8.90506 9.94612 9.15662 9.90308 9.40833C9.82565 9.86011 9.74319 10.3108 9.65654 10.7609C9.63885 10.8602 9.63885 10.8602 9.62081 10.9616C9.42151 11.997 8.88922 12.8566 8.08549 13.5349C7.75688 13.7433 7.41756 13.9249 7.07082 14.1013C6.90684 14.1847 6.74379 14.2698 6.58088 14.3553C6.36357 14.4692 6.146 14.5827 5.92814 14.6955C5.51719 14.9091 5.10846 15.1263 4.7017 15.3477C4.60732 15.3974 4.60732 15.3974 4.51103 15.4481C4.0212 15.7154 3.76867 15.9806 3.55912 16.4958C3.36723 17.4439 4.36595 18.786 4.77891 19.6181C4.88567 19.8336 4.99182 20.0493 5.0979 20.2651C5.13049 20.3303 5.16309 20.3955 5.19667 20.4627C5.46097 21.0014 5.63337 21.5186 5.69047 22.1208C5.69908 22.2009 5.70769 22.281 5.71656 22.3635C5.70399 23.3162 5.41776 24.0791 5.00383 24.9278C4.95231 25.0359 4.90089 25.1441 4.84959 25.2524C4.52357 25.9374 4.18885 26.6188 3.8341 27.2894C3.62938 27.6843 3.47333 28.0405 3.54573 28.4904C3.56647 28.5456 3.5872 28.6008 3.60856 28.6576C3.62771 28.713 3.64686 28.7684 3.66658 28.8255C4.03958 29.4175 4.73764 29.6843 5.33891 29.987C5.53638 30.0885 5.73379 30.1901 5.93114 30.2918C6.20279 30.4314 6.47446 30.5709 6.74632 30.71C7.90264 31.3064 8.95029 31.9253 9.40385 33.2224C9.62528 33.9543 9.75501 34.7038 9.88519 35.4561C9.89665 35.5221 9.90811 35.5881 9.91991 35.6562C9.97798 35.9919 10.0349 36.3277 10.09 36.6639C10.1113 36.7905 10.1326 36.9171 10.154 37.0436C10.1725 37.1561 10.191 37.2685 10.21 37.3844C10.3092 37.8215 10.4255 38.1958 10.7442 38.5233C11.329 38.8822 11.7883 38.8571 12.4416 38.7492C12.5215 38.7373 12.6013 38.7253 12.6837 38.713C12.9382 38.6748 13.1925 38.635 13.4468 38.5948C16.9402 38.0472 16.9402 38.0472 18.5479 39.0943C19.0242 39.4468 19.426 39.8718 19.8354 40.2976C20.0074 40.4747 20.18 40.6513 20.3528 40.8277C20.4339 40.9106 20.515 40.9935 20.5985 41.0788C20.8541 41.3326 21.1182 41.5715 21.393 41.8042C21.5153 41.9087 21.6317 42.0201 21.747 42.1324C22.0748 42.3402 22.3784 42.3781 22.7632 42.3631C23.2084 42.2268 23.4783 41.9326 23.7898 41.6009C23.962 41.428 24.1373 41.2707 24.3223 41.112C24.6456 40.8319 24.9438 40.5343 25.2408 40.2268C26.1452 39.2921 27.1168 38.3942 28.4849 38.3017C29.6281 38.2858 30.7313 38.4621 31.8578 38.642C32.1119 38.6822 32.3663 38.7201 32.6207 38.7578C32.6973 38.7707 32.7738 38.7836 32.8527 38.7969C33.3814 38.8737 33.7053 38.8153 34.189 38.5838C34.7209 38.1591 34.7621 37.5549 34.8669 36.9149C34.898 36.7249 34.9311 36.5355 34.9647 36.346C35.0092 36.0945 35.053 35.8429 35.096 35.5912C35.1735 35.1395 35.2559 34.6888 35.3426 34.2387C35.3544 34.1724 35.3662 34.1062 35.3783 34.038C35.5776 33.0026 36.1099 32.1429 36.9136 31.4646C37.2422 31.2562 37.5815 31.0747 37.9283 30.8983C38.0923 30.8148 38.2553 30.7298 38.4182 30.6443C38.6355 30.5303 38.8531 30.4169 39.071 30.304C39.4819 30.0905 39.8907 29.8733 40.2974 29.6519C40.3603 29.6188 40.4233 29.5856 40.4881 29.5515C40.9779 29.2841 41.2304 29.0189 41.44 28.5038C41.6319 27.5557 40.6332 26.2136 40.2202 25.3814C40.1134 25.166 40.0073 24.9503 39.9012 24.7345C39.8686 24.6693 39.836 24.6041 39.8024 24.5369C39.5381 23.9981 39.3657 23.4809 39.3086 22.8788C39.3 22.7987 39.2914 22.7186 39.2825 22.6361C39.2951 21.6834 39.5813 20.9205 39.9953 20.0718C40.0468 19.9636 40.0982 19.8554 40.1495 19.7472C40.4755 19.0622 40.8103 18.3808 41.165 17.7102C41.3697 17.3153 41.5258 16.959 41.4534 16.5091C41.4223 16.4264 41.4223 16.4264 41.3905 16.3419C41.3714 16.2865 41.3523 16.2311 41.3325 16.1741C40.9595 15.5821 40.2615 15.3152 39.6602 15.0126C39.4627 14.9111 39.2653 14.8095 39.068 14.7077C38.7963 14.5682 38.5247 14.4287 38.2528 14.2896C37.0965 13.6932 36.0488 13.0743 35.5953 11.7771C35.3738 11.0452 35.2441 10.2957 35.1139 9.54347C35.1025 9.47745 35.091 9.41142 35.0792 9.3434C35.0211 9.0077 34.9642 8.67186 34.9091 8.33566C34.8878 8.20908 34.8665 8.08251 34.8451 7.95594C34.8174 7.78725 34.8174 7.78725 34.7891 7.61515C34.6899 7.17809 34.5736 6.80379 34.2549 6.47622C33.671 6.11787 33.2128 6.14224 32.5606 6.25032C32.4809 6.26227 32.4013 6.27422 32.3192 6.28654C32.0652 6.32473 31.8115 6.36459 31.5578 6.40481C27.9711 6.96958 27.9711 6.96958 26.4546 5.88845C25.819 5.38082 25.2558 4.78469 24.6866 4.20519C24.3424 3.85633 23.9889 3.5255 23.6167 3.20659C23.4914 3.0977 23.371 2.98309 23.2521 2.86721C22.4368 2.3502 21.7947 2.77533 21.2093 3.39868Z" fill="#106FAE"/>
<path d="M31.8214 12.7618C32.1617 13.0319 32.362 13.2707 32.4311 13.7111C32.453 14.0667 32.4349 14.3723 32.2248 14.6699C32.1505 14.7508 32.1505 14.7508 32.0746 14.8334C32.0189 14.8943 31.9632 14.9552 31.9058 15.018C31.6113 15.3281 31.3127 15.6335 31.0103 15.9359C30.9056 16.0411 30.9056 16.0411 30.7988 16.1484C30.5665 16.3816 30.3339 16.6145 30.1013 16.8475C29.9341 17.0153 29.7669 17.1831 29.5997 17.3509C29.0995 17.8527 28.599 18.3542 28.0983 18.8556C27.8623 19.092 27.6263 19.3285 27.3903 19.565C26.6055 20.3513 25.8206 21.1375 25.0354 21.9233C24.8321 22.1267 24.6289 22.3301 24.4257 22.5335C24.3752 22.584 24.3247 22.6346 24.2726 22.6867C23.4529 23.5072 22.6338 24.3284 21.8151 25.15C20.9738 25.9943 20.1317 26.8379 19.289 27.6808C18.8162 28.1539 18.3437 28.6271 17.8719 29.1012C17.4706 29.5044 17.0687 29.907 16.666 30.3089C16.4606 30.5139 16.2556 30.7193 16.0511 30.9252C15.8295 31.1484 15.6068 31.3705 15.3838 31.5923C15.2872 31.6903 15.2872 31.6903 15.1887 31.7903C14.8052 32.169 14.5028 32.4031 13.947 32.4483C13.484 32.4075 13.1992 32.2902 12.8648 31.9628C12.5929 31.6347 12.5503 31.3181 12.5624 30.9047C12.6127 30.5804 12.7032 30.4077 12.9243 30.1669C13.0079 30.0755 13.0079 30.0755 13.0932 29.9823C13.3877 29.6722 13.6863 29.3668 13.9887 29.0644C14.0585 28.9943 14.1283 28.9242 14.2002 28.8519C14.4325 28.6187 14.6651 28.3858 14.8977 28.1528C15.0649 27.985 15.2321 27.8172 15.3993 27.6494C15.8995 27.1475 16.4 26.6461 16.9006 26.1447C17.1367 25.9083 17.3727 25.6718 17.6087 25.4353C18.3935 24.649 19.1784 23.8628 19.9636 23.077C20.1668 22.8736 20.3701 22.6702 20.5733 22.4668C20.6238 22.4163 20.6743 22.3657 20.7263 22.3136C21.5461 21.4931 22.3651 20.6719 23.1838 19.8503C24.0252 19.006 24.8672 18.1624 25.7099 17.3195C26.1828 16.8464 26.6553 16.3732 27.1271 15.8991C27.5284 15.4959 27.9303 15.0933 28.333 14.6914C28.5384 14.4864 28.7434 14.281 28.9479 14.0751C29.1695 13.8519 29.3922 13.6298 29.6152 13.408C29.6795 13.3427 29.7439 13.2773 29.8103 13.21C30.379 12.6484 31.0634 12.3211 31.8214 12.7618Z" fill="#106FAE"/>
<path d="M19.863 11.4695C20.9745 12.2151 21.721 13.2072 22.0407 14.5182C22.2769 15.8024 22.0733 17.0472 21.4038 18.1739C20.6149 19.3171 19.5225 20.0976 18.1512 20.3623C16.8556 20.5267 15.5598 20.306 14.5017 19.5115C13.4277 18.6663 12.706 17.6424 12.5125 16.263C12.3616 14.8519 12.7461 13.48 13.6337 12.3649C15.2522 10.6775 17.8492 10.2259 19.863 11.4695ZM15.589 14.3201C15.2241 14.8701 15.1297 15.3488 15.2048 15.9959C15.3531 16.6127 15.6409 17.0354 16.1771 17.3802C16.7167 17.7074 17.2209 17.7225 17.8415 17.6658C18.4437 17.4847 18.8652 17.0933 19.1818 16.5562C19.4365 16.0651 19.4907 15.6627 19.4235 15.117C19.2286 14.5199 18.9106 14.0384 18.3689 13.7107C17.3567 13.2462 16.2885 13.4093 15.589 14.3201Z" fill="#106FAE"/>
<path d="M30.4979 25.4882C31.5718 26.3334 32.2935 27.3573 32.4871 28.7367C32.638 30.1478 32.2535 31.5197 31.3658 32.6348C30.4675 33.5714 29.2689 34.1867 27.9664 34.2151C26.486 34.2262 25.3922 33.8475 24.2577 32.871C23.3253 31.8109 22.7856 30.6083 22.8652 29.1775C22.9821 27.8073 23.5487 26.7145 24.5213 25.7519C26.2064 24.3477 28.7014 24.1393 30.4979 25.4882ZM26.0155 28.1249C25.637 28.7042 25.4914 29.1953 25.576 29.8827C25.7717 30.4819 26.0896 30.958 26.6307 31.289C27.1861 31.5703 27.6972 31.6061 28.3006 31.4648C28.9745 31.2433 29.3536 30.8116 29.6959 30.2068C29.8993 29.54 29.8522 28.9206 29.5311 28.3007C29.2271 27.8166 28.7495 27.5128 28.2128 27.3339C27.2843 27.25 26.629 27.3922 26.0155 28.1249Z" fill="#106FAE"/>
</g>
<defs>
<clipPath id="clip0_16_837">
<rect width="45" height="45" fill="white"/>
</clipPath>
</defs>
</svg>
