<svg width="45" height="45" viewBox="0 0 45 45" fill="none" xmlns="http://www.w3.org/2000/svg">
<g clip-path="url(#clip0_16_866)">
<path d="M20.7413 0.35162C20.8645 0.400394 20.8645 0.400394 20.9902 0.450153C21.1359 0.508391 21.2811 0.568097 21.4252 0.630054C22.5773 1.06207 23.6938 0.62149 24.7651 0.161076C25.8448 -0.243838 27.3583 -0.11252 28.3878 0.35162C29.4986 0.889045 30.2502 1.72567 30.891 2.75866C31.586 3.85609 32.4708 4.25741 33.7107 4.56488C35.018 4.90105 36.106 5.70323 36.8253 6.85553C37.385 7.98083 37.461 8.91025 37.426 10.1488C37.4051 11.476 37.7717 12.3872 38.6271 13.3924C39.588 14.5426 39.9237 15.8331 39.8136 17.3145C39.6623 18.4965 39.1458 19.4032 38.3325 20.2554C37.7483 20.9459 37.4072 21.843 37.4357 22.7452C37.4379 22.857 37.44 22.9688 37.4423 23.084C37.4484 23.3152 37.4552 23.5464 37.4629 23.7776C37.486 25.1282 37.074 26.4224 36.1359 27.4243C35.3645 28.1301 34.5717 28.5299 33.5734 28.8282C33.458 28.8629 33.458 28.8629 33.3404 28.8983C33.1251 28.9631 32.9098 29.0276 32.6945 29.0919C32.7256 29.1437 32.7568 29.1955 32.789 29.2489C33.4398 30.331 34.0879 31.4146 34.7314 32.501C35.3513 33.5474 35.9771 34.5896 36.6102 35.6279C37.1856 36.5732 37.7504 37.5246 38.3136 38.4771C38.348 38.5351 38.3823 38.5932 38.4177 38.6529C38.482 38.7617 38.5462 38.8704 38.6104 38.9792C38.7429 39.2031 38.8782 39.4222 39.0226 39.6387C39.0812 40.254 39.0812 40.254 38.8798 40.5561C38.5606 40.7661 38.2707 40.8029 37.8952 40.7391C37.8097 40.7142 37.7242 40.6893 37.6362 40.6636C37.5385 40.6357 37.4409 40.6078 37.3403 40.5791C37.2362 40.5482 37.1321 40.5172 37.0248 40.4854C36.9169 40.4542 36.809 40.4231 36.6979 40.391C36.4121 40.3083 36.1266 40.2247 35.8412 40.1406C35.5507 40.0552 35.2597 39.9711 34.9688 39.8869C33.3395 39.4143 33.3395 39.4143 32.9581 39.2872C32.9429 39.4513 32.9429 39.4513 32.9274 39.6187C32.8713 40.1205 32.7674 40.6085 32.6594 41.1013C32.6387 41.1967 32.618 41.292 32.5967 41.3903C32.553 41.5907 32.5091 41.791 32.465 41.9913C32.3978 42.2975 32.3319 42.604 32.266 42.9106C32.2233 43.1058 32.1805 43.3011 32.1376 43.4963C32.1181 43.5877 32.0986 43.6791 32.0785 43.7732C31.8774 44.6746 31.8774 44.6746 31.5519 45.0001C31.3857 45.0272 31.3857 45.0272 31.1783 45.0385C31.1108 45.0438 31.0433 45.0492 30.9737 45.0546C30.5751 44.9524 30.3553 44.5254 30.1419 44.1937C30.0547 44.0446 30.0547 44.0446 29.9657 43.8925C29.9334 43.8375 29.901 43.7826 29.8677 43.726C29.7983 43.6081 29.7291 43.49 29.6601 43.3719C29.4746 43.0541 29.2875 42.7373 29.1006 42.4203C29.0626 42.3559 29.0247 42.2915 28.9856 42.2252C28.6308 41.6233 28.2685 41.0261 27.9044 40.4297C27.3706 39.5546 26.8445 38.6752 26.3224 37.793C25.9101 37.0964 25.497 36.4003 25.0775 35.708C25.0445 35.6536 25.0116 35.5992 24.9776 35.5432C24.818 35.28 24.6576 35.0175 24.4954 34.7559C24.2019 34.2803 23.9215 33.8111 23.6938 33.3001C23.5498 33.0345 23.4121 32.8272 23.2023 32.6075C22.7392 32.4709 22.2573 32.4404 21.796 32.6075C21.4057 32.9646 21.1999 33.3911 20.9666 33.8599C20.897 33.9893 20.8268 34.1184 20.7561 34.2472C20.6121 34.5103 20.4706 34.7745 20.3308 35.0397C20.0373 35.5913 19.7081 36.1197 19.379 36.6504C19.2559 36.8516 19.1334 37.0531 19.011 37.2547C18.9803 37.3052 18.9497 37.3556 18.9181 37.4076C18.5397 38.0313 18.1686 38.6594 17.797 39.2872C17.084 40.4915 16.3614 41.6897 15.6323 42.8844C15.4772 43.1391 15.323 43.3943 15.1692 43.6498C15.1245 43.7238 15.0797 43.7979 15.0336 43.8742C14.9527 44.008 14.8721 44.1419 14.7919 44.2761C14.628 44.5464 14.4755 44.7907 14.2374 45.0001C14.0479 45.0351 14.0479 45.0351 13.8419 45.033C13.7739 45.0337 13.706 45.0344 13.6359 45.0351C13.3937 44.9903 13.3354 44.9285 13.1827 44.7364C13.1047 44.5021 13.1047 44.5021 13.0409 44.2173C13.0167 44.1112 12.9925 44.0052 12.9675 43.8959C12.9422 43.7806 12.9169 43.6652 12.8916 43.5499C12.8651 43.4318 12.8384 43.3138 12.8118 43.1957C12.7568 42.9522 12.7025 42.7085 12.6486 42.4647C12.5709 42.1136 12.4908 41.7631 12.4103 41.4127C12.3619 41.2004 12.3136 40.9881 12.2654 40.7758C12.2426 40.6767 12.2199 40.5775 12.1964 40.4754C12.1758 40.3832 12.1552 40.291 12.1339 40.1959C12.1157 40.1156 12.0975 40.0353 12.0788 39.9525C12.04 39.7257 12.0375 39.5167 12.0402 39.2872C11.9517 39.3133 11.9517 39.3133 11.8614 39.34C11.303 39.5047 10.7445 39.669 10.1858 39.8327C9.8986 39.9168 9.61149 40.0012 9.32452 40.086C8.99395 40.1837 8.66312 40.2805 8.33227 40.3772C8.23017 40.4075 8.12806 40.4378 8.02285 40.4691C6.67926 40.86 6.67926 40.86 6.24487 40.6659C6.0636 40.5176 6.0636 40.5176 5.97571 40.3419C5.93397 39.7998 5.9978 39.5149 6.28847 39.0413C6.33794 38.9593 6.33794 38.9593 6.38841 38.8756C6.4966 38.6969 6.60691 38.5197 6.71728 38.3423C6.79399 38.2165 6.87055 38.0907 6.94697 37.9647C7.14151 37.6447 7.33773 37.3257 7.53436 37.007C7.7009 36.7364 7.86582 36.4649 8.03049 36.1931C8.39424 35.5931 8.39424 35.5931 8.57567 35.2954C9.08356 34.4617 9.58202 33.6226 10.0792 32.7825C10.811 31.5463 11.5554 30.318 12.3038 29.0919C11.9946 28.9646 11.7027 28.8756 11.3755 28.8062C10.05 28.4818 9.0295 27.7476 8.26086 26.6309C7.61382 25.4582 7.53485 24.5241 7.58005 23.2085C7.60284 21.9291 7.26663 20.9164 6.3822 19.9897C5.45574 18.96 5.13902 17.6745 5.1634 16.324C5.24619 15.0488 5.79005 13.9572 6.66578 13.0456C7.51014 12.0907 7.57876 11.089 7.54675 9.87127C7.52864 8.28737 7.82103 7.0406 8.94751 5.85577C9.72215 5.12449 10.6199 4.69928 11.6482 4.44795C12.7684 4.17236 13.5771 3.68553 14.1945 2.68518C14.2565 2.57693 14.2565 2.57693 14.3198 2.46649C15.0601 1.18156 16.1604 0.443937 17.5682 0.0401187C18.6008 -0.183706 19.7775 -0.0449434 20.7413 0.35162ZM16.0831 2.54889C15.9242 2.77973 15.7764 3.01568 15.6296 3.25441C14.6924 4.76873 13.5437 5.57071 11.8199 5.99213C10.8562 6.23338 10.089 6.69345 9.55176 7.54766C9.07484 8.35391 9.02643 9.05808 9.05737 9.98114C9.08453 11.7099 8.7779 13.0017 7.56769 14.2912C6.91162 15.0358 6.61919 15.9715 6.64828 16.9554C6.73842 17.7556 7.03813 18.3814 7.55774 18.9844C8.7796 20.4165 9.10822 21.7506 9.03385 23.6098C9.0066 24.8125 9.33987 25.6508 10.1612 26.5176C10.7607 27.0841 11.5031 27.3211 12.2928 27.4988C13.2002 27.7052 13.927 28.0737 14.589 28.7403C14.647 28.7403 14.705 28.7403 14.7648 28.7403C14.7879 28.7898 14.811 28.8393 14.8348 28.8903C14.9497 29.1094 15.0823 29.3026 15.2262 29.5038C15.4317 29.792 15.6264 30.0827 15.814 30.3827C16.363 31.1998 17.1119 31.6414 18.0668 31.8707C19.1131 32.0356 19.961 31.6817 20.9188 31.2967C22.0467 30.8857 23.4299 31.0217 24.5206 31.4649C24.6029 31.4974 24.6851 31.5299 24.7699 31.5634C24.9155 31.6217 25.0605 31.6814 25.2045 31.7433C26.1047 32.0809 26.9926 31.9034 27.8605 31.5528C28.7815 31.0818 29.2921 30.3173 29.8033 29.4479C30.4281 28.4418 31.4563 27.8004 32.5945 27.5115C32.7157 27.4833 32.8369 27.4552 32.9581 27.4274C34.0338 27.1787 34.858 26.6905 35.485 25.7685C35.9397 24.9701 35.9713 24.2269 35.9409 23.324C35.9138 21.5334 36.2677 20.2675 37.5212 18.935C38.1255 18.2276 38.3682 17.3519 38.3466 16.4353C38.2553 15.5491 37.9371 14.895 37.3527 14.2383C36.1616 12.8548 35.8931 11.4892 35.9644 9.69309C35.9873 8.67979 35.7326 7.81225 35.0675 7.03131C34.4272 6.39892 33.7683 6.10969 32.9046 5.89937C31.612 5.58414 30.4719 4.99128 29.7446 3.83978C29.6707 3.71742 29.6707 3.71742 29.5953 3.59259C28.9485 2.52282 28.2798 1.86499 27.0695 1.4942C26.1268 1.26604 25.2561 1.55222 24.3894 1.91724C23.9087 2.11659 23.4557 2.2353 22.9386 2.28521C22.8273 2.29609 22.8273 2.29609 22.7137 2.30719C21.7634 2.35237 20.828 2.04837 19.9558 1.69744C18.5797 1.14971 17.1314 1.47676 16.0831 2.54889ZM13.6222 29.8829C13.0484 30.7797 12.5005 31.6916 11.9578 32.6075C11.9223 32.6673 11.8868 32.7271 11.8503 32.7888C11.6286 33.163 11.4071 33.5374 11.1857 33.9118C10.8912 34.4096 10.5964 34.9071 10.3013 35.4045C10.2304 35.5242 10.1595 35.6438 10.0886 35.7635C9.63182 36.5343 9.17199 37.3028 8.69534 38.0615C8.50157 38.3452 8.50157 38.3452 8.43664 38.6719C8.89461 38.6174 9.31643 38.5174 9.75706 38.3832C9.89163 38.3434 10.0262 38.3036 10.1608 38.2639C10.37 38.2016 10.579 38.1391 10.7879 38.0758C10.9915 38.0144 11.1955 37.9542 11.3995 37.8943C11.4608 37.8754 11.5221 37.8564 11.5852 37.8369C12.0172 37.7113 12.4709 37.6213 12.9191 37.7051C13.2309 37.9463 13.2746 38.2551 13.353 38.6242C13.3676 38.6892 13.3822 38.7542 13.3973 38.8211C13.4439 39.0294 13.4891 39.2379 13.5343 39.4465C13.5647 39.5831 13.5951 39.7197 13.6256 39.8562C13.805 40.6616 13.9778 41.4684 14.1495 42.2754C14.425 41.938 14.6533 41.5927 14.8691 41.2153C15.2358 40.5828 15.6125 39.9571 15.9935 39.3332C16.5851 38.364 17.1654 37.3889 17.7366 36.4075C18.2037 35.6054 18.683 34.8119 19.1807 34.0283C19.2245 33.9588 19.2683 33.8893 19.3135 33.8177C19.3518 33.7575 19.3902 33.6973 19.4297 33.6353C19.5249 33.4889 19.5249 33.4889 19.5109 33.3106C19.3895 33.3152 19.3895 33.3152 19.2657 33.3199C17.7158 33.353 16.3747 33.0345 15.2259 31.9353C14.7325 31.4188 14.3524 30.8633 14.0053 30.2403C13.887 30.0346 13.887 30.0346 13.6222 29.8829ZM31.2882 29.8829C30.9752 30.2495 30.7185 30.6522 30.4697 31.0639C29.7406 32.2183 28.7342 32.8844 27.421 33.2227C26.9793 33.3016 26.5565 33.3201 26.1082 33.3161C26.048 33.3157 25.9879 33.3153 25.926 33.3149C25.7798 33.3139 25.6336 33.3123 25.4874 33.3106C25.6193 33.6712 25.7962 33.9936 25.9931 34.3217C26.0422 34.4043 26.0422 34.4043 26.0924 34.4886C26.1998 34.6693 26.3078 34.8496 26.4158 35.03C26.4914 35.1568 26.567 35.2837 26.6427 35.4106C27.181 36.313 27.7261 37.211 28.2733 38.108C28.8015 38.9759 29.3165 39.8514 29.8276 40.7295C30.1309 41.2501 30.4377 41.7669 30.7609 42.2754C30.8905 42.0354 30.9709 41.8191 31.025 41.5521C31.04 41.4796 31.055 41.4072 31.0704 41.3325C31.086 41.255 31.1015 41.1774 31.1176 41.0975C31.1518 40.9324 31.1861 40.7673 31.2204 40.6023C31.2737 40.3427 31.3268 40.0831 31.3795 39.8235C31.4306 39.5723 31.4828 39.3214 31.5351 39.0705C31.5504 38.9932 31.5658 38.9158 31.5817 38.8361C31.6709 38.4105 31.7602 38.0242 32.0792 37.7051C32.6406 37.6466 33.1332 37.7507 33.6657 37.9166C33.7379 37.9381 33.8101 37.9595 33.8844 37.9816C34.1125 38.0496 34.3401 38.119 34.5676 38.1885C34.7968 38.2579 35.0261 38.3269 35.2555 38.3954C35.3976 38.4379 35.5396 38.4809 35.6813 38.5245C35.9907 38.6177 36.2357 38.6719 36.5616 38.6719C36.4311 38.3172 36.2615 38.0038 36.0697 37.6784C36.0231 37.5991 36.0231 37.5991 35.9756 37.5183C35.8764 37.3497 35.7768 37.1813 35.6772 37.013C35.6127 36.9034 35.5482 36.7937 35.4838 36.6841C35.1255 36.0753 34.7634 35.4689 34.3994 34.8635C34.163 34.47 33.9286 34.0754 33.6952 33.68C32.7647 32.1021 32.7647 32.1021 31.8046 30.542C31.7399 30.4389 31.7399 30.4389 31.674 30.3337C31.5773 30.1817 31.4772 30.032 31.3761 29.8829C31.3471 29.8829 31.3181 29.8829 31.2882 29.8829Z" fill="#106FAE"/>
<path d="M29.6498 9.05569C31.5676 10.873 32.7892 13.3673 32.899 16.0224C32.9696 18.8376 32.2076 21.2927 30.4102 23.4667C30.3579 23.5325 30.3056 23.5983 30.2516 23.6661C28.641 25.6197 26.0741 26.7866 23.5933 27.0516C20.6859 27.3031 17.9711 26.4784 15.7325 24.6092C15.6669 24.557 15.6013 24.5048 15.5337 24.451C15.03 24.0363 14.6371 23.541 14.2384 23.0272C14.1795 22.9551 14.1205 22.8831 14.0598 22.8089C12.394 20.6803 11.8816 17.8484 12.1558 15.211C12.479 12.9267 13.5453 10.9863 15.1173 9.31627C15.1691 9.25781 15.2208 9.19935 15.2742 9.13911C16.9419 7.3358 19.5354 6.38861 21.9443 6.24765C24.8189 6.14136 27.5307 7.10869 29.6498 9.05569ZM16.8751 9.75572C16.7894 9.82597 16.7038 9.89621 16.6155 9.96858C14.944 11.3919 13.8684 13.4641 13.6231 15.6444C13.472 18.3337 14.1235 20.6206 15.9083 22.6756C17.3935 24.3168 19.5848 25.4641 21.8148 25.5867C24.2454 25.6847 26.5832 24.9884 28.407 23.3417C28.488 23.2669 28.569 23.1921 28.6524 23.1151C28.7108 23.0639 28.7691 23.0127 28.8292 22.9599C30.008 21.8718 30.825 20.2614 31.2013 18.7206C31.221 18.6433 31.2407 18.566 31.261 18.4864C31.7479 16.1721 31.2076 13.7632 29.9708 11.7772C29.7533 11.4674 29.5177 11.1822 29.2677 10.8983C29.1771 10.7889 29.1771 10.7889 29.0847 10.6772C27.7888 9.15478 25.8075 8.08757 23.8184 7.82213C23.7467 7.8125 23.675 7.80287 23.6011 7.79295C21.1903 7.51348 18.7511 8.21273 16.8751 9.75572Z" fill="#106FAE"/>
<path d="M26.3673 13.3595C26.6484 13.5518 26.7086 13.6623 26.7793 13.9967C26.623 14.8493 25.5756 15.5703 24.9731 16.1717C24.864 16.2808 24.755 16.3899 24.6459 16.4991C24.4188 16.7263 24.1915 16.9535 23.964 17.1805C23.6722 17.4718 23.3808 17.7635 23.0895 18.0553C22.8651 18.2801 22.6404 18.5046 22.4157 18.7291C22.3081 18.8367 22.2005 18.9443 22.0931 19.052C21.9435 19.2018 21.7937 19.3512 21.6438 19.5007C21.5993 19.5453 21.5549 19.5899 21.5091 19.6358C21.2659 19.8776 21.1161 20.0182 20.7753 20.0831C20.4517 20.0352 20.3885 19.9863 20.1549 19.7745C20.0933 19.7186 20.0317 19.6628 19.9683 19.6053C19.6511 19.3069 19.341 19.0021 19.0339 18.6934C18.9708 18.6305 18.9076 18.5677 18.8425 18.503C18.7825 18.4429 18.7226 18.3828 18.6607 18.3209C18.6068 18.2668 18.5528 18.2127 18.4972 18.157C18.3008 17.9431 18.2814 17.8426 18.2539 17.5453C18.2814 17.2267 18.2814 17.2267 18.4187 17.0179C18.7191 16.8177 18.8844 16.769 19.2482 16.7872C19.5181 16.9571 19.7297 17.1746 19.9513 17.4025C20.0176 17.4677 20.0839 17.533 20.1521 17.6002C20.3212 17.7672 20.4884 17.9356 20.6544 18.1056C20.9933 17.9664 21.2054 17.7505 21.4612 17.4917C21.5055 17.4472 21.5497 17.4028 21.5952 17.357C21.6908 17.2607 21.7863 17.1642 21.8815 17.0675C22.0322 16.9146 22.1834 16.7622 22.3348 16.61C22.6559 16.2868 22.9763 15.9631 23.2966 15.6392C23.6681 15.2635 24.0399 14.8882 24.4124 14.5135C24.5615 14.3633 24.7101 14.2125 24.8586 14.0618C24.9499 13.9699 25.0411 13.878 25.1324 13.7862C25.2119 13.7058 25.2915 13.6253 25.3734 13.5424C25.7092 13.2397 25.9439 13.2472 26.3673 13.3595Z" fill="#106FAE"/>
</g>
<defs>
<clipPath id="clip0_16_866">
<rect width="45" height="45" fill="white"/>
</clipPath>
</defs>
</svg>
