<svg width="50" height="50" viewBox="0 0 50 50" fill="none" xmlns="http://www.w3.org/2000/svg">
<g clip-path="url(#clip0_16_623)">
<path d="M28.9053 -0.000152577C29.2388 0.2312 29.3588 0.388028 29.4913 0.76889C29.4913 1.30553 29.2784 1.69921 28.9147 2.07786C28.8007 2.1885 28.6858 2.29814 28.57 2.40692C28.4428 2.53063 28.3156 2.65436 28.1884 2.77809C27.9902 2.96848 27.7916 3.15841 27.5926 3.34796C25.0707 5.75979 23.3126 8.92952 23.2215 12.4873C23.2071 13.7293 23.2508 14.9016 23.5343 16.1131C23.6346 16.0601 23.7349 16.0071 23.8383 15.9525C25.3096 15.1879 26.7451 14.7332 28.4171 15.0389C28.3971 14.9645 28.377 14.8901 28.3564 14.8135C28.1977 14.2052 28.0635 13.6164 28.0264 12.9881C28.0204 12.8901 28.0204 12.8901 28.0142 12.7901C27.9438 10.4273 28.8768 8.33103 30.4655 6.62911C30.9311 6.13978 31.4049 5.65871 31.8814 5.17999C32.1352 4.92425 32.3869 4.6665 32.6386 4.40868C32.801 4.24497 32.9636 4.08138 33.1263 3.91792C33.2007 3.84113 33.2751 3.76433 33.3517 3.68521C33.8067 3.23396 34.123 3.01053 34.7647 2.92953C35.0958 2.99725 35.2303 3.10401 35.4788 3.33237C35.6514 3.62642 35.718 3.84712 35.7 4.19012C35.63 4.44378 35.5226 4.56969 35.3453 4.7634C35.2832 4.83136 35.221 4.89932 35.157 4.96934C34.8442 5.29694 34.5231 5.61492 34.1979 5.93018C34.0527 6.07266 33.9076 6.2152 33.7626 6.3578C33.538 6.5782 33.3131 6.7982 33.0871 7.01713C31.4812 8.57498 30.249 10.0946 30.1684 12.4388C30.2006 14.1968 30.8755 15.7904 32.1341 17.0226C33.5468 18.1883 35.309 18.6271 37.1085 18.4569C39.2103 18.1467 40.4712 16.7708 41.891 15.3389C42.0985 15.1297 42.3063 14.9209 42.5142 14.7121C43.1046 14.1193 43.6945 13.526 44.2839 12.9322C44.6462 12.5673 45.0089 12.2029 45.372 11.8388C45.5097 11.7004 45.6473 11.5619 45.7847 11.4231C45.9761 11.2298 46.1681 11.0372 46.3602 10.8447C46.4166 10.7874 46.473 10.7301 46.5312 10.6711C46.94 10.2633 47.1724 10.0765 47.7469 10.0218C48.1481 10.0308 48.3495 10.1581 48.6319 10.4491C48.7865 10.7583 48.7924 11.0911 48.7296 11.4256C48.4501 11.8922 48.1178 12.2612 47.7336 12.6437C47.6738 12.704 47.6141 12.7643 47.5525 12.8264C47.3556 13.0246 47.158 13.2221 46.9603 13.4196C46.8218 13.5585 46.6833 13.6974 46.5449 13.8363C46.2544 14.1274 45.9636 14.4182 45.6726 14.7088C45.3029 15.0778 44.9344 15.448 44.5662 15.8185C44.2802 16.1059 43.9935 16.3927 43.7066 16.6794C43.5706 16.8153 43.4349 16.9515 43.2995 17.088C41.2431 19.1575 39.2304 20.6293 36.2113 20.648C35.3386 20.6425 34.5228 20.5954 33.6905 20.3123C33.7227 20.409 33.755 20.5057 33.7882 20.6053C33.8971 22.2587 33.4964 23.5612 32.7139 24.9998C32.6817 25.0643 32.6495 25.1288 32.6163 25.1952C36.0801 25.8671 39.5417 25.4001 42.5612 23.5026C42.868 23.2945 43.1656 23.0812 43.4561 22.8514C43.5315 22.7931 43.6069 22.7349 43.6846 22.6748C44.4628 22.0584 45.15 21.3694 45.8426 20.6602C46.0657 20.4319 46.2895 20.2043 46.5136 19.977C46.5638 19.9253 46.6139 19.8735 46.6656 19.8201C47.1262 19.3533 47.1262 19.3533 47.46 19.2381C47.9644 19.2381 48.1473 19.2555 48.5343 19.586C48.7212 19.9073 48.8154 20.1291 48.7878 20.5039C48.5612 21.2784 47.5858 21.9658 47.0211 22.5326C46.8635 22.6911 46.7071 22.8506 46.5506 23.0101C45.6438 23.9262 44.6673 24.7333 43.566 25.4088C43.4683 25.469 43.4683 25.469 43.3685 25.5304C40.0669 27.524 36.1807 28.0423 32.421 27.3436C32.4346 27.4101 32.4483 27.4767 32.4624 27.5452C32.6208 28.3881 32.6552 29.217 32.6529 30.0719C32.6529 30.1424 32.6529 30.213 32.6528 30.2857C32.6493 31.487 32.5435 32.6271 32.2257 33.7889C32.2084 33.8539 32.1912 33.9188 32.1734 33.9857C31.634 35.9516 30.6031 37.7094 29.296 39.2577C29.2277 39.3391 29.1595 39.4206 29.0892 39.5045C28.56 40.1156 27.9852 40.6238 27.3428 41.1131C27.2914 41.1529 27.2399 41.1927 27.1868 41.2337C24.5062 43.2925 21.3085 44.1181 17.9678 44.0428C17.9531 44.0999 17.9383 44.157 17.9231 44.2158C17.706 45.0336 17.4599 45.8413 17.2004 46.6465C17.1505 46.8026 17.1017 46.9592 17.0539 47.116C16.7042 48.2606 16.3077 49.1729 15.2701 49.8656C14.6051 50.1436 13.7707 50.1175 13.0904 49.9136C12.3736 49.5827 11.7897 49.0956 11.4892 48.3535C11.3566 47.9222 11.3205 47.4745 11.2723 47.0274C11.2601 46.9242 11.248 46.8211 11.2355 46.7147C11.1806 46.2468 11.1294 45.7786 11.0804 45.3101C11.0685 45.2025 11.0685 45.2025 11.0564 45.0928C11.0357 44.904 11.0166 44.7151 10.9976 44.5261C10.9568 44.2411 10.9568 44.2411 10.8058 44.0504C10.6272 43.913 10.6272 43.913 10.2957 43.9513C9.96407 44.0045 9.96407 44.0045 9.84729 44.1951C9.7317 44.5288 9.70242 44.8638 9.6705 45.2132C9.65468 45.3686 9.63885 45.5239 9.62301 45.6793C9.59912 45.9227 9.57558 46.1661 9.55236 46.4095C9.52957 46.6456 9.50548 46.8815 9.48129 47.1175C9.47487 47.1891 9.46845 47.2607 9.46184 47.3346C9.37033 48.2163 9.06624 48.9144 8.39754 49.5116C7.61831 50.0077 6.86907 50.0737 5.95613 49.9998C5.65921 49.9111 5.42781 49.7861 5.17488 49.6092C5.09028 49.5569 5.00569 49.5045 4.91853 49.4505C4.09558 48.6276 3.82793 47.4897 3.49166 46.41C3.33442 45.9055 3.17322 45.4023 3.01156 44.8992C2.96376 44.7503 2.96376 44.7503 2.91499 44.5983C2.60869 43.6518 2.26425 42.7235 1.89493 41.7998C1.77904 41.5073 1.6682 41.2138 1.5616 40.9178C1.51588 40.792 1.51588 40.792 1.46924 40.6637C1.18048 39.7209 1.22454 38.7371 1.23044 37.7609C1.23201 37.4517 1.23044 37.1426 1.22858 36.8334C1.22703 35.521 1.30687 34.3682 1.92171 33.1847C1.97291 33.0852 1.97291 33.0852 2.02516 32.9837C2.54156 32.0149 3.32377 31.1406 4.40345 30.7932C4.62015 30.673 4.62015 30.673 4.65398 30.3812C4.66172 30.2619 4.66947 30.1426 4.67744 30.0196C4.68231 29.955 4.68718 29.8904 4.6922 29.8238C4.70259 29.6854 4.71222 29.5469 4.72118 29.4084C4.74493 29.0492 4.77564 28.6906 4.80676 28.332C4.81279 28.262 4.81883 28.1919 4.82504 28.1198C4.89489 27.343 5.03907 26.623 5.27254 25.8788C5.292 25.8166 5.31147 25.7544 5.33152 25.6904C5.99412 23.6327 7.11217 21.8762 8.59285 20.3123C8.67404 20.2249 8.75524 20.1374 8.8389 20.0472C10.5016 18.3115 12.6569 17.1836 14.9527 16.5282C15.0202 16.5087 15.0878 16.4893 15.1573 16.4693C16.2985 16.1599 17.4238 16.0818 18.6026 16.0887C18.7306 16.088 18.8587 16.0872 18.9906 16.0864C19.8064 16.088 20.5838 16.1589 21.3858 16.3084C21.3647 16.2226 21.3435 16.1367 21.3217 16.0483C20.4948 12.3219 21.3472 8.28466 23.3362 5.06965C24.1265 3.84295 25.0799 2.78407 26.103 1.74986C26.3194 1.52987 26.5321 1.30671 26.7451 1.08341C26.8841 0.942125 27.0233 0.801037 27.1628 0.660172C27.2252 0.593662 27.2876 0.527153 27.3518 0.458629C27.8275 -0.0102675 28.2418 -0.13378 28.9053 -0.000152577ZM23.9249 18.6522C23.1735 19.5901 22.9479 20.7973 23.046 21.9725C23.2137 22.7956 23.5128 23.4575 24.0225 24.1209C24.1102 24.2509 24.1102 24.2509 24.1995 24.3834C24.8887 25.1119 25.9222 25.6425 26.9251 25.7067C28.3771 25.7439 29.4607 25.3893 30.5411 24.3834C30.8939 24.0126 31.1279 23.6046 31.3468 23.1444C31.3921 23.0545 31.3921 23.0545 31.4383 22.9628C31.8939 21.9378 31.7957 20.7638 31.4444 19.7264C31.0061 18.6694 30.2234 17.8761 29.1983 17.3827C28.9093 17.2657 28.6205 17.1705 28.3194 17.0897C28.2388 17.0675 28.1583 17.0454 28.0753 17.0226C26.41 16.8144 25.0626 17.4666 23.9249 18.6522ZM15.3311 18.5545C15.2645 18.5749 15.1978 18.5954 15.1291 18.6164C12.0542 19.5968 9.58335 21.671 8.07026 24.517C7.39398 25.8428 6.79213 27.4043 6.83504 28.9061C7.40652 28.4379 7.92085 27.9219 8.43531 27.3929C8.69347 27.1279 8.95335 26.8647 9.21293 26.6011C9.54084 26.2679 9.86823 25.9343 10.1938 25.5988C10.459 25.3256 10.7259 25.0542 10.994 24.7838C11.0946 24.6817 11.1946 24.5789 11.2939 24.4756C12.2575 23.4739 13.404 22.6922 14.8428 22.6561C16.2017 22.7545 17.5469 23.0516 18.8834 23.3031C19.2122 23.3646 19.541 23.426 19.8698 23.4872C20.0729 23.525 20.2759 23.5631 20.4789 23.6013C20.5696 23.6183 20.6604 23.6353 20.7539 23.6527C20.8337 23.6678 20.9136 23.6828 20.9959 23.6983C21.1897 23.7356 21.1897 23.7356 21.3858 23.7303C21.3647 23.6543 21.3435 23.5782 21.3217 23.4999C20.9308 21.9291 20.9967 20.4798 21.4835 18.9452C21.5185 18.7829 21.5521 18.6203 21.5811 18.4569C19.5798 17.9274 17.3117 17.9479 15.3311 18.5545ZM13.4158 25.2834C13.3311 25.3623 13.2463 25.4412 13.159 25.5224C12.6824 25.9802 12.2137 26.4452 11.7476 26.9137C11.6417 27.0197 11.5358 27.1258 11.4299 27.2318C11.1546 27.5075 10.8795 27.7836 10.6045 28.0597C10.3224 28.3427 10.0401 28.6254 9.75786 28.9082C9.20648 29.4606 8.65542 30.0133 8.10457 30.5663C8.19658 30.8015 8.19658 30.8015 8.53792 30.9142C8.91595 31.0917 9.17771 31.3208 9.47786 31.61C9.75619 31.8646 9.95731 32.0298 10.3018 32.1898C10.7866 32.1032 11.0062 31.8249 11.3524 31.4871C12.3 30.6475 13.4496 30.416 14.6781 30.4385C15.9458 30.5446 17.1249 31.0756 17.9984 32.012C18.9865 33.2975 19.4297 34.7163 19.4636 36.3276C19.4656 36.409 19.4677 36.4904 19.4697 36.5743C19.4761 36.8319 19.4819 37.0896 19.4876 37.3473C19.4918 37.5229 19.4961 37.6986 19.5004 37.8743C19.5108 38.3028 19.5207 38.7314 19.5303 39.16C20.0479 38.7265 20.5349 38.2714 21.0146 37.7966C21.1256 37.6869 21.1256 37.6869 21.2388 37.5749C21.3941 37.4209 21.5493 37.2667 21.7044 37.1125C21.8624 36.9556 22.0208 36.7992 22.1797 36.6432C22.4108 36.4162 22.6406 36.188 22.8701 35.9595C22.976 35.8561 22.976 35.8561 23.0841 35.7507C23.6615 35.1707 24.0371 34.6847 24.0643 33.8447C24.0361 33.062 23.8872 32.2972 23.7448 31.5291C23.7163 31.3709 23.6878 31.2128 23.6594 31.0546C23.5852 30.6422 23.5098 30.23 23.434 29.8178C23.3567 29.3957 23.2805 28.9733 23.2043 28.5509C23.055 27.7251 22.9044 26.8995 22.753 26.0741C21.826 25.8503 20.8946 25.6652 19.9565 25.4961C19.8142 25.4703 19.672 25.4444 19.5298 25.4186C19.2348 25.365 18.9398 25.3116 18.6447 25.2583C18.2662 25.19 17.8879 25.1213 17.5095 25.0524C17.2173 24.9993 16.925 24.9463 16.6327 24.8933C16.493 24.868 16.3533 24.8427 16.2137 24.8173C16.0198 24.7821 15.8258 24.7471 15.6318 24.7121C15.5216 24.6922 15.4114 24.6723 15.2978 24.6517C14.575 24.5334 13.9433 24.7922 13.4158 25.2834ZM29.2025 27.4439C28.6102 27.6333 28.0646 27.6574 27.4466 27.661C27.3625 27.663 27.2783 27.665 27.1916 27.6671C26.435 27.6715 25.7323 27.5212 24.9991 27.3436C25.0486 27.633 25.0983 27.9224 25.148 28.2117C25.1916 28.4659 25.2351 28.7201 25.2784 28.9743C25.389 29.6211 25.5034 30.2666 25.6285 30.9107C26.3484 34.647 26.3484 34.647 25.1979 36.3592C24.7881 36.8987 24.2917 37.3615 23.8097 37.8355C23.6944 37.95 23.5792 38.0646 23.4641 38.1792C23.1632 38.4784 22.8615 38.7768 22.5596 39.0749C22.0741 39.5545 21.5899 40.0355 21.1057 40.5164C20.9366 40.6843 20.767 40.8517 20.5974 41.0191C20.4947 41.1209 20.3919 41.2227 20.2891 41.3245C20.199 41.4135 20.1088 41.5026 20.0159 41.5944C19.8121 41.762 19.8121 41.762 19.8233 41.8944C22.8236 41.7826 25.5321 40.2233 27.5672 38.0934C29.5169 35.985 30.7306 32.963 30.6632 30.078C30.6118 29.0848 30.5039 28.1159 30.2725 27.1483C29.9021 27.1483 29.5497 27.3236 29.2025 27.4439ZM4.97957 32.8123C4.82851 32.8909 4.82851 32.8909 4.67439 32.971C3.89279 33.6167 3.40066 34.5617 3.29678 35.5714C3.26504 36.0865 3.26377 36.6011 3.26848 37.1171C3.27057 37.3888 3.2685 37.6603 3.26601 37.9321C3.26422 38.964 3.34631 39.8453 3.71004 40.8202C3.76031 40.9564 3.76031 40.9564 3.8116 41.0953C3.91673 41.3693 4.02661 41.6409 4.13728 41.9127C4.46991 42.7474 4.76646 43.5881 5.0406 44.4437C5.0709 44.5382 5.10119 44.6327 5.13241 44.73C5.28452 45.2059 5.43464 45.6825 5.58281 46.1597C5.63882 46.3368 5.69485 46.5139 5.7509 46.691C5.77569 46.7728 5.80048 46.8545 5.82602 46.9388C5.96023 47.3595 6.06902 47.6837 6.44441 47.9491C6.93825 47.9351 6.93825 47.9351 7.32332 47.6561C7.3746 47.425 7.3746 47.425 7.39961 47.1545C7.41696 47.0013 7.41696 47.0013 7.43466 46.8451C7.44626 46.7361 7.45785 46.6271 7.4698 46.5147C7.49547 46.2915 7.52116 46.0682 7.54686 45.8449C7.58718 45.4839 7.62574 45.1229 7.6613 44.7615C7.76161 43.8417 7.92168 43.0421 8.67219 42.4376C9.39642 41.9606 10.0668 41.7857 10.9366 41.8944C11.8116 42.1255 12.3094 42.5708 12.7781 43.3307C12.9675 43.7106 13.009 44.0946 13.0545 44.5128C13.0659 44.6012 13.0772 44.6895 13.0889 44.7806C13.1452 45.2311 13.1907 45.6821 13.23 46.1344C13.2376 46.218 13.2452 46.3015 13.253 46.3876C13.2668 46.5456 13.279 46.7039 13.2892 46.8622C13.3292 47.3385 13.4185 47.6176 13.7686 47.9491C14.0616 48.0304 14.0616 48.0304 14.3546 47.9491C14.769 47.5427 14.9004 47.0699 15.066 46.53C15.1096 46.3928 15.1096 46.3928 15.1541 46.2529C15.2163 46.0572 15.2781 45.8614 15.3395 45.6655C15.4995 45.155 15.663 44.6455 15.827 44.1363C15.8757 43.9852 15.8757 43.9852 15.9254 43.831C16.237 42.8716 16.5862 41.93 16.9595 40.993C17.4024 39.8732 17.5136 38.9118 17.5104 37.712C17.5101 37.4709 17.5124 37.2299 17.5149 36.9889C17.5209 35.5381 17.3359 34.3409 16.3409 33.2148C15.7741 32.6802 15.0745 32.4054 14.2996 32.3729C13.566 32.402 12.9301 32.6913 12.4014 33.203C12.4014 33.2674 12.4014 33.3319 12.4014 33.3983C12.3459 33.4252 12.2904 33.4522 12.2332 33.4799C12.0104 33.5904 12.0104 33.5904 11.8037 33.7195C11.0639 34.1461 10.3558 34.2236 9.52287 34.0239C9.06741 33.8501 8.75642 33.5843 8.40364 33.2518C7.79674 32.6833 7.22458 32.4113 6.38948 32.3729C5.85202 32.3941 5.44438 32.5512 4.97957 32.8123Z" fill="#106FAE"/>
<path d="M38.0856 -0.000103079C38.3659 0.175086 38.5242 0.29117 38.6715 0.585834C38.7283 1.27818 38.7283 1.27818 38.4884 1.65395C38.148 1.98442 37.8868 1.99108 37.4276 1.98812C37.0773 1.93246 36.9266 1.73796 36.7184 1.46474C36.5785 1.18485 36.5908 0.99472 36.6208 0.683491C37.0054 0.00398418 37.3322 -0.0976965 38.0856 -0.000103079Z" fill="#106FAE"/>
</g>
<defs>
<clipPath id="clip0_16_623">
<rect width="50" height="50" fill="white"/>
</clipPath>
</defs>
</svg>
