<svg width="50" height="50" viewBox="0 0 50 50" fill="none" xmlns="http://www.w3.org/2000/svg">
<path d="M37.18 0.00228381C37.2551 0.00153015 37.3302 0.000776495 37.4076 0C37.6711 0.0488462 37.7371 0.127618 37.9085 0.331152C38.0006 0.527529 38.0006 0.527529 38.0796 0.75449C38.1248 0.882367 38.1248 0.882367 38.171 1.01283C38.2183 1.15077 38.2183 1.15077 38.2666 1.29149C38.3 1.38656 38.3334 1.48163 38.3678 1.57957C38.4745 1.88383 38.58 2.18848 38.6855 2.49316C38.7913 2.79601 38.8972 3.09877 39.0032 3.40153C39.069 3.58985 39.1347 3.77823 39.2001 3.9667C39.2595 4.13783 39.3195 4.30877 39.3802 4.47948C39.4335 4.6325 39.4842 4.78645 39.5319 4.94133C39.6372 5.26681 39.7218 5.46849 39.9856 5.69111C40.0756 5.73638 40.1655 5.78164 40.2582 5.82828C40.408 5.90629 40.408 5.90629 40.5608 5.98587C40.6652 6.03711 40.7695 6.08836 40.877 6.14116C41.0817 6.24576 41.2862 6.35056 41.4906 6.45557C41.5901 6.50647 41.6897 6.55738 41.7922 6.60982C42.0737 6.75644 42.3523 6.90579 42.6281 7.06306C42.7039 7.10607 42.7798 7.14907 42.858 7.19338C43.0994 7.38026 43.2146 7.56039 43.3478 7.83423C43.3478 8.13265 43.3478 8.13265 43.2507 8.41888C42.877 8.76551 42.4545 8.99039 42.0062 9.22278C41.9389 9.25821 41.8716 9.29363 41.8023 9.33012C41.6378 9.41662 41.4729 9.50247 41.3081 9.58819C41.3669 10.0075 41.5197 10.3142 41.7209 10.6844C42.2853 11.7689 42.5909 12.9605 42.765 14.168C42.9619 13.8717 43.0626 13.6134 43.1805 13.2785C43.2224 13.1616 43.2643 13.0447 43.3074 12.9243C43.3735 12.7388 43.4392 12.5532 43.5043 12.3674C43.5675 12.1876 43.632 12.0083 43.6965 11.829C43.7344 11.7217 43.7724 11.6143 43.8114 11.5037C43.9306 11.2447 43.9306 11.2447 44.222 11.0498C44.4102 11.0205 44.4102 11.0205 44.6105 11.0194C44.6766 11.0177 44.7427 11.0161 44.8109 11.0144C45.0569 11.0607 45.1278 11.1542 45.2904 11.3422C45.4069 11.6052 45.512 11.8647 45.6122 12.1339C45.6576 12.25 45.6576 12.25 45.7038 12.3685C45.8541 12.7585 45.9876 13.1439 46.0895 13.5495C46.281 14.2741 46.4448 14.7571 47.1094 15.1544C47.378 15.2958 47.65 15.4255 47.9277 15.548C48.7979 15.9436 48.7979 15.9436 48.9814 16.3117C49.0219 16.6774 49.0082 16.8516 48.8175 17.1704C48.5554 17.4192 48.4641 17.4627 48.1072 17.481C47.8471 17.3781 47.6172 17.272 47.3727 17.14C47.3047 17.1044 47.2367 17.0688 47.1666 17.0322C46.9611 16.9237 46.757 16.813 46.5531 16.7015C46.4635 16.653 46.4635 16.653 46.372 16.6035C45.6131 16.19 45.1789 15.9216 44.8837 15.0876C44.8503 14.995 44.8168 14.9025 44.7824 14.8071C44.7077 14.5578 44.7077 14.5578 44.7077 14.2654C44.6435 14.2654 44.5794 14.2654 44.5134 14.2654C44.5009 14.3346 44.4883 14.4039 44.4754 14.4752C44.3551 15.0396 44.2107 15.6308 43.8092 16.0559C43.721 16.1082 43.6329 16.1605 43.5421 16.2143C43.4024 16.3035 43.2628 16.3929 43.1232 16.4823C43.004 16.5556 42.8847 16.6288 42.765 16.7015C42.8388 16.7392 42.9125 16.7769 42.9885 16.8157C43.085 16.8664 43.1816 16.9172 43.281 16.9695C43.4247 17.0441 43.4247 17.0441 43.5713 17.1202C44.0393 17.4165 44.1715 17.7539 44.3373 18.2728C44.3708 18.3755 44.4042 18.4783 44.4386 18.5841C44.5134 18.8452 44.5134 18.8452 44.5134 19.0401C44.5775 19.0401 44.6416 19.0401 44.7077 19.0401C44.7172 18.9859 44.7267 18.9316 44.7365 18.8757C44.8579 18.254 45.0281 17.6468 45.4847 17.1887C45.8755 17.1443 46.1003 17.1544 46.4499 17.341C46.7252 17.6673 46.6826 17.838 46.6503 18.2606C46.5816 18.5482 46.4869 18.8238 46.3877 19.1022C46.3606 19.1803 46.3335 19.2584 46.3056 19.3389C46.2483 19.5031 46.1905 19.6672 46.1321 19.831C46.0433 20.0813 45.9568 20.3323 45.8706 20.5834C45.8144 20.7434 45.7582 20.9033 45.7017 21.0632C45.6761 21.1379 45.6505 21.2126 45.6241 21.2896C45.4778 21.6949 45.3455 21.98 44.999 22.2557C44.6799 22.3821 44.5483 22.3659 44.2238 22.2479C43.8505 22.0098 43.7903 21.8291 43.6468 21.4134C43.6244 21.3503 43.6019 21.2872 43.5788 21.2222C43.5079 21.0213 43.44 20.8195 43.3721 20.6175C43.3251 20.4829 43.2779 20.3483 43.2306 20.2138C43.0372 19.6621 42.8517 19.1079 42.6679 18.5529C42.6543 18.6272 42.6407 18.7014 42.6267 18.778C42.2855 20.62 41.8652 22.414 41.3081 24.2046C41.2715 24.3228 41.2348 24.441 41.1971 24.5628C40.165 27.8577 38.8708 31.0632 37.5867 34.2655C36.0665 38.0569 34.6242 41.8362 33.8699 45.8673C33.5913 47.3463 33.1478 48.653 31.9197 49.5971C31.2092 50.026 30.36 50.0316 29.5552 49.9294C29.1879 49.8184 28.8977 49.6613 28.5839 49.4422C28.5248 49.4044 28.4657 49.3666 28.4048 49.3276C26.0911 47.6237 25.5171 43.2385 24.8136 40.6488C24.7919 40.5691 24.7702 40.4894 24.7478 40.4072C24.6451 40.0299 24.5437 39.6523 24.4447 39.2739C24.0561 37.7807 24.0561 37.7807 23.0345 36.6829C22.6019 36.4369 22.1715 36.4334 21.6876 36.4823C21.3653 36.6114 21.3653 36.6114 21.1048 36.7747C21.0086 36.8068 20.9125 36.839 20.8134 36.8721C20.7042 37.0535 20.7042 37.0535 20.6191 37.2619C20.559 37.3711 20.499 37.4803 20.4371 37.5929C20.1561 38.1585 20.0072 38.7641 19.8409 39.3714C19.8045 39.5018 19.7679 39.6323 19.7313 39.7627C19.5965 40.2435 19.4633 40.7248 19.3301 41.206C17.2944 48.5561 17.2944 48.5561 15.3073 49.7589C14.5231 50.0939 13.5008 50.0587 12.7029 49.7832C11.7055 49.2972 11.2016 48.398 10.8089 47.3959C10.587 46.7448 10.4466 46.0811 10.3198 45.4063C10.0951 44.2132 9.82565 43.049 9.48547 41.8843C9.46663 41.8196 9.44779 41.7548 9.42838 41.6881C9.23156 41.015 9.02662 40.3503 8.76912 39.6979C8.56219 40.0093 8.45487 40.3145 8.33924 40.6659C8.29346 40.8009 8.24762 40.9358 8.2017 41.0707C8.13003 41.2826 8.05883 41.4946 7.98887 41.7071C7.92092 41.9127 7.85099 42.1176 7.78074 42.3224C7.76048 42.3856 7.74023 42.4487 7.71936 42.5138C7.57149 42.9383 7.39966 43.1611 7.02076 43.4008C6.70098 43.4466 6.52189 43.4492 6.24034 43.2868C5.99762 43.06 5.92799 42.864 5.8181 42.5506C5.77729 42.4361 5.73648 42.3217 5.69444 42.2038C5.65136 42.0789 5.60832 41.954 5.56531 41.8291C5.52024 41.7011 5.47506 41.5731 5.42978 41.4451C5.33531 41.1773 5.24166 40.9092 5.14866 40.6408C5.02933 40.2965 4.90864 39.9526 4.78742 39.609C4.67192 39.2814 4.55703 38.9535 4.44223 38.6257C4.42024 38.563 4.39824 38.5003 4.37557 38.4357C4.31364 38.2588 4.25219 38.0817 4.19077 37.9046C4.15571 37.8037 4.12065 37.7029 4.08452 37.5991C4.0097 37.3593 4.0097 37.3593 4.0097 37.1644C3.88346 37.1254 3.88346 37.1254 3.75468 37.0856C3.1985 36.8887 2.69411 36.5927 2.17635 36.3118C2.06504 36.2525 1.95373 36.1932 1.83904 36.1322C0.524294 35.4218 0.524294 35.4218 0.0273181 34.9233C-0.00910605 34.6066 -0.00910605 34.6066 0.0273181 34.2412C0.356405 33.8483 0.727213 33.6091 1.17734 33.379C1.23994 33.346 1.30255 33.313 1.36706 33.279C1.56556 33.1746 1.76467 33.0714 1.96387 32.9683C2.16261 32.8647 2.36121 32.7608 2.55964 32.6565C2.68257 32.592 2.80571 32.5279 2.92906 32.4642C3.83059 31.9936 4.13137 31.6735 4.45286 30.721C4.48973 30.6241 4.5266 30.5271 4.5646 30.4272C4.81668 29.7003 4.77923 29.2907 4.49535 28.5895C4.4283 28.3998 4.36131 28.2101 4.29523 28.02C4.21956 27.8031 4.14251 27.5868 4.06511 27.3705C0.695076 17.9349 0.695076 17.9349 1.67855 13.291C1.70234 13.1771 1.72613 13.0632 1.75064 12.9458C2.08588 11.5335 2.68449 10.187 3.52404 9.00354C3.60574 8.88748 3.60574 8.88748 3.68909 8.76907C4.07119 8.24187 4.07119 8.24187 4.30109 8.12656C4.72407 8.07852 4.91703 8.08243 5.2724 8.32753C5.46666 8.61377 5.46666 8.61377 5.45528 8.93579C5.35914 9.33952 5.2184 9.55778 4.96887 9.88661C3.10008 12.4612 2.8607 15.4826 3.32674 18.5506C3.80091 21.4246 4.67501 24.1988 5.66093 26.933C5.6926 26.8649 5.72428 26.7968 5.75692 26.7267C5.79936 26.638 5.84181 26.5493 5.88554 26.4579C5.92724 26.3698 5.96893 26.2816 6.01189 26.1907C6.14658 25.9585 6.14658 25.9585 6.43797 25.7637C6.77186 25.7271 6.77186 25.7271 7.11789 25.7637C7.43969 26.0262 7.58059 26.2742 7.71839 26.6625C7.755 26.764 7.79161 26.8654 7.82932 26.97C7.86738 27.0791 7.90544 27.1882 7.94465 27.3007C7.98483 27.4134 8.02501 27.526 8.06641 27.6422C8.15108 27.8803 8.23523 28.1187 8.31887 28.3572C8.4468 28.7218 8.57642 29.0858 8.70633 29.4497C8.78845 29.6814 8.87047 29.913 8.95238 30.1448C8.99103 30.2535 9.02968 30.3622 9.0695 30.4742C9.10518 30.5763 9.14087 30.6784 9.17764 30.7836C9.20904 30.8729 9.24043 30.9622 9.27278 31.0541C9.35191 31.3179 9.35191 31.3179 9.39841 31.6366C9.41512 31.7243 9.43183 31.8121 9.44904 31.9025C9.66126 32.027 9.66126 32.027 9.9347 32.0974C10.1577 32.2095 10.3787 32.3233 10.5991 32.4404C10.6617 32.4736 10.7243 32.5067 10.7888 32.5409C10.9207 32.611 11.0525 32.6811 11.1843 32.7515C11.3843 32.858 11.5848 32.9635 11.7853 33.069C11.914 33.1375 12.0427 33.2061 12.1714 33.2747C12.2602 33.3212 12.2602 33.3212 12.3508 33.3686C13.3472 33.9052 13.3472 33.9052 13.5346 34.436C13.527 34.8028 13.4601 34.9242 13.2372 35.2156C12.9894 35.3935 12.7242 35.5317 12.454 35.6723C12.2973 35.7567 12.1406 35.8411 11.9839 35.9255C11.8624 35.9901 11.8624 35.9901 11.7385 36.0561C11.3245 36.2781 10.9152 36.5085 10.5053 36.7381C10.3574 36.8206 10.2094 36.9031 10.0614 36.9855C9.9555 37.0446 9.84957 37.1036 9.74043 37.1644C9.79749 37.568 9.88914 37.926 10.0322 38.3071C10.0717 38.4142 10.1113 38.5213 10.152 38.6316C10.1945 38.7464 10.237 38.8611 10.2807 38.9793C11.0504 41.1003 11.6273 43.2369 12.0295 45.4568C12.269 46.9303 12.269 46.9303 13.14 48.078C13.5351 48.3098 13.7445 48.3775 14.2024 48.3338C14.9548 48.0836 15.3913 47.5497 15.7504 46.86C16.5474 45.2076 16.9967 43.371 17.4912 41.6103C17.5233 41.4959 17.5555 41.3815 17.5886 41.2636C17.7499 40.6879 17.9099 40.1118 18.0679 39.5352C18.0981 39.4261 18.1283 39.317 18.1594 39.2046C18.2159 39.0005 18.2718 38.7963 18.327 38.5918C18.6986 37.255 19.1562 35.9886 20.3884 35.2369C21.2241 34.8067 22.1202 34.6751 23.0402 34.8932C23.9951 35.2099 24.8301 35.8074 25.3054 36.7132C25.6014 37.3597 25.8201 38.0032 26.0054 38.6893C26.0346 38.7948 26.0639 38.9004 26.0941 39.0091C26.1562 39.233 26.218 39.457 26.2793 39.6811C26.4389 40.2629 26.6017 40.8439 26.7642 41.4249C26.8117 41.595 26.8117 41.595 26.8601 41.7685C27.6432 45.3061 27.6432 45.3061 29.6098 48.1754C30.0476 48.3556 30.3703 48.4114 30.824 48.2668C31.3087 48.0584 31.5735 47.7564 31.7873 47.2821C32.0655 46.5473 32.216 45.8036 32.3559 45.0336C32.6469 43.4472 33.036 41.9139 33.5376 40.38C33.5719 40.2736 33.6063 40.1671 33.6417 40.0575C34.4751 37.4935 35.4934 34.9967 36.4857 32.4918C39.3839 25.2079 39.3839 25.2079 41.1138 17.5785C41.0214 17.5497 40.929 17.521 40.8338 17.4913C40.4962 17.3712 40.3948 17.3139 40.2396 16.9938C40.1911 16.6589 40.1911 16.6589 40.2396 16.3117C40.5486 15.9015 40.8286 15.7769 41.3081 15.6296C41.085 13.8537 40.7634 12.1791 39.754 10.6601C39.451 11.352 39.1839 12.0521 38.9337 12.7646C38.9046 12.8472 38.8755 12.9298 38.8456 13.0149C38.7247 13.3591 38.6043 13.7035 38.4848 14.0482C38.3964 14.3027 38.3069 14.5568 38.2173 14.8109C38.1906 14.8888 38.1639 14.9668 38.1364 15.0471C38.1107 15.1194 38.0851 15.1917 38.0587 15.2662C38.0366 15.3295 38.0146 15.3928 37.9919 15.4581C37.8939 15.6595 37.7883 15.7786 37.6171 15.922C37.2799 16.0249 37.1099 16.0548 36.7872 15.9037C36.1965 15.4663 36.0524 14.5361 35.8586 13.8529C35.2678 11.4423 35.2678 11.4423 33.6441 9.72061C33.2248 9.52569 32.8029 9.35875 32.3654 9.21001C31.8273 9.004 31.3242 8.73079 31.0425 8.21791C31.0055 7.86876 31.0111 7.73842 31.2064 7.44446C31.4627 7.25937 31.7083 7.1105 31.9835 6.95725C32.1136 6.88214 32.2436 6.80689 32.3735 6.73153C32.5146 6.65035 32.6557 6.56928 32.7969 6.4883C32.8663 6.44839 32.9357 6.40848 33.0072 6.36736C33.515 6.08026 33.515 6.08026 33.7318 6.08026C33.7318 6.01595 33.7318 5.95164 33.7318 5.88538C30.8712 5.4831 28.5512 5.81822 25.9622 7.15589C24.0598 8.12869 21.8092 8.37826 19.7393 7.77523C19.1262 7.57133 18.563 7.26429 17.9946 6.96062C15.3775 5.58832 12.5845 5.34657 9.75296 6.23176C9.26899 6.39311 8.82283 6.61342 8.37377 6.856C8.01369 6.98412 7.77774 6.94678 7.40929 6.8598C7.14032 6.63349 7.12019 6.48413 7.06326 6.13507C7.11789 5.78794 7.11789 5.78794 7.3243 5.53824C9.39529 4.05212 12.539 3.78134 14.976 4.15768C16.3139 4.38773 17.4697 4.84738 18.6822 5.45997C20.5014 6.37862 22.2079 6.74877 24.1973 6.11502C24.764 5.91807 25.2721 5.63824 25.794 5.34504C26.3473 5.04233 26.9113 4.82284 27.5094 4.62471C27.5921 4.59722 27.6748 4.56973 27.76 4.5414C30.0847 3.80026 32.686 3.81022 34.9945 4.61862C35.0088 4.568 35.0231 4.51737 35.0378 4.46521C35.2622 3.69146 35.5242 2.93149 35.7899 2.17126C35.8428 2.01936 35.8954 1.86733 35.9475 1.71517C36.0237 1.49321 36.1009 1.27166 36.1783 1.05017C36.2014 0.982269 36.2245 0.914365 36.2483 0.844404C36.4403 0.302318 36.578 -0.00375562 37.18 0.00228381ZM37.1314 3.15699C37.0987 3.25185 37.0659 3.3467 37.0321 3.44444C36.9095 3.79816 36.7851 4.1512 36.6601 4.50408C36.6064 4.65654 36.5532 4.80917 36.5005 4.96198C36.4244 5.18234 36.3465 5.402 36.2682 5.6216C36.2453 5.68942 36.2223 5.75724 36.1986 5.82712C35.9659 6.46965 35.5994 6.82407 35.0078 7.14185C34.9217 7.18864 34.8357 7.23543 34.747 7.28364C34.6584 7.33068 34.5698 7.37772 34.4785 7.42619C34.3428 7.49958 34.3428 7.49958 34.2044 7.57445C33.9825 7.6943 33.7603 7.81334 33.5376 7.93167C33.7581 8.17683 33.9746 8.31363 34.2687 8.45961C34.3537 8.50351 34.4386 8.54741 34.5261 8.59264C34.7038 8.68333 34.8821 8.77267 35.0611 8.86061C35.6676 9.17804 35.936 9.43049 36.1601 10.0754C36.1995 10.1803 36.2388 10.2852 36.2794 10.3933C36.4137 10.7569 36.5425 11.1223 36.67 11.4883C36.715 11.6162 36.7601 11.7441 36.8051 11.872C36.9143 12.1824 37.0231 12.493 37.1314 12.8038C37.383 12.5514 37.4551 12.2738 37.5647 11.9428C37.611 11.8075 37.6573 11.6723 37.7036 11.537C37.7758 11.324 37.8477 11.1109 37.919 10.8975C37.9881 10.6914 38.0586 10.4858 38.1293 10.2802C38.1501 10.2167 38.1708 10.1533 38.1922 10.0879C38.4063 9.47015 38.726 9.20616 39.288 8.90457C39.3832 8.85308 39.4784 8.80157 39.5764 8.74851C39.6751 8.69601 39.7737 8.6435 39.8754 8.58941C40.0256 8.50839 40.0256 8.50839 40.1789 8.42574C40.4255 8.2929 40.6723 8.16072 40.9195 8.02911C40.6521 7.81756 40.3864 7.65338 40.0818 7.50117C39.9971 7.45727 39.9125 7.41337 39.8253 7.36814C39.649 7.27731 39.4719 7.18797 39.2941 7.10017C38.6904 6.78257 38.4236 6.52766 38.1999 5.88538C38.1605 5.78047 38.1211 5.67556 38.0805 5.56748C37.9463 5.20384 37.8174 4.83851 37.6899 4.47246C37.6449 4.34455 37.5999 4.21666 37.5549 4.08878C37.4456 3.77834 37.3369 3.46774 37.2286 3.15699C37.1965 3.15699 37.1644 3.15699 37.1314 3.15699ZM6.72937 28.8818C6.67428 29.0366 6.67428 29.0366 6.61808 29.1946C6.48105 29.5793 6.34354 29.9639 6.20589 30.3485C6.14651 30.5146 6.08725 30.6807 6.02813 30.8469C5.94288 31.0865 5.85715 31.3259 5.77134 31.5653C5.74522 31.639 5.7191 31.7127 5.69219 31.7887C5.4351 32.5031 5.26141 32.9818 4.56213 33.352C4.44082 33.4177 4.31953 33.4834 4.19827 33.5492C4.13568 33.5824 4.07309 33.6157 4.00861 33.6499C3.68538 33.824 3.36832 34.0087 3.05053 34.1924C2.93546 34.2585 2.82038 34.3244 2.70525 34.3904C2.58167 34.4612 2.58167 34.4612 2.4556 34.5335C2.92793 34.9045 3.45197 35.1824 3.97327 35.4775C4.07644 35.5366 4.17961 35.5957 4.28591 35.6566C4.38433 35.7124 4.48274 35.7682 4.58414 35.8257C4.67424 35.877 4.76434 35.9282 4.85717 35.9809C5.06582 36.1072 5.06582 36.1072 5.2724 36.0926C5.28717 36.1448 5.30193 36.1969 5.31715 36.2507C5.5303 36.9845 5.77789 37.7054 6.03159 38.4257C6.10494 38.6346 6.17726 38.8438 6.24959 39.053C6.29626 39.1859 6.34299 39.3188 6.38979 39.4517C6.43168 39.5715 6.47357 39.6914 6.51673 39.8148C6.60233 40.099 6.60233 40.099 6.8265 40.1852C6.88524 40.0155 6.88524 40.0155 6.94516 39.8425C7.09103 39.4222 7.23836 39.0025 7.38614 38.5829C7.44984 38.4014 7.51315 38.2197 7.57604 38.0379C7.66662 37.7763 7.75863 37.5153 7.85093 37.2543C7.87867 37.1732 7.90641 37.092 7.93499 37.0085C8.18781 36.3014 8.49901 36.0125 9.16524 35.6586C9.27792 35.5984 9.39061 35.5381 9.50671 35.4759C9.62508 35.4135 9.74346 35.3511 9.86185 35.2887C9.98178 35.2248 10.1017 35.1608 10.2215 35.0968C10.5141 34.9409 10.807 34.7856 11.1003 34.6309C10.7776 34.3496 10.5178 34.189 10.1085 34.0699C9.21578 33.7463 8.46903 33.3902 8.0322 32.5145C7.51462 31.3489 7.16087 30.1107 6.8265 28.8818C6.79445 28.8818 6.76239 28.8818 6.72937 28.8818Z" fill="#106FAE"/>
<path d="M14.8064 8.39185C15.0406 8.71444 15.0167 8.93781 14.9678 9.32554C14.8713 9.5419 14.8713 9.5419 14.6603 9.73205C14.3444 9.81678 14.0244 9.8449 13.6994 9.87813C11.8408 10.1136 10.1956 10.8873 9.02917 12.3783C8.22885 13.5197 7.84426 14.7171 7.7484 16.0964C7.7206 16.4067 7.69532 16.5334 7.5306 16.8078C7.18312 17.0021 6.84961 17.0499 6.46082 16.9475C6.19043 16.7425 6.0672 16.6223 6 16.2881C6.0414 14.3097 6.62952 12.5849 7.89573 11.0532C7.97897 10.9459 7.97897 10.9459 8.06388 10.8364C9.13268 9.52461 12.9784 7.03752 14.8064 8.39185Z" fill="#106FAE"/>
</svg>
