<svg width="50" height="51" viewBox="0 0 50 51" fill="none" xmlns="http://www.w3.org/2000/svg">
<g clip-path="url(#clip0_16_695)">
<path d="M24.7022 3.20398C24.9417 3.20451 25.1813 3.20475 25.4208 3.20495C27.7332 3.208 30.0249 3.2527 32.3234 3.52923C32.4492 3.54339 32.575 3.55756 32.7046 3.57216C37.5181 4.12043 42.3285 5.20979 46.7425 7.24868C46.9539 7.34426 47.1666 7.43369 47.3819 7.52008C48.4502 7.95084 49.2631 8.45717 49.8039 9.50899C50.3374 10.8722 49.9138 12.2811 49.4892 13.609C49.4359 13.7816 49.3828 13.9543 49.3299 14.127C49.1911 14.5782 49.0495 15.0285 48.9073 15.4787C48.765 15.9307 48.6255 16.3836 48.4857 16.8365C48.107 18.0609 47.7244 19.2841 47.3332 20.5046C47.3013 20.6041 47.2694 20.7037 47.2366 20.8063C47.1815 20.9779 47.126 21.1493 47.0701 21.3206C46.9287 21.7594 46.8169 22.1949 46.7292 22.6478C46.5695 23.2607 46.0555 23.7441 45.5497 24.0908C45.1957 24.2731 44.8858 24.3235 44.4904 24.3303C44.4059 24.3319 44.3214 24.3334 44.2344 24.335C43.8473 24.3394 43.4602 24.3434 43.0731 24.3457C42.8699 24.3473 42.6668 24.35 42.4637 24.3537C40.4129 24.3914 40.4129 24.3914 39.6413 23.9116C39.579 23.8818 39.5166 23.8519 39.4523 23.8212C39.1106 23.9627 39.1106 23.9627 38.8664 24.2133C38.5908 24.3068 38.3331 24.3254 38.0435 24.3303C37.9587 24.3319 37.8739 24.3334 37.7865 24.335C37.3985 24.3394 37.0105 24.3434 36.6224 24.3457C36.4186 24.3473 36.2148 24.35 36.011 24.3537C35.7154 24.3591 35.4199 24.3612 35.1242 24.3627C35.0343 24.3649 34.9445 24.3671 34.8519 24.3694C34.2491 24.3675 33.8358 24.2326 33.3102 23.9362C33.0969 23.8085 33.0969 23.8085 32.8117 23.7232C32.5967 23.8159 32.5967 23.8159 32.3784 23.956C31.9219 24.2335 31.5789 24.3228 31.0456 24.3287C30.9468 24.33 30.848 24.3312 30.7462 24.3325C30.6399 24.3333 30.5336 24.334 30.4241 24.3347C30.314 24.3355 30.2039 24.3363 30.0905 24.3371C29.8575 24.3385 29.6244 24.3395 29.3914 24.3403C29.0367 24.342 28.682 24.3463 28.3273 24.3506C28.1006 24.3516 27.8738 24.3524 27.647 24.3531C27.5417 24.3548 27.4364 24.3565 27.3278 24.3583C26.4333 24.3558 25.7682 24.1359 25.0969 23.5271C24.8533 23.64 24.6468 23.7647 24.4255 23.9193C23.7666 24.3425 23.1611 24.3427 22.4006 24.3443C22.2363 24.3453 22.2363 24.3453 22.0686 24.3463C21.8371 24.3473 21.6057 24.3477 21.3742 24.3477C21.0223 24.3481 20.6705 24.3517 20.3186 24.3554C20.093 24.356 19.8674 24.3564 19.6418 24.3566C19.5376 24.358 19.4334 24.3594 19.3261 24.3608C18.6281 24.3566 18.1086 24.2152 17.4797 23.9193C17.2285 23.8021 17.2285 23.8021 16.9914 23.7232C16.7762 23.8008 16.7762 23.8008 16.5886 23.9499C16.2194 24.213 15.9465 24.3231 15.4914 24.3272C15.4056 24.3281 15.3198 24.329 15.2315 24.33C15.0928 24.3306 15.0928 24.3306 14.9513 24.3313C14.8558 24.3318 14.7603 24.3324 14.6619 24.333C14.4596 24.3339 14.2573 24.3345 14.0551 24.3349C13.7469 24.3359 13.4387 24.3389 13.1305 24.342C12.9338 24.3426 12.7371 24.3432 12.5404 24.3435C12.4029 24.3454 12.4029 24.3454 12.2626 24.3472C11.6301 24.3451 11.1902 24.2477 10.6528 23.8951C10.4457 23.7946 10.4457 23.7946 10.2328 23.9073C10.1176 23.9781 10.1176 23.9781 10.0001 24.0504C9.46551 24.3395 9.04202 24.3804 8.44265 24.3696C8.30119 24.3696 8.30119 24.3696 8.15688 24.3696C7.9591 24.3691 7.76132 24.3674 7.56356 24.3645C7.26245 24.3604 6.96156 24.3605 6.66043 24.3612C6.46715 24.3601 6.27387 24.3589 6.08059 24.3573C5.99156 24.3573 5.90253 24.3573 5.81081 24.3573C5.12732 24.3447 4.56139 24.2473 4.02752 23.7845C3.95501 23.6995 3.8825 23.6146 3.8078 23.5271C3.7373 23.4463 3.6668 23.3654 3.59417 23.2821C3.31698 22.8983 3.20216 22.498 3.09726 22.0401C2.89508 21.2082 2.63684 20.3945 2.38339 19.5773C2.33021 19.4049 2.27706 19.2326 2.22394 19.0602C2.08473 18.6087 1.94516 18.1574 1.80549 17.706C1.58266 16.9858 1.36034 16.2653 1.13808 15.5449C1.06135 15.2964 0.984449 15.0479 0.90752 14.7994C0.672029 14.0379 0.438816 13.2758 0.211466 12.5118C0.180599 12.4095 0.180599 12.4095 0.149108 12.3052C-0.105533 11.442 -0.187307 10.4533 0.157893 9.6009C0.267375 9.40254 0.267375 9.40254 0.389827 9.21491C0.431243 9.14692 0.472659 9.07894 0.51533 9.00889C1.04578 8.21685 1.79547 7.84273 2.65995 7.5017C2.94013 7.39025 3.21389 7.26802 3.48774 7.14175C7.75213 5.18936 12.4133 4.14832 17.0524 3.59662C17.1735 3.58218 17.2946 3.56775 17.4194 3.55287C17.8298 3.50745 18.2403 3.46796 18.6515 3.4312C18.7437 3.42275 18.8359 3.41431 18.9308 3.40561C20.856 3.23412 22.771 3.19951 24.7022 3.20398ZM19.3351 5.09769C19.2376 5.10663 19.2376 5.10663 19.1381 5.11575C13.9965 5.5888 8.71507 6.59303 4.02294 8.82739C3.67078 8.99507 3.31293 9.13441 2.9472 9.27005C2.41244 9.48827 2.06967 9.80773 1.75701 10.2932C1.49679 11.0769 1.78119 11.7718 2.01565 12.531C2.05204 12.6512 2.08842 12.7714 2.12591 12.8952C2.20266 13.1485 2.28004 13.4016 2.35792 13.6545C2.45764 13.9785 2.55608 14.3028 2.6541 14.6273C2.74795 14.9376 2.84263 15.2476 2.93728 15.5577C2.97259 15.6741 3.00789 15.7905 3.04427 15.9104C3.07749 16.0181 3.11071 16.1258 3.14494 16.2367C3.18853 16.3789 3.18853 16.3789 3.233 16.524C3.31611 16.7832 3.31611 16.7832 3.51483 17.0572C3.54919 16.9944 3.58356 16.9316 3.61897 16.8669C4.21911 15.8115 4.92229 15.1333 6.08517 14.7225C7.20393 14.4347 8.36131 14.5748 9.36161 15.1637C9.60107 15.3297 9.8307 15.5022 10.0578 15.6848C10.1585 15.7637 10.2592 15.8425 10.363 15.9238C10.4234 15.9743 10.4838 16.0249 10.5461 16.0769C10.583 16.0342 10.6198 15.9915 10.6578 15.9475C11.4879 15.0459 12.4891 14.6257 13.6955 14.5697C14.7762 14.5941 15.8321 14.9933 16.5893 15.7771C16.7286 15.938 16.8608 16.1049 16.9914 16.273C17.0558 16.2406 17.1203 16.2083 17.1867 16.175C17.2546 15.9778 17.2546 15.9778 17.3088 15.74C17.59 14.7532 18.1042 13.9945 18.996 13.4853C19.9742 12.9777 21.0146 12.8787 22.097 13.105C23.0351 13.4238 23.831 14.0343 24.3305 14.8994C24.6309 15.5219 24.7645 16.1869 24.9015 16.8612C24.966 16.8612 25.0305 16.8612 25.0969 16.8612C25.1183 16.7593 25.1397 16.6575 25.1617 16.5525C25.4442 15.2766 25.8546 14.3129 26.9523 13.5282C27.9527 12.973 29.0832 12.8779 30.199 13.1016C31.2008 13.4354 31.9263 14.0678 32.4211 14.9986C32.5351 15.2578 32.6245 15.5132 32.714 15.7828C32.7786 15.9465 32.8434 16.11 32.9094 16.273C32.9758 16.2043 33.0423 16.1355 33.1108 16.0647C33.2062 15.9705 33.3018 15.8766 33.3976 15.7828C33.4686 15.7104 33.4686 15.7104 33.5411 15.6366C34.3542 14.8643 35.4299 14.5711 36.5261 14.5858C37.7398 14.6725 38.6716 15.2718 39.55 16.0769C39.6021 16.026 39.6542 15.9751 39.7079 15.9226C40.6624 15.0259 41.6681 14.5514 42.9817 14.5824C44.0983 14.6788 45.0753 15.1677 45.845 15.9843C46.1058 16.3151 46.2985 16.6797 46.4836 17.0572C46.6723 16.7731 46.7544 16.56 46.8535 16.2367C46.9033 16.0752 46.9033 16.0752 46.9541 15.9104C46.9894 15.794 47.0247 15.6776 47.0611 15.5577C47.0977 15.4379 47.1343 15.3181 47.172 15.1946C47.2493 14.9409 47.3262 14.6871 47.4029 14.4332C47.5009 14.1091 47.6002 13.7855 47.6998 13.4619C47.795 13.1519 47.8888 12.8414 47.9828 12.531C48.0185 12.4154 48.0542 12.2998 48.0909 12.1807C48.3797 11.2394 48.3797 11.2394 48.2353 10.2871C47.8036 9.63005 47.2716 9.34318 46.5511 9.06365C46.2869 8.95896 46.0303 8.84996 45.7721 8.73204C40.6618 6.4142 34.9605 5.36579 29.3937 4.99966C29.332 4.99551 29.2704 4.99135 29.2068 4.98708C27.8309 4.89684 26.4571 4.88189 25.0785 4.88325C24.911 4.88334 24.911 4.88334 24.7401 4.88343C22.9302 4.88603 21.1379 4.92815 19.3351 5.09769ZM19.3351 15.2927C18.9087 15.9244 18.7179 16.5661 18.5608 17.3057C18.5374 17.4114 18.514 17.5171 18.4899 17.626C18.4411 17.848 18.3931 18.0702 18.3457 18.2926C18.2732 18.6316 18.1978 18.9699 18.1221 19.3083C18.0748 19.525 18.0278 19.7418 17.9809 19.9587C17.9472 20.1092 17.9472 20.1092 17.9128 20.2629C17.7737 20.9275 17.6753 21.5219 18.029 22.1364C18.587 22.6523 19.1637 22.689 19.8879 22.6839C20.0209 22.6844 20.0209 22.6844 20.1566 22.6848C20.3432 22.685 20.5297 22.6845 20.7163 22.6832C21.0009 22.6816 21.2854 22.6832 21.57 22.6851C21.7519 22.6849 21.9338 22.6845 22.1157 22.6839C22.2002 22.6845 22.2848 22.6851 22.3719 22.6857C22.8644 22.68 23.2057 22.6253 23.632 22.3508C24.0089 21.9316 24.1449 21.6846 24.1371 21.116C24.1048 20.6624 24.0012 20.2236 23.9025 19.7806C23.8798 19.6769 23.8571 19.5733 23.8337 19.4665C23.7856 19.2483 23.7371 19.0301 23.6882 18.812C23.614 18.4801 23.5424 18.1476 23.4708 17.815C23.4236 17.6022 23.3763 17.3894 23.3287 17.1767C23.3078 17.0781 23.2868 16.9796 23.2652 16.878C23.0808 16.0744 22.7908 15.3552 22.0695 14.9006C21.1192 14.4347 20.096 14.5083 19.3351 15.2927ZM27.3979 15.3172C26.9096 15.9084 26.7736 16.7522 26.6124 17.483C26.5912 17.578 26.5699 17.6729 26.548 17.7707C26.5035 17.9704 26.4593 18.1701 26.4153 18.3698C26.3482 18.674 26.2796 18.9778 26.2109 19.2816C26.1677 19.4765 26.1245 19.6714 26.0814 19.8664C26.061 19.9564 26.0405 20.0463 26.0195 20.139C25.8072 21.0829 25.8072 21.0829 26.049 21.9893C26.3303 22.3266 26.5369 22.5059 26.9523 22.6449C27.085 22.6547 27.2182 22.6594 27.3512 22.6607C27.4311 22.6616 27.511 22.6626 27.5933 22.6635C27.6794 22.6639 27.7655 22.6644 27.8541 22.6648C27.9431 22.6653 28.0321 22.6659 28.1238 22.6665C28.3123 22.6674 28.5008 22.668 28.6893 22.6684C28.9762 22.6694 29.2632 22.6724 29.5501 22.6755C29.7335 22.6762 29.9169 22.6767 30.1002 22.677C30.2281 22.6789 30.2281 22.6789 30.3586 22.6807C30.9988 22.6784 31.4825 22.5865 31.9694 22.1364C32.3751 21.4315 32.1873 20.7134 32.0209 19.9621C31.9983 19.8567 31.9757 19.7514 31.9525 19.6428C31.9044 19.4207 31.8557 19.1988 31.8064 18.977C31.7319 18.6401 31.6607 18.3027 31.5897 17.9651C31.5424 17.7485 31.4949 17.5319 31.4472 17.3153C31.4264 17.2156 31.4056 17.1159 31.3842 17.0132C31.1947 16.1818 30.8952 15.3819 30.1628 14.8945C29.2533 14.3793 28.1124 14.5376 27.3979 15.3172ZM5.32566 17.215C4.92856 17.8326 4.83704 18.4121 4.83967 19.1292C4.83916 19.2118 4.83865 19.2944 4.83812 19.3795C4.8375 19.5527 4.83762 19.726 4.83846 19.8992C4.83929 20.1639 4.83647 20.4283 4.83338 20.6929C4.83322 20.862 4.83328 21.031 4.83357 21.2001C4.83247 21.2787 4.83137 21.3574 4.83024 21.4384C4.83505 21.8266 4.85461 22.0136 5.06815 22.3492C5.43189 22.7008 5.75786 22.6621 6.2389 22.6648C6.3155 22.6653 6.3921 22.6659 6.47102 22.6665C6.63331 22.6674 6.79561 22.668 6.9579 22.6684C7.20547 22.6694 7.45296 22.6724 7.7005 22.6755C7.85824 22.6762 8.01598 22.6767 8.17372 22.677C8.24748 22.6783 8.32125 22.6795 8.39725 22.6807C8.83783 22.6789 9.12769 22.6344 9.47186 22.3508C9.73477 22.0054 9.69706 21.5996 9.69654 21.1829C9.69717 21.0697 9.69717 21.0697 9.69781 20.9542C9.69837 20.7945 9.69842 20.6349 9.698 20.4752C9.69769 20.2338 9.69997 19.9925 9.70246 19.7511C9.70701 18.6526 9.6893 17.6626 8.8863 16.8313C8.29315 16.3276 7.68636 16.205 6.91906 16.2362C6.20567 16.3301 5.79193 16.6858 5.32566 17.215ZM11.771 17.215C11.3739 17.8326 11.2823 18.4121 11.285 19.1292C11.2845 19.2118 11.284 19.2944 11.2834 19.3795C11.2828 19.5527 11.2829 19.726 11.2838 19.8992C11.2846 20.1639 11.2818 20.4283 11.2787 20.6929C11.2785 20.862 11.2786 21.031 11.2789 21.2001C11.2778 21.2787 11.2767 21.3574 11.2756 21.4384C11.2804 21.8266 11.2999 22.0136 11.5135 22.3492C11.8772 22.7008 12.2032 22.6621 12.6842 22.6648C12.7608 22.6653 12.8374 22.6659 12.9163 22.6665C13.0786 22.6674 13.2409 22.668 13.4032 22.6684C13.6508 22.6694 13.8983 22.6724 14.1458 22.6755C14.3036 22.6762 14.4613 22.6767 14.619 22.677C14.6928 22.6783 14.7666 22.6795 14.8426 22.6807C15.2831 22.6789 15.573 22.6344 15.9172 22.3508C16.1801 22.0054 16.1424 21.5996 16.1419 21.1829C16.1425 21.0697 16.1425 21.0697 16.1431 20.9542C16.1437 20.7945 16.1437 20.6349 16.1433 20.4752C16.143 20.2338 16.1453 19.9925 16.1478 19.7511C16.1523 18.6526 16.1346 17.6626 15.3316 16.8313C14.7385 16.3276 14.1317 16.205 13.3644 16.2362C12.651 16.3301 12.2372 16.6858 11.771 17.215ZM34.4291 17.0756C33.7998 17.9422 33.8397 18.9586 33.8477 19.9844C33.8493 20.226 33.8477 20.4674 33.8459 20.709C33.8461 20.8638 33.8464 21.0185 33.847 21.1733C33.8464 21.2449 33.8458 21.3165 33.8452 21.3902C33.8512 21.8244 33.9039 22.1089 34.1789 22.4488C34.5256 22.7161 34.9405 22.6766 35.3595 22.6778C35.474 22.6788 35.474 22.6788 35.5908 22.6798C35.7519 22.6808 35.9131 22.6812 36.0742 22.6812C36.3201 22.6816 36.5658 22.6852 36.8116 22.6889C36.9685 22.6895 37.1253 22.6899 37.2821 22.6901C37.3553 22.6915 37.4285 22.6929 37.5038 22.6943C37.865 22.6912 38.0669 22.6567 38.3734 22.4582C38.7369 22.0848 38.6898 21.7325 38.6943 21.2357C38.6951 21.1535 38.6959 21.0712 38.6967 20.9865C38.6981 20.8118 38.6991 20.637 38.6999 20.4623C38.7016 20.1979 38.7059 19.9336 38.7102 19.6692C38.7241 18.2352 38.7241 18.2352 38.0672 16.9929C37.9946 16.9332 37.9219 16.8736 37.8471 16.8122C37.7747 16.7505 37.7023 16.6888 37.6278 16.6253C36.5922 15.9101 35.2721 16.1982 34.4291 17.0756ZM40.8744 17.0756C40.2451 17.9422 40.285 18.9586 40.293 19.9844C40.2946 20.226 40.293 20.4674 40.2912 20.709C40.2914 20.8638 40.2917 21.0185 40.2923 21.1733C40.2917 21.2449 40.2911 21.3165 40.2905 21.3902C40.2965 21.8244 40.3492 22.1089 40.6242 22.4488C40.9709 22.7161 41.3858 22.6766 41.8049 22.6778C41.9193 22.6788 41.9193 22.6788 42.0361 22.6798C42.1973 22.6808 42.3584 22.6812 42.5195 22.6812C42.7654 22.6816 43.0111 22.6852 43.2569 22.6889C43.4138 22.6895 43.5706 22.6899 43.7275 22.6901C43.8006 22.6915 43.8738 22.6929 43.9491 22.6943C44.3104 22.6912 44.5122 22.6567 44.8187 22.4582C45.1822 22.0848 45.1352 21.7325 45.1397 21.2357C45.1404 21.1535 45.1412 21.0712 45.142 20.9865C45.1434 20.8118 45.1444 20.637 45.1452 20.4623C45.1469 20.1979 45.1512 19.9336 45.1555 19.6692C45.1694 18.2352 45.1694 18.2352 44.5125 16.9929C44.4399 16.9332 44.3673 16.8736 44.2924 16.8122C44.22 16.7505 44.1476 16.6888 44.0731 16.6253C43.0376 15.9101 41.7174 16.1982 40.8744 17.0756Z" fill="#106FAE"/>
<path d="M5.50935 25.8607C5.59383 25.8591 5.67832 25.8575 5.76536 25.8559C6.15246 25.8515 6.53953 25.8475 6.92665 25.8452C7.12979 25.8436 7.33293 25.841 7.53605 25.8372C9.58679 25.7995 9.58679 25.7995 10.3584 26.2793C10.4207 26.3092 10.4831 26.339 10.5474 26.3697C10.8891 26.2282 10.8891 26.2282 11.1333 25.9776C11.4089 25.8841 11.6667 25.8656 11.9562 25.8607C12.0834 25.8583 12.0834 25.8583 12.2132 25.8559C12.6012 25.8515 12.9893 25.8475 13.3773 25.8452C13.5811 25.8436 13.7849 25.841 13.9887 25.8372C14.2844 25.8318 14.5799 25.8297 14.8755 25.8282C14.9654 25.826 15.0553 25.8238 15.1478 25.8215C15.7506 25.8235 16.1639 25.9583 16.6895 26.2547C16.9028 26.3824 16.9028 26.3824 17.188 26.4677C17.403 26.3751 17.403 26.3751 17.6214 26.2349C18.0778 25.9574 18.4208 25.8681 18.9541 25.8622C19.0529 25.861 19.1517 25.8597 19.2535 25.8584C19.3598 25.8577 19.4661 25.8569 19.5756 25.8562C19.6857 25.8554 19.7958 25.8546 19.9092 25.8538C20.1422 25.8525 20.3753 25.8514 20.6083 25.8506C20.9631 25.8489 21.3177 25.8446 21.6724 25.8403C21.8992 25.8393 22.1259 25.8385 22.3527 25.8378C22.4581 25.8361 22.5634 25.8344 22.6719 25.8326C23.5665 25.8352 24.2315 26.0551 24.9029 26.6638C25.1464 26.551 25.3529 26.4262 25.5742 26.2717C26.2331 25.8484 26.8386 25.8482 27.5991 25.8466C27.7087 25.846 27.8182 25.8453 27.9311 25.8447C28.1626 25.8437 28.3941 25.8432 28.6255 25.8432C28.9774 25.8428 29.3292 25.8392 29.6811 25.8355C29.9067 25.8349 30.1323 25.8346 30.3579 25.8344C30.4621 25.833 30.5663 25.8316 30.6736 25.8301C31.3717 25.8343 31.8911 25.9758 32.52 26.2717C32.7713 26.3889 32.7713 26.3889 33.0083 26.4677C33.2235 26.3901 33.2235 26.3901 33.4112 26.241C33.7803 25.9779 34.0532 25.8678 34.5084 25.8638C34.5941 25.8628 34.6799 25.8619 34.7682 25.8609C34.9069 25.8603 34.9069 25.8603 35.0484 25.8596C35.1439 25.8591 35.2394 25.8585 35.3378 25.858C35.5401 25.857 35.7424 25.8564 35.9446 25.856C36.2528 25.8551 36.561 25.852 36.8692 25.8489C37.0659 25.8483 37.2626 25.8478 37.4593 25.8474C37.551 25.8462 37.6427 25.845 37.7371 25.8437C38.3696 25.8459 38.8095 25.9432 39.3469 26.2958C39.554 26.3963 39.554 26.3963 39.7669 26.2837C39.8437 26.2364 39.9205 26.1892 39.9997 26.1405C40.5342 25.8514 40.9577 25.8105 41.5571 25.8214C41.6514 25.8214 41.7457 25.8213 41.8428 25.8213C42.0406 25.8219 42.2384 25.8236 42.4362 25.8264C42.7373 25.8305 43.0382 25.8305 43.3393 25.8298C43.5326 25.8308 43.7258 25.8321 43.9191 25.8336C44.0082 25.8336 44.0972 25.8337 44.1889 25.8337C44.8724 25.8462 45.4383 25.9436 45.9722 26.4065C46.0447 26.4914 46.1172 26.5763 46.1919 26.6638C46.2624 26.7447 46.3329 26.8255 46.4055 26.9089C46.6868 27.2983 46.8011 27.7066 46.9087 28.171C47.0825 28.8865 47.2986 29.5874 47.5171 30.2901C47.5606 30.4308 47.6041 30.5715 47.6475 30.7123C47.7615 31.0816 47.8759 31.4507 47.9904 31.8199C48.1036 32.1851 48.2167 32.5505 48.3297 32.9158C48.3629 33.0233 48.3629 33.0233 48.3969 33.133C48.5742 33.7065 48.7509 34.2801 48.9271 34.8539C49.0351 35.2055 49.1434 35.5571 49.2525 35.9085C49.3573 36.246 49.4611 36.5838 49.5642 36.9218C49.6205 37.1055 49.6778 37.2889 49.7351 37.4723C50.0499 38.5101 50.2494 39.5435 49.8418 40.59C49.7331 40.788 49.7331 40.788 49.6099 40.976C49.5662 41.0451 49.5225 41.1143 49.4775 41.1855C49.0075 41.8698 48.4216 42.2412 47.6629 42.5629C47.5636 42.6051 47.5636 42.6051 47.4623 42.6481C47.3149 42.7106 47.1673 42.7728 47.0196 42.8346C46.7614 42.9436 46.5045 43.0554 46.2476 43.1675C40.2556 45.7589 33.5236 46.957 27.0109 46.9757C26.8612 46.9764 26.7115 46.9771 26.5618 46.9778C26.0861 46.9797 25.6105 46.9802 25.1348 46.9803C25.0537 46.9803 24.9726 46.9804 24.8891 46.9804C22.4732 46.9805 20.0768 46.962 17.6763 46.6617C17.5135 46.642 17.3507 46.6224 17.188 46.6027C11.9788 45.9637 6.89553 44.7447 2.14896 42.4465C2.0757 42.411 2.00244 42.3756 1.92696 42.3391C1.07279 41.9189 0.561943 41.3798 0.116484 40.5471C-0.318997 39.2346 0.108677 37.8387 0.510543 36.582C0.563844 36.4093 0.616938 36.2367 0.66984 36.0639C0.808638 35.6127 0.950208 35.1624 1.09241 34.7123C1.23467 34.2602 1.3742 33.8073 1.514 33.3545C1.89274 32.13 2.27536 30.9068 2.66656 29.6864C2.71436 29.537 2.71436 29.537 2.76313 29.3846C2.81822 29.2131 2.87367 29.0416 2.92963 28.8703C3.07155 28.4298 3.18481 27.9915 3.27608 27.5376C3.41532 26.9538 3.8179 26.4941 4.3096 26.1736C4.70245 25.9456 5.05758 25.8684 5.50935 25.8607ZM4.98099 27.9382C4.8226 28.2561 4.86323 28.6056 4.86006 28.9552C4.85927 29.0375 4.85848 29.1197 4.85767 29.2045C4.85632 29.3792 4.85527 29.5539 4.8545 29.7286C4.85284 29.993 4.84855 30.2574 4.84423 30.5218C4.8303 31.9557 4.8303 31.9557 5.4872 33.198C5.59615 33.2875 5.59615 33.2875 5.7073 33.3788C5.77969 33.4404 5.85207 33.5021 5.92665 33.5656C6.52114 33.9762 7.11025 34.0023 7.81302 33.9179C8.48717 33.7059 9.00157 33.3435 9.37552 32.7416C9.74862 31.9383 9.71344 31.0724 9.70668 30.2065C9.7051 29.9649 9.70668 29.7235 9.70854 29.4819C9.70835 29.3272 9.70797 29.1724 9.7074 29.0176C9.70799 28.946 9.70858 28.8745 9.70919 28.8007C9.70325 28.3665 9.65052 28.082 9.37552 27.7421C9.02881 27.4749 8.6139 27.5144 8.19487 27.5131C8.11855 27.5125 8.04222 27.5118 7.96359 27.5111C7.80246 27.5102 7.64134 27.5097 7.48021 27.5097C7.23434 27.5093 6.98864 27.5057 6.7428 27.502C6.58596 27.5014 6.42911 27.5011 6.27226 27.5009C6.19911 27.4995 6.12595 27.4981 6.05058 27.4966C5.56769 27.5008 5.31891 27.5911 4.98099 27.9382ZM11.4263 27.9382C11.2679 28.2561 11.3085 28.6056 11.3054 28.9552C11.3046 29.0375 11.3038 29.1197 11.303 29.2045C11.3016 29.3792 11.3006 29.5539 11.2998 29.7286C11.2981 29.993 11.2939 30.2574 11.2895 30.5218C11.2756 31.9557 11.2756 31.9557 11.9325 33.198C12.0415 33.2875 12.0415 33.2875 12.1526 33.3788C12.225 33.4404 12.2974 33.5021 12.372 33.5656C12.9665 33.9762 13.5556 34.0023 14.2583 33.9179C14.9325 33.7059 15.4469 33.3435 15.8208 32.7416C16.1939 31.9383 16.1588 31.0724 16.152 30.2065C16.1504 29.9649 16.152 29.7235 16.1539 29.4819C16.1537 29.3272 16.1533 29.1724 16.1527 29.0176C16.1533 28.946 16.1539 28.8745 16.1545 28.8007C16.1486 28.3665 16.0958 28.082 15.8208 27.7421C15.4741 27.4749 15.0592 27.5144 14.6402 27.5131C14.5639 27.5125 14.4875 27.5118 14.4089 27.5111C14.2478 27.5102 14.0866 27.5097 13.9255 27.5097C13.6797 27.5093 13.434 27.5057 13.1881 27.502C13.0313 27.5014 12.8744 27.5011 12.7176 27.5009C12.6444 27.4995 12.5713 27.4981 12.4959 27.4966C12.013 27.5008 11.7642 27.5911 11.4263 27.9382ZM18.0303 28.0546C17.6246 28.7594 17.8124 29.4775 17.9788 30.2288C18.0014 30.3342 18.024 30.4395 18.0473 30.5481C18.0953 30.7702 18.144 30.9921 18.1934 31.214C18.2679 31.5508 18.3391 31.8882 18.4101 32.2258C18.4573 32.4424 18.5048 32.6591 18.5525 32.8756C18.5733 32.9753 18.5941 33.075 18.6155 33.1777C18.805 34.0091 19.1045 34.8091 19.8369 35.2965C20.3763 35.602 20.9238 35.681 21.5303 35.5209C22.1164 35.3138 22.5371 35.0538 22.8521 34.5061C23.0919 33.9158 23.2502 33.3296 23.3873 32.7079C23.4085 32.6129 23.4298 32.518 23.4517 32.4202C23.4962 32.2205 23.5404 32.0208 23.5844 31.8211C23.6515 31.5169 23.7201 31.2131 23.7888 30.9093C23.832 30.7144 23.8752 30.5195 23.9183 30.3246C23.9387 30.2346 23.9592 30.1446 23.9802 30.0519C24.1925 29.108 24.1925 29.108 23.9507 28.2016C23.6694 27.8643 23.4628 27.6851 23.0474 27.5461C22.9147 27.5362 22.7815 27.5315 22.6485 27.5303C22.5286 27.5288 22.5286 27.5288 22.4064 27.5274C22.3203 27.527 22.2343 27.5266 22.1456 27.5261C22.0566 27.5256 21.9676 27.525 21.8759 27.5244C21.6874 27.5235 21.4989 27.5229 21.3105 27.5225C21.0235 27.5216 20.7366 27.5185 20.4496 27.5154C20.2662 27.5148 20.0829 27.5143 19.8995 27.5139C19.7716 27.5121 19.7716 27.5121 19.6411 27.5102C19.001 27.5125 18.5172 27.6044 18.0303 28.0546ZM26.1419 28.0913C25.8123 28.5692 25.8315 29.0007 25.9181 29.561C25.9736 29.8452 26.0343 30.1277 26.0972 30.4103C26.1199 30.514 26.1426 30.6176 26.166 30.7244C26.2141 30.9427 26.2626 31.1608 26.3116 31.3789C26.3857 31.7109 26.4573 32.0433 26.5289 32.3759C26.5761 32.5887 26.6234 32.8015 26.671 33.0142C26.6919 33.1128 26.7129 33.2114 26.7345 33.3129C26.9189 34.1165 27.209 34.8357 27.9302 35.2903C28.5598 35.599 29.1206 35.6936 29.7979 35.4619C30.5155 35.1593 30.8341 34.7096 31.1529 34.016C31.2734 33.644 31.3577 33.2676 31.439 32.8852C31.4623 32.7795 31.4857 32.6738 31.5098 32.5649C31.5586 32.3429 31.6066 32.1207 31.654 31.8984C31.7265 31.5593 31.8019 31.221 31.8777 30.8827C31.9249 30.6659 31.9719 30.4491 32.0188 30.2323C32.0413 30.1319 32.0637 30.0315 32.0869 29.928C32.226 29.2634 32.3244 28.6691 31.9707 28.0546C31.4127 27.5387 30.836 27.5019 30.1118 27.507C30.0231 27.5067 29.9345 27.5064 29.8431 27.5061C29.6565 27.5059 29.47 27.5065 29.2834 27.5077C28.9988 27.5093 28.7143 27.5077 28.4297 27.5058C28.2478 27.506 28.0659 27.5064 27.884 27.507C27.7995 27.5064 27.7149 27.5058 27.6278 27.5052C27.008 27.5124 26.574 27.6106 26.1419 28.0913ZM34.0825 27.8401C33.8196 28.1855 33.8573 28.5913 33.8579 29.0081C33.8574 29.0835 33.857 29.159 33.8566 29.2367C33.856 29.3964 33.856 29.5561 33.8564 29.7158C33.8567 29.9572 33.8544 30.1984 33.8519 30.4398C33.8474 31.5383 33.8651 32.5283 34.6681 33.3596C35.2613 33.8634 35.868 33.986 36.6353 33.9547C37.3487 33.8608 37.7625 33.5051 38.2287 32.9759C38.6258 32.3583 38.7174 31.7789 38.7147 31.0617C38.7152 30.9791 38.7158 30.8965 38.7163 30.8114C38.7169 30.6382 38.7168 30.4649 38.716 30.2917C38.7151 30.0271 38.7179 29.7626 38.721 29.498C38.7212 29.329 38.7211 29.1599 38.7208 28.9908C38.7219 28.9122 38.723 28.8336 38.7242 28.7525C38.7194 28.3643 38.6998 28.1773 38.4863 27.8417C38.1225 27.4901 37.7965 27.5288 37.3155 27.5261C37.2389 27.5256 37.1623 27.525 37.0834 27.5244C36.9211 27.5235 36.7588 27.5229 36.5965 27.5225C36.3489 27.5216 36.1014 27.5185 35.8539 27.5154C35.6962 27.5148 35.5384 27.5143 35.3807 27.5139C35.3069 27.5127 35.2332 27.5115 35.1572 27.5102C34.7166 27.5121 34.4267 27.5565 34.0825 27.8401ZM40.5279 27.8401C40.2649 28.1855 40.3027 28.5913 40.3032 29.0081C40.3028 29.0835 40.3023 29.159 40.3019 29.2367C40.3013 29.3964 40.3013 29.5561 40.3017 29.7158C40.302 29.9572 40.2997 30.1984 40.2973 30.4398C40.2927 31.5383 40.3104 32.5283 41.1134 33.3596C41.7066 33.8634 42.3134 33.986 43.0807 33.9547C43.794 33.8608 44.2078 33.5051 44.6741 32.9759C45.0712 32.3583 45.1627 31.7789 45.16 31.0617C45.1606 30.9791 45.1611 30.8965 45.1616 30.8114C45.1622 30.6382 45.1621 30.4649 45.1613 30.2917C45.1604 30.0271 45.1632 29.7626 45.1663 29.498C45.1665 29.329 45.1664 29.1599 45.1661 28.9908C45.1672 28.9122 45.1683 28.8336 45.1695 28.7525C45.1647 28.3643 45.1451 28.1773 44.9316 27.8417C44.5678 27.4901 44.2419 27.5288 43.7608 27.5261C43.6842 27.5256 43.6076 27.525 43.5287 27.5244C43.3664 27.5235 43.2041 27.5229 43.0418 27.5225C42.7942 27.5216 42.5468 27.5185 42.2992 27.5154C42.1415 27.5148 41.9837 27.5143 41.826 27.5139C41.7522 27.5127 41.6785 27.5115 41.6025 27.5102C41.1619 27.5121 40.872 27.5565 40.5279 27.8401ZM3.41849 33.1337C3.20359 33.8299 2.98881 34.5261 2.77417 35.2223C2.6745 35.5456 2.57479 35.8689 2.47499 36.1922C2.36022 36.564 2.24562 36.9358 2.13103 37.3076C2.09522 37.4235 2.05941 37.5394 2.02251 37.6588C1.98928 37.7668 1.95605 37.8747 1.92181 37.9859C1.89254 38.0808 1.86326 38.1757 1.8331 38.2735C1.66487 38.8401 1.56436 39.3249 1.76443 39.9038C2.19616 40.5609 2.72813 40.8477 3.44862 41.1273C3.71284 41.232 3.9694 41.341 4.22758 41.4589C9.35943 43.7861 15.1128 44.8352 20.7036 45.1913C20.7666 45.1954 20.8296 45.1995 20.8944 45.2038C22.2324 45.2895 23.5684 45.3129 24.909 45.3138C25.0166 45.3139 25.1243 45.314 25.2353 45.3141C28.3969 45.3122 31.5435 45.0924 34.6685 44.6031C34.7317 44.5932 34.7949 44.5833 34.8601 44.5731C38.7531 43.9584 42.6273 42.9728 46.1934 41.2611C46.474 41.1322 46.7631 41.0282 47.0525 40.9209C47.5873 40.7027 47.93 40.3832 48.2427 39.8977C48.5029 39.114 48.2185 38.4192 47.9841 37.6599C47.9295 37.4796 47.9295 37.4796 47.8738 37.2957C47.7971 37.0424 47.7197 36.7893 47.6418 36.5364C47.5421 36.2124 47.4436 35.8881 47.3456 35.5637C47.2518 35.2534 47.1571 34.9433 47.0624 34.6332C47.0095 34.4586 47.0095 34.4586 46.9554 34.2805C46.9222 34.1728 46.889 34.0652 46.8548 33.9542C46.8112 33.812 46.8112 33.812 46.7667 33.6669C46.6836 33.4077 46.6836 33.4077 46.4849 33.1337C46.4505 33.1965 46.4162 33.2593 46.3807 33.324C45.7806 34.3795 45.0774 35.0577 43.9145 35.4684C42.7958 35.7562 41.6384 35.6161 40.6381 35.0273C40.3987 34.8612 40.169 34.6887 39.9419 34.5061C39.8412 34.4273 39.7405 34.3484 39.6367 34.2672C39.5763 34.2166 39.5159 34.1661 39.4536 34.114C39.4 34.1781 39.4 34.1781 39.3453 34.2434C38.6254 35.0383 37.6354 35.5015 36.5751 35.6089C35.4867 35.6593 34.4255 35.3162 33.5943 34.6041C33.3816 34.384 33.1967 34.1603 33.0083 33.9179C32.9439 33.9503 32.8794 33.9826 32.813 34.016C32.7451 34.2131 32.7451 34.2131 32.6909 34.451C32.4097 35.4377 31.8955 36.1964 31.0037 36.7056C30.0255 37.2132 28.9851 37.3122 27.9027 37.0859C26.9646 36.7671 26.1687 36.1567 25.6692 35.2915C25.3688 34.6691 25.2352 34.0041 25.0982 33.3298C25.0337 33.3298 24.9693 33.3298 24.9029 33.3298C24.8815 33.4316 24.8601 33.5335 24.838 33.6384C24.5555 34.9143 24.1451 35.878 23.0474 36.6628C22.0471 37.2179 20.9165 37.3131 19.8007 37.0893C18.7989 36.7556 18.0734 36.1231 17.5786 35.1923C17.4646 34.9332 17.3752 34.6777 17.2857 34.4081C17.2212 34.2445 17.1563 34.081 17.0904 33.9179C17.0239 33.9867 16.9574 34.0554 16.8889 34.1263C16.7935 34.2204 16.6979 34.3143 16.6021 34.4081C16.5311 34.4805 16.5311 34.4805 16.4586 34.5544C15.6543 35.3183 14.5744 35.6249 13.487 35.6116C12.2605 35.5015 11.3513 34.903 10.4497 34.114C10.3976 34.1649 10.3455 34.2158 10.2918 34.2683C9.33735 35.1651 8.33164 35.6395 7.01803 35.6086C5.90139 35.5121 4.92439 35.0232 4.15472 34.2067C3.89394 33.8758 3.70122 33.5113 3.51614 33.1337C3.48392 33.1337 3.45169 33.1337 3.41849 33.1337Z" fill="#106FAE"/>
<path d="M28.2227 6.46973C33.7935 6.75165 39.5972 7.59754 44.7266 9.90074C44.5559 10.4367 44.3693 10.9554 44.1406 11.4692C43.7424 11.4125 43.391 11.3232 43.0161 11.1782C38.2117 9.36465 33.2199 8.63467 28.125 8.23425C28.1733 7.36081 28.1733 7.36081 28.2227 6.46973Z" fill="#106FAE"/>
<path d="M5.85938 38.7217C6.2576 38.7784 6.60895 38.8677 6.98395 39.0127C11.7787 40.8237 16.7841 41.5825 21.875 41.9566C21.8428 42.5389 21.8105 43.1212 21.7773 43.7212C16.1605 43.3982 10.4734 42.5436 5.27344 40.2901C5.4454 39.7546 5.63061 39.2356 5.85938 38.7217Z" fill="#106FAE"/>
<path d="M23.3398 42.0542C23.8877 42.0542 24.4355 42.0542 25 42.0542C25 42.6041 25 43.1541 25 43.7207C24.4521 43.7207 23.9043 43.7207 23.3398 43.7207C23.3398 43.1707 23.3398 42.6208 23.3398 42.0542Z" fill="#106FAE"/>
<path d="M25 6.46973C25.5479 6.46973 26.0957 6.46973 26.6602 6.46973C26.6602 7.01967 26.6602 7.56961 26.6602 8.13622C26.1123 8.13622 25.5645 8.13622 25 8.13622C25 7.58628 25 7.03633 25 6.46973Z" fill="#106FAE"/>
</g>
<defs>
<clipPath id="clip0_16_695">
<rect width="50" height="50.1908" fill="white"/>
</clipPath>
</defs>
</svg>
