<svg width="50" height="50" viewBox="0 0 50 50" fill="none" xmlns="http://www.w3.org/2000/svg">
<g clip-path="url(#clip0_16_681)">
<path d="M6.4301 9.4106C6.59701 9.41004 6.76392 9.40926 6.93083 9.40829C7.38772 9.40626 7.84456 9.40726 8.30144 9.40877C8.79486 9.40988 9.28827 9.40817 9.78168 9.40683C10.7476 9.40466 11.7135 9.40513 12.6794 9.40654C13.4645 9.40765 14.2495 9.4078 15.0346 9.40726C15.1464 9.40719 15.2582 9.40712 15.3734 9.40704C15.6005 9.40688 15.8276 9.40672 16.0547 9.40656C18.1838 9.40517 20.3128 9.40677 22.4418 9.4094C24.268 9.41158 26.0943 9.4112 27.9206 9.40895C30.0421 9.40633 32.1635 9.40531 34.285 9.4068C34.5112 9.40696 34.7375 9.40711 34.9638 9.40726C35.0751 9.40734 35.1864 9.40742 35.3011 9.40749C36.0852 9.40791 36.8692 9.4072 37.6532 9.40605C38.6089 9.40468 39.5645 9.40506 40.5201 9.40766C41.0076 9.40894 41.4951 9.40944 41.9825 9.40783C42.429 9.40637 42.8755 9.40718 43.3219 9.40977C43.4832 9.41031 43.6445 9.41004 43.8057 9.40885C44.7943 9.40214 45.63 9.45293 46.3988 10.1495C47.0521 10.8075 47.1992 11.5719 47.208 12.4759C47.2075 12.5827 47.2071 12.6894 47.2066 12.7993C47.2076 12.9715 47.2076 12.9715 47.2087 13.1471C47.2104 13.524 47.2101 13.901 47.2095 14.278C47.2098 14.4743 47.2102 14.6706 47.2106 14.8669C47.212 15.4827 47.2119 16.0985 47.2107 16.7144C47.2096 17.3492 47.211 17.984 47.2136 18.6187C47.2158 19.165 47.2164 19.7112 47.2158 20.2574C47.2155 20.5832 47.2159 20.9089 47.2174 21.2347C47.2189 21.5973 47.2179 21.9598 47.2162 22.3223C47.2171 22.43 47.2181 22.5378 47.219 22.6487C47.2181 22.7474 47.2171 22.8461 47.2161 22.9478C47.2161 23.0334 47.2161 23.1191 47.2161 23.2073C47.1502 23.5172 47.0229 23.6346 46.7766 23.8281C46.4141 23.8799 46.196 23.8905 45.8792 23.6986C45.592 23.2746 45.65 22.8359 45.6552 22.3356C45.6548 22.2232 45.6545 22.1107 45.6541 21.9948C45.6535 21.7505 45.6538 21.5062 45.6549 21.2619C45.6566 20.8752 45.6558 20.4887 45.6545 20.102C45.6516 19.2113 45.6527 18.3206 45.6538 17.4299C45.6547 16.6139 45.6548 15.798 45.6518 14.9821C45.6503 14.5362 45.6518 14.0904 45.6538 13.6445C45.6532 13.4108 45.6526 13.1771 45.6518 12.9435C45.6529 12.8375 45.654 12.7316 45.6551 12.6224C45.6504 12.0325 45.6188 11.6736 45.2141 11.2304C44.8317 11.0288 44.4692 10.9045 44.0422 10.8398C44.0656 10.9618 44.0656 10.9618 44.0895 11.0862C44.5979 14.5141 43.0748 17.6801 41.3432 20.5142C40.2273 22.3487 39.5661 24.0498 39.5866 26.2268C39.5866 26.2971 39.5867 26.3675 39.5867 26.44C39.5911 27.899 39.7827 29.3269 39.9823 30.7699C40.1661 32.1065 40.2893 33.4156 40.2763 34.7656C40.2757 34.836 40.2751 34.9064 40.2744 34.979C40.2661 35.6648 40.2272 36.3324 40.1359 37.0117C40.7946 37.0051 41.4532 36.9964 42.1118 36.986C42.3358 36.9828 42.5599 36.9801 42.7839 36.9778C43.1061 36.9746 43.4282 36.9694 43.7504 36.964C43.9004 36.963 43.9004 36.9631 44.0534 36.9621C44.7357 36.9565 44.7357 36.9565 45.3117 36.621C45.6761 36.1661 45.6448 35.7358 45.6392 35.1797C45.6395 35.0364 45.6395 35.0364 45.6398 34.8903C45.6401 34.6833 45.6397 34.4764 45.6388 34.2694C45.6375 33.9419 45.6381 33.6144 45.6393 33.2868C45.6423 32.3557 45.6418 31.4246 45.6399 30.4935C45.6388 29.9237 45.6401 29.3539 45.6428 28.7841C45.6433 28.567 45.6429 28.3499 45.6416 28.1328C45.6397 27.8294 45.6408 27.526 45.6426 27.2226C45.6413 27.1329 45.64 27.0432 45.6386 26.9507C45.6443 26.5146 45.6604 26.3258 45.9281 25.9662C46.1906 25.7812 46.1906 25.7812 46.5446 25.7751C46.8742 25.8789 46.8742 25.8789 47.0388 26.0211C47.2399 26.4102 47.2087 26.7899 47.2066 27.2217C47.2076 27.3666 47.2076 27.3666 47.2087 27.5144C47.2105 27.8341 47.2101 28.1539 47.2095 28.4736C47.21 28.6962 47.2105 28.9188 47.2111 29.1415C47.2119 29.6086 47.2117 30.0757 47.2107 30.5428C47.2096 31.1398 47.2116 31.7367 47.2144 32.3337C47.2162 32.7938 47.2162 33.2539 47.2156 33.714C47.2156 33.934 47.2162 34.154 47.2174 34.3739C47.2189 34.6827 47.2178 34.9913 47.2162 35.3001C47.2171 35.39 47.2181 35.4799 47.219 35.5726C47.2089 36.4738 46.9291 37.2497 46.2883 37.8906C45.6898 38.349 45.1675 38.5008 44.4184 38.5016C44.3501 38.502 44.2817 38.5023 44.2113 38.5027C43.9823 38.5036 43.7534 38.5031 43.5244 38.5026C43.3586 38.503 43.1927 38.5034 43.0269 38.504C42.5712 38.5052 42.1155 38.5051 41.6597 38.5049C41.1683 38.5049 40.6768 38.5059 40.1853 38.5069C39.2224 38.5085 38.2595 38.509 37.2965 38.5091C36.5139 38.5092 35.7313 38.5096 34.9486 38.5103C32.7301 38.512 30.5115 38.5129 28.293 38.5127C28.1135 38.5127 28.1135 38.5127 27.9305 38.5127C27.7508 38.5127 27.7508 38.5127 27.5676 38.5127C25.6263 38.5126 23.6851 38.5145 21.7439 38.5172C19.751 38.52 17.7581 38.5214 15.7653 38.5212C14.6463 38.5211 13.5273 38.5217 12.4083 38.5238C11.4556 38.5256 10.5029 38.526 9.55023 38.5247C9.06417 38.524 8.57812 38.524 8.09206 38.5257C7.64694 38.5272 7.20187 38.527 6.75676 38.5253C6.59588 38.525 6.43501 38.5253 6.27414 38.5264C5.26852 38.5328 4.53675 38.4451 3.68573 37.8723C3.14301 37.3172 2.81968 36.6769 2.81841 35.8966C2.81803 35.8103 2.81766 35.724 2.81727 35.6351C2.81735 35.5407 2.81744 35.4463 2.81753 35.349C2.81724 35.2484 2.81695 35.1478 2.81665 35.0442C2.8158 34.706 2.81565 34.3678 2.81551 34.0296C2.81505 33.7876 2.81456 33.5456 2.81404 33.3035C2.81275 32.6451 2.81212 31.9867 2.81169 31.3283C2.81142 30.9171 2.81101 30.5058 2.81057 30.0946C2.80938 28.9555 2.80837 27.8164 2.80804 26.6773C2.80802 26.6044 2.808 26.5316 2.80798 26.4565C2.80795 26.3834 2.80793 26.3103 2.80791 26.2351C2.80787 26.087 2.80782 25.939 2.80778 25.7909C2.80776 25.7175 2.80774 25.644 2.80771 25.5684C2.80733 24.3789 2.80563 23.1895 2.80335 22.0001C2.80103 20.7783 2.79982 19.5566 2.7997 18.3349C2.79961 17.6491 2.79906 16.9634 2.79728 16.2777C2.79562 15.6325 2.79546 14.9873 2.79632 14.3422C2.79639 14.1055 2.79597 13.8689 2.795 13.6323C2.79376 13.3089 2.79433 12.9855 2.79535 12.6621C2.79457 12.5688 2.79378 12.4755 2.79297 12.3793C2.79932 11.5152 2.97847 10.7751 3.59966 10.1495C4.43579 9.39192 5.3662 9.40277 6.4301 9.4106ZM4.55243 11.3281C4.31477 11.6206 4.28384 11.8665 4.28298 12.2305C4.28254 12.3155 4.28211 12.4004 4.28166 12.4879C4.28168 12.5812 4.28169 12.6746 4.28171 12.7708C4.28135 12.8699 4.28099 12.9691 4.28062 13.0712C4.27954 13.405 4.27917 13.7387 4.2788 14.0725C4.27819 14.3111 4.27754 14.5498 4.27685 14.7885C4.27498 15.5057 4.27394 16.223 4.27307 16.9403C4.27264 17.278 4.27212 17.6157 4.27161 17.9535C4.26995 19.0761 4.26853 20.1988 4.26782 21.3215C4.26764 21.6128 4.26745 21.9041 4.26726 22.1954C4.26721 22.2678 4.26717 22.3402 4.26712 22.4148C4.26631 23.588 4.26383 24.7612 4.26066 25.9344C4.25743 27.1388 4.25567 28.3432 4.25536 29.5476C4.25515 30.2239 4.25429 30.9002 4.2518 31.5765C4.24946 32.2125 4.24911 32.8485 4.25012 33.4845C4.25016 33.7182 4.24954 33.9518 4.24821 34.1854C4.24648 34.504 4.24716 34.8225 4.24845 35.1411C4.24738 35.2338 4.24631 35.3265 4.24521 35.4221C4.2507 35.9834 4.32228 36.2862 4.68671 36.7187C4.97592 36.995 5.1646 37.048 5.56094 37.0449C5.65672 37.0449 5.75249 37.0449 5.85116 37.0449C5.95382 37.0434 6.05647 37.0418 6.16223 37.0403C6.26789 37.0399 6.37355 37.0394 6.48241 37.039C6.81974 37.0374 7.15701 37.0337 7.49433 37.03C7.72308 37.0285 7.95184 37.0272 8.18059 37.026C8.74124 37.0227 9.30186 37.0178 9.86249 37.0117C9.85942 36.909 9.85635 36.8064 9.85319 36.7006C9.79588 34.5792 9.85929 32.523 10.1555 30.4199C10.3509 29.0189 10.5088 27.6427 10.5095 26.2268C10.5101 26.16 10.5107 26.0933 10.5114 26.0245C10.5194 24.6504 10.2589 23.3013 9.63666 22.0703C9.59569 21.9864 9.55473 21.9025 9.51252 21.8161C9.10406 21.0009 8.62695 20.2281 8.15172 19.4507C6.71347 17.0835 5.92711 14.686 5.95014 11.9018C5.95058 11.7991 5.95102 11.6964 5.95147 11.5905C5.95261 11.3403 5.95421 11.09 5.95624 10.8398C5.39901 10.8207 4.98382 10.9648 4.55243 11.3281ZM7.42108 10.8398C6.88037 14.0841 8.22368 16.9413 9.8747 19.6411C11.1868 21.7914 11.8372 23.7263 11.8461 26.2573C11.8465 26.3314 11.8468 26.4055 11.8471 26.4819C11.8496 28.2766 11.641 30.0361 11.3693 31.8087C11.2436 32.6609 11.1991 33.4897 11.2042 34.3492C11.2053 34.56 11.2042 34.7707 11.203 34.9815C11.2031 35.1188 11.2034 35.2561 11.2037 35.3935C11.204 35.5146 11.2042 35.6356 11.2044 35.7604C11.2263 36.2218 11.2263 36.2218 11.425 37.0117C12.5851 37.0117 13.7453 37.0117 14.9406 37.0117C14.9947 32.9001 14.6697 28.7824 13.2236 24.9008C12.8137 23.7819 12.9153 22.6719 13.3781 21.582C13.9171 20.5822 14.7447 19.896 15.8195 19.5312C16.7102 19.3144 17.576 19.3712 18.4437 19.6426C18.5506 19.6751 18.5506 19.6751 18.6597 19.7082C19.5463 19.9809 20.4208 20.2898 21.2956 20.5977C23.9645 21.5352 25.9509 21.5428 28.6125 20.6176C29.198 20.4169 29.7839 20.2173 30.3703 20.0195C30.4413 19.9954 30.5122 19.9714 30.5853 19.9466C31.8713 19.5144 33.1266 19.2323 34.4307 19.7994C35.4918 20.3488 36.2067 21.0789 36.6298 22.216C37.0193 23.7302 36.5604 25.0342 36.066 26.4709C34.916 29.8291 34.8249 33.4983 34.8625 37.0117C36.0871 37.0117 37.3117 37.0117 38.5734 37.0117C38.7521 36.2078 38.8112 35.5173 38.8115 34.7045C38.8117 34.6362 38.812 34.568 38.8123 34.4976C38.8132 32.8786 38.5946 31.2931 38.3647 29.6936C38.2198 28.6835 38.162 27.6966 38.1593 26.6768C38.1584 26.455 38.1554 26.2334 38.1523 26.0116C38.1447 24.9597 38.2448 23.959 38.5333 22.9417C38.6972 22.3274 38.6509 21.809 38.5544 21.1853C38.5398 21.0845 38.5253 20.9838 38.5103 20.8801C38.4794 20.6682 38.4477 20.4565 38.4152 20.2448C38.3661 19.9231 38.3201 19.6009 38.2744 19.2787C38.2438 19.0719 38.213 18.8651 38.182 18.6584C38.1617 18.5155 38.1617 18.5155 38.141 18.3698C38.0278 17.6493 37.8703 16.9027 37.2978 16.4062C36.5707 15.9111 35.6666 16.1186 34.8373 16.22C34.7448 16.2309 34.6523 16.2417 34.557 16.2529C34.2641 16.2872 33.9712 16.3222 33.6784 16.3574C33.3849 16.3925 33.0913 16.4274 32.7977 16.4619C32.6159 16.4832 32.434 16.5049 32.2522 16.5271C30.979 16.6768 30.979 16.6768 30.6144 16.4489C30.468 16.2109 30.468 16.2109 30.4741 15.8569C30.5656 15.5273 30.5656 15.5273 30.8586 15.332C31.1012 15.2897 31.3375 15.2568 31.5819 15.2309C31.6523 15.2227 31.7227 15.2146 31.7952 15.2062C32.0201 15.1802 32.245 15.1553 32.4699 15.1306C32.6948 15.1053 32.9197 15.0798 33.1446 15.0539C33.2844 15.0379 33.4243 15.0222 33.5642 15.007C33.8494 14.9747 34.1008 14.9348 34.3742 14.8437C34.2538 14.1559 34.0755 13.4978 33.8669 12.8314C33.7711 12.4275 33.6851 12.0044 33.892 11.6271C34.194 11.4615 34.4284 11.4813 34.7648 11.5234C35.0584 11.8223 35.1471 12.1527 35.2573 12.5503C35.2916 12.6724 35.3259 12.7945 35.3613 12.9203C35.3964 13.0488 35.4316 13.1772 35.4667 13.3056C35.503 13.4356 35.5393 13.5655 35.5756 13.6955C35.6642 14.0129 35.752 14.3305 35.8391 14.6484C35.9957 14.6648 35.9957 14.6648 36.1555 14.6815C37.2727 14.8035 38.041 15.0193 38.7687 15.9179C39.5613 17.0255 39.557 18.8018 39.7453 20.1171C40.1329 19.6713 40.4134 19.1761 40.7036 18.6645C40.7554 18.5732 40.8072 18.482 40.8605 18.3879C42.1681 16.0602 43.0264 13.5339 42.5773 10.8398C33.5861 10.8398 24.5949 10.8398 15.3312 10.8398C15.2221 11.3695 15.2221 11.3695 15.3373 11.8225C15.3586 11.884 15.3799 11.9456 15.4018 12.009C15.7591 12.5761 16.3 12.8014 16.9086 13.0035C16.9845 13.0298 17.0604 13.0561 17.1386 13.0833C17.3801 13.1667 17.6221 13.2484 17.8642 13.33C18.0232 13.3847 18.1823 13.4395 18.3412 13.4944C19.2466 13.8067 19.2466 13.8067 20.1584 14.0995C20.2257 14.1206 20.2931 14.1418 20.3624 14.1636C20.5436 14.2203 20.7253 14.2754 20.907 14.3304C21.213 14.4627 21.3304 14.5503 21.4836 14.8437C21.4714 15.1977 21.4714 15.1977 21.3859 15.5273C21.049 15.7519 20.9083 15.7279 20.5199 15.6673C20.2023 15.6027 19.9012 15.5062 19.5945 15.4018C19.5306 15.3803 19.4667 15.3587 19.4008 15.3365C19.1997 15.2686 18.9989 15.1996 18.798 15.1306C18.6605 15.0839 18.5229 15.0373 18.3853 14.9908C18.0506 14.8774 17.7162 14.7632 17.382 14.6484C17.3616 14.7563 17.3411 14.8643 17.32 14.9755C17.2812 15.1801 17.2423 15.3847 17.2031 15.5893C17.1054 16.1052 17.0277 16.6218 16.9643 17.1432C16.8751 17.4462 16.748 17.5776 16.5031 17.7734C16.204 17.8161 16.204 17.8161 15.9172 17.7734C15.7194 17.6226 15.6345 17.5383 15.5904 17.2909C15.6064 16.7527 15.67 16.239 15.7707 15.7104C15.8698 15.1844 15.9342 14.6961 15.9172 14.1601C15.8464 14.1269 15.7757 14.0936 15.7028 14.0594C14.7871 13.6003 14.3081 13.069 13.9641 12.1093C13.8379 11.6621 13.8664 11.3363 13.8664 10.8398C11.7394 10.8398 9.61249 10.8398 7.42108 10.8398ZM14.9864 21.6857C14.4977 22.3304 14.2668 23.0174 14.3547 23.8281C14.4666 24.2659 14.6149 24.6894 14.7636 25.1159C16.0621 28.9996 16.2276 32.9532 16.4055 37.0117C17.2434 37.0117 18.0812 37.0117 18.9445 37.0117C19.0654 36.4709 19.0654 36.4709 19.1887 35.9191C19.7536 33.516 20.7024 30.6437 22.9 29.2381C23.8558 28.7026 24.8318 28.4677 25.9163 28.725C27.6392 29.2899 28.6958 30.5662 29.5077 32.13C30.2796 33.6881 30.6712 35.3222 31.0539 37.0117C31.8273 37.0117 32.6008 37.0117 33.3976 37.0117C33.4083 36.7273 33.419 36.4429 33.4301 36.1499C33.5878 32.1073 33.8839 28.218 35.2737 24.3804C35.4746 23.7042 35.4475 22.9696 35.1555 22.3266C34.7609 21.6411 34.1653 21.1123 33.3976 20.8984C32.1324 20.6966 30.9539 21.2475 29.7844 21.6613C29.3717 21.8053 28.9586 21.9482 28.5454 22.0905C28.4472 22.1243 28.3491 22.1582 28.2479 22.193C25.2795 23.2045 22.9511 22.6507 20.0738 21.6594C19.8567 21.5847 19.6395 21.5104 19.4223 21.4362C19.1417 21.3404 18.8619 21.2424 18.5825 21.1431C17.2483 20.6782 16.0172 20.5577 14.9864 21.6857ZM22.7531 31.2499C21.9226 32.2325 21.3758 33.4644 20.9648 34.674C20.9311 34.7722 20.9311 34.7722 20.8967 34.8724C20.6687 35.5799 20.5577 36.27 20.4094 37.0117C23.4387 37.0117 26.468 37.0117 29.5891 37.0117C29.3627 35.8238 29.3627 35.8238 29.0336 34.674C28.9965 34.565 28.9965 34.565 28.9586 34.4537C28.3683 32.781 27.5015 31.1672 25.9758 30.1818C24.6592 29.7155 23.6603 30.2664 22.7531 31.2499Z" fill="#106FAE"/>
<path d="M22.1621 3.87435C24.3969 4.56478 25.986 4.44664 28.2196 3.77061C28.4317 3.70649 28.6438 3.64287 28.856 3.57936C28.9321 3.55659 29.0081 3.53383 29.0865 3.51037C29.2441 3.46322 29.4018 3.4161 29.5595 3.36903C29.9467 3.25336 30.3337 3.13694 30.72 3.01838C33.4022 2.20172 33.4022 2.20172 34.7648 2.14837C34.9063 2.14082 34.9063 2.14082 35.0506 2.13311C37.2674 2.06815 39.1689 2.85642 40.7829 4.367C40.8594 4.44052 40.936 4.51403 41.0148 4.58978C41.1296 4.69703 41.1296 4.69703 41.2468 4.80645C41.8589 5.39376 41.8589 5.39376 42.0063 5.71058C42.1688 6.02533 42.3018 6.21959 42.5773 6.44525C43.1761 6.6213 43.8344 6.55957 44.4511 6.5429C44.7882 6.53921 45.1253 6.53796 45.4624 6.5368C45.5433 6.53615 45.6242 6.53549 45.7075 6.53482C46.9327 6.53149 48.0193 6.72707 48.9494 7.5744C49.6239 8.29406 50.0107 9.1885 50.012 10.1721C50.0124 10.2722 50.0128 10.3722 50.0132 10.4753C50.0131 10.5845 50.013 10.6938 50.0129 10.8063C50.0134 10.9812 50.0134 10.9812 50.0138 11.1596C50.0145 11.4828 50.0148 11.8061 50.0148 12.1293C50.015 12.4781 50.0158 12.8268 50.0164 13.1756C50.0177 13.9381 50.0183 14.7006 50.0188 15.4631C50.019 15.9394 50.0194 16.4157 50.0199 16.892C50.0211 18.2111 50.0221 19.5303 50.0224 20.8495C50.0224 20.9339 50.0224 21.0183 50.0225 21.1053C50.0225 21.1899 50.0225 21.2745 50.0225 21.3617C50.0226 21.5331 50.0226 21.7046 50.0227 21.876C50.0227 21.961 50.0227 22.0461 50.0227 22.1337C50.0231 23.5113 50.0248 24.8888 50.0271 26.2664C50.0294 27.6813 50.0306 29.0963 50.0307 30.5112C50.0308 31.3054 50.0314 32.0996 50.0332 32.8938C50.0347 33.5701 50.0352 34.2465 50.0344 34.9228C50.034 35.2677 50.0341 35.6125 50.0354 35.9574C50.0369 36.3318 50.0361 36.7063 50.0351 37.0808C50.0359 37.1889 50.0367 37.2971 50.0375 37.4085C50.0301 38.566 49.727 39.4621 48.9498 40.3262C47.8547 41.3803 46.5973 41.3763 45.1729 41.3562C44.9819 41.3553 44.7909 41.3546 44.5999 41.3541C44.1009 41.3523 43.6019 41.3475 43.103 41.3421C42.5923 41.337 42.0817 41.3348 41.571 41.3324C40.5718 41.3272 39.5726 41.3188 38.5734 41.3085C38.5452 41.3829 38.5169 41.4572 38.4877 41.5338C38.35 41.8642 38.1587 42.1427 37.9509 42.4316C37.9082 42.491 37.8655 42.5503 37.8216 42.6115C36.353 44.6109 34.4005 46.1033 32.2258 47.2656C32.0668 47.3535 32.0668 47.3535 31.9046 47.4433C30.9454 47.955 30.9454 47.955 30.3703 47.8515C29.9165 47.6824 29.6439 47.4871 29.3937 47.0702C29.2658 46.4381 29.3386 45.9374 29.4731 45.3124C29.691 44.224 29.7892 43.14 29.8592 42.0333C29.8827 41.7895 29.9316 41.5487 29.9797 41.3085C26.6926 41.3085 23.4055 41.3085 20.0187 41.3085C20.1743 42.9901 20.1743 42.9901 20.4155 44.6533C20.6072 45.784 20.6072 45.784 20.6722 46.2886C20.6808 46.3555 20.6895 46.4224 20.6984 46.4913C20.7056 46.8359 20.5805 47.0722 20.4094 47.3632C20.0581 47.6969 19.7997 47.8369 19.3134 47.8782C18.8904 47.8476 18.5855 47.7181 18.2182 47.5219C18.151 47.487 18.0838 47.4521 18.0146 47.4162C16.3875 46.556 14.9068 45.509 13.5734 44.2382C13.5211 44.1886 13.4687 44.1389 13.4147 44.0877C12.99 43.6757 12.6291 43.2378 12.2795 42.7612C12.204 42.6601 12.204 42.6601 12.1269 42.5571C11.425 41.611 11.425 41.611 11.425 41.3085C11.3199 41.3096 11.2149 41.3107 11.1066 41.3118C10.1125 41.3217 9.1184 41.329 8.12425 41.3338C7.61324 41.3364 7.10228 41.3398 6.59129 41.3454C6.0974 41.3507 5.60354 41.3536 5.10961 41.3549C4.92196 41.3558 4.73431 41.3575 4.54667 41.3602C3.10566 41.3797 1.98431 41.2405 0.897571 40.1958C0.304001 39.4926 -0.0123308 38.6933 -0.0136247 37.777C-0.0139998 37.6769 -0.0143752 37.5769 -0.0147617 37.4738C-0.0146348 37.3099 -0.0146349 37.3099 -0.0145054 37.1428C-0.0147955 37.0262 -0.0150856 36.9096 -0.0153846 36.7895C-0.016085 36.4663 -0.016348 36.143 -0.0164202 35.8198C-0.0166012 35.471 -0.0173377 35.1222 -0.0179952 34.7735C-0.0193207 34.011 -0.0199106 33.2485 -0.0203407 32.486C-0.0206106 32.0097 -0.0210246 31.5334 -0.0214642 31.0571C-0.0226548 29.7379 -0.0236595 28.4187 -0.02399 27.0996C-0.0240114 27.0151 -0.0240334 26.9307 -0.0240555 26.8438C-0.0240875 26.7169 -0.024087 26.7169 -0.0241196 26.5874C-0.0241629 26.416 -0.0242068 26.2445 -0.0242507 26.0731C-0.0242724 25.988 -0.024294 25.903 -0.0243163 25.8154C-0.0247018 24.4378 -0.0264064 23.0603 -0.0286809 21.6827C-0.0309982 20.2678 -0.0322134 18.8528 -0.0323272 17.4378C-0.0324166 16.6437 -0.0329769 15.8495 -0.0347516 15.0553C-0.0362577 14.3789 -0.0367535 13.7026 -0.0359482 13.0263C-0.0355674 12.6814 -0.0356544 12.3366 -0.0370285 11.9917C-0.0385069 11.6172 -0.0376971 11.2428 -0.0366783 10.8683C-0.0374651 10.7602 -0.0382519 10.652 -0.0390625 10.5406C-0.0316251 9.36969 0.277119 8.46063 1.07724 7.59767C1.9386 6.77436 2.87919 6.52655 4.04794 6.54145C4.19881 6.54522 4.34968 6.54914 4.50055 6.5532C4.75294 6.55553 5.00533 6.55685 5.25772 6.55818C5.43047 6.5602 5.6032 6.56415 5.77585 6.57001C6.81429 6.62973 6.81429 6.62973 7.71305 6.20101C7.93451 5.90177 8.11772 5.59759 8.29999 5.27337C9.59451 3.68105 11.4268 2.46982 13.4811 2.1724C16.4766 1.92212 19.3404 3.00008 22.1621 3.87435ZM12.5969 3.90618C12.7261 4.1647 12.8319 4.17043 13.1004 4.26743C13.2255 4.31405 13.2255 4.31405 13.3531 4.36161C13.4419 4.39461 13.5307 4.42761 13.6223 4.4616C14.5606 4.8262 15.3234 5.12475 15.7789 6.06941C15.9856 6.4263 15.9856 6.4263 16.3273 6.63275C16.5949 6.66633 16.8476 6.66849 17.1172 6.66034C17.2687 6.66159 17.2687 6.66159 17.4233 6.66287C17.7617 6.66447 18.0997 6.6591 18.4381 6.65377C18.6806 6.65349 18.9232 6.65365 19.1657 6.6542C19.6879 6.65442 20.2099 6.65165 20.732 6.64615C21.4869 6.63821 22.2417 6.63567 22.9966 6.63445C24.2214 6.63231 25.4462 6.62581 26.671 6.61657C27.8606 6.60761 29.0502 6.60069 30.2398 6.59655C30.3498 6.59616 30.3498 6.59616 30.4621 6.59577C30.8301 6.59449 31.1981 6.59326 31.5661 6.59205C34.6181 6.58193 37.67 6.56466 40.7219 6.5429C39.8113 5.16312 38.3962 4.1491 36.7912 3.72308C34.439 3.2571 32.1577 4.11901 29.9312 4.78993C29.2084 5.00752 28.4836 5.2179 27.758 5.42596C27.6454 5.45859 27.5328 5.49123 27.4168 5.52485C27.3124 5.55478 27.2079 5.58471 27.1003 5.61555C26.9648 5.65455 26.9648 5.65455 26.8265 5.69435C25.134 6.12448 23.5181 5.83045 21.8822 5.33469C21.3701 5.18024 20.8569 5.02944 20.3439 4.87778C19.8676 4.73685 19.3916 4.59515 18.9161 4.45142C16.7931 3.81273 14.7948 3.29282 12.5969 3.90618ZM10.2165 5.43816C10.1588 5.48997 10.1012 5.54177 10.0418 5.59514C9.95794 5.67209 9.95794 5.67209 9.87241 5.75059C9.82138 5.79713 9.77035 5.84366 9.71777 5.89161C9.52456 6.09334 9.52456 6.09334 9.27655 6.5429C10.9523 6.5429 12.6281 6.5429 14.3547 6.5429C13.913 6.10123 13.7312 5.96464 13.1813 5.75059C13.1172 5.72527 13.0531 5.69995 12.987 5.67386C12.7842 5.59409 12.5807 5.51613 12.3771 5.43816C12.239 5.38405 12.1009 5.32981 11.9629 5.27547C11.0037 4.85485 11.0037 4.85485 10.2165 5.43816ZM2.08284 8.63117C1.49701 9.33963 1.39309 10.065 1.40271 10.9566C1.40201 11.0729 1.40132 11.1893 1.40061 11.3091C1.39919 11.6294 1.39995 11.9497 1.40165 12.27C1.40297 12.6164 1.40145 12.9628 1.4003 13.3093C1.39851 13.9868 1.39934 14.6644 1.40109 15.342C1.40247 15.8927 1.40284 16.4435 1.40252 16.9943C1.40247 17.0728 1.40242 17.1513 1.40237 17.2322C1.40227 17.3917 1.40217 17.5512 1.40207 17.7107C1.40123 19.1198 1.40286 20.5288 1.40576 21.9378C1.40858 23.3041 1.40927 24.6704 1.40776 26.0368C1.40613 27.526 1.40573 29.0152 1.40744 30.5044C1.40762 30.6632 1.4078 30.8221 1.40798 30.9809C1.40811 31.0982 1.40811 31.0982 1.40825 31.2178C1.4088 31.7678 1.40847 32.3178 1.40783 32.8679C1.40707 33.5383 1.40773 34.2087 1.41019 34.8791C1.41141 35.221 1.41201 35.5628 1.41092 35.9047C1.41007 36.2756 1.41163 36.6464 1.41379 37.0173C1.41259 37.1787 1.41259 37.1787 1.41135 37.3434C1.41976 38.122 1.57859 38.6365 2.08051 39.2333C2.63941 39.7013 3.06446 39.9025 3.79425 39.8934C3.90629 39.8943 3.90629 39.8943 4.02059 39.8953C4.2706 39.8969 4.52051 39.8957 4.77052 39.8946C4.95168 39.8952 5.13284 39.896 5.314 39.8969C5.81163 39.8989 6.30922 39.8984 6.80685 39.8976C7.34361 39.8971 7.88036 39.8989 8.41711 39.9004C9.46862 39.9028 10.5201 39.9032 11.5716 39.9027C12.4263 39.9024 13.2809 39.9027 14.1356 39.9036C14.318 39.9037 14.318 39.9037 14.5041 39.9039C14.7511 39.9041 14.9981 39.9044 15.2451 39.9046C16.9038 39.9061 18.5626 39.9069 20.2214 39.9061C20.3187 39.9061 20.3187 39.9061 20.4179 39.906C20.7467 39.9059 21.0754 39.9057 21.4041 39.9055C21.4694 39.9055 21.5347 39.9055 21.602 39.9054C21.734 39.9054 21.866 39.9053 21.998 39.9052C24.0521 39.9042 26.1062 39.9057 28.1603 39.9093C30.4685 39.9134 32.7768 39.9155 35.085 39.9147C36.307 39.9143 37.529 39.9148 38.751 39.9176C39.7914 39.9199 40.8317 39.9202 41.8721 39.9178C42.4028 39.9167 42.9336 39.9164 43.4644 39.9188C43.9505 39.9209 44.4365 39.9203 44.9226 39.9176C45.0982 39.917 45.2739 39.9175 45.4495 39.9191C46.3869 39.9268 47.2152 39.9288 47.9484 39.2577C48.3701 38.7314 48.5459 38.2728 48.5477 37.5982C48.5482 37.4994 48.5487 37.4006 48.5492 37.2988C48.5493 37.1904 48.5493 37.082 48.5494 36.9703C48.5498 36.855 48.5503 36.7397 48.5507 36.6209C48.5518 36.3008 48.5524 35.9807 48.5529 35.6606C48.5534 35.3153 48.5546 34.9701 48.5556 34.6248C48.558 33.791 48.5594 32.9572 48.5607 32.1234C48.5611 31.8878 48.5615 31.6523 48.5619 31.4167C48.5643 29.9534 48.5665 28.4901 48.5677 27.0269C48.568 26.688 48.5683 26.3492 48.5686 26.0103C48.5687 25.884 48.5687 25.884 48.5688 25.7551C48.57 24.3911 48.5733 23.0271 48.5773 21.6632C48.5815 20.2623 48.5838 18.8615 48.5843 17.4607C48.5846 16.6743 48.5858 15.888 48.589 15.1017C48.5917 14.4319 48.5928 13.7622 48.5917 13.0925C48.5912 12.751 48.5915 12.4095 48.5939 12.068C48.5961 11.6971 48.5953 11.3264 48.5937 10.9555C48.5951 10.8484 48.5965 10.7414 48.5978 10.631C48.5906 9.92395 48.4518 9.37656 48.0461 8.789C47.4035 8.16105 46.7176 7.97719 45.8255 7.98289C45.7521 7.98258 45.6787 7.98227 45.603 7.98195C45.3574 7.98114 45.1119 7.98171 44.8663 7.98229C44.6883 7.98199 44.5103 7.98161 44.3323 7.98115C43.8434 7.98015 43.3545 7.98036 42.8656 7.98078C42.3382 7.98102 41.8108 7.98014 41.2835 7.97941C40.2504 7.97816 39.2173 7.97799 38.1843 7.97822C37.3446 7.97839 36.505 7.97822 35.6654 7.97781C35.546 7.97775 35.4265 7.97769 35.3034 7.97763C35.0608 7.97751 34.8181 7.97739 34.5755 7.97727C32.2993 7.97621 30.0231 7.97642 27.747 7.97702C25.6643 7.97752 23.5816 7.97643 21.499 7.97457C19.3608 7.97268 17.2227 7.97187 15.0846 7.97224C13.8841 7.97242 12.6836 7.97218 11.483 7.9708C10.461 7.96964 9.43899 7.9695 8.41697 7.97068C7.89551 7.97126 7.37405 7.97136 6.85259 7.97019C6.37514 7.96914 5.89771 7.96943 5.42026 7.9708C5.24763 7.97106 5.07499 7.97083 4.90236 7.97005C3.38716 7.93417 3.38716 7.93417 2.08284 8.63117ZM13.1828 41.3085C13.707 42.357 14.5999 43.137 15.4289 43.9452C15.5589 43.6852 15.5135 43.5338 15.4754 43.2464C15.4623 43.1466 15.4493 43.0467 15.4358 42.9439C15.4142 42.787 15.4142 42.787 15.3923 42.6269C15.3787 42.5223 15.3651 42.4177 15.3511 42.3099C15.299 41.7934 15.299 41.7934 15.1359 41.3085C14.4914 41.3085 13.8469 41.3085 13.1828 41.3085ZM16.6008 41.3085C16.677 41.9588 16.7617 42.6071 16.8542 43.2552C16.8897 43.5237 16.9153 43.791 16.9384 44.0608C17.024 44.8528 17.024 44.8528 17.4741 45.4817C17.9635 45.8192 18.4909 46.0696 19.0422 46.289C19.1519 45.9599 19.1263 45.8146 19.0674 45.4772C19.0499 45.373 19.0324 45.2688 19.0145 45.1614C18.9954 45.0501 18.9764 44.9388 18.9567 44.8242C18.7989 43.8623 18.6979 42.9204 18.6687 41.9467C18.6672 41.6047 18.6672 41.6047 18.5539 41.3085C17.9094 41.3085 17.2648 41.3085 16.6008 41.3085ZM31.4445 41.3085C31.3466 41.6023 31.3326 41.851 31.3234 42.1582C31.2925 43.1743 31.1554 44.16 30.984 45.1614C30.9665 45.2656 30.9491 45.3698 30.9311 45.4772C30.9148 45.5703 30.8986 45.6633 30.8818 45.7591C30.841 46.0096 30.841 46.0096 30.9562 46.289C31.1795 46.1754 31.4007 46.0592 31.6215 45.9411C31.6843 45.9096 31.747 45.878 31.8117 45.8455C32.1981 45.6353 32.4117 45.4556 32.5628 45.0222C32.668 44.6337 32.7501 44.2431 32.8239 43.8476C32.8404 43.7632 32.8569 43.6789 32.8739 43.592C33.0576 42.6556 33.0576 42.6556 33.1108 41.7053C33.1088 41.5743 33.1068 41.4434 33.1047 41.3085C32.5568 41.3085 32.009 41.3085 31.4445 41.3085ZM34.5695 41.3085C34.5204 41.691 34.4716 42.0735 34.423 42.456C34.4091 42.5645 34.3951 42.673 34.3807 42.7848C34.3675 42.8893 34.3543 42.9938 34.3406 43.1014C34.3284 43.1976 34.3161 43.2937 34.3034 43.3928C34.2698 43.6736 34.2698 43.6736 34.2766 44.0429C34.5693 43.9114 34.7748 43.765 35.0017 43.539C35.0632 43.4779 35.1246 43.4169 35.1879 43.354C35.2517 43.2893 35.3155 43.2246 35.3813 43.1579C35.4466 43.0921 35.5118 43.0263 35.5791 42.9585C36.3984 42.2322 36.3984 42.2322 36.8156 41.3085C36.0744 41.3085 35.3332 41.3085 34.5695 41.3085Z" fill="#106FAE"/>
</g>
<defs>
<clipPath id="clip0_16_681">
<rect width="50" height="50" fill="white"/>
</clipPath>
</defs>
</svg>
