<svg width="50" height="51" viewBox="0 0 50 51" fill="none" xmlns="http://www.w3.org/2000/svg">
<g clip-path="url(#clip0_16_712)">
<path d="M19.3367 0.298082C19.4514 0.327714 19.4514 0.327714 19.5683 0.357945C21.2748 0.809675 22.811 1.48797 24.2825 2.47548C24.6686 2.73731 24.6686 2.73731 25.0984 2.88331C25.3298 2.76566 25.5091 2.65206 25.7149 2.49801C28.9191 0.25891 33.061 -0.549061 36.8783 0.152503C37.3504 0.252756 37.8169 0.367322 38.282 0.496946C38.3544 0.516589 38.4267 0.536231 38.5012 0.556469C39.9151 0.952345 41.2481 1.64187 42.3836 2.58501C42.4689 2.65564 42.5543 2.72626 42.6422 2.79903C44.0111 3.98978 44.899 5.70552 45.0425 7.54205C45.0721 8.19606 45.0717 8.84968 45.0659 9.50424C45.0631 9.84674 45.0639 10.1891 45.0651 10.5316C45.0635 12.4438 44.8982 14.3149 44.4283 16.1699C44.4033 16.274 44.3783 16.378 44.3526 16.4853C44.2418 16.9386 44.1192 17.3651 43.9461 17.7981C44.0147 17.7972 44.0834 17.7963 44.1541 17.7954C44.8021 17.7874 45.4501 17.7814 46.0981 17.7775C46.4312 17.7754 46.7643 17.7726 47.0974 17.7681C47.4807 17.7629 47.8639 17.761 48.2472 17.7592C48.3664 17.7572 48.4856 17.7551 48.6085 17.753C48.7199 17.753 48.8313 17.753 48.9461 17.7529C49.0439 17.752 49.1417 17.7512 49.2425 17.7503C49.5929 17.8123 49.7547 17.9375 50.0008 18.1958C50.0615 18.4033 50.0615 18.4033 50.0609 18.6271C50.0618 18.7114 50.0627 18.7957 50.0636 18.8825C50.062 18.9728 50.0604 19.063 50.0588 19.1559C50.0588 19.2493 50.0588 19.3427 50.0588 19.439C50.0583 19.6362 50.0565 19.8335 50.0537 20.0307C50.0496 20.3325 50.0497 20.6341 50.0504 20.936C50.0494 21.1278 50.0481 21.3195 50.0466 21.5112C50.0465 21.6015 50.0465 21.6917 50.0465 21.7846C50.0351 22.4053 50.0351 22.4053 49.8698 22.724C49.5153 23.0416 49.0904 22.982 48.6465 22.9798C48.5683 22.9798 48.4902 22.9799 48.4097 22.9799C48.1513 22.9798 47.8929 22.979 47.6345 22.9782C47.4554 22.9781 47.2763 22.9779 47.0972 22.9778C46.6257 22.9774 46.1541 22.9765 45.6826 22.9754C45.2015 22.9743 44.7204 22.9739 44.2393 22.9734C43.2952 22.9723 42.3511 22.9706 41.407 22.9685C41.3776 23.046 41.3481 23.1235 41.3177 23.2033C41.2118 23.4654 41.0841 23.6772 40.931 23.9131C40.1353 25.2344 39.9322 26.829 40.2777 28.3239C40.366 28.6846 40.4565 29.0448 40.5468 29.405C40.7024 30.0451 40.8412 30.6891 40.9798 31.3332C40.9946 31.402 41.0094 31.4708 41.0247 31.5417C41.2563 32.6214 41.4736 33.7027 41.6023 34.8009C41.6114 34.8746 41.6205 34.9483 41.6298 35.0242C41.7316 35.976 41.7238 36.9332 41.7244 37.8895C41.7245 37.9823 41.7245 38.075 41.7246 38.1706C41.72 42.3155 41.0957 47.2673 38.1729 50.43C37.7392 50.856 37.376 50.9314 36.7867 50.9648C36.237 50.9501 35.8898 50.8366 35.4405 50.5205C34.9024 49.9175 34.7233 49.1 34.504 48.3361C32.0615 39.9113 32.0615 39.9113 26.4355 33.5736C25.7307 33.2154 24.9788 33.1105 24.2134 33.3157C21.3818 34.3314 19.7452 37.6913 18.5075 40.2539C17.266 42.9002 16.3115 45.66 15.4431 48.4518C15.1674 49.3376 15.1674 49.3376 15.0715 49.6384C15.0503 49.7053 15.0291 49.7722 15.0073 49.8412C14.8356 50.2969 14.5087 50.6104 14.0877 50.8359C13.5395 51.0181 12.9332 51.0062 12.3806 50.8456C10.6257 49.9135 9.75992 47.1866 9.20755 45.4123C8.79217 44.0266 8.57832 42.5994 8.39922 41.1646C8.38887 41.0826 8.37851 41.0005 8.36784 40.9161C8.10591 38.4797 8.14994 35.8148 8.59453 33.4089C8.61497 33.2966 8.63541 33.1842 8.65647 33.0685C8.9299 31.5953 9.26215 30.1418 9.6493 28.6956C10.1009 26.9776 9.83554 25.3657 9.03055 23.809C8.8926 23.5633 8.8926 23.5633 8.72309 23.3461C8.59453 23.1674 8.59453 23.1674 8.59453 22.9685C8.49529 22.9692 8.39606 22.9699 8.29381 22.9705C7.3584 22.9766 6.42299 22.9811 5.48756 22.984C5.00666 22.9855 4.52576 22.9877 4.04486 22.991C3.58073 22.9943 3.11661 22.9961 2.65247 22.9968C2.47543 22.9974 2.29839 22.9985 2.12136 23.0001C1.8733 23.0022 1.62531 23.0025 1.37724 23.0024C1.30412 23.0035 1.231 23.0045 1.15566 23.0057C0.721253 23.003 0.443434 22.9442 0.0984377 22.6702C-0.0124638 22.4444 -0.0138116 22.3136 -0.0180536 22.0626C-0.0196223 21.9783 -0.0211909 21.894 -0.0228071 21.8072C-0.0271459 21.4219 -0.0311571 21.0367 -0.0334078 20.6515C-0.0350263 20.4482 -0.0376931 20.2449 -0.0414187 20.0416C-0.04676 19.7487 -0.0489021 19.4559 -0.0503355 19.1629C-0.0525493 19.0721 -0.0547631 18.9812 -0.057044 18.8876C-0.0567657 18.8027 -0.0564874 18.7178 -0.0562006 18.6303C-0.0569904 18.5558 -0.0577801 18.4813 -0.0585938 18.4046C0.0339887 18.079 0.2118 17.9734 0.489063 17.7981C0.759103 17.7503 0.759103 17.7503 1.05547 17.7529C1.16688 17.753 1.27829 17.753 1.39307 17.753C1.51231 17.7551 1.63155 17.7571 1.7544 17.7592C1.87726 17.7598 2.00012 17.7604 2.1267 17.7609C2.45217 17.7628 2.77753 17.7664 3.10297 17.7708C3.43551 17.7749 3.76807 17.7767 4.10063 17.7787C4.75227 17.783 5.40386 17.7897 6.05547 17.7981C6.0227 17.6947 5.98993 17.5913 5.95617 17.4848C5.72081 16.7353 5.49672 15.9935 5.35357 15.2191C5.33877 15.1456 5.32398 15.0721 5.30874 14.9963C5.00493 13.4128 4.94484 11.8468 4.94506 10.2365C4.94463 9.88727 4.94106 9.53812 4.93738 9.18888C4.9252 6.7312 5.39553 4.76522 7.148 2.96177C10.1941 0.0707251 15.3828 -0.758455 19.3367 0.298082ZM7.98418 4.69794C6.78682 6.13381 6.69024 7.76843 6.70087 9.56558C6.70242 9.87669 6.70089 10.1877 6.69901 10.4988C6.69717 12.2298 6.8475 13.9418 7.27007 15.623C7.28876 15.7027 7.30746 15.7825 7.32672 15.8646C7.48658 16.5262 7.69764 17.1466 7.91094 17.7981C9.97344 17.7981 12.0359 17.7981 14.1609 17.7981C14.1815 16.2736 14.1815 16.2736 14.1988 14.749C14.202 14.5581 14.2052 14.3671 14.2086 14.1762C14.2095 14.0271 14.2095 14.0271 14.2105 13.8751C14.2124 13.7802 14.2144 13.6854 14.2164 13.5876C14.2175 13.5053 14.2185 13.4229 14.2197 13.3381C14.2711 13.0561 14.3185 12.9911 14.5516 12.8265C14.8341 12.7972 15.0956 12.7863 15.3782 12.7886C15.4636 12.7881 15.549 12.7877 15.6369 12.7872C15.9242 12.786 16.2114 12.787 16.4986 12.7879C16.704 12.7875 16.9095 12.787 17.115 12.7863C17.6739 12.7849 18.2327 12.7855 18.7916 12.7864C19.3756 12.7872 19.9597 12.7865 20.5437 12.786C21.5246 12.7855 22.5055 12.7862 23.4863 12.7876C24.6215 12.7892 25.7566 12.7887 26.8917 12.7871C27.8652 12.7857 28.8386 12.7855 29.812 12.7863C30.3939 12.7868 30.9758 12.7868 31.5577 12.7858C32.1047 12.785 32.6516 12.7856 33.1986 12.7873C33.3997 12.7877 33.6009 12.7876 33.802 12.7869C34.0758 12.7861 34.3496 12.7871 34.6234 12.7886C34.7036 12.7879 34.7839 12.7873 34.8666 12.7866C35.4016 12.7923 35.4016 12.7923 35.6457 12.9647C35.7768 13.1805 35.7819 13.3343 35.7852 13.5876C35.7871 13.6825 35.7891 13.7773 35.7911 13.8751C35.792 14.0241 35.792 14.0241 35.7929 14.1762C35.7946 14.2678 35.7962 14.3593 35.7979 14.4537C35.8035 14.7958 35.8067 15.1379 35.8101 15.4801C35.8202 16.245 35.8303 17.01 35.8406 17.7981C37.9031 17.7981 39.9656 17.7981 42.0906 17.7981C42.5942 16.1889 42.5942 16.1889 42.9512 14.5603C42.9711 14.4539 42.9909 14.3474 43.0113 14.2378C43.1931 13.2377 43.278 12.2573 43.2858 11.2406C43.2866 11.1396 43.2873 11.0386 43.2882 10.9346C43.2895 10.7221 43.2906 10.5096 43.2913 10.2971C43.2925 10.0826 43.2944 9.86812 43.2973 9.65363C43.3255 7.55554 43.1295 5.91022 41.6603 4.31963C39.3409 2.09317 35.9876 1.69265 32.9451 1.77529C30.3563 1.88825 27.3445 3.10135 25.4891 4.97138C25.3901 5.08412 25.2925 5.19817 25.1961 5.31317C23.3736 7.48016 20.7448 9.90495 17.8257 10.1632C17.4974 10.1768 17.2508 10.1673 16.9441 10.0424C16.7562 9.78726 16.7131 9.57045 16.6599 9.26015C16.7263 8.90862 16.9193 8.76879 17.1883 8.55092C17.5015 8.46509 17.5015 8.46509 17.8536 8.42042C20.2238 8.02669 22.1211 6.05234 23.7313 4.37479C22.4651 3.31383 21.0163 2.68605 19.4588 2.20593C19.3657 2.17686 19.3657 2.17686 19.2706 2.14721C15.5854 1.0717 10.7106 1.78503 7.98418 4.69794ZM15.9188 14.5168C15.9188 16.1575 15.9188 17.7981 15.9188 19.4884C16.6922 19.4884 17.4656 19.4884 18.2625 19.4884C18.2684 19.2921 18.2743 19.0957 18.2804 18.8934C18.2887 18.636 18.2969 18.3786 18.3052 18.1212C18.3091 17.9918 18.3129 17.8623 18.3169 17.7289C18.321 17.6046 18.325 17.4803 18.3293 17.3522C18.3328 17.2376 18.3364 17.1231 18.3401 17.0051C18.3723 16.5225 18.3723 16.5225 18.4578 16.3066C18.7258 16.2157 18.8885 16.1937 19.1649 16.1912C19.248 16.1902 19.3311 16.1892 19.4167 16.1883C19.5061 16.1878 19.5955 16.1874 19.6877 16.187C19.7798 16.1864 19.8719 16.1858 19.9668 16.1853C20.1615 16.1843 20.3562 16.1837 20.5509 16.1833C20.8492 16.1823 21.1475 16.1792 21.4459 16.1761C21.6349 16.1755 21.824 16.1749 22.0131 16.1745C22.1025 16.1733 22.192 16.1721 22.2841 16.1708C22.4087 16.1713 22.4087 16.1713 22.5359 16.1717C22.609 16.1714 22.682 16.171 22.7573 16.1706C23.0062 16.2178 23.0918 16.3017 23.243 16.5055C23.2852 16.8132 23.2852 16.8132 23.2929 17.1871C23.2962 17.3075 23.2994 17.4279 23.3027 17.5519C23.3052 17.7049 23.3076 17.8579 23.3101 18.0156C23.3202 18.5016 23.3303 18.9877 23.3406 19.4884C24.4363 19.4884 25.532 19.4884 26.6609 19.4884C26.6814 18.5202 26.6814 18.5202 26.6988 17.5519C26.7037 17.3713 26.7037 17.3713 26.7086 17.1871C26.7112 17.0637 26.7137 16.9403 26.7164 16.8132C26.7628 16.4752 26.7936 16.408 27.0516 16.2072C27.2442 16.1706 27.2442 16.1706 27.4657 16.1717C27.5488 16.1714 27.6319 16.1711 27.7175 16.1708C27.8516 16.1727 27.8516 16.1727 27.9885 16.1745C28.0806 16.1747 28.1726 16.1749 28.2675 16.1751C28.4623 16.1758 28.657 16.1772 28.8517 16.1792C29.15 16.1823 29.4483 16.1833 29.7466 16.1839C29.9357 16.1848 30.1248 16.1858 30.3139 16.187C30.448 16.1876 30.448 16.1876 30.5849 16.1883C30.668 16.1892 30.7511 16.1902 30.8367 16.1912C30.9098 16.1918 30.9828 16.1925 31.0581 16.1932C31.2508 16.2072 31.2508 16.2072 31.5438 16.3066C31.6753 16.6386 31.6613 16.9984 31.6723 17.3522C31.6784 17.5387 31.6784 17.5387 31.6847 17.7289C31.6885 17.8584 31.6924 17.9879 31.6963 18.1212C31.7006 18.2522 31.7048 18.3832 31.7091 18.5182C31.7195 18.8416 31.7293 19.165 31.7391 19.4884C32.5125 19.4884 33.2859 19.4884 34.0828 19.4884C34.0828 17.8478 34.0828 16.2072 34.0828 14.5168C28.0887 14.5168 22.0945 14.5168 15.9188 14.5168ZM20.0203 17.8975C20.0203 19.5381 20.0203 21.1788 20.0203 22.8691C20.5359 22.8691 21.0516 22.8691 21.5828 22.8691C21.5828 21.2285 21.5828 19.5879 21.5828 17.8975C21.0672 17.8975 20.5516 17.8975 20.0203 17.8975ZM28.4188 17.8975C28.4188 19.5381 28.4188 21.1788 28.4188 22.8691C28.9344 22.8691 29.45 22.8691 29.9813 22.8691C29.9813 21.2285 29.9813 19.5879 29.9813 17.8975C29.4656 17.8975 28.95 17.8975 28.4188 17.8975ZM1.75859 19.5879C1.75859 20.1129 1.75859 20.6379 1.75859 21.1788C5.85137 21.1788 9.94414 21.1788 14.1609 21.1788C14.1609 20.6538 14.1609 20.1288 14.1609 19.5879C10.0682 19.5879 5.97539 19.5879 1.75859 19.5879ZM35.8406 19.5879C35.8406 20.1129 35.8406 20.6379 35.8406 21.1788C39.9334 21.1788 44.0262 21.1788 48.243 21.1788C48.243 20.6538 48.243 20.1288 48.243 19.5879C44.1502 19.5879 40.0574 19.5879 35.8406 19.5879ZM15.9188 21.2782C15.9188 22.9188 15.9188 24.5594 15.9188 26.2498C21.9129 26.2498 27.907 26.2498 34.0828 26.2498C34.0828 24.6092 34.0828 22.9685 34.0828 21.2782C33.3094 21.2782 32.5359 21.2782 31.7391 21.2782C31.7354 21.4662 31.7318 21.6543 31.728 21.848C31.7216 22.0951 31.7151 22.3423 31.7085 22.5895C31.7052 22.7753 31.7052 22.7753 31.7019 22.9648C31.6984 23.0844 31.6949 23.2039 31.6914 23.327C31.6888 23.4369 31.6863 23.5468 31.6836 23.66C31.6367 23.9963 31.5452 24.188 31.3484 24.46C31.0214 24.6265 30.653 24.5757 30.2933 24.5761C30.165 24.5766 30.165 24.5766 30.0342 24.5772C29.8531 24.5777 29.672 24.5779 29.4909 24.5779C29.214 24.5781 28.9371 24.5799 28.6602 24.5818C28.4844 24.5821 28.3085 24.5823 28.1327 24.5824C28.0498 24.5831 27.967 24.5838 27.8817 24.5845C27.8041 24.5842 27.7266 24.5839 27.6467 24.5836C27.5788 24.5837 27.5108 24.5839 27.4408 24.584C27.2095 24.5547 27.0543 24.4845 26.8563 24.3606C26.7173 24.0777 26.7371 23.8274 26.7277 23.5115C26.724 23.3949 26.7203 23.2783 26.7164 23.1582C26.7101 22.9351 26.7101 22.9351 26.7037 22.7075C26.6825 22 26.6825 22 26.6609 21.2782C25.5652 21.2782 24.4695 21.2782 23.3406 21.2782C23.3163 22.2137 23.3163 22.2137 23.2939 23.1493C23.2905 23.2656 23.287 23.382 23.2834 23.5018C23.2788 23.6807 23.2788 23.6807 23.2741 23.8632C23.243 24.1617 23.243 24.1617 23.0477 24.46C22.6608 24.5913 22.2887 24.5776 21.8853 24.5796C21.7573 24.5805 21.7573 24.5805 21.6266 24.5814C21.4461 24.5823 21.2656 24.583 21.0851 24.5833C20.8091 24.5843 20.5331 24.5874 20.257 24.5905C20.0816 24.5912 19.9062 24.5917 19.7308 24.5921C19.607 24.5939 19.607 24.5939 19.4808 24.5958C19.1379 24.5945 18.9103 24.593 18.6041 24.4269C18.3207 24.1058 18.3426 23.7585 18.3293 23.3465C18.3252 23.2263 18.3211 23.1061 18.3169 22.9823C18.313 22.8568 18.3092 22.7312 18.3052 22.6019C18.301 22.4752 18.2968 22.3485 18.2924 22.2179C18.2821 21.9047 18.2722 21.5915 18.2625 21.2782C17.4891 21.2782 16.7156 21.2782 15.9188 21.2782ZM10.6453 22.9685C10.8387 23.4279 11.032 23.8873 11.2313 24.3606C11.8127 26.2998 11.6651 28.008 11.1744 29.9431C10.5177 32.5407 10.0369 35.0954 10.035 37.7839C10.0349 37.8675 10.0348 37.951 10.0348 38.0371C10.0393 41.6605 10.5239 45.6246 12.6961 48.6219C12.8018 48.7727 12.8018 48.7727 12.9097 48.9265C12.9681 48.99 13.0265 49.0536 13.0867 49.1191C13.1834 49.1191 13.2801 49.1191 13.3797 49.1191C13.4208 48.9828 13.4208 48.9828 13.4628 48.8438C14.9378 43.9687 16.5288 38.7295 19.7273 34.7015C19.7723 34.6446 19.8172 34.5877 19.8635 34.529C21.0285 33.0644 22.3688 31.8909 24.2134 31.4513C25.7301 31.2937 27.0886 31.716 28.3028 32.6631C28.4398 32.7783 28.5761 32.8943 28.7117 33.0112C28.7695 33.0568 28.8273 33.1024 28.8868 33.1494C29.4333 33.5926 29.8483 34.1416 30.2742 34.7015C30.3155 34.7549 30.3568 34.8084 30.3994 34.8634C32.8482 38.0469 34.3036 41.9711 35.5843 45.7571C35.6205 45.8641 35.6205 45.8641 35.6575 45.9733C36.0084 47.0136 36.3244 48.0617 36.6219 49.1191C36.9984 49.0498 37.1328 48.9076 37.3594 48.5919C37.4203 48.5022 37.4203 48.5022 37.4825 48.4107C37.5252 48.3485 37.5679 48.2863 37.6119 48.2223C40.4108 44.0251 40.4123 37.8055 39.5199 33.0014C39.26 31.6522 38.9495 30.3202 38.5945 28.9939C38.0562 26.9351 38.4315 24.8517 39.3563 22.9685C38.1961 22.9685 37.0359 22.9685 35.8406 22.9685C35.8381 23.2941 35.8356 23.6197 35.833 23.9551C35.8292 24.2704 35.8248 24.5856 35.8204 24.9009C35.8176 25.12 35.8155 25.3391 35.8142 25.5582C35.8121 25.8732 35.8075 26.1881 35.8025 26.503C35.8024 26.601 35.8022 26.699 35.8021 26.8C35.8002 26.8915 35.7983 26.9831 35.7963 27.0774C35.7954 27.1578 35.7945 27.2381 35.7937 27.3209C35.7206 27.6402 35.6094 27.7419 35.3523 27.9401C35.0634 27.9792 34.8109 27.9939 34.522 27.9906C34.3951 27.9916 34.3951 27.9916 34.2657 27.9925C33.9817 27.9941 33.6977 27.9928 33.4137 27.9916C33.2103 27.9921 33.0069 27.9928 32.8035 27.9937C32.2507 27.9955 31.6979 27.9948 31.145 27.9936C30.5671 27.9925 29.9891 27.9935 29.4111 27.9941C28.4404 27.9948 27.4697 27.9939 26.499 27.992C25.376 27.9898 24.253 27.9905 23.1301 27.9927C22.1667 27.9945 21.2033 27.9948 20.2399 27.9937C19.6642 27.9931 19.0885 27.993 18.5127 27.9943C17.9715 27.9955 17.4303 27.9947 16.8891 27.9924C16.6902 27.9919 16.4913 27.992 16.2924 27.9929C16.0214 27.994 15.7505 27.9926 15.4795 27.9906C15.3608 27.992 15.3608 27.992 15.2397 27.9933C14.8886 27.9883 14.6892 27.9709 14.4052 27.7519C14.2331 27.5059 14.2085 27.3772 14.2053 27.0774C14.2034 26.9858 14.2014 26.8943 14.1994 26.8C14.1993 26.702 14.1992 26.604 14.1991 26.503C14.1975 26.4021 14.1959 26.3011 14.1942 26.1971C14.1895 25.8749 14.1874 25.5528 14.1854 25.2306C14.1826 25.0121 14.1797 24.7935 14.1766 24.575C14.169 24.0395 14.1651 23.5041 14.1609 22.9685C13.0008 22.9685 11.8406 22.9685 10.6453 22.9685Z" fill="#106FAE"/>
</g>
<defs>
<clipPath id="clip0_16_712">
<rect width="50" height="50.9091" fill="white"/>
</clipPath>
</defs>
</svg>
