<svg width="50" height="50" viewBox="0 0 50 50" fill="none" xmlns="http://www.w3.org/2000/svg">
<g clip-path="url(#clip0_16_636)">
<path d="M49.5127 24.1211C49.7673 24.2827 49.8616 24.3519 50.001 24.6094C50.0774 25.0355 50.074 25.4579 50.0727 25.89C50.0741 26.078 50.0741 26.078 50.0755 26.2698C50.0771 26.5349 50.0768 26.7999 50.0753 27.065C50.0737 27.4029 50.0773 27.7406 50.0824 28.0785C50.0864 28.4029 50.0854 28.7272 50.0849 29.0516C50.0869 29.1721 50.0889 29.2925 50.0909 29.4166C50.0894 29.5304 50.0879 29.6441 50.0863 29.7612C50.0864 29.91 50.0864 29.91 50.0864 30.0617C49.9561 30.5333 49.6547 30.8081 49.3174 31.1523C49.2505 31.2216 49.1837 31.2908 49.1148 31.3622C48.8903 31.5921 48.6635 31.8194 48.4361 32.0463C48.3505 32.132 48.265 32.2177 48.1769 32.3059C47.9447 32.5385 47.7123 32.7709 47.4797 33.0031C47.2357 33.2469 46.9919 33.4909 46.748 33.7349C46.3393 34.1438 45.9304 34.5525 45.5214 34.961C45.0484 35.4335 44.5758 35.9063 44.1034 36.3793C43.6969 36.7862 43.2902 37.1929 42.8834 37.5994C42.6408 37.8419 42.3982 38.0845 42.1558 38.3273C41.8863 38.5971 41.6164 38.8665 41.3464 39.1359C41.266 39.2165 41.1856 39.2971 41.1028 39.3802C41.0295 39.4531 40.9563 39.5261 40.8809 39.6012C40.8171 39.665 40.7534 39.7287 40.6877 39.7943C40.4619 40.0027 40.3366 40.0385 40.0278 40.0879C39.4934 40.0189 39.2361 39.7301 38.8681 39.3555C38.4534 39.5177 38.1695 39.8254 37.8592 40.1329C37.801 40.1902 37.7428 40.2475 37.6828 40.3066C37.5603 40.4277 37.4381 40.549 37.3162 40.6706C37.1288 40.8568 36.9397 41.0411 36.7504 41.2254C36.6316 41.3433 36.5129 41.4613 36.3943 41.5794C36.3374 41.6345 36.2804 41.6895 36.2217 41.7462C36.0462 41.9181 36.0462 41.9181 35.8408 42.1875C35.8872 42.5323 36.05 42.7876 36.2253 43.0847C36.7469 44.0291 36.8891 45.0456 36.6098 46.0998C36.4295 46.6334 36.158 47.0954 35.8408 47.5586C35.7796 47.6488 35.7796 47.6488 35.7172 47.7409C35.0508 48.6121 33.9248 49.2442 32.9111 49.6094C32.805 49.6476 32.6989 49.6859 32.5895 49.7253C30.8647 50.2488 28.8477 50.2103 27.1494 49.6094C27.0449 49.574 26.9404 49.5386 26.8328 49.5022C26.1026 49.2281 25.5038 48.8338 24.9033 48.3398C24.8318 48.2818 24.7603 48.2238 24.6866 48.164C23.8509 47.4135 23.3714 46.337 23.2519 45.2297C23.2181 44.044 23.6318 43.0144 24.3906 42.1081C25.7158 40.7177 27.6281 39.9987 29.5244 39.9296C31.0621 39.9027 32.4865 40.1176 33.8511 40.863C34.1553 41.0507 34.1553 41.0507 34.3775 40.9451C34.5679 40.8225 34.7164 40.6987 34.8756 40.5382C34.9323 40.4815 34.9889 40.4248 35.0473 40.3664C35.1072 40.3055 35.1672 40.2445 35.2289 40.1817C35.2912 40.1191 35.3535 40.0566 35.4177 39.9921C35.6162 39.7925 35.8139 39.5923 36.0117 39.3921C36.1463 39.2565 36.281 39.1209 36.4157 38.9854C36.7454 38.6536 37.0745 38.3211 37.4033 37.9883C37.3633 37.9423 37.3232 37.8964 37.282 37.849C37.2294 37.7882 37.1768 37.7274 37.1225 37.6648C37.0444 37.5747 37.0444 37.5747 36.9646 37.4828C36.7463 37.2187 36.6273 37.0417 36.5671 36.7004C36.7012 35.7916 37.7864 35.0522 38.42 34.4198C38.5314 34.3083 38.6428 34.1967 38.7542 34.0852C39.0546 33.7843 39.3553 33.4838 39.656 33.1834C39.9712 32.8684 40.2862 32.5532 40.6012 32.2381C41.1294 31.7097 41.6578 31.1815 42.1864 30.6534C42.7978 30.0425 43.4089 29.4312 44.0198 28.8198C44.5449 28.2943 45.0701 27.769 45.5956 27.2438C45.9092 26.9303 46.2227 26.6168 46.5361 26.3031C46.8301 26.0088 47.1244 25.7147 47.4189 25.4208C47.527 25.3128 47.6352 25.2046 47.7432 25.0964C47.8902 24.9491 48.0375 24.8022 48.1848 24.6553C48.2673 24.5729 48.3498 24.4904 48.4347 24.4055C48.7833 24.0785 49.0397 24.073 49.5127 24.1211ZM47.9871 27.3925C47.918 27.4616 47.849 27.5308 47.7778 27.602C47.6593 27.7203 47.6593 27.7203 47.5384 27.841C47.4511 27.9287 47.3638 28.0164 47.2738 28.1067C47.1814 28.1991 47.0891 28.2914 46.9967 28.3838C46.7451 28.6354 46.4938 28.8872 46.2425 29.1392C45.9802 29.4021 45.7176 29.6648 45.455 29.9274C44.9575 30.4253 44.4602 30.9234 43.963 31.4216C43.3971 31.9885 42.8309 32.5553 42.2647 33.1219C41.0997 34.288 39.935 35.4544 38.7705 36.6211C39.1554 37.0977 39.5634 37.5057 40.04 37.8906C41.1171 36.8709 42.1869 35.844 43.2487 34.8085C43.742 34.3276 44.2374 33.8493 44.7384 33.3764C45.2228 32.9192 45.7003 32.4557 46.1745 31.9878C46.3555 31.8113 46.5386 31.6369 46.724 31.4648C47.8661 30.4292 47.8661 30.4292 48.3533 29.0176C48.3724 28.421 48.3307 27.8361 48.2431 27.2461C48.1215 27.235 48.1215 27.235 47.9871 27.3925ZM26.2705 42.8711C26.1859 42.9275 26.1013 42.9839 26.0141 43.042C25.4426 43.5835 25.0885 44.1926 25.062 44.9829C25.0706 45.774 25.372 46.2734 25.8982 46.8445C26.6613 47.5534 27.5214 47.8816 28.5166 48.1445C28.5774 48.1617 28.6383 48.1789 28.701 48.1965C30.2448 48.5381 32.0224 48.2164 33.3639 47.4174C34.0889 46.9405 34.6654 46.3526 34.9272 45.4975C35.0701 44.736 34.8561 44.1672 34.4309 43.5444C33.5214 42.4141 32.173 41.9125 30.7734 41.7301C29.1324 41.5631 27.6306 41.9484 26.2705 42.8711Z" fill="#106FAE"/>
<path d="M8.98438 18.9453C9.00395 19.015 9.02353 19.0846 9.04369 19.1564C9.67976 21.4028 10.4036 23.5904 11.6276 25.592C11.6799 25.679 11.7323 25.766 11.7862 25.8557C11.8875 26.0228 11.991 26.1887 12.0973 26.3529C12.9882 27.8237 12.9529 29.9343 13.1767 31.6188C13.2395 32.0914 13.303 32.5639 13.3665 33.0363C13.547 34.3785 13.7269 35.7206 13.9056 37.063C14.0047 37.8074 14.1045 38.5517 14.205 39.296C14.2683 39.765 14.3308 40.2342 14.3927 40.7034C14.4314 40.9952 14.4708 41.2869 14.5105 41.5786C14.5287 41.7132 14.5465 41.8478 14.564 41.9825C14.7465 43.3876 14.7465 43.3876 15.5273 44.5312C16.0662 44.8482 16.5767 44.9094 17.1875 44.8242C17.6563 44.6797 18.0605 44.4343 18.3584 44.0355C18.793 43.2078 18.854 42.1269 19.0012 41.2151C19.0246 41.0724 19.0481 40.9296 19.0716 40.7869C19.1217 40.4819 19.1715 40.1769 19.2212 39.8719C19.2998 39.3886 19.3794 38.9054 19.4591 38.4222C19.6854 37.0492 19.9107 35.6759 20.1349 34.3025C20.2591 33.5421 20.384 32.7818 20.5097 32.0217C20.589 31.5424 20.6673 31.0629 20.7449 30.5834C20.7935 30.2842 20.8431 29.9851 20.8928 29.686C20.9155 29.5484 20.9379 29.4108 20.9599 29.2731C21.2131 27.6889 21.6234 26.4665 22.9492 25.4883C23.9315 24.8989 25.1206 24.815 26.2276 25.0851C27.1699 25.4526 27.8959 26.0892 28.418 26.9531C28.7171 27.6364 28.8887 28.3252 29.0053 29.059C29.0297 29.2043 29.0297 29.2043 29.0546 29.3525C29.1073 29.6685 29.1586 29.9847 29.2099 30.3009C29.2465 30.522 29.2831 30.7431 29.3199 30.9642C29.3963 31.4254 29.4721 31.8867 29.5474 32.3481C29.6439 32.9401 29.7415 33.5319 29.8396 34.1236C29.9332 34.6885 30.0263 35.2535 30.1193 35.8185C30.1371 35.9264 30.1549 36.0343 30.1732 36.1454C30.2233 36.4495 30.273 36.7536 30.3226 37.0577C30.3449 37.1933 30.3449 37.1933 30.3677 37.3316C30.3811 37.4143 30.3945 37.497 30.4084 37.5821C30.426 37.6898 30.426 37.6898 30.4439 37.7997C30.4688 37.9883 30.4688 37.9883 30.4688 38.2812C30.2858 38.3144 30.1026 38.3468 29.9194 38.3789C29.8175 38.397 29.7155 38.4152 29.6104 38.4338C29.3058 38.4754 29.0179 38.4796 28.7109 38.4766C28.4683 37.231 28.2408 35.9844 28.0378 34.7317C27.9806 34.3801 27.9225 34.0286 27.8644 33.6771C27.7572 33.0281 27.6504 32.379 27.5453 31.7296C27.4712 31.2724 27.3959 30.8155 27.3198 30.3586C27.2913 30.1863 27.2632 30.0138 27.2357 29.8413C27.1972 29.6008 27.1572 29.3607 27.1168 29.1205C27.106 29.0508 27.0952 28.981 27.0842 28.9091C26.9555 28.1658 26.6631 27.5391 26.0742 27.0508C25.4523 26.7483 24.7378 26.7536 24.0845 26.9592C22.9745 27.7785 22.8961 29.0132 22.6891 30.295C22.6647 30.4429 22.6403 30.5907 22.6158 30.7386C22.5635 31.0551 22.5116 31.3716 22.46 31.6882C22.3782 32.1896 22.2953 32.6907 22.2122 33.1918C21.9762 34.6162 21.7418 36.0408 21.5083 37.4655C21.3791 38.2539 21.2491 39.042 21.1181 39.8301C21.0355 40.3275 20.9539 40.8251 20.8732 41.3229C20.8226 41.6331 20.771 41.9432 20.7191 42.2532C20.6954 42.3962 20.6721 42.5393 20.6492 42.6825C20.4134 44.1565 19.9795 45.2703 18.75 46.1914C17.7816 46.7313 16.6857 46.8429 15.604 46.6129C14.6437 46.2883 13.9018 45.6958 13.3789 44.8242C13.0869 44.1924 12.9159 43.5917 12.8274 42.9034C12.8149 42.8139 12.8024 42.7245 12.7894 42.6324C12.7483 42.337 12.709 42.0414 12.6698 41.7458C12.6407 41.5341 12.6115 41.3224 12.5822 41.1107C12.5042 40.5446 12.4278 39.9782 12.3517 39.4118C12.2738 38.8329 12.1946 38.2542 12.1156 37.6754C11.9876 36.7359 11.8602 35.7964 11.7334 34.8568C11.7177 34.7402 11.702 34.6237 11.6858 34.5036C11.6046 33.902 11.5236 33.3003 11.4429 32.6986C11.3627 32.1016 11.2821 31.5047 11.2012 30.9078C11.1709 30.6838 11.1408 30.4598 11.1109 30.2357C11.0696 29.9265 11.0277 29.6173 10.9856 29.3081C10.9737 29.2176 10.9618 29.1271 10.9495 29.0339C10.8558 28.3526 10.7334 27.7434 10.3786 27.1439C10.3265 27.0543 10.2743 26.9647 10.2206 26.8724C10.1651 26.7782 10.1096 26.684 10.0525 26.5869C7.22656 21.6736 7.22656 21.6736 7.22656 19.2383C7.44618 19.189 7.66593 19.1402 7.88574 19.0918C8.06928 19.051 8.06928 19.051 8.25653 19.0094C8.59375 18.9453 8.59375 18.9453 8.98438 18.9453Z" fill="#106FAE"/>
<path d="M1.0287 -0.0681349C1.53798 0.0762799 1.86156 0.500311 2.20944 0.879054C2.28825 0.961006 2.36705 1.04296 2.44824 1.12739C2.86523 1.56402 3.26584 2.0135 3.66108 2.46978C3.84792 2.68146 4.04541 2.87976 4.24802 3.07632C4.51809 3.34276 4.77662 3.61198 5.02316 3.90029C5.28866 4.21014 5.56906 4.49853 5.85934 4.7853C6.20739 5.12916 6.53347 5.48178 6.85116 5.85342C7.0652 6.09285 7.29105 6.31742 7.5195 6.54312C7.87596 6.89579 8.21764 7.25395 8.54108 7.63717C8.68732 7.81232 8.68732 7.81232 8.84167 7.96371C9.09855 8.23064 9.21282 8.43083 9.22848 8.79531C9.17962 9.18013 9.09338 9.35093 8.88669 9.66812C8.96554 9.74594 9.04439 9.82377 9.12563 9.90396C9.41841 10.1932 9.71054 10.4831 10.0025 10.7732C10.1289 10.8986 10.2554 11.0238 10.3821 11.1488C10.5644 11.3287 10.746 11.5093 10.9276 11.6899C11.0126 11.7734 11.0126 11.7734 11.0993 11.8586C11.7145 12.4736 11.7145 12.4736 11.7248 13.0128C11.6037 13.4405 11.4241 13.6496 11.1217 13.9658C10.9158 14.1832 10.7327 14.4139 10.5468 14.6486C10.5949 14.6958 10.643 14.743 10.6925 14.7916C11.1475 15.2388 11.6015 15.6869 12.0545 16.136C12.2874 16.3669 12.5206 16.5973 12.7547 16.827C13.0242 17.0917 13.2924 17.3578 13.5605 17.6241C13.6439 17.7055 13.7273 17.7869 13.8133 17.8708C14.3724 18.4297 14.834 18.9477 14.8925 19.7694C14.8648 20.3472 14.5997 20.8086 14.3402 21.3136C14.0859 21.8368 13.9884 22.2695 14.0625 22.8517C14.2278 23.3295 14.4936 23.6834 14.9414 23.9259C15.7658 24.2243 16.5257 23.8382 17.2836 23.5199C17.5871 23.3931 17.8937 23.2752 18.2007 23.1569C18.3021 23.1169 18.4036 23.0768 18.5081 23.0356C18.75 22.9494 18.75 22.9494 18.9453 22.9494C19.0433 23.1893 19.1409 23.4294 19.2383 23.6696C19.2662 23.7378 19.2941 23.806 19.3229 23.8763C19.5312 24.3921 19.5312 24.3921 19.5312 24.6095C19.1703 24.7596 18.8091 24.909 18.4476 25.0578C18.325 25.1083 18.2024 25.1591 18.08 25.2101C16.8338 25.7284 15.7319 26.1364 14.3989 25.6872C13.4799 25.2981 12.7485 24.6444 12.3596 23.7184C11.8918 22.2541 12.3947 21.0622 12.9883 19.7267C11.7636 18.5021 10.539 17.2775 9.27731 16.0158C8.85202 16.2284 8.62797 16.4656 8.31029 16.8092C8.00187 17.0849 7.76511 17.1913 7.34915 17.181C6.90809 17.0547 6.68788 16.8082 6.37585 16.4823C6.31599 16.4218 6.25613 16.3612 6.19445 16.2988C6.00426 16.1059 5.81583 15.9113 5.62741 15.7167C5.49846 15.5853 5.3694 15.454 5.24022 15.3228C4.92445 15.0017 4.61025 14.6791 4.29684 14.3556C3.97948 14.4619 3.97948 14.4619 3.71091 14.6486C3.06418 14.712 2.76561 14.5215 2.27288 14.121C2.09122 13.9672 1.912 13.811 1.73337 13.6537C1.67433 13.6023 1.61529 13.5509 1.55446 13.4979C1.43348 13.3922 1.31341 13.2854 1.19432 13.1776C0.97609 12.9834 0.97609 12.9834 0.72843 12.8031C0.0549405 12.2725 0.0549405 12.2725 -0.0896822 11.8437C-0.122569 11.5386 -0.125495 11.2469 -0.117095 10.9402C-0.117865 10.8264 -0.118635 10.7126 -0.119428 10.5953C-0.120733 10.2214 -0.115058 9.84787 -0.109132 9.47395C-0.108301 9.2134 -0.107817 8.95286 -0.107752 8.69231C-0.10685 8.14744 -0.10225 7.60271 -0.0951603 7.05789C-0.0869905 6.42841 -0.0835741 5.79905 -0.0829299 5.16952C-0.0822944 4.56262 -0.079409 3.95575 -0.0751186 3.34887C-0.0733829 3.09107 -0.0720689 2.83327 -0.0711809 2.57547C-0.0694184 2.2159 -0.0650494 1.85646 -0.0598743 1.49692C-0.0597445 1.39012 -0.0596147 1.28333 -0.0594809 1.1733C-0.0575327 1.07543 -0.0555844 0.977558 -0.0535771 0.876722C-0.0526688 0.791806 -0.0517605 0.706889 -0.0508247 0.6194C0.0756523 0.0501132 0.504795 -0.0930111 1.0287 -0.0681349ZM1.75778 3.12515C1.72598 4.17437 1.70175 5.22348 1.68694 6.2731C1.67983 6.76061 1.67021 7.24779 1.65464 7.73511C1.63969 8.20625 1.63159 8.67706 1.62807 9.14841C1.62556 9.32738 1.62066 9.50635 1.61323 9.68519C1.55729 10.7789 1.55729 10.7789 2.06095 11.7071C2.65925 12.2828 2.65925 12.2828 3.41794 12.5001C3.60021 12.3607 3.60021 12.3607 3.78288 12.1685C3.8552 12.0961 3.92752 12.0238 4.00203 11.9492C4.07956 11.8702 4.15708 11.7912 4.23695 11.7097C4.31674 11.6295 4.39653 11.5493 4.47873 11.4667C4.73414 11.2097 4.98852 10.9516 5.24289 10.6935C5.41556 10.5194 5.58831 10.3453 5.76112 10.1713C6.18526 9.7439 6.60855 9.3157 7.03122 8.88687C6.89591 8.52933 6.77537 8.30296 6.49907 8.03657C6.43229 7.97117 6.3655 7.90578 6.2967 7.8384C6.2269 7.77149 6.15709 7.70458 6.08517 7.63565C5.61741 7.18263 5.1685 6.72522 4.744 6.23119C4.54044 5.99836 4.32305 5.78225 4.10153 5.56655C3.81327 5.28176 3.53475 4.99565 3.27145 4.68765C2.85907 4.20538 2.40519 3.76512 1.95309 3.32046C1.88864 3.25601 1.82419 3.19155 1.75778 3.12515ZM7.22038 11.1169C7.13958 11.1988 7.05877 11.2806 6.97552 11.3649C6.88803 11.453 6.80054 11.5411 6.7104 11.6319C6.61795 11.726 6.52551 11.8201 6.43307 11.9142C6.33991 12.0084 6.24671 12.1024 6.15346 12.1965C5.92477 12.4275 5.69655 12.6589 5.46872 12.8908C5.8826 13.3855 6.3158 13.8478 6.77487 14.3007C6.83744 14.3628 6.9 14.4249 6.96446 14.4889C7.1167 14.64 7.26916 14.7909 7.42184 14.9416C7.76035 14.7964 7.97753 14.6039 8.23514 14.3426C8.31319 14.264 8.39123 14.1853 8.47165 14.1042C8.55221 14.022 8.63278 13.9398 8.71579 13.8551C8.79787 13.7722 8.87994 13.6892 8.96451 13.6037C9.16688 13.3991 9.36878 13.194 9.57028 12.9884C9.15806 12.4972 8.72948 12.0321 8.27634 11.5785C8.21541 11.5164 8.15448 11.4543 8.0917 11.3903C8.00409 11.3024 8.00409 11.3024 7.9147 11.2127C7.86218 11.1598 7.80965 11.1068 7.75553 11.0523C7.51798 10.8555 7.44374 10.9182 7.22038 11.1169Z" fill="#106FAE"/>
<path d="M21.6311 4.17183C24.3056 5.11482 26.6569 4.87438 29.2644 3.86842C31.6171 2.97082 34.5387 3.0254 36.853 4.02825C37.1043 4.1447 37.3513 4.26809 37.5977 4.39446C37.6563 4.42365 37.7149 4.45284 37.7752 4.48292C40.0789 5.64416 41.8889 7.7347 42.7734 10.1562C43.187 11.4599 43.3826 12.6813 43.3838 14.0502C43.3839 14.1197 43.3839 14.1892 43.384 14.2608C43.3774 18.6288 42.1578 23.4087 39.7016 27.0672C39.2907 27.6951 39.1397 28.2338 39.0511 28.9741C39.0367 29.0789 39.0224 29.1837 39.0076 29.2918C38.9628 29.6228 38.921 29.9541 38.8794 30.2856C38.8493 30.5117 38.8191 30.7378 38.7886 30.9638C38.7148 31.5146 38.6435 32.0657 38.5742 32.6171C38.4335 32.6183 38.2928 32.6191 38.1521 32.6198C38.0738 32.6203 37.9954 32.6208 37.9147 32.6213C37.5334 32.614 37.1835 32.515 36.8164 32.4218C36.8712 31.4157 36.9612 30.4185 37.0925 29.4195C37.1119 29.2685 37.1302 29.1173 37.1475 28.9661C37.2732 27.8696 37.5251 27.0303 38.0859 26.0742C38.1505 25.9628 38.215 25.8515 38.2815 25.7368C38.3398 25.6367 38.3981 25.5365 38.4583 25.4333C40.6654 21.6174 42.3963 16.1668 41.3055 11.7381C40.5939 9.38805 39.2619 7.48971 37.1094 6.24993C37.0335 6.20587 36.9576 6.16181 36.8793 6.11642C36.3824 5.84838 35.8698 5.66316 35.3333 5.4931C35.2358 5.4622 35.2358 5.4622 35.1363 5.43068C33.0724 4.80521 31.0431 5.23646 29.0649 5.90814C25.8487 6.99664 23.107 6.71759 19.9478 5.60949C19.8278 5.56768 19.7079 5.52587 19.5843 5.4828C19.4242 5.42592 19.4242 5.42592 19.2609 5.3679C17.2339 4.76067 14.9143 5.19063 13.0707 6.13892C12.1579 6.63318 11.3985 7.30119 10.6445 8.00774C10.602 7.97111 10.5594 7.93448 10.5156 7.89674C10.1381 7.57233 9.75815 7.25126 9.375 6.93353C9.53279 6.08403 10.5565 5.51919 11.2213 5.05021C14.3947 2.89352 18.1276 2.92916 21.6311 4.17183Z" fill="#106FAE"/>
</g>
<defs>
<clipPath id="clip0_16_636">
<rect width="50" height="50" fill="white"/>
</clipPath>
</defs>
</svg>
