<svg width="50" height="50" viewBox="0 0 50 50" fill="none" xmlns="http://www.w3.org/2000/svg">
<g clip-path="url(#clip0_1577_207)">
<path d="M36.4908 3.11645C38.177 4.61968 39.2759 6.24139 39.7466 8.49594C39.8453 8.50198 39.944 8.50802 40.0457 8.51425C42.6887 8.85797 45.2983 10.7194 46.922 12.76C48.6481 15.0082 49.5527 17.5724 49.5488 20.41C49.5488 20.5092 49.5488 20.5092 49.5487 20.6104C49.5364 23.9602 48.2127 26.9751 45.852 29.3471C43.2524 31.8873 39.9639 32.7275 36.4263 32.8123C36.4023 32.9069 36.3784 33.0014 36.3537 33.0988C32.8615 46.8261 32.8615 46.8261 29.0899 49.3162C28.3277 49.74 27.5257 49.8314 26.6767 49.6466C25.7501 49.3533 25.1419 48.8411 24.6813 47.9915C23.7254 46.1059 23.6099 44.1363 23.5814 42.0656C23.5723 40.3426 23.5723 40.3426 22.7544 38.867C22.0242 38.2873 21.3297 38.1921 20.4107 38.2811C19.7469 38.4665 19.3217 38.7987 18.9756 39.3912C18.1899 40.9766 18.023 42.52 18.0244 44.2543C18.0215 45.9325 17.7239 47.5669 16.5258 48.8299C15.8088 49.4699 15.0105 49.6467 14.063 49.6092C12.442 49.381 11.1132 47.9724 10.1574 46.7319C9.6553 46.0594 9.2149 45.3515 8.78957 44.6287C8.75099 44.5639 8.7124 44.4991 8.67265 44.4323C7.39787 42.275 6.41109 39.9524 5.56691 37.5975C5.54184 37.5279 5.51677 37.4582 5.49094 37.3865C3.19008 30.9864 1.61645 24.3284 0.781758 17.578C0.765771 17.4512 0.749784 17.3245 0.733312 17.1939C0.535289 15.5717 0.458373 13.9618 0.446065 12.3289C0.444276 12.2021 0.444276 12.2021 0.44245 12.0728C0.406254 9.04231 1.30969 6.17845 3.44461 3.97447C5.89059 1.57398 9.37807 0.524296 12.7442 0.551472C14.5521 0.595113 16.1994 1.06338 17.9017 1.63978C18.0278 1.68164 18.0278 1.68164 18.1564 1.72435C18.3166 1.77779 18.4763 1.83267 18.6355 1.88919C19.0566 2.03229 19.0566 2.03229 19.4906 1.9915C19.5686 1.94656 19.6467 1.90161 19.7271 1.85531C19.8375 1.79829 19.9479 1.74126 20.0616 1.68251C20.1224 1.65037 20.1833 1.61823 20.2459 1.58511C24.8292 -0.812043 32.4545 -0.205773 36.4908 3.11645ZM21.5825 2.63656C21.5825 2.70101 21.5825 2.76547 21.5825 2.83187C23.499 3.28138 25.4146 3.72012 27.3565 4.04647C27.4255 4.0581 27.4944 4.06972 27.5655 4.08169C28.3721 4.21664 29.1797 4.33716 29.9912 4.43903C30.2548 4.48844 30.4394 4.54393 30.6646 4.68734C30.8033 4.96477 30.7929 5.16144 30.7622 5.46859C30.6157 5.70053 30.6157 5.70053 30.3716 5.85922C29.8555 5.88212 29.3758 5.84153 28.8644 5.76194C28.7963 5.75136 28.7281 5.74077 28.6579 5.72987C28.4335 5.69454 28.2093 5.65803 27.9851 5.62118C27.9068 5.6084 27.8284 5.59562 27.7477 5.58245C24.0829 4.97962 20.4456 4.11795 16.9187 2.95115C14.3349 2.09663 11.848 1.81696 9.1802 2.53891C9.11474 2.55615 9.04928 2.5734 8.98183 2.59117C6.57276 3.24686 4.3713 4.77486 3.12441 6.95327C0.043529 12.5521 2.72139 21.406 4.10207 27.2459C4.12068 27.3247 4.13929 27.4036 4.15847 27.4847C5.6524 33.7817 7.57439 41.7183 12.1099 46.5819C12.2119 46.6955 12.2119 46.6955 12.3159 46.8115C12.9187 47.4553 13.6364 48.0223 14.5486 48.0624C15.0256 48.0247 15.3203 47.7895 15.6377 47.4547C16.476 46.4035 16.5168 45.0733 16.4983 43.7865C16.4745 41.7028 16.8339 39.3125 18.2866 37.7135C19.1713 36.8836 20.3072 36.6586 21.4837 36.6881C22.4582 36.7432 23.3885 37.212 24.043 37.9305C24.8898 39.0163 25.1051 40.1913 25.1188 41.5343C25.1215 41.6893 25.1243 41.8443 25.1272 41.9993C25.1311 42.2385 25.1348 42.4778 25.1374 42.7171C25.1578 44.4574 25.2459 46.4618 26.4901 47.8037C26.8727 48.1298 27.2073 48.1964 27.7002 48.1787C28.4549 48.0661 28.8871 47.4943 29.3194 46.9133C31.9954 43.1897 33.3216 38.5605 34.4976 34.1795C34.5172 34.1072 34.5368 34.0348 34.5571 33.9602C34.6119 33.7569 34.6656 33.5533 34.7188 33.3495C34.7493 33.2336 34.7798 33.1178 34.8112 32.9985C34.8884 32.7097 34.8884 32.7097 34.7661 32.4217C34.5863 32.339 34.5863 32.339 34.3629 32.2924C34.2787 32.2709 34.1945 32.2495 34.1077 32.2274C33.9714 32.1937 33.9714 32.1937 33.8323 32.1593C30.7274 31.332 28.1517 29.1972 26.5453 26.4399C25.0178 23.6934 24.615 20.2578 25.4595 17.2356C26.0646 15.1577 27.0247 13.4927 28.5161 11.9139C28.5831 11.8406 28.6501 11.7674 28.7191 11.6919C31.1376 9.139 34.5184 8.3025 37.9156 8.20728C37.972 8.20586 38.0283 8.20444 38.0864 8.20297C37.2858 5.91537 35.9438 4.32591 33.7835 3.24691C31.4453 2.18606 28.7598 1.83341 26.2151 1.8309C26.1458 1.8308 26.0766 1.8307 26.0052 1.8306C24.4892 1.83205 22.9659 1.94487 21.5825 2.63656ZM30.3716 12.2069C30.2802 12.2822 30.1888 12.3574 30.0947 12.435C28.4893 13.8245 27.4479 15.6528 26.856 17.6756C26.8061 17.8427 26.8061 17.8427 26.7553 18.0132C26.318 19.7848 26.4045 21.7993 26.9536 23.535C26.9746 23.602 26.9955 23.669 27.0171 23.738C27.4646 25.1267 28.1442 26.3371 29.1021 27.4412C29.168 27.5213 29.234 27.6014 29.302 27.6839C31.0829 29.7767 33.7895 30.9899 36.5003 31.2233C37.948 31.3179 39.3506 31.1376 40.7232 30.6639C40.8404 30.6239 40.9576 30.5838 41.0783 30.5426C42.6187 29.9728 43.8699 29.0921 45.02 27.9295C45.098 27.8537 45.1759 27.778 45.2562 27.6999C46.8805 26.0267 47.9562 23.5244 48.0474 21.1912C48.0524 21.0797 48.0575 20.9682 48.0626 20.8533C48.1322 17.9034 47.0647 15.1901 45.0574 13.0331C44.9806 12.9538 44.9038 12.8745 44.8247 12.7928C44.7479 12.7135 44.6711 12.6342 44.592 12.5525C42.5907 10.6123 39.8413 9.65021 37.0796 9.66037C34.5794 9.73118 32.2927 10.6245 30.3716 12.2069Z" fill="#106FAE"/>
<path d="M37.2098 11.2306C37.5203 11.3894 37.6611 11.5307 37.7935 11.8543C37.9042 12.2085 37.9911 12.5182 37.9911 12.8907C38.0878 12.8424 38.0878 12.8424 38.1864 12.7931C39.0673 12.7232 39.8567 12.9187 40.5485 13.4889C40.7113 13.6361 40.7113 13.6361 40.8231 13.7696C40.8231 13.8341 40.8231 13.8985 40.8231 13.9649C40.9292 13.9121 40.9292 13.9121 41.0375 13.8581C41.1319 13.8128 41.2263 13.7675 41.3236 13.7208C41.463 13.6528 41.463 13.6528 41.6051 13.5835C41.9225 13.4674 42.148 13.4446 42.4833 13.4767C42.7153 13.6523 42.8399 13.7919 42.9594 14.0565C42.9774 14.3549 42.9338 14.4877 42.7762 14.7462C42.4426 14.9998 42.0912 15.1964 41.702 15.3504C41.4817 15.5096 41.4817 15.5096 41.4876 15.7584C41.4899 15.8469 41.4922 15.9355 41.4945 16.0268C41.4963 16.1158 41.498 16.2049 41.4998 16.2966C41.5021 16.365 41.5044 16.4335 41.5067 16.504C41.5905 16.5025 41.6742 16.5009 41.7605 16.4994C42.0721 16.4944 42.3836 16.4907 42.6952 16.4879C42.8299 16.4864 42.9646 16.4844 43.0993 16.4819C43.2932 16.4783 43.4872 16.4768 43.6811 16.4754C43.7977 16.4739 43.9143 16.4723 44.0344 16.4707C44.3665 16.507 44.4994 16.5582 44.7294 16.797C44.8146 17.1318 44.8592 17.3724 44.7599 17.7064C44.599 17.9133 44.4864 17.9714 44.2411 18.0665C43.9368 18.0887 43.9368 18.0887 43.5834 18.0856C43.4569 18.085 43.3304 18.0843 43.2001 18.0837C43.0669 18.082 42.9338 18.0804 42.8007 18.0787C42.666 18.0777 42.5313 18.0768 42.3967 18.076C42.0675 18.0737 41.7383 18.0705 41.4091 18.0665C41.4091 18.421 41.4091 18.7755 41.4091 19.1407C41.5032 19.1774 41.5974 19.214 41.6944 19.2517C41.819 19.3021 41.9437 19.3526 42.0682 19.4032C42.1302 19.427 42.1921 19.4509 42.2559 19.4755C42.6773 19.6489 42.9276 19.8253 43.1669 20.2149C43.1669 20.5874 43.1522 20.8033 42.9044 21.0877C42.4032 21.318 42.0153 21.1752 41.5189 20.9962C41.3517 20.932 41.1848 20.8672 41.0184 20.8009C40.953 21.0083 40.888 21.2158 40.8231 21.4234C40.7869 21.539 40.7506 21.6546 40.7133 21.7736C40.6188 22.0502 40.6188 22.0502 40.6278 22.2657C40.6943 22.2962 40.7608 22.3267 40.8293 22.3581C41.1309 22.4972 41.4317 22.6378 41.7325 22.7784C41.8372 22.8264 41.9419 22.8743 42.0497 22.9238C42.2003 22.9946 42.2003 22.9946 42.354 23.0668C42.4465 23.1098 42.5391 23.1527 42.6345 23.197C42.8902 23.3497 43.016 23.4755 43.1669 23.7306C43.207 24.0519 43.1985 24.2476 43.0631 24.5423C42.7915 24.7789 42.5412 24.8283 42.1903 24.8048C41.8229 24.6777 41.4847 24.5023 41.1405 24.3226C40.9581 24.2297 40.7756 24.1372 40.5927 24.0453C40.5127 24.0037 40.4326 23.9622 40.3502 23.9194C40.133 23.8088 40.133 23.8088 39.8466 23.8282C39.6854 24.1505 39.5243 24.4728 39.3583 24.8048C39.4206 24.8533 39.4829 24.9017 39.5471 24.9517C40.2035 25.4913 40.2035 25.4913 40.3654 25.9461C40.3348 26.2696 40.3348 26.2696 40.1945 26.5565C39.917 26.7798 39.7317 26.8334 39.3751 26.814C38.9766 26.7086 38.6841 26.4422 38.3817 26.172C38.0111 26.3466 37.7612 26.5307 37.5028 26.8556C37.4936 27.2511 37.6509 27.5653 37.8019 27.9237C37.9705 28.3345 38.0629 28.6526 37.9911 29.1017C37.8446 29.3397 37.8446 29.3397 37.6005 29.4923C37.3165 29.5426 37.114 29.525 36.8192 29.4923C36.5401 29.2816 36.4373 29.0321 36.3126 28.711C36.279 28.6264 36.2454 28.5419 36.2108 28.4547C36.1356 28.2228 36.1356 28.2228 36.1356 27.9298C36.061 27.9557 36.061 27.9557 35.9849 27.9821C35.6595 28.0436 35.3606 27.9987 35.0309 27.9725C34.7593 27.9606 34.554 27.9804 34.2802 28.0274C34.0368 28.2596 33.9026 28.4859 33.7411 28.7793C33.5966 29.004 33.5966 29.004 33.2365 29.1261C32.7585 29.09 32.7585 29.09 32.5223 28.9064C32.3289 28.6577 32.327 28.5161 32.3331 28.1983C32.4229 27.8391 32.4889 27.7438 32.7115 27.472C32.8981 27.1919 32.9184 27.086 32.866 26.7476C32.726 26.3869 32.6007 26.1544 32.327 25.879C31.9319 25.7648 31.6207 25.7391 31.2097 25.7329C30.7753 25.6714 30.6403 25.5361 30.3739 25.1954C30.3129 24.9024 30.3129 24.9024 30.3739 24.6095C30.5704 24.3424 30.5704 24.3424 30.8622 24.1212C31.1564 24.1246 31.4001 24.1468 31.6862 24.1944C32.2555 24.2748 32.2555 24.2748 32.7543 24.0453C32.9042 23.8141 33.0105 23.5971 33.1083 23.3399C33.1725 23.2093 33.2375 23.079 33.3036 22.9493C33.2519 22.9183 33.2002 22.8873 33.1469 22.8554C32.912 22.7142 32.6775 22.5724 32.443 22.4305C32.3616 22.3817 32.2802 22.333 32.1964 22.2827C32.0788 22.2114 32.0788 22.2114 31.9589 22.1387C31.8868 22.0952 31.8147 22.0518 31.7404 22.007C31.5483 21.8768 31.3981 21.7631 31.2528 21.5821C31.2144 21.2798 31.1919 21.0896 31.2528 20.8009C31.4542 20.5506 31.4542 20.5506 31.7411 20.4103C32.4135 20.4172 32.8771 20.747 33.4318 21.1C33.6061 21.2093 33.7807 21.3183 33.9555 21.4269C34.032 21.4753 34.1084 21.5238 34.1872 21.5738C34.3699 21.6956 34.3699 21.6956 34.5731 21.6798C34.655 21.5377 34.7363 21.3952 34.8173 21.2525C34.8626 21.1732 34.9079 21.0939 34.9546 21.0122C35.0761 20.8113 35.0761 20.8113 35.0614 20.6056C34.9526 20.5492 34.8439 20.4928 34.7318 20.4347C34.518 20.3109 34.3868 20.2262 34.2313 20.0318C34.1601 19.7292 34.1874 19.5352 34.2802 19.2384C34.4877 19.0003 34.4877 19.0003 34.7684 18.8478C35.099 18.8646 35.3507 18.8948 35.6473 19.0431C35.7118 18.5274 35.7762 18.0118 35.8427 17.4806C35.3464 17.368 35.3464 17.368 34.8494 17.2587C34.4304 17.1588 34.1511 17.0649 33.8895 16.6993C33.8203 16.4154 33.8564 16.2167 33.8895 15.9181C34.0097 15.7495 34.0097 15.7495 34.1825 15.6251C34.7553 15.532 35.3014 15.6321 35.8427 15.8204C35.8464 15.7177 35.8464 15.7177 35.8503 15.6129C35.8835 15.058 35.9497 14.6293 36.2298 14.1458C36.4791 13.71 36.4791 13.71 36.4812 13.2215C36.4518 13.1345 36.4223 13.0475 36.392 12.9579C36.2489 12.482 36.1724 12.1166 36.2333 11.6212C36.4967 11.2159 36.7403 11.1539 37.2098 11.2306ZM37.6005 14.7462C37.3414 15.1743 37.2738 15.478 37.2892 15.9753C37.2917 16.0976 37.2942 16.22 37.2968 16.346C37.3003 16.4747 37.3038 16.6034 37.3075 16.7359C37.3476 19.358 36.6642 21.8576 34.8081 23.8004C34.1237 24.4883 34.1237 24.4883 33.8895 25.3907C34.0024 25.8139 34.1209 26.0185 34.4449 26.3124C34.8385 26.498 35.1228 26.5469 35.5497 26.4649C37.3472 25.5853 38.6086 23.1105 39.2569 21.3127C39.905 19.4116 40.3947 17.0027 39.7489 15.0392C39.5367 14.7068 39.3494 14.4722 38.9677 14.3556C38.3764 14.2984 38.063 14.3375 37.6005 14.7462Z" fill="#106FAE"/>
<path d="M11.9577 4.16255C12.0583 4.15872 12.0583 4.15872 12.1609 4.15482C12.4901 4.15368 12.6671 4.17766 12.9346 4.37541C13.157 4.68861 13.1403 4.89887 13.0868 5.27339C12.922 5.52643 12.7821 5.64334 12.4863 5.71451C12.221 5.75169 11.9559 5.77915 11.6891 5.80439C9.75998 6.02948 7.8839 6.68684 6.63846 8.25801C5.92365 9.29993 5.71845 10.3928 5.6511 11.6317C5.61692 12.1292 5.56895 12.4441 5.17667 12.7929C4.90564 12.8829 4.67134 12.8602 4.39542 12.7929C4.15128 12.6159 4.15128 12.6159 4.00479 12.3046C3.7598 10.4923 4.40768 8.47614 5.491 7.03616C7.08198 5.18431 9.5465 4.21583 11.9577 4.16255Z" fill="#106FAE"/>
</g>
<defs>
<clipPath id="clip0_1577_207">
<rect width="50" height="50" fill="white"/>
</clipPath>
</defs>
</svg>
