<svg width="45" height="40" viewBox="0 0 45 40" fill="none" xmlns="http://www.w3.org/2000/svg">
<path d="M43.8882 0.664306C44.191 0.909126 44.4418 1.1273 44.5001 1.5249C44.4971 1.93869 44.4342 2.1605 44.1579 2.47781C43.8796 2.72951 43.5945 2.96819 43.3022 3.20337C43.1735 3.31455 43.0452 3.42637 42.9177 3.53906C42.8593 3.59008 42.8008 3.64111 42.7406 3.69368C41.8242 4.50035 40.9499 5.34478 40.0883 6.20928C39.9014 6.39666 39.7141 6.5835 39.5266 6.7703C38.9413 7.35534 38.3689 7.9428 37.8335 8.57446C37.6753 8.74787 37.5167 8.92086 37.3574 9.09326C36.9232 9.56991 36.5128 10.0612 36.1082 10.563C35.9602 10.7448 35.8104 10.9248 35.6603 11.1048C34.8891 12.0304 34.1511 12.9738 33.439 13.9456C33.3898 14.012 33.3407 14.0785 33.29 14.147C31.4056 16.6979 29.7036 19.376 28.1655 22.1487C28.1099 22.2487 28.0543 22.3486 27.997 22.4517C25.3278 27.2754 23.2066 32.4058 21.8418 37.7523C21.8139 37.8586 21.8139 37.8586 21.7855 37.9671C21.7356 38.1577 21.6871 38.3487 21.6387 38.5397C21.4944 38.9305 21.3117 39.1498 20.939 39.3362C20.5538 39.3893 20.3008 39.4233 19.9635 39.2179C19.5201 38.8394 19.1373 38.3988 18.7524 37.9621C18.449 37.6215 18.1381 37.2885 17.8262 36.9558C17.4129 36.5144 17.0012 36.0717 16.5933 35.6252C16.1892 35.1831 15.7817 34.7443 15.3726 34.3069C14.8716 33.7712 14.374 33.2326 13.8791 32.6914C13.4512 32.2234 13.0204 31.7582 12.5901 31.2925C12.4454 31.1358 12.3009 30.979 12.1564 30.8222C11.6333 30.2546 11.1084 29.6888 10.5813 29.125C10.0824 28.5913 9.58691 28.0547 9.09395 27.5156C8.66603 27.0477 8.23523 26.5824 7.80491 26.1167C7.66024 25.96 7.51571 25.8032 7.37123 25.6464C6.84819 25.0788 6.32326 24.513 5.79614 23.9492C5.29726 23.4155 4.80176 22.879 4.30879 22.3398C4.02833 22.0331 3.74657 21.7276 3.4646 21.4224C3.39161 21.3433 3.39161 21.3433 3.31714 21.2627C3.16896 21.1023 3.02076 20.9419 2.87256 20.7815C2.77363 20.6744 2.6747 20.5674 2.57578 20.4603C2.5269 20.4074 2.47803 20.3546 2.42767 20.3001C2.33008 20.1944 2.23274 20.0883 2.13565 19.9821C1.89275 19.7166 1.6468 19.4564 1.39169 19.2026C0.571704 18.3752 0.571704 18.3752 0.492188 17.8579C0.49613 17.4952 0.583672 17.2535 0.821777 16.9729C1.12138 16.7732 1.1847 16.7528 1.52288 16.7495C1.60596 16.7482 1.68905 16.747 1.77465 16.7457C1.86551 16.7453 1.95638 16.7449 2.04999 16.7446C2.14593 16.7434 2.24187 16.7423 2.34072 16.7412C2.65877 16.7378 2.97679 16.736 3.29485 16.7345C3.4035 16.7338 3.51215 16.7331 3.62409 16.7324C4.19929 16.7289 4.77449 16.7266 5.3497 16.7253C5.94334 16.7237 6.53687 16.718 7.13046 16.7113C7.58731 16.7069 8.04413 16.7056 8.501 16.7051C8.71978 16.7044 8.93855 16.7024 9.15731 16.6993C9.46405 16.6953 9.7705 16.6956 10.0773 16.6969C10.2121 16.6937 10.2121 16.6937 10.3496 16.6904C10.961 16.6992 11.2633 16.8621 11.6979 17.2908C11.7504 17.347 11.8029 17.4032 11.8569 17.4612C11.9354 17.5412 12.0138 17.6213 12.0946 17.7038C12.4598 18.1167 12.8165 18.5339 13.1631 18.9626C13.5226 19.4073 13.9007 19.828 14.2899 20.2462C14.6592 20.6454 15.0012 21.0628 15.342 21.4865C15.6299 21.8326 15.9344 22.1611 16.2414 22.4902C16.6283 22.9079 16.9853 23.3441 17.3379 23.7913C17.5203 24.0227 17.5203 24.0227 17.814 24.1995C17.8568 24.1093 17.8996 24.0192 17.9437 23.9263C18.9743 21.7924 20.2756 19.8241 21.7202 17.9495C21.7604 17.8969 21.8007 17.8444 21.8421 17.7902C22.3514 17.126 22.8757 16.477 23.4231 15.8438C23.4929 15.7629 23.4929 15.7629 23.5641 15.6804C24.4742 14.638 25.4279 13.6396 26.4079 12.6631C26.5802 12.4913 26.7521 12.319 26.9238 12.1465C27.4841 11.5859 28.049 11.0406 28.6538 10.5276C28.8108 10.3856 28.9675 10.2432 29.1238 10.1003C31.7236 7.75772 34.6421 5.632 37.6299 3.81644C37.8543 3.67892 38.0768 3.5388 38.2993 3.3983C42.8789 0.51539 42.8789 0.515389 43.8882 0.664306Z" fill="#106FAE"/>
</svg>
