<svg width="40" height="40" viewBox="0 0 40 40" fill="none" xmlns="http://www.w3.org/2000/svg">
<g clip-path="url(#clip0_1577_326)">
<path d="M19.9415 -0.0291645C20.0206 -0.029122 20.0997 -0.0290796 20.1811 -0.0290358C21.4729 -0.0258524 22.7166 0.0463145 23.9845 0.312632C24.0638 0.32896 24.1431 0.345287 24.2249 0.362109C27.4524 1.04788 30.4705 2.53247 32.9689 4.68763C33.0271 4.73718 33.0853 4.78673 33.1453 4.83778C34.2004 5.76052 35.1903 6.75666 36.0158 7.89076C36.0827 7.9806 36.1496 8.07042 36.2166 8.16023C36.6885 8.8002 37.1072 9.46548 37.5001 10.1564C37.5286 10.2057 37.5571 10.2551 37.5864 10.306C38.7504 12.3395 39.5038 14.6377 39.8439 16.9533C39.8577 17.0474 39.8716 17.1415 39.8859 17.2384C40.0108 18.1492 40.0281 19.0526 40.0245 19.9708C40.0243 20.0845 40.0243 20.0845 40.0241 20.2004C40.0206 21.3217 39.9811 22.4126 39.7658 23.5158C39.7532 23.5858 39.7406 23.6559 39.7276 23.7281C39.1702 26.8088 37.8637 29.7222 35.9376 32.1876C35.8783 32.2636 35.819 32.3395 35.7579 32.4177C34.7943 33.6193 33.7161 34.7562 32.5001 35.7033C32.427 35.763 32.3539 35.8227 32.2786 35.8842C29.7576 37.9029 26.6783 39.1897 23.5158 39.7658C23.4505 39.7785 23.3852 39.7913 23.3179 39.8045C21.1522 40.218 18.6456 40.1876 16.4845 39.7658C16.4144 39.7532 16.3443 39.7406 16.2721 39.7276C12.8655 39.1112 9.6517 37.573 7.03138 35.3126C6.97317 35.2631 6.91496 35.2135 6.85499 35.1625C5.79991 34.2397 4.80996 33.2436 3.98451 32.1095C3.91759 32.0197 3.85066 31.9298 3.7837 31.84C3.31178 31.2001 2.8931 30.5348 2.50013 29.8439C2.47166 29.7945 2.44318 29.7452 2.41384 29.6943C1.24742 27.6564 0.506863 25.3645 0.156382 23.047C0.135687 22.9155 0.135687 22.9155 0.114573 22.7813C-0.0148722 21.874 -0.0310188 20.9742 -0.0291645 20.0587C-0.029122 19.9797 -0.0290796 19.9006 -0.0290358 19.8191C-0.0258524 18.5274 0.0463145 17.2837 0.312632 16.0158C0.32896 15.9364 0.345287 15.8571 0.362109 15.7754C1.04788 12.5479 2.53247 9.52978 4.68763 7.03138C4.73718 6.97317 4.78673 6.91496 4.83778 6.85499C5.76052 5.79991 6.75666 4.80996 7.89076 3.98451C7.9806 3.91759 8.07042 3.85066 8.16023 3.7837C8.8002 3.31178 9.46548 2.8931 10.1564 2.50013C10.2057 2.47166 10.2551 2.44318 10.306 2.41384C12.3439 1.24742 14.6357 0.506863 16.9533 0.156382C17.0409 0.142585 17.1286 0.128788 17.219 0.114573C18.1263 -0.0148722 19.0261 -0.0310188 19.9415 -0.0291645ZM9.76576 4.68763C9.71929 4.71861 9.67283 4.74959 9.62496 4.78151C7.95224 5.90756 6.41422 7.34863 5.23451 8.98451C5.17489 9.06588 5.11527 9.14725 5.05384 9.23109C3.32278 11.6594 2.21339 14.4178 1.76771 17.3634C1.74804 17.493 1.74804 17.493 1.72798 17.6253C1.65303 18.1598 1.62502 18.6793 1.64076 19.2189C1.73615 19.2196 1.83155 19.2203 1.92984 19.2211C2.28396 19.2242 2.63803 19.2293 2.99211 19.2351C3.14533 19.2373 3.29856 19.239 3.45178 19.2401C3.67213 19.2417 3.89237 19.2454 4.11268 19.2494C4.21536 19.2495 4.21536 19.2495 4.32011 19.2497C4.79659 19.2611 4.79659 19.2611 5.04095 19.4465C5.23755 19.7241 5.26128 19.8932 5.23451 20.2345C5.05758 20.5964 5.05758 20.5964 4.84388 20.7033C4.60479 20.7156 4.36721 20.7235 4.12794 20.728C4.02163 20.7304 4.02163 20.7304 3.91317 20.7329C3.6863 20.738 3.45943 20.7426 3.23255 20.7472C3.07895 20.7506 2.92534 20.754 2.77174 20.7574C2.39475 20.7658 2.01776 20.7737 1.64076 20.7814C1.62236 21.4118 1.67318 22.0138 1.76771 22.6369C1.78851 22.7743 1.78851 22.7743 1.80973 22.9146C2.39954 26.6221 4.12522 30.0671 6.7433 32.7553C6.86795 32.8834 6.99125 33.0127 7.11439 33.1422C7.66785 33.7175 8.26774 34.21 8.90638 34.6876C9.01756 34.7721 9.01756 34.7721 9.13099 34.8582C11.9638 36.9705 15.6533 38.4243 19.2189 38.3595C19.22 38.2164 19.22 38.2164 19.2211 38.0704C19.2242 37.7163 19.2293 37.3622 19.2351 37.0081C19.2373 36.8549 19.239 36.7017 19.2401 36.5485C19.2417 36.3281 19.2454 36.1079 19.2494 35.8876C19.2495 35.8191 19.2496 35.7507 19.2497 35.6802C19.2611 35.2037 19.2611 35.2037 19.4465 34.9593C19.7241 34.7627 19.8932 34.739 20.2345 34.7658C20.5964 34.9427 20.5964 34.9427 20.7033 35.1564C20.7156 35.3955 20.7235 35.6331 20.728 35.8723C20.7304 35.9786 20.7304 35.9786 20.7329 36.0871C20.738 36.314 20.7426 36.5408 20.7472 36.7677C20.7506 36.9213 20.754 37.0749 20.7574 37.2285C20.7658 37.6055 20.7737 37.9825 20.7814 38.3595C21.4277 38.3763 22.0427 38.3346 22.6808 38.2326C22.7687 38.2186 22.8566 38.2046 22.9472 38.1902C27.5727 37.4201 31.8968 34.8908 34.6876 31.0939C34.7434 31.0203 34.7992 30.9466 34.8567 30.8708C36.9522 28.0674 38.4629 24.3237 38.3595 20.7814C38.2641 20.7807 38.1687 20.7799 38.0704 20.7792C37.7163 20.7761 37.3622 20.7709 37.0082 20.7652C36.8549 20.763 36.7017 20.7613 36.5485 20.7602C36.3281 20.7585 36.1079 20.7549 35.8876 20.7509C35.7849 20.7507 35.7849 20.7507 35.6802 20.7506C35.2037 20.7391 35.2037 20.7391 34.9593 20.5538C34.7627 20.2761 34.739 20.1071 34.7658 19.7658C34.9427 19.4039 34.9427 19.4039 35.1564 19.297C35.3955 19.2847 35.6331 19.2768 35.8723 19.2723C35.9786 19.2699 35.9786 19.2699 36.0871 19.2674C36.314 19.2622 36.5408 19.2576 36.7677 19.2531C36.9213 19.2497 37.0749 19.2463 37.2285 19.2428C37.6055 19.2345 37.9825 19.2266 38.3595 19.2189C38.4791 14.9407 36.3528 10.5507 33.4753 7.476C33.3591 7.35334 33.2423 7.2313 33.1251 7.10951C33.0885 7.07112 33.0518 7.03274 33.014 6.9932C32.5099 6.46789 31.9826 5.99179 31.4064 5.54701C31.3646 5.51442 31.3227 5.48182 31.2796 5.44824C28.7486 3.48808 25.7969 2.24585 22.6369 1.76771C22.5504 1.7546 22.464 1.74149 22.375 1.72798C21.8405 1.65303 21.3209 1.62501 20.7814 1.64076C20.7803 1.78385 20.7803 1.78385 20.7792 1.92983C20.7761 2.28396 20.7709 2.63803 20.7652 2.99211C20.763 3.14533 20.7613 3.29856 20.7602 3.45178C20.7585 3.67213 20.7549 3.89237 20.7509 4.11268C20.7508 4.18113 20.7507 4.24958 20.7506 4.32011C20.7391 4.79659 20.7391 4.79659 20.5538 5.04095C20.2761 5.23755 20.1071 5.26128 19.7658 5.23451C19.4039 5.05758 19.4039 5.05758 19.297 4.84388C19.2847 4.60479 19.2768 4.36721 19.2723 4.12794C19.2707 4.05706 19.269 3.98619 19.2674 3.91316C19.2623 3.6863 19.2577 3.45943 19.2531 3.23255C19.2497 3.07895 19.2463 2.92534 19.2428 2.77174C19.2345 2.39475 19.2266 2.01776 19.2189 1.64076C15.9109 1.54424 12.4803 2.86814 9.76576 4.68763Z" fill="#3FC1C9"/>
<path d="M12.5 11.4061C13.015 11.7051 13.4257 12.1595 13.8362 12.5832C13.9774 12.7274 14.1185 12.8717 14.2597 13.0159C14.3344 13.0926 14.4091 13.1692 14.4838 13.2458C14.7163 13.4842 14.9498 13.7215 15.1836 13.9586C15.2232 13.9988 15.2628 14.0389 15.3036 14.0803C15.3845 14.1624 15.4654 14.2444 15.5463 14.3265C16.0898 14.8777 16.6325 15.4296 17.1723 15.9843C17.5377 16.3598 17.9047 16.7335 18.2736 17.1054C18.4685 17.3019 18.6623 17.4991 18.8542 17.6985C19.068 17.9205 19.2853 18.1387 19.503 18.3568C19.5657 18.4231 19.6284 18.4894 19.6929 18.5577C20.0126 18.8847 20.0126 18.8847 20.4383 18.9915C20.64 18.953 20.8229 18.8982 21.0156 18.828C21.0932 18.8091 21.1708 18.7902 21.2507 18.7707C21.3151 18.753 21.3795 18.7353 21.4458 18.717C21.5204 18.6967 21.5949 18.6764 21.6718 18.6555C21.7884 18.6233 21.7884 18.6233 21.9073 18.5906C22.0764 18.5448 22.2455 18.499 22.4146 18.4532C22.6778 18.3817 22.9409 18.31 23.204 18.2377C23.46 18.1675 23.7164 18.0982 23.9728 18.0291C24.0508 18.0073 24.1289 17.9856 24.2093 17.9632C24.6424 17.8473 25.02 17.775 25.4688 17.8124C25.6883 17.9525 25.821 18.0482 25.9375 18.2811C25.9589 18.4365 25.9589 18.4365 25.9668 18.618C25.9706 18.6774 25.9745 18.7367 25.9784 18.7978C25.9143 19.0902 25.7815 19.192 25.5469 19.3749C25.3015 19.4829 25.0488 19.5504 24.79 19.619C24.7116 19.6407 24.6332 19.6624 24.5524 19.6848C24.3164 19.7495 24.08 19.8128 23.8435 19.8757C23.6539 19.9266 23.4646 19.9784 23.2753 20.0303C22.9117 20.13 22.5478 20.2285 22.1836 20.3262C22.0374 20.3656 21.8912 20.4052 21.7451 20.4451C21.5366 20.5018 21.3277 20.5572 21.1188 20.6124C21.057 20.6294 20.9952 20.6465 20.9315 20.6641C20.7518 20.7107 20.5734 20.7485 20.3906 20.7811C20.3274 20.7927 20.2642 20.8043 20.1991 20.8162C19.887 20.8472 19.6851 20.8363 19.4262 20.6478C19.3344 20.5608 19.3344 20.5608 19.2407 20.472C19.1725 20.4079 19.1044 20.3439 19.0342 20.2779C18.9662 20.2119 18.8982 20.146 18.8281 20.078C18.7672 20.0191 18.7062 19.9603 18.6434 19.8996C18.4554 19.7159 18.2692 19.5305 18.0834 19.3446C18.0135 19.275 17.9437 19.2054 17.8717 19.1337C17.6827 18.9454 17.494 18.7568 17.3053 18.5682C17.1871 18.4501 17.0688 18.332 16.9506 18.2139C16.5373 17.8014 16.1242 17.3886 15.7112 16.9756C15.3273 16.5916 14.9429 16.208 14.5583 15.8246C14.2268 15.4941 13.8955 15.1634 13.5646 14.8323C13.3674 14.6352 13.1702 14.4381 12.9726 14.2414C12.7529 14.0225 12.5337 13.803 12.3146 13.5835C12.2495 13.5188 12.1843 13.4541 12.1172 13.3874C12.0576 13.3274 11.9979 13.2674 11.9364 13.2056C11.8846 13.1539 11.8329 13.1022 11.7795 13.0489C11.5466 12.7833 11.4149 12.5805 11.377 12.2264C11.4083 11.9336 11.4578 11.7909 11.6406 11.5624C11.9101 11.3603 12.1732 11.3626 12.5 11.4061Z" fill="#3FC1C9"/>
</g>
<defs>
<clipPath id="clip0_1577_326">
<rect width="40" height="40" fill="white"/>
</clipPath>
</defs>
</svg>
