<svg width="50" height="50" viewBox="0 0 50 50" fill="none" xmlns="http://www.w3.org/2000/svg">
<path d="M22.5939 1.77561C24.3234 2.44436 25.8806 2.36673 27.6019 1.70775C30.0846 0.76155 32.9578 0.352449 35.4689 1.44201C36.2757 1.81427 37.0036 2.27366 37.6959 2.83209C37.7646 2.88597 37.8334 2.93985 37.9042 2.99536C38.468 3.4597 38.9122 4.01261 39.3561 4.5899C39.4155 4.66619 39.4749 4.74247 39.5361 4.82107C41.2971 7.19842 41.7823 10.1297 41.3946 13.0189C41.0272 15.4809 40.0577 19.154 38.1087 20.8413C37.6209 21.1887 37.1822 21.4671 36.5729 21.5066C36.1617 21.5371 35.9066 21.5694 35.5475 21.7774C35.318 22.1721 35.2035 22.6035 35.0975 23.045C34.9035 23.8419 34.54 24.3756 33.8629 24.8475C33.4531 25.0803 33.1606 25.1094 32.696 25.1073C32.578 25.1069 32.46 25.1066 32.3384 25.1063C32.2151 25.1055 32.0918 25.1047 31.9647 25.1038C31.7781 25.1032 31.7781 25.1032 31.5876 25.1025C31.28 25.1013 30.9723 25.0997 30.6647 25.0977C30.6647 25.1622 30.6647 25.2266 30.6647 25.293C30.7573 25.283 30.85 25.2729 30.9454 25.2625C31.5355 25.2649 32.0677 25.5597 32.5072 25.9385C33.0575 26.5354 33.2608 27.1777 33.2312 27.9835C33.1511 28.6806 32.8466 29.2206 32.3248 29.6876C31.7202 30.1182 30.987 30.2226 30.274 30.3712C30.2418 30.8546 30.2096 31.338 30.1764 31.836C30.3093 31.8461 30.4422 31.8561 30.5792 31.8665C31.2367 31.9416 31.778 32.2215 32.2272 32.7149C32.6356 33.3658 32.798 34.0002 32.7154 34.7657C32.5363 35.514 32.1893 36.0087 31.5436 36.4258C30.9716 36.7236 30.4263 36.8667 29.7858 36.9141C29.7535 37.3653 29.7213 37.8165 29.6881 38.2813C29.8331 38.2874 29.9781 38.2934 30.1276 38.2996C30.8297 38.372 31.2903 38.6784 31.7694 39.1846C32.201 39.7318 32.3571 40.2791 32.3187 40.973C32.2191 41.7237 31.9526 42.2707 31.3532 42.743C30.7533 43.1269 30.0795 43.2916 29.3951 43.4571C29.3883 43.5373 29.3815 43.6174 29.3744 43.7C29.3479 44.0028 29.3201 44.3055 29.2914 44.6081C29.2735 44.8013 29.257 44.9947 29.2406 45.188C29.1285 46.354 28.8907 47.4001 28.0279 48.2422C27.0478 48.9873 26.2487 49.1582 25.0372 49.1639C24.9193 49.1671 24.8013 49.1703 24.6798 49.1736C23.5963 49.18 22.649 48.9081 21.8512 48.1469C21.2275 47.4257 20.8606 46.6631 20.899 45.7032C20.8024 45.7354 20.7057 45.7676 20.6061 45.8008C19.8048 45.9008 19.1567 45.6539 18.4759 45.2454C17.9501 44.6896 17.6991 44.1016 17.6638 43.3369C17.6957 42.6517 17.896 42.0563 18.3741 41.5558C19.0045 41.0356 19.7158 40.8473 20.5084 40.7227C20.444 40.336 20.3795 39.9493 20.3131 39.5508C20.1399 39.5609 19.9667 39.571 19.7882 39.5814C19.0637 39.5797 18.5317 39.3822 17.9842 38.9054C17.4359 38.318 17.2245 37.6652 17.2514 36.8672C17.3458 36.191 17.6887 35.6322 18.1647 35.1563C18.7149 34.7712 19.2727 34.6332 19.9225 34.4727C19.9225 34.0538 19.9225 33.6348 19.9225 33.2032C19.8328 33.2077 19.7432 33.2122 19.6509 33.2169C18.7717 33.2428 18.2135 33.2191 17.5604 32.615C16.9499 31.9761 16.7475 31.4029 16.7662 30.5234C16.8419 29.9185 17.1436 29.3297 17.5787 28.9063C18.0358 28.5784 18.4696 28.3978 19.0249 28.3063C19.1202 28.2902 19.2156 28.2741 19.3138 28.2575C19.4217 28.2403 19.4217 28.2403 19.5318 28.2227C19.5259 28.1489 19.52 28.075 19.5139 27.9989C19.4871 27.6626 19.4606 27.3262 19.4342 26.9898C19.4249 26.8736 19.4156 26.7574 19.406 26.6377C19.3972 26.525 19.3883 26.4124 19.3793 26.2963C19.3711 26.193 19.3629 26.0897 19.3545 25.9833C19.3368 25.6873 19.3334 25.3942 19.3365 25.0977C19.2608 25.0998 19.185 25.1018 19.1069 25.1039C18.7603 25.1121 18.4137 25.1171 18.067 25.1221C17.9478 25.1254 17.8286 25.1287 17.7058 25.132C16.8776 25.141 16.3718 25.0348 15.7065 24.5537C14.9471 23.8057 14.7473 22.7737 14.4537 21.7774C14.3664 21.7619 14.279 21.7464 14.189 21.7305C12.913 21.4843 12.087 21.1084 11.2311 20.1172C11.0039 19.7807 10.8191 19.431 10.639 19.0674C10.5649 18.9212 10.5649 18.9212 10.4893 18.7719C8.78286 15.3355 7.83497 11.4053 9.00328 7.64776C9.48501 6.31584 10.1247 5.18255 11.0358 4.10162C11.106 4.01539 11.1762 3.92916 11.2486 3.84031C14.127 0.450528 18.6804 0.260892 22.5939 1.77561ZM12.5422 4.64054C10.7664 6.48509 9.89888 8.83833 9.9272 11.3811C10.0132 13.9763 10.95 17.8801 12.8912 19.7266C13.5351 20.1178 14.0818 20.2294 14.8326 20.2293C14.9224 20.2296 15.0121 20.23 15.1046 20.2304C15.4067 20.2314 15.7087 20.2318 16.0107 20.2322C16.2268 20.2328 16.4429 20.2334 16.6589 20.2341C17.2469 20.2358 17.8349 20.2369 18.4228 20.2377C18.7901 20.2382 19.1574 20.2388 19.5248 20.2394C20.5421 20.241 21.5595 20.2425 22.5768 20.2432C22.8408 20.2433 23.1047 20.2435 23.3687 20.2437C23.4343 20.2438 23.4999 20.2438 23.5675 20.2439C24.6297 20.2447 25.6919 20.2472 26.7541 20.2503C27.8452 20.2536 28.9363 20.2553 30.0273 20.2556C30.6397 20.2559 31.2521 20.2567 31.8645 20.2592C32.4408 20.2615 33.0171 20.2619 33.5934 20.2609C33.8047 20.2608 34.016 20.2614 34.2272 20.2628C34.5162 20.2645 34.8051 20.2638 35.0942 20.2625C35.1773 20.2636 35.2604 20.2647 35.346 20.2658C36.0498 20.2583 36.5806 20.0263 37.1771 19.6656C38.7741 18.0254 39.6134 14.9913 39.942 12.793C39.9546 12.7175 39.9672 12.642 39.9802 12.5641C40.3174 10.1854 39.7435 7.78436 38.4032 5.80069C38.2394 5.5852 38.0689 5.37995 37.8912 5.17584C37.824 5.09578 37.7568 5.01571 37.6875 4.93322C36.5408 3.60549 34.9893 2.53015 33.2037 2.34381C31.2138 2.21318 29.5608 2.52176 27.7139 3.24045C25.5821 4.06263 23.5693 3.76398 21.4993 2.95156C18.2899 1.72287 15.0071 2.15774 12.5422 4.64054ZM16.0162 21.6797C16.3225 23.1713 16.3225 23.1713 16.9928 23.6329C17.3079 23.6913 17.3079 23.6913 17.6562 23.6825C17.7544 23.6834 17.7544 23.6834 17.8546 23.6843C18.0733 23.6859 18.2919 23.6846 18.5107 23.6834C18.6677 23.6839 18.8248 23.6846 18.9819 23.6855C19.408 23.6873 19.8341 23.6866 20.2602 23.6853C20.7063 23.6844 21.1523 23.6853 21.5983 23.6859C22.3474 23.6866 23.0964 23.6857 23.8454 23.6838C24.7113 23.6817 25.5771 23.6824 26.443 23.6845C27.1865 23.6863 27.9301 23.6865 28.6736 23.6855C29.1176 23.6849 29.5616 23.6848 30.0057 23.6861C30.4231 23.6872 30.8406 23.6865 31.258 23.6842C31.4112 23.6837 31.5644 23.6838 31.7176 23.6847C31.9267 23.6858 32.1358 23.6844 32.345 23.6825C32.462 23.6823 32.579 23.6822 32.6996 23.682C33.0706 23.6491 33.0706 23.649 33.4967 23.2422C33.7384 22.4688 33.7384 22.4688 33.985 21.6797C28.0553 21.6797 22.1256 21.6797 16.0162 21.6797ZM20.8014 25.0977C20.8675 26.4189 20.8675 26.4189 20.9967 27.7344C21.521 27.678 22.018 27.5882 22.5269 27.448C22.6323 27.4196 22.6323 27.4196 22.7399 27.3907C22.9695 27.3288 23.1988 27.2661 23.4282 27.2034C23.5886 27.16 23.749 27.1166 23.9095 27.0732C24.2443 26.9825 24.579 26.8916 24.9137 26.8003C25.3431 26.6832 25.7726 26.5668 26.2023 26.4506C26.5329 26.3611 26.8634 26.2714 27.194 26.1817C27.3524 26.1386 27.5109 26.0956 27.6694 26.0527C27.8901 25.9928 28.1107 25.9327 28.3314 25.8725C28.397 25.8547 28.4626 25.837 28.5303 25.8187C28.7637 25.7547 28.9828 25.6945 29.1998 25.586C29.1998 25.4249 29.1998 25.2637 29.1998 25.0977C26.4283 25.0977 23.6568 25.0977 20.8014 25.0977ZM29.5696 26.9517C29.4537 26.9826 29.4537 26.9826 29.3354 27.0142C29.0803 27.0826 28.8255 27.1522 28.5708 27.2217C28.3905 27.2703 28.2102 27.3188 28.0299 27.3672C27.5538 27.4952 27.078 27.6243 26.6023 27.7535C26.1293 27.8819 25.656 28.0094 25.1828 28.1369C24.63 28.2858 24.0773 28.4349 23.5249 28.585C22.7074 28.807 21.8896 29.027 21.0692 29.2378C20.9321 29.2733 20.7949 29.3088 20.6578 29.3444C20.4107 29.4084 20.1635 29.471 19.9158 29.5328C19.0129 29.7613 19.0129 29.7613 18.3172 30.3528C18.2317 30.6854 18.2729 30.9193 18.36 31.2501C18.541 31.5531 18.541 31.5531 18.8483 31.7383C19.4179 31.8151 19.9596 31.7098 20.5062 31.5566C20.6151 31.5275 20.6151 31.5275 20.7262 31.4979C20.9648 31.4339 21.2029 31.3683 21.4411 31.3027C21.6109 31.2568 21.7808 31.211 21.9507 31.1652C22.399 31.0442 22.8469 30.9219 23.2947 30.7993C23.737 30.6785 24.1797 30.559 24.6224 30.4394C25.4043 30.228 26.1856 30.0144 26.9667 29.7998C27.4812 29.6587 27.9962 29.5197 28.5118 29.3825C28.8401 29.295 29.1681 29.2064 29.4961 29.1177C29.6497 29.0764 29.8035 29.0355 29.9573 28.9952C30.1686 28.9397 30.3793 28.8827 30.59 28.8252C30.7087 28.7936 30.8274 28.7619 30.9497 28.7293C31.2694 28.6061 31.4262 28.4862 31.6412 28.2227C31.7785 27.8454 31.7754 27.53 31.6229 27.1607C31.4321 26.9369 31.3354 26.8435 31.0553 26.7579C30.5301 26.7298 30.0723 26.8126 29.5696 26.9517ZM27.6401 31.0298C27.5724 31.0479 27.5047 31.066 27.435 31.0846C27.2119 31.1444 26.989 31.2048 26.766 31.2653C26.6112 31.307 26.4563 31.3486 26.3014 31.3901C25.8941 31.4995 25.487 31.6095 25.0799 31.7196C24.6644 31.8318 24.2486 31.9436 23.8329 32.0553C23.0176 32.2747 22.2024 32.4946 21.3873 32.7149C21.3846 32.8512 21.3828 32.9875 21.3812 33.1238C21.3801 33.1997 21.3789 33.2757 21.3778 33.3539C21.3878 33.6056 21.4296 33.8366 21.485 34.0821C22.3095 33.9332 23.1155 33.7214 23.9241 33.5045C24.0628 33.4676 24.2015 33.4306 24.3403 33.3937C24.7022 33.2973 25.064 33.2006 25.4259 33.1038C25.7964 33.0047 26.167 32.906 26.5375 32.8072C27.2623 32.614 27.9869 32.4204 28.7115 32.2266C28.7115 31.7755 28.7115 31.3243 28.7115 30.8594C28.3139 30.8594 28.0229 30.9266 27.6401 31.0298ZM29.3306 33.4872C29.2556 33.5071 29.1805 33.5269 29.1032 33.5474C28.8543 33.6134 28.6055 33.6801 28.3568 33.7468C28.1817 33.7934 28.0066 33.8399 27.8315 33.8864C27.3684 34.0095 26.9054 34.1331 26.4425 34.2569C25.8907 34.4044 25.3386 34.551 24.7866 34.6978C24.3409 34.8164 23.8954 34.9353 23.45 35.0549C22.0138 35.4404 22.0138 35.4404 21.3552 35.6067C21.1726 35.6527 20.9903 35.6995 20.8079 35.7462C20.5974 35.8 20.3865 35.8527 20.1753 35.9038C19.6161 36.0481 19.2497 36.1985 18.8483 36.6212C18.7317 37.0052 18.7068 37.2034 18.8666 37.5733C19.0504 37.8015 19.1747 37.949 19.4342 38.086C19.9961 38.1249 20.4689 38.0173 21.0043 37.8696C21.1336 37.8351 21.1336 37.8351 21.2654 37.7999C21.5493 37.7238 21.8328 37.6465 22.1163 37.5691C22.3152 37.5155 22.5141 37.4619 22.713 37.4084C23.1301 37.296 23.547 37.1831 23.9638 37.0697C24.4938 36.9256 25.0241 36.7824 25.5545 36.6397C25.9657 36.5289 26.3768 36.4178 26.7879 36.3066C26.9831 36.2538 27.1783 36.201 27.3736 36.1484C27.9832 35.9836 28.592 35.8161 29.1998 35.6446C29.2778 35.6227 29.3558 35.6009 29.4362 35.5784C29.6542 35.5166 29.8716 35.4529 30.0889 35.3885C30.2103 35.353 30.3317 35.3174 30.4567 35.2808C30.7772 35.1502 30.9395 35.0354 31.1529 34.7657C31.2793 34.3394 31.2893 34.1581 31.0858 33.7586C30.8773 33.5163 30.7693 33.3946 30.4693 33.3008C30.0617 33.3008 29.7197 33.3821 29.3306 33.4872ZM27.3617 37.5443C27.2473 37.5753 27.1329 37.6062 27.0151 37.6381C26.892 37.672 26.7689 37.7059 26.6421 37.7408C26.5142 37.7756 26.3862 37.8104 26.2583 37.8452C25.922 37.9367 25.5858 38.0288 25.2496 38.121C24.9752 38.1962 24.7006 38.271 24.4261 38.3457C23.8588 38.5001 23.2916 38.6549 22.7245 38.8104C22.624 38.8379 22.5235 38.8655 22.4199 38.8938C22.2371 38.9455 22.0558 39.0025 21.8756 39.0626C21.8756 39.4493 21.8756 39.836 21.8756 40.2344C22.16 40.3767 22.3216 40.2834 22.6263 40.2013C22.7427 40.1703 22.859 40.1393 22.9789 40.1074C23.1064 40.0727 23.2339 40.038 23.3614 40.0033C23.4918 39.9683 23.6222 39.9333 23.7526 39.8985C24.0964 39.8063 24.4399 39.7133 24.7834 39.6202C25.0637 39.5443 25.344 39.4691 25.6244 39.3938C26.2039 39.2384 26.7832 39.0825 27.3623 38.9257C27.5165 38.8839 27.5165 38.8839 27.6739 38.8413C27.8585 38.7897 28.0415 38.7325 28.2233 38.6719C28.2716 38.0435 28.2716 38.0435 28.3209 37.4024C27.957 37.4024 27.7091 37.4495 27.3617 37.5443ZM29.0853 39.8936C28.9628 39.9259 28.8403 39.9583 28.714 39.9916C28.5796 40.0277 28.4451 40.0637 28.3106 40.0998C28.17 40.1371 28.0294 40.1744 27.8888 40.2117C27.516 40.3106 27.1434 40.4101 26.7708 40.5098C26.4047 40.6075 26.0384 40.7047 25.6722 40.8019C25.0176 40.9757 24.3635 41.151 23.7095 41.3269C23.2589 41.4479 22.8078 41.567 22.3564 41.6848C22.058 41.7628 21.7598 41.8418 21.4617 41.921C21.3208 41.9582 21.1798 41.9949 21.0387 42.0312C20.8437 42.0815 20.6491 42.1332 20.4545 42.1853C20.3443 42.2141 20.2341 42.243 20.1206 42.2727C19.7945 42.3942 19.588 42.5342 19.3365 42.7735C19.1609 43.1686 19.1096 43.3605 19.245 43.7745C19.4599 44.0795 19.5719 44.2064 19.9225 44.336C20.4996 44.3234 21.0575 44.1895 21.6115 44.0378C21.6872 44.0176 21.7629 43.9974 21.8409 43.9766C22.0888 43.9104 22.3364 43.8432 22.584 43.776C22.7585 43.7291 22.9331 43.6822 23.1076 43.6354C23.4729 43.5373 23.8381 43.4388 24.2032 43.3399C24.6666 43.2144 25.1303 43.0897 25.5941 42.9653C25.9547 42.8685 26.3153 42.7714 26.6757 42.6742C26.8464 42.6282 27.0171 42.5823 27.1878 42.5364C27.7292 42.3908 28.2697 42.2423 28.8092 42.0899C28.8839 42.069 28.9585 42.0481 29.0354 42.0265C29.2518 41.9652 29.4675 41.902 29.6831 41.838C29.8067 41.8019 29.9303 41.7657 30.0576 41.7285C30.3823 41.5973 30.5456 41.4827 30.7623 41.211C30.8806 40.8484 30.8776 40.675 30.7501 40.3138C30.5496 40.0131 30.4077 39.8906 30.0787 39.7462C29.7059 39.7462 29.4429 39.7984 29.0853 39.8936ZM27.1431 43.9717C27.0401 43.9987 26.9372 44.0258 26.8311 44.0537C26.7195 44.0833 26.6079 44.1129 26.4929 44.1434C26.3217 44.1885 26.3217 44.1885 26.147 44.2346C25.9053 44.2985 25.6636 44.3624 25.422 44.4265C25.0511 44.5248 24.68 44.6226 24.309 44.7203C24.0746 44.7823 23.8403 44.8443 23.6059 44.9063C23.4944 44.9357 23.3828 44.9651 23.2678 44.9954C23.1648 45.0228 23.0618 45.0501 22.9557 45.0783C22.8648 45.1024 22.7739 45.1265 22.6802 45.1513C22.4605 45.2081 22.4605 45.2081 22.2662 45.3126C22.3748 46.1157 22.5148 46.6861 23.139 47.2413C23.9 47.8003 24.8124 47.8398 25.7265 47.7238C26.5004 47.5764 26.9818 47.2084 27.442 46.5821C27.6846 46.1156 27.7021 45.6201 27.7472 45.105C27.7556 45.0165 27.764 44.928 27.7727 44.8369C27.8037 44.5055 27.8326 44.1807 27.8326 43.8477C27.5862 43.8477 27.3818 43.9087 27.1431 43.9717Z" fill="#106FAE"/>
<path d="M35.413 5.18288C36.3037 5.96213 37.342 6.93949 37.6537 8.12287C37.672 8.41569 37.6019 8.58699 37.4451 8.83164C37.1084 9.04748 36.9159 9.05308 36.5234 8.98423C36.1853 8.67081 35.9861 8.3183 35.7544 7.92222C35.1378 6.88111 34.2617 6.04695 33.0685 5.70664C31.8002 5.49495 30.6735 5.74347 29.4758 6.16288C29.0889 6.28455 28.8226 6.28965 28.418 6.24985C28.1343 6.02825 28.1271 5.87388 28.0762 5.51743C28.125 5.17563 28.125 5.17563 28.3287 4.97498C30.3238 3.64314 33.5472 3.71074 35.413 5.18288Z" fill="#106FAE"/>
</svg>
