<svg width="50" height="50" viewBox="0 0 50 50" fill="none" xmlns="http://www.w3.org/2000/svg">
<path d="M23.7101 10.1406C24.3592 10.4842 25.243 10.4596 25.9413 10.2886C26.298 10.1499 26.6316 9.97554 26.9716 9.80033C28.5764 8.97725 30.096 8.55498 31.9143 8.56361C32.0355 8.56416 32.1567 8.56471 32.2816 8.56528C33.1168 8.57637 33.869 8.62407 34.667 8.88709C34.7277 8.90649 34.7885 8.9259 34.8511 8.94589C36.4058 9.45113 37.663 10.2292 38.8662 11.3285C38.9384 11.3926 39.0105 11.4567 39.0848 11.5227C41.3022 13.5979 42.165 16.6478 42.272 19.5946C42.4625 26.7725 41.2469 34.3669 38.1826 40.9183C38.1332 41.0243 38.1332 41.0243 38.0828 41.1324C37.4429 42.4883 36.7205 43.7808 35.7412 44.9223C35.6875 44.9901 35.6337 45.058 35.5783 45.1279C34.9266 45.9282 34.0278 46.6391 33.0068 46.8754C32.3423 46.943 31.8086 46.9821 31.249 46.5824C30.0106 45.4494 29.8331 43.3745 29.4856 41.8177C28.6832 36.9059 28.6832 36.9059 25.9756 33.0082C25.522 32.7436 25.0209 32.7527 24.5108 32.8129C23.6833 33.0375 23.172 33.7079 22.7495 34.4151C21.5948 36.5416 21.1229 38.9857 20.6289 41.3315C20.1215 43.7374 20.1215 43.7374 19.7683 44.8246C19.7433 44.9038 19.7182 44.9831 19.6924 45.0647C19.4634 45.7297 19.0815 46.3082 18.5537 46.7777C17.7404 47.0488 16.8783 46.9215 16.1158 46.5618C14.5738 45.6529 13.5592 44.1912 12.6979 42.6604C12.6025 42.4911 12.5045 42.3232 12.4063 42.1555C9.74794 37.4372 8.50694 31.4278 7.90919 26.0746C7.89775 25.9737 7.88631 25.8728 7.87453 25.7688C7.39705 21.3452 7.20312 16.1952 10.0576 12.5004C13.49 8.29169 19.0364 7.39656 23.7101 10.1406ZM12.0649 12.7365C9.59399 15.2516 9.35 18.5597 9.35637 21.9088C9.38916 25.4681 9.92767 28.9643 10.7412 32.4223C10.7563 32.4863 10.7713 32.5504 10.7868 32.6165C12.3792 39.5004 12.3792 39.5004 16.6319 44.8826C17.0344 45.1217 17.2967 45.2419 17.7725 45.2152C18.0554 44.6599 18.2364 44.1066 18.3916 43.5059C18.4127 43.4251 18.4337 43.3443 18.4554 43.2611C18.6786 42.3931 18.8729 41.5189 19.0664 40.6439C20.7165 33.2122 20.7165 33.2122 22.8506 31.7387C23.8267 31.1455 24.8782 30.9916 26.0008 31.2164C27.2429 31.5865 28.0978 32.438 28.7165 33.5586C28.7843 33.688 28.8513 33.8179 28.9175 33.9481C28.9468 34.0057 28.9762 34.0633 29.0064 34.1226C29.6377 35.4251 30.0257 36.7888 30.364 38.1901C30.4062 38.3616 30.4485 38.533 30.4907 38.7045C30.751 39.765 30.995 40.8287 31.2307 41.8949C31.5342 43.6576 31.5342 43.6576 32.3233 45.2152C32.9675 45.1884 33.31 44.9508 33.7881 44.5316C33.8504 44.4774 33.9127 44.4231 33.9769 44.3672C38.6651 39.9809 39.9853 30.834 40.5264 24.7074C40.5333 24.6328 40.5402 24.5582 40.5473 24.4814C40.8785 20.755 40.9861 16.4159 38.4756 13.3793C38.4085 13.2963 38.3414 13.2134 38.2723 13.1279C36.8177 11.4165 34.7126 10.4332 32.5006 10.1814C30.7281 10.0635 29.2557 10.5199 27.7196 11.3331C27.1329 11.6339 26.5296 11.9005 25.8779 12.0121C26.796 13.0248 28.4345 13.1711 29.7293 13.2511C29.9407 13.2612 30.1522 13.2712 30.3701 13.2816C30.4024 13.7972 30.4346 14.3129 30.4678 14.8441C27.9567 14.7631 25.6536 14.3933 23.8455 12.5065C22.3922 11.0271 20.3724 10.2636 18.3252 10.157C15.9407 10.1545 13.7744 11.0848 12.0649 12.7365Z" fill="#106FAE"/>
<path d="M21.4852 4.29734C21.5595 4.31827 21.6339 4.3392 21.7104 4.36076C22.6199 4.62219 23.4644 4.95616 24.2879 5.42506C24.5759 5.58268 24.7736 5.66534 25.1046 5.6569C25.4289 5.55513 25.7035 5.41877 26.0018 5.25559C26.8095 4.835 27.6418 4.54622 28.5164 4.29734C28.6231 4.26612 28.6231 4.26612 28.7319 4.23426C32.1711 3.26835 35.9904 3.94192 39.0633 5.66453C40.0275 6.21695 40.8766 6.87372 41.7 7.61766C41.7771 7.68651 41.8541 7.75537 41.9335 7.82632C44.717 10.4546 45.9525 14.2313 46.0946 17.9692C46.1085 18.5633 46.1087 19.1574 46.1073 19.7516C46.1068 20.0196 46.1073 20.2876 46.1079 20.5556C46.1082 21.5533 46.0807 22.5412 45.9969 23.5356C45.4314 23.5445 44.8978 23.5104 44.3367 23.438C44.3372 23.3769 44.3376 23.3158 44.3381 23.2529C44.3425 22.6047 44.3454 21.9565 44.3475 21.3083C44.3484 21.0679 44.3498 20.8274 44.3515 20.587C44.36 19.3657 44.3559 18.1512 44.2513 16.9335C44.2438 16.8459 44.2363 16.7583 44.2285 16.668C44.0165 14.4783 43.2769 12.4305 41.993 10.645C41.9033 10.5198 41.9033 10.5198 41.8118 10.3921C39.8729 7.84139 37.072 6.20463 33.9155 5.7033C31.3912 5.39839 28.8319 5.72142 26.5816 6.93482C26.5226 6.96638 26.4636 6.99794 26.4028 7.03045C26.2464 7.11631 26.0923 7.2064 25.9385 7.29684C25.2267 7.55083 24.5539 7.51999 23.8675 7.20452C23.6848 7.11015 23.5031 7.01383 23.3223 6.91575C20.4521 5.45252 17.1187 5.20125 14.0393 6.18409C12.3401 6.76246 10.6348 7.70734 9.42006 9.04359C9.27815 9.18016 9.27815 9.18016 9.08284 9.18016C9.05678 9.23781 9.03072 9.29547 9.00387 9.35487C8.88549 9.57455 8.7604 9.7207 8.58845 9.90037C5.83143 12.9956 5.62467 17.015 5.65266 20.9416C5.65364 21.1855 5.65453 21.4293 5.65533 21.6731C5.65745 22.2614 5.66069 22.8497 5.66487 23.438C5.1038 23.5104 4.5702 23.5445 4.00471 23.5356C3.90915 22.3813 3.88723 21.2328 3.88874 20.0749C3.88884 19.9846 3.88893 19.8942 3.88902 19.8011C3.89908 15.2082 4.78952 11.3305 8.00862 7.91062C8.06212 7.85196 8.11562 7.7933 8.17074 7.73286C9.84544 5.96352 12.2161 4.7981 14.5516 4.19969C14.6607 4.17048 14.7699 4.14128 14.8823 4.11119C16.9623 3.64944 19.4441 3.70135 21.4852 4.29734Z" fill="#106FAE"/>
<path d="M18.0664 11.7189C18.0664 12.2345 18.0664 12.7501 18.0664 13.2814C17.8167 13.3338 17.5669 13.3861 17.3096 13.4401C15.7255 13.8042 14.5037 14.5954 13.623 15.9669C13.1667 16.767 12.8868 17.5605 12.7338 18.4671C12.6953 18.6525 12.6953 18.6525 12.5977 18.7501C12.4107 18.7599 12.2234 18.7628 12.0361 18.7623C11.9339 18.7626 11.8317 18.7628 11.7264 18.7631C11.4519 18.7513 11.2045 18.7148 10.9375 18.6525C11.1866 16.4144 12.1868 14.5718 13.8672 13.0861C15.1534 12.1148 16.4766 11.6828 18.0664 11.7189Z" fill="#106FAE"/>
</svg>
