<svg width="40" height="31" viewBox="0 0 40 31" fill="none" xmlns="http://www.w3.org/2000/svg">
<path d="M3.17979 0.480022C3.23893 0.479748 3.29807 0.479474 3.35899 0.479192C3.55735 0.478464 3.75569 0.478848 3.95404 0.479228C4.09762 0.478936 4.24119 0.478577 4.38476 0.478155C4.77947 0.477199 5.17417 0.47722 5.56888 0.477405C5.9945 0.477436 6.42013 0.476574 6.84575 0.475833C7.67971 0.474535 8.51367 0.474106 9.34763 0.474019C10.0255 0.473944 10.7033 0.473623 11.3811 0.473128C13.3026 0.471752 15.224 0.47103 17.1455 0.471148C17.2231 0.471153 17.2231 0.471153 17.3024 0.471158C17.4071 0.471164 17.5118 0.471171 17.6166 0.471177C19.2457 0.471273 20.8747 0.4701 22.5038 0.467963C24.3343 0.465562 26.1648 0.46422 27.9953 0.464363C28.9644 0.464415 29.9336 0.463985 30.9027 0.462304C31.7278 0.460882 32.5529 0.460541 33.3781 0.461603C33.7991 0.462113 34.22 0.46212 34.641 0.460766C35.0265 0.459539 35.4121 0.459759 35.7976 0.461123C35.9369 0.461363 36.0762 0.461078 36.2155 0.460207C37.3434 0.453629 38.2389 0.640553 39.0801 1.44586C39.623 2.02896 40.0209 2.7051 40.0221 3.52174C40.0226 3.60873 40.0231 3.69572 40.0236 3.78535C40.0234 3.88012 40.0231 3.97488 40.0229 4.07252C40.0233 4.17382 40.0236 4.27512 40.024 4.37949C40.0249 4.66018 40.0249 4.94087 40.0247 5.22156C40.0247 5.52449 40.0256 5.82741 40.0263 6.13033C40.0276 6.72366 40.028 7.31698 40.0281 7.91031C40.0282 8.39269 40.0285 8.87507 40.029 9.35744C40.0304 10.7255 40.0311 12.0936 40.031 13.4616C40.031 13.5722 40.031 13.5722 40.031 13.6851C40.0309 13.7589 40.0309 13.8327 40.0309 13.9088C40.0309 15.1051 40.0324 16.3013 40.0346 17.4976C40.0368 18.7263 40.0379 19.955 40.0378 21.1838C40.0377 21.8734 40.0381 22.5631 40.0398 23.2528C40.0412 23.84 40.0416 24.4272 40.0405 25.0145C40.04 25.314 40.04 25.6134 40.0414 25.9129C40.0428 26.2379 40.0418 26.563 40.0406 26.888C40.0414 26.9821 40.0422 27.0762 40.0431 27.1731C40.0354 28.1127 39.709 28.8964 39.0563 29.5782C38.4106 30.1794 37.7183 30.5255 36.8242 30.5202C36.7651 30.5205 36.7059 30.5208 36.645 30.521C36.4467 30.5218 36.2483 30.5214 36.05 30.521C35.9064 30.5213 35.7628 30.5217 35.6192 30.5221C35.2245 30.523 34.8298 30.523 34.4351 30.5228C34.0095 30.5228 33.5839 30.5237 33.1583 30.5244C32.3243 30.5257 31.4903 30.5261 30.6564 30.5262C29.9785 30.5263 29.3007 30.5266 28.6229 30.5271C26.7014 30.5285 24.78 30.5292 22.8585 30.5291C22.7809 30.5291 22.7809 30.5291 22.7016 30.5291C22.5969 30.5291 22.4922 30.5291 22.3874 30.5291C20.7584 30.529 19.1293 30.5301 17.5002 30.5323C15.6697 30.5347 13.8392 30.536 12.0087 30.5359C11.0396 30.5358 10.0704 30.5363 9.10132 30.5379C8.27619 30.5394 7.45106 30.5397 6.62593 30.5386C6.20495 30.5381 5.78398 30.5381 5.363 30.5395C4.97746 30.5407 4.59195 30.5405 4.20642 30.5391C4.0671 30.5389 3.92778 30.5392 3.78846 30.54C2.66061 30.5466 1.76511 30.3597 0.92394 29.5544C0.380988 28.9713 -0.0168948 28.2951 -0.0180954 27.4785C-0.0185992 27.3915 -0.0191028 27.3045 -0.0196218 27.2149C-0.0193799 27.1201 -0.019138 27.0254 -0.0188887 26.9277C-0.0192427 26.8264 -0.0195966 26.7251 -0.0199613 26.6207C-0.020916 26.3401 -0.0208966 26.0594 -0.0207123 25.7787C-0.0206804 25.4757 -0.021543 25.1728 -0.0222838 24.8699C-0.0235811 24.2766 -0.024011 23.6833 -0.0240982 23.0899C-0.0241724 22.6076 -0.0244937 22.1252 -0.0249889 21.6428C-0.0263649 20.2747 -0.0270856 18.9067 -0.0269684 17.5386C-0.0269591 17.428 -0.0269592 17.428 -0.0269496 17.3152C-0.0269433 17.2413 -0.0269369 17.1675 -0.0269303 17.0914C-0.0268668 15.8952 -0.0283617 14.6989 -0.030565 13.5027C-0.0328102 12.2739 -0.0338885 11.0452 -0.0337535 9.81647C-0.0337017 9.12681 -0.0341296 8.43715 -0.0358126 7.74748C-0.0372364 7.16023 -0.037574 6.57299 -0.0365141 5.98574C-0.0360045 5.68627 -0.0359931 5.38683 -0.0373507 5.08736C-0.0388091 4.76229 -0.0378319 4.43727 -0.0366271 4.1122C-0.0374307 4.01813 -0.0382345 3.92406 -0.0390625 3.82714C-0.0313731 2.88751 0.294995 2.10387 0.947744 1.42206C1.59341 0.820846 2.28574 0.474748 3.17979 0.480022ZM3.127 2.21887C3.48596 2.64499 3.48596 2.64499 3.87041 3.03369C3.91776 3.07766 3.9651 3.12163 4.01388 3.16694C4.08728 3.23422 4.08728 3.23422 4.16216 3.30285C4.21381 3.35063 4.26546 3.3984 4.31868 3.44762C4.66039 3.76303 5.005 4.07513 5.35174 4.38501C5.58863 4.59843 5.82274 4.81474 6.05669 5.03137C6.35433 5.30692 6.65305 5.58099 6.95513 5.85168C7.34153 6.19807 7.72254 6.55008 8.10351 6.9024C8.62762 7.38709 9.15315 7.87019 9.68462 8.3468C10.0326 8.65906 10.3762 8.97596 10.7193 9.29357C11.0369 9.58721 11.3575 9.87727 11.6796 10.166C11.9028 10.3672 12.1244 10.5702 12.3458 10.7736C12.6309 11.0355 12.917 11.2962 13.2051 11.5548C13.6915 11.9915 14.1724 12.4341 14.6536 12.8764C15.1175 13.3025 15.583 13.7268 16.0518 14.1476C16.2759 14.3498 16.4985 14.5537 16.7208 14.7579C17.07 15.0788 17.4212 15.3974 17.7745 15.7137C17.9151 15.8406 18.0548 15.9685 18.1938 16.097C18.3058 16.2004 18.3058 16.2004 18.42 16.3058C18.4872 16.3683 18.5545 16.4309 18.6238 16.4953C19.0325 16.8453 19.4442 17.1407 20.0029 17.1407C20.5421 17.0914 20.927 16.865 21.3204 16.4962C21.3881 16.4335 21.4559 16.3707 21.5257 16.3061C21.5901 16.2464 21.6544 16.1866 21.7208 16.1251C21.8196 16.0384 21.9189 15.9521 22.0186 15.8663C22.3442 15.5828 22.6603 15.2893 22.9769 14.9959C23.297 14.6994 23.6203 14.4067 23.9452 14.1155C24.1685 13.9143 24.3901 13.7113 24.6114 13.5079C24.8948 13.2475 25.1793 12.9884 25.4659 12.7316C25.7695 12.4591 26.0699 12.1835 26.3692 11.9064C26.7304 11.572 27.0943 11.2409 27.4608 10.9124C27.6841 10.7112 27.9057 10.5082 28.127 10.3048C28.4121 10.0429 28.6982 9.78215 28.9864 9.52356C29.4322 9.12331 29.8733 8.71799 30.3145 8.31262C31.1955 7.5031 31.1955 7.5031 31.6377 7.10657C32.0256 6.7584 32.4084 6.40485 32.791 6.05096C33.3151 5.56628 33.8406 5.08318 34.3721 4.60657C34.7157 4.29819 35.0555 3.98593 35.3941 3.67216C35.612 3.47029 35.8306 3.26928 36.0509 3.07001C36.0937 3.03117 36.1365 2.99233 36.1806 2.95232C36.299 2.8451 36.4175 2.73812 36.5361 2.63116C36.7309 2.45623 36.7309 2.45623 36.877 2.21887C25.7395 2.21887 14.602 2.21887 3.127 2.21887ZM1.72075 3.547C1.72075 11.4361 1.72075 19.3251 1.72075 27.4532C1.97263 27.3273 2.10518 27.2465 2.30089 27.0617C2.37499 26.9921 2.37499 26.9921 2.45058 26.9212C2.50139 26.8728 2.5522 26.8244 2.60454 26.7745C2.65444 26.7277 2.70434 26.6808 2.75576 26.6325C3.00685 26.3956 3.25395 26.1555 3.49718 25.9106C3.67703 25.7297 3.85928 25.5569 4.05474 25.3927C4.28987 25.1902 4.51067 24.9788 4.72857 24.7579C4.99116 24.4917 5.26271 24.2443 5.54644 24.0011C5.78636 23.787 6.00887 23.5564 6.23461 23.3276C6.44161 23.1235 6.65917 22.935 6.87975 22.7459C7.09058 22.5585 7.28662 22.3582 7.48247 22.1554C7.63517 22.0069 7.79111 21.8671 7.95183 21.7275C8.27512 21.4467 8.58746 21.1557 8.89849 20.8614C9.30148 20.4819 9.70704 20.1061 10.1201 19.7375C10.3562 19.5251 10.5893 19.3096 10.8223 19.0939C11.3994 18.5599 11.9823 18.0331 12.5752 17.5167C12.7606 17.3539 12.9438 17.1888 13.127 17.0236C13.4106 16.7677 13.6963 16.5146 13.9842 16.2637C14.2731 16.011 14.5593 15.7554 14.8458 15.5001C14.7224 15.1875 14.5178 15.0133 14.2696 14.7921C14.1845 14.7157 14.0995 14.6393 14.0145 14.5629C13.9709 14.5241 13.9273 14.4852 13.8825 14.4452C13.6777 14.2616 13.4757 14.0751 13.2735 13.8888C12.9934 13.6316 12.7119 13.376 12.4288 13.1222C12.0807 12.8099 11.7371 12.4929 11.3939 12.1752C11.14 11.9404 10.8846 11.7075 10.627 11.4767C10.2804 11.1661 9.93852 10.8507 9.59704 10.5346C9.34311 10.2998 9.0877 10.0669 8.83013 9.83606C8.48355 9.52549 8.14165 9.21011 7.80016 8.89398C7.54624 8.65917 7.29083 8.42625 7.03325 8.19543C6.68668 7.88486 6.34477 7.56949 6.00329 7.25336C5.74936 7.01855 5.49395 6.78562 5.23638 6.55481C4.8898 6.24424 4.5479 5.92886 4.20641 5.61273C3.89143 5.32147 3.57353 5.03371 3.25335 4.74817C3.09559 4.605 2.94024 4.4603 2.78582 4.3136C2.7404 4.27075 2.69498 4.22789 2.64818 4.18374C2.55903 4.09948 2.47031 4.01476 2.38207 3.92953C2.1532 3.71395 2.03358 3.6252 1.72075 3.547ZM37.8942 3.68158C37.8373 3.7419 37.7804 3.80223 37.7217 3.86438C37.5082 4.0851 37.2962 4.29977 37.0626 4.49914C36.7447 4.77169 36.4401 5.05739 36.1348 5.34387C35.794 5.66356 35.4516 5.97915 35.0972 6.28381C34.8395 6.51246 34.5892 6.74884 34.3379 6.9845C33.9971 7.30417 33.6547 7.61978 33.3003 7.92444C33.0427 8.15308 32.7923 8.38947 32.5411 8.62512C32.2002 8.94479 31.8579 9.2604 31.5035 9.56506C31.2458 9.79371 30.9955 10.0301 30.7442 10.2657C30.4033 10.5854 30.061 10.901 29.7066 11.2057C29.4489 11.4343 29.1986 11.6707 28.9473 11.9064C28.6065 12.226 28.2641 12.5417 27.9097 12.8463C27.652 13.075 27.4017 13.3113 27.1504 13.547C26.8015 13.8741 26.4518 14.1987 26.0893 14.5107C25.7748 14.7837 25.4672 15.0646 25.1583 15.3439C25.2836 15.6764 25.5349 15.8797 25.793 16.1105C25.839 16.1522 25.8849 16.1939 25.9323 16.2369C26.2195 16.4969 26.5093 16.7539 26.8022 17.0074C26.9853 17.167 27.1655 17.3296 27.3458 17.4923C27.5786 17.7024 27.8124 17.9113 28.0489 18.1173C28.696 18.6816 29.3282 19.2625 29.9604 19.8433C30.1564 20.0233 30.3527 20.2031 30.5489 20.3829C30.6271 20.4546 30.7053 20.5264 30.7836 20.5981C30.9387 20.7403 31.094 20.8825 31.2493 21.0247C31.4847 21.2403 31.72 21.4561 31.9551 21.672C31.9943 21.7079 32.0334 21.7438 32.0737 21.7808C32.7637 22.4144 33.4464 23.0555 34.1278 23.6982C34.351 23.9087 34.5744 24.1189 34.7978 24.3291C34.9076 24.4324 35.0174 24.5358 35.1272 24.6391C35.4134 24.9086 35.6998 25.1778 35.9865 25.4467C36.0457 25.5023 36.1048 25.5578 36.1658 25.615C36.2779 25.7203 36.3901 25.8255 36.5024 25.9306C36.8005 26.2105 37.0924 26.4955 37.3806 26.7855C37.5291 26.9334 37.6819 27.0752 37.8389 27.214C37.8902 27.2598 37.9414 27.3056 37.9943 27.3528C38.12 27.469 38.12 27.469 38.2833 27.4532C38.2833 19.5642 38.2833 11.6751 38.2833 3.547C38.0442 3.52136 38.0442 3.52136 37.8942 3.68158ZM16.1739 16.672C15.5798 17.1412 15.0232 17.6393 14.4713 18.1567C14.1021 18.5027 13.72 18.8322 13.3342 19.1595C12.6859 19.7098 12.6859 19.7098 12.0754 20.3011C11.9491 20.4281 11.8175 20.5445 11.6817 20.6613C11.3681 20.9317 11.0658 21.2132 10.7637 21.4962C10.1802 22.0428 9.59201 22.5837 9.00103 23.1222C8.3704 23.698 7.74849 24.2827 7.12744 24.8688C6.84889 25.1316 6.56996 25.394 6.29107 25.6564C6.18049 25.7604 6.06991 25.8645 5.95934 25.9686C5.90457 26.0201 5.8498 26.0717 5.79336 26.1248C5.6263 26.282 5.45926 26.4393 5.29223 26.5966C5.20928 26.6747 5.20928 26.6747 5.12467 26.7544C5.01454 26.8581 4.90443 26.9618 4.79435 27.0655C4.50955 27.3338 4.22407 27.6013 3.93755 27.8677C3.8794 27.9218 3.82125 27.976 3.76133 28.0318C3.64963 28.1358 3.53778 28.2397 3.42575 28.3433C3.37621 28.3895 3.32667 28.4356 3.27562 28.4832C3.23171 28.5239 3.18779 28.5647 3.14255 28.6066C3.03981 28.6902 3.03981 28.6902 3.04888 28.7814C14.2379 28.7814 25.427 28.7814 36.9551 28.7814C36.6452 28.4198 36.3712 28.1164 36.0225 27.8048C35.7611 27.5694 35.5022 27.3335 35.2559 27.0821C35.0773 26.9001 34.8927 26.7307 34.6993 26.5646C34.4641 26.3621 34.2433 26.1507 34.0254 25.9298C33.7612 25.6619 33.4879 25.4126 33.2024 25.1678C32.9851 24.9746 32.7837 24.767 32.5798 24.5599C32.43 24.4124 32.2758 24.2746 32.1163 24.1378C31.8826 23.9371 31.6636 23.7272 31.4473 23.5079C31.1938 23.2514 30.9335 23.0111 30.66 22.7764C30.3999 22.547 30.1475 22.3096 29.8946 22.0724C29.5083 21.7102 29.119 21.3523 28.7239 20.9997C28.5142 20.8095 28.3078 20.616 28.1016 20.4219C27.6272 19.9754 27.1456 19.5414 26.6483 19.1204C26.3441 18.8623 26.047 18.5979 25.754 18.3273C25.7151 18.2914 25.6763 18.2556 25.6363 18.2186C25.5989 18.1841 25.5615 18.1495 25.5229 18.1139C24.9767 17.6109 24.4069 17.1396 23.8301 16.672C23.6018 16.7753 23.4388 16.8877 23.261 17.0635C23.2135 17.1096 23.166 17.1557 23.1171 17.2032C23.0672 17.2519 23.0173 17.3006 22.9659 17.3507C22.0047 18.2666 21.0853 18.8118 19.7365 18.7978C18.645 18.7339 17.8783 18.097 17.1114 17.3751C16.998 17.2719 16.8841 17.1693 16.7696 17.0675C16.6986 17.0036 16.6986 17.0036 16.6262 16.9384C16.4823 16.825 16.3402 16.7478 16.1739 16.672Z" fill="#106FAE"/>
</svg>
