<svg width="50" height="50" viewBox="0 0 50 50" fill="none" xmlns="http://www.w3.org/2000/svg">
<g clip-path="url(#clip0_447_680)">
<path d="M5.56132 9.32555C5.73633 9.3251 5.91135 9.32448 6.08636 9.3237C6.56428 9.32208 7.04217 9.32288 7.52009 9.32409C8.03667 9.32498 8.55325 9.32361 9.06983 9.32253C10.0806 9.3208 11.0914 9.32117 12.1022 9.32231C12.9239 9.32319 13.7457 9.32331 14.5674 9.32288C14.6845 9.32282 14.8016 9.32276 14.9222 9.3227C15.1601 9.32258 15.398 9.32245 15.6359 9.32232C17.8649 9.32121 20.094 9.32249 22.323 9.32459C24.2344 9.32633 26.1457 9.32603 28.0571 9.32423C30.2783 9.32214 32.4996 9.32131 34.7208 9.32251C34.9578 9.32264 35.1948 9.32276 35.4318 9.32288C35.6067 9.32297 35.6067 9.32297 35.7851 9.32306C36.6056 9.3234 37.426 9.32283 38.2464 9.32191C39.2467 9.32082 40.247 9.32112 41.2472 9.3232C41.7573 9.32422 42.2673 9.32463 42.7774 9.32333C43.2448 9.32216 43.7122 9.32282 44.1797 9.32489C44.3482 9.32532 44.5168 9.32511 44.6853 9.32415C46.3239 9.31561 47.5704 9.63146 48.8033 10.7729C49.6768 11.6958 50.0463 12.7942 50.0419 14.0478C50.0424 14.1353 50.043 14.2229 50.0435 14.3131C50.0441 14.4967 50.044 14.6803 50.0431 14.8639C50.0423 15.1427 50.0451 15.4213 50.0482 15.7001C50.0484 15.8797 50.0483 16.0593 50.048 16.2389C50.0491 16.3211 50.0502 16.4032 50.0514 16.4878C50.0437 17.1466 49.8844 17.7409 49.4516 18.2527C49.2752 18.5188 49.2797 18.6913 49.28 19.0091C49.2793 19.1199 49.2786 19.2308 49.2779 19.345C49.2788 19.5241 49.2788 19.5241 49.2798 19.7069C49.2781 19.9602 49.2763 20.2135 49.2746 20.4668C49.2733 20.8658 49.2733 21.2648 49.2734 21.6638C49.2734 22.0491 49.2704 22.4344 49.2675 22.8197C49.2683 22.9383 49.2691 23.0569 49.27 23.1792C49.264 23.8654 49.2016 24.3211 48.8277 24.9025C48.7371 24.9891 48.6464 25.0757 48.5531 25.1649C48.4473 25.2767 48.4473 25.2767 48.3394 25.3908C48.3726 25.6248 48.3726 25.6248 48.4371 25.8791C48.4432 26.0452 48.4444 26.2115 48.4416 26.3777C48.4404 26.4746 48.4392 26.5714 48.438 26.6712C48.4366 26.7749 48.4351 26.8785 48.4337 26.9853C48.4331 27.2067 48.4328 27.4281 48.4327 27.6495C48.4325 27.9972 48.431 28.3445 48.4247 28.6922C48.3262 30.0087 48.3262 30.0087 48.7503 31.1976C48.9937 31.4117 49.237 31.5681 49.5113 31.7384C49.8171 32.1757 50.0094 32.6695 50.0169 33.2038C50.0181 33.2821 50.0194 33.3605 50.0207 33.4411C50.0218 33.5679 50.0218 33.5679 50.0229 33.6973C50.0236 33.7851 50.0244 33.873 50.0252 33.9635C50.0266 34.1499 50.0276 34.3363 50.0284 34.5228C50.0295 34.7117 50.0315 34.9006 50.0344 35.0895C50.0614 36.8447 49.8351 38.1156 48.5897 39.435C47.4015 40.5523 45.9923 40.6835 44.4359 40.6741C44.2607 40.6745 44.0854 40.675 43.9102 40.6757C43.4317 40.6772 42.9533 40.6762 42.4748 40.6748C41.9576 40.6737 41.4404 40.6749 40.9233 40.6757C39.9114 40.6771 38.8995 40.6764 37.8877 40.6749C36.7088 40.6733 35.53 40.6736 34.3512 40.6739C32.2478 40.6745 30.1444 40.6731 28.041 40.6707C26.0007 40.6684 23.9603 40.6677 21.92 40.6687C19.6969 40.6698 17.4739 40.67 15.2508 40.6686C15.0137 40.6685 14.7767 40.6683 14.5396 40.6682C14.3646 40.6681 14.3646 40.668 14.1861 40.6679C13.3647 40.6675 12.5432 40.6677 11.7218 40.6681C10.7207 40.6686 9.71972 40.668 8.7187 40.666C8.20809 40.6651 7.6975 40.6646 7.1869 40.6653C6.71928 40.666 6.25169 40.6654 5.78408 40.6636C5.61514 40.6632 5.4462 40.6633 5.27726 40.664C4.4248 40.6669 3.63395 40.6603 2.83162 40.3322C2.72824 40.2913 2.72824 40.2913 2.62278 40.2495C1.5831 39.8148 0.760792 38.8469 0.276679 37.853C-0.0677095 36.9543 -0.0599094 36.0705 -0.0513377 35.1217C-0.0492357 34.8446 -0.0513306 34.5678 -0.0538173 34.2907C-0.0535592 34.1119 -0.053059 33.9332 -0.0522914 33.7545C-0.0530821 33.673 -0.0538728 33.5915 -0.0546875 33.5075C-0.0426506 32.7424 0.206428 32.0727 0.73201 31.5065C0.7874 31.4453 0.842789 31.3841 0.899857 31.3211C1.07381 31.1525 1.07381 31.1525 1.27676 31.0256C1.48349 30.8752 1.48349 30.8752 1.51446 30.6385C1.51503 30.5522 1.5156 30.4658 1.51619 30.3768C1.5178 30.2787 1.51941 30.1806 1.52107 30.0795C1.52089 29.9736 1.5207 29.8677 1.52051 29.7586C1.52258 29.5951 1.52258 29.5951 1.5247 29.4284C1.5288 29.0794 1.53028 28.7305 1.53157 28.3815C1.53441 28.0332 1.53779 27.685 1.54158 27.3367C1.54377 27.1199 1.54532 26.9031 1.54615 26.6862C1.54684 26.5875 1.54753 26.4888 1.54824 26.387C1.54875 26.2573 1.54875 26.2573 1.54927 26.1249C1.56209 25.8791 1.56209 25.8791 1.6201 25.6158C1.68772 25.3829 1.68772 25.3829 1.52661 25.1894C1.43239 25.0957 1.43239 25.0957 1.33626 25.0002C0.894564 24.5558 0.756346 24.1835 0.75745 23.5567C0.757085 23.4456 0.756721 23.3344 0.756345 23.2199C0.756749 23.1007 0.757153 22.9814 0.757569 22.8586C0.756063 22.6052 0.754471 22.3517 0.7528 22.0983C0.750975 21.6995 0.750178 21.3007 0.751012 20.9019C0.751696 20.5165 0.748522 20.1312 0.745362 19.7458C0.746359 19.627 0.747355 19.5081 0.748382 19.3857C0.740078 18.665 0.65996 18.3223 0.194901 17.7736C-0.0293361 17.2782 -0.031819 16.8087 -0.0332179 16.2744C-0.033868 16.187 -0.0345181 16.0996 -0.0351878 16.0095C-0.0361738 15.8248 -0.0366349 15.6401 -0.0366035 15.4554C-0.0370282 15.1764 -0.0405717 14.8975 -0.0442805 14.6185C-0.0545697 12.9736 0.254076 11.7894 1.4095 10.5653C2.59697 9.44865 4.00578 9.31676 5.56132 9.32555ZM2.24568 12.0119C1.479 13.038 1.44867 14.0415 1.45833 15.2834C1.45877 15.3916 1.45921 15.4999 1.45966 15.6114C1.46081 15.8764 1.46241 16.1414 1.46443 16.4064C1.77855 16.4916 2.03571 16.506 2.36165 16.4919C3.04998 16.4845 3.59349 16.6809 4.19881 16.9923C4.27333 16.9299 4.34786 16.8675 4.42464 16.8031C4.94722 16.4021 5.51921 16.4513 6.15193 16.5041C6.93314 16.6741 7.56846 17.0001 8.20271 17.4806C8.29637 17.3477 8.29637 17.3477 8.39192 17.2121C8.79259 16.7411 9.25899 16.5431 9.86783 16.4667C10.9788 16.4268 11.8766 16.7032 12.7105 17.4425C12.8916 17.6077 12.8916 17.6077 13.1832 17.5783C13.3562 17.4403 13.3562 17.4403 13.5311 17.2609C14.2645 16.6047 14.9873 16.4349 15.9633 16.4667C17.0703 16.5867 17.9044 17.0615 18.6519 17.8712C18.9554 17.7359 19.1638 17.5757 19.4027 17.3463C20.2334 16.6024 21.1246 16.4721 22.2095 16.4835C23.307 16.5483 24.1705 17.069 24.9019 17.8712C25.2053 17.7363 25.4096 17.5772 25.6466 17.3463C26.4536 16.6209 27.4071 16.4726 28.4561 16.4835C29.5552 16.5478 30.4193 17.0677 31.1519 17.8712C31.431 17.7438 31.6366 17.6044 31.8599 17.3952C32.6818 16.6752 33.6232 16.4491 34.7027 16.4674C35.6252 16.5625 36.3308 16.9638 36.9137 17.6759C36.9846 17.6193 36.9846 17.6193 37.0571 17.5615C38.0829 16.7645 39.1057 16.3502 40.4293 16.5041C41.0265 16.6996 41.4869 17.0056 41.8941 17.4806C41.9533 17.4347 42.0125 17.3887 42.0734 17.3414C42.9874 16.6622 43.8684 16.3519 45.0191 16.5041C45.2861 16.6071 45.4673 16.7258 45.7027 16.8947C45.7672 16.9269 45.8316 16.9591 45.898 16.9923C46.0819 16.9205 46.0819 16.9205 46.2764 16.8092C46.7946 16.5275 47.1788 16.4942 47.7718 16.5041C47.9935 16.5077 48.2154 16.5086 48.4371 16.5041C48.6784 16.2627 48.5529 15.6193 48.5531 15.2956C48.5543 15.1932 48.5554 15.0909 48.5567 14.9854C48.559 13.7357 48.4026 12.6781 47.5277 11.7372C46.8687 11.1171 46.182 10.9258 45.2945 10.9245C45.2235 10.9243 45.1524 10.9241 45.0792 10.9239C44.8398 10.9232 44.6005 10.9232 44.3611 10.9233C44.1882 10.923 44.0154 10.9226 43.8425 10.9222C43.3665 10.9212 42.8905 10.9209 42.4145 10.9206C41.9015 10.9202 41.3885 10.9193 40.8755 10.9184C39.6362 10.9165 38.3968 10.9155 37.1574 10.9146C36.5739 10.9142 35.9905 10.9137 35.407 10.9132C33.4676 10.9115 31.5283 10.9101 29.5889 10.9094C29.0855 10.9092 28.5822 10.909 28.0789 10.9088C27.9538 10.9088 27.8286 10.9087 27.6998 10.9087C25.6727 10.9079 23.6457 10.9054 21.6186 10.9022C19.538 10.899 17.4574 10.8972 15.3768 10.8969C14.2084 10.8967 13.04 10.8959 11.8716 10.8934C10.8766 10.8912 9.88166 10.8905 8.88669 10.8914C8.37906 10.8919 7.87144 10.8917 7.36381 10.8898C6.89887 10.8881 6.43396 10.8881 5.96902 10.8897C5.80104 10.8899 5.63306 10.8895 5.46509 10.8883C4.17913 10.88 3.15099 11.0158 2.24568 12.0119ZM2.34334 17.9689C2.33201 18.7117 2.32334 19.4545 2.31804 20.1973C2.31549 20.5423 2.31204 20.8872 2.3065 21.2321C2.30017 21.6289 2.29781 22.0257 2.29565 22.4226C2.29313 22.5461 2.29061 22.6696 2.28802 22.7968C2.26266 23.4789 2.26266 23.4789 2.56833 24.0565C2.83028 24.2499 2.83028 24.2499 3.18562 24.2189C3.56468 24.1103 3.56468 24.1103 3.80818 23.8283C3.88979 23.5594 3.91849 23.3168 3.92002 23.0366C3.92065 22.9587 3.92127 22.8808 3.92191 22.8005C3.92202 22.7171 3.92213 22.6336 3.92224 22.5477C3.92257 22.461 3.92289 22.3743 3.92323 22.285C3.92372 22.1017 3.92395 21.9184 3.92393 21.7351C3.92415 21.456 3.92592 21.177 3.92777 20.898C3.92806 20.7196 3.92825 20.5411 3.92835 20.3626C3.92905 20.2798 3.92975 20.197 3.93047 20.1116C3.92812 19.4953 3.89589 18.9706 3.4847 18.4816C3.08764 18.1492 2.87096 17.9689 2.34334 17.9689ZM5.46834 17.9689C5.45701 18.7117 5.44834 19.4545 5.44304 20.1973C5.44049 20.5423 5.43704 20.8872 5.4315 21.2321C5.42517 21.6289 5.42281 22.0257 5.42065 22.4226C5.41813 22.5461 5.41561 22.6696 5.41302 22.7968C5.38677 23.4786 5.38677 23.4786 5.6962 24.0527C6.01694 24.2574 6.21253 24.2814 6.59139 24.2738C6.75302 24.274 6.75302 24.274 6.91792 24.2742C7.2865 24.2081 7.45138 24.0909 7.71443 23.8283C7.83099 23.4786 7.82977 23.1575 7.83192 22.7934C7.83276 22.6836 7.83276 22.6836 7.83361 22.5717C7.83453 22.4167 7.83517 22.2616 7.83555 22.1065C7.83649 21.8723 7.83952 21.6381 7.84261 21.4038C7.85028 20.3158 7.8246 19.3526 7.03389 18.5251C6.55388 18.1245 6.08687 17.9592 5.46834 17.9689ZM9.48031 18.2773C9.24244 18.682 9.30569 19.1859 9.30974 19.6413C9.30927 19.7565 9.3088 19.8717 9.30832 19.9904C9.30799 20.2337 9.30889 20.477 9.31093 20.7203C9.31354 21.0926 9.31096 21.4647 9.30783 21.837C9.30815 22.0735 9.30878 22.31 9.30974 22.5465C9.30875 22.6578 9.30776 22.7691 9.30674 22.8838C9.31356 23.5039 9.31356 23.5039 9.59284 24.0449C9.87497 24.2267 10.0109 24.2806 10.342 24.2803C10.4307 24.2805 10.5195 24.2807 10.6109 24.2809C10.7025 24.2786 10.794 24.2762 10.8883 24.2738C10.9798 24.2749 11.0713 24.276 11.1656 24.2771C11.5816 24.2727 11.8461 24.2575 12.212 24.0484C12.4095 23.8195 12.4877 23.6674 12.5606 23.3766C12.6648 22.9695 12.6648 22.9695 12.9879 22.7541C13.3858 22.7209 13.5279 22.7235 13.8668 22.9494C13.9535 23.1936 14.0088 23.4384 14.0678 23.6906C14.1828 23.9849 14.2787 24.0598 14.5504 24.2189C14.9538 24.2726 15.3563 24.2651 15.763 24.2625C15.9594 24.2616 16.1555 24.2644 16.3519 24.2675C16.4763 24.2675 16.6007 24.2674 16.7289 24.2674C16.8993 24.2676 16.8993 24.2676 17.0732 24.2679C17.4438 24.2092 17.6049 24.0879 17.8707 23.8283C18.0264 23.5168 17.9884 23.1788 17.9916 22.8365C17.9928 22.7168 17.9928 22.7168 17.994 22.5947C17.9953 22.4253 17.9964 22.2558 17.9972 22.0864C17.9988 21.83 18.0031 21.5738 18.0074 21.3174C18.0166 20.3508 18.018 19.5038 17.3927 18.7109C16.7817 18.2218 16.2446 17.9088 15.4426 17.9414C14.9713 18.0035 14.675 18.2094 14.3734 18.5609C14.0277 19.0251 14.0335 19.404 14.0115 19.9625C13.977 20.6255 13.977 20.6255 13.7691 20.8986C13.5929 20.9718 13.5929 20.9718 13.3907 20.9962C13.3245 21.0063 13.2583 21.0164 13.19 21.0268C12.8837 20.9805 12.7829 20.8484 12.5972 20.6056C12.5156 20.3172 12.5156 20.3172 12.463 19.9953C12.3168 19.2981 12.0902 18.8358 11.5169 18.4026C11.0366 18.091 10.6495 17.9609 10.0712 17.9178C9.81774 17.98 9.66026 18.0895 9.48031 18.2773ZM20.0817 18.7204C19.6263 19.3601 19.4713 19.9754 19.479 20.751C19.4786 20.8355 19.4782 20.92 19.4778 21.0071C19.4776 21.1841 19.4783 21.3611 19.4799 21.5381C19.482 21.8091 19.4799 22.0797 19.4774 22.3507C19.4777 22.5234 19.4782 22.6961 19.479 22.8689C19.4782 22.9496 19.4774 23.0302 19.4766 23.1133C19.4835 23.5786 19.4835 23.5786 19.7172 23.9737C20.104 24.2531 20.4283 24.2346 20.8912 24.2353C21.0064 24.2358 21.0064 24.2358 21.124 24.2363C21.2867 24.2368 21.4494 24.237 21.6121 24.237C21.8607 24.2372 22.1093 24.239 22.3579 24.2408C22.516 24.2411 22.674 24.2413 22.8321 24.2414C22.9435 24.2425 22.9435 24.2425 23.0571 24.2435C23.574 24.2465 23.574 24.2465 24.023 24.0236C24.2978 23.6676 24.2517 23.2259 24.2546 22.796C24.2555 22.7144 24.2563 22.6327 24.2572 22.5485C24.2587 22.3757 24.2595 22.2028 24.2599 22.0299C24.2611 21.7682 24.2658 21.5067 24.2708 21.245C24.2808 20.2022 24.2225 19.4399 23.5321 18.6098C22.4275 17.7062 21.1133 17.7139 20.0817 18.7204ZM26.2211 18.9169C25.8261 19.5174 25.7373 20.0063 25.7454 20.7105C25.7453 20.7932 25.7453 20.8758 25.7452 20.961C25.7454 21.1345 25.7464 21.3081 25.748 21.4817C25.7503 21.7472 25.75 22.0126 25.7494 22.2782C25.7499 22.4474 25.7506 22.6165 25.7515 22.7857C25.7514 22.8649 25.7513 22.944 25.7512 23.0256C25.7486 23.5596 25.7486 23.5596 25.9762 24.0236C26.3256 24.2901 26.74 24.2471 27.1602 24.2448C27.2368 24.245 27.3133 24.2452 27.3922 24.2454C27.5538 24.2455 27.7153 24.2452 27.8768 24.2444C28.1237 24.2433 28.3706 24.2444 28.6174 24.2456C28.7746 24.2455 28.9318 24.2452 29.0889 24.2448C29.1626 24.2452 29.2363 24.2456 29.3122 24.246C29.8242 24.2424 29.8242 24.2424 30.273 24.0236C30.5265 23.6433 30.5 23.3199 30.5011 22.8784C30.5018 22.7942 30.5024 22.71 30.5031 22.6233C30.5041 22.4448 30.5046 22.2663 30.5045 22.0879C30.505 21.8171 30.5085 21.5466 30.5122 21.2759C30.5128 21.102 30.5132 20.9282 30.5134 20.7544C30.5148 20.6744 30.5162 20.5944 30.5176 20.512C30.5122 19.8159 30.3187 19.2325 29.8679 18.6956C29.2233 18.1517 28.7416 17.9161 27.8888 17.9391C27.1583 18.0252 26.6895 18.3681 26.2211 18.9169ZM32.4463 18.9321C32.0871 19.5441 31.9859 20.0971 31.9885 20.7929C31.988 20.873 31.9875 20.9531 31.9869 21.0357C31.9863 21.2037 31.9864 21.3716 31.9873 21.5396C31.9881 21.7962 31.9853 22.0525 31.9822 22.3091C31.982 22.473 31.9821 22.637 31.9824 22.801C31.9813 22.8772 31.9802 22.9534 31.9791 23.0319C31.9838 23.399 32.0168 23.611 32.217 23.923C32.6647 24.3571 33.2213 24.2478 33.8147 24.2531C33.9474 24.2547 34.0801 24.2574 34.2127 24.2611C34.4046 24.2665 34.5965 24.2683 34.7885 24.27C34.9033 24.272 35.0182 24.2739 35.1365 24.2759C35.4593 24.2376 35.4593 24.2376 35.7304 24.0373C36.0318 23.5901 36.0055 23.2064 35.9985 22.6781C35.9987 22.5762 35.999 22.4742 35.9992 22.3692C35.9991 22.1539 35.9978 21.9386 35.9954 21.7233C35.992 21.3944 35.9934 21.0659 35.9953 20.737C35.9946 20.5275 35.9936 20.3181 35.9924 20.1086C35.9929 20.0106 35.9934 19.9126 35.9939 19.8117C35.9841 19.2313 35.9293 18.9009 35.5465 18.4572C35.0929 18.0479 34.7344 17.9269 34.1343 17.9357C33.4444 18.028 32.8874 18.4094 32.4463 18.9321ZM37.918 18.9462C37.3947 19.7579 37.4513 20.6754 37.456 21.6029C37.4569 21.8515 37.454 22.1 37.451 22.3486C37.4508 22.5076 37.4509 22.6667 37.4511 22.8258C37.45 22.8995 37.4489 22.9733 37.4478 23.0493C37.4542 23.5324 37.5441 23.7831 37.8902 24.1212C38.2558 24.304 38.6902 24.2496 39.0926 24.2555C39.1854 24.2592 39.2783 24.2628 39.3739 24.2666C39.464 24.2677 39.5541 24.2689 39.6469 24.27C39.7701 24.2729 39.7701 24.2729 39.8957 24.2759C40.2787 24.1852 40.4002 24.0555 40.6246 23.7306C40.6973 23.336 40.693 22.9468 40.6894 22.5465C40.6899 22.4313 40.6904 22.3161 40.6909 22.1974C40.6912 21.9541 40.6903 21.7108 40.6882 21.4676C40.6856 21.0952 40.6882 20.7231 40.6913 20.3508C40.691 20.1143 40.6904 19.8778 40.6894 19.6413C40.6904 19.53 40.6914 19.4187 40.6924 19.304C40.6867 18.6815 40.6867 18.6815 40.3989 18.1429C40.1153 17.955 39.9156 17.8981 39.5744 17.922C38.9162 18.0628 38.3167 18.3979 37.918 18.9462ZM42.8829 18.6109C42.0984 19.4523 42.1405 20.4854 42.1489 21.5612C42.1505 21.8027 42.1489 22.0441 42.147 22.2856C42.1472 22.4402 42.1476 22.5949 42.1482 22.7495C42.1476 22.8211 42.147 22.8927 42.1464 22.9665C42.1523 23.4009 42.2105 23.6796 42.4801 24.0236C42.8225 24.2519 42.9893 24.2537 43.3956 24.2616C43.5051 24.2655 43.6146 24.2694 43.7275 24.2735C44.0442 24.2186 44.2097 24.1532 44.43 23.918C44.6694 23.4732 44.5885 22.9132 44.5785 22.4226C44.5778 22.2954 44.5771 22.1682 44.5764 22.0371C44.5746 21.7001 44.5698 21.3632 44.5644 21.0262C44.5594 20.6819 44.5571 20.3375 44.5547 19.9932C44.5495 19.3184 44.5411 18.6436 44.5308 17.9689C43.8864 17.9544 43.3771 18.196 42.8829 18.6109ZM46.484 18.4572C46.0448 19.0239 46.0778 19.6545 46.0769 20.3401C46.0766 20.4271 46.0763 20.5142 46.076 20.6038C46.0755 20.7874 46.0752 20.9709 46.0752 21.1544C46.075 21.4347 46.0733 21.715 46.0714 21.9953C46.0711 22.174 46.0709 22.3526 46.0708 22.5313C46.0701 22.6148 46.0694 22.6983 46.0687 22.7844C46.0707 23.2998 46.0934 23.709 46.4534 24.109C46.7897 24.2726 47.0082 24.218 47.3629 24.1212C47.5809 23.9035 47.6503 23.7721 47.6911 23.4649C47.6904 23.3634 47.6898 23.2619 47.6891 23.1574C47.6891 23.042 47.6891 22.9267 47.689 22.8079C47.6875 22.6839 47.686 22.5599 47.6844 22.4321C47.6838 22.2411 47.6838 22.2411 47.6832 22.0462C47.6821 21.7084 47.6792 21.3707 47.676 21.0329C47.673 20.6879 47.6716 20.3429 47.6701 19.9979C47.667 19.3216 47.662 18.6452 47.6558 17.9689C47.1465 17.9689 46.8791 18.1503 46.484 18.4572ZM3.22753 26.0819C2.98451 26.5253 3.06689 27.0871 3.0769 27.5777C3.0776 27.7049 3.07829 27.8321 3.079 27.9632C3.08086 28.3002 3.08565 28.6371 3.09106 28.9741C3.09607 29.3184 3.09829 29.6628 3.10075 30.0071C3.10597 30.6819 3.1143 31.3567 3.12459 32.0314C3.61452 31.9631 3.90534 31.856 4.29646 31.5431C4.60046 31.1238 4.6981 30.7536 4.70282 30.2421C4.70376 30.1597 4.7047 30.0772 4.70567 29.9922C4.70629 29.8598 4.70629 29.8598 4.70692 29.7247C4.70776 29.5874 4.70776 29.5874 4.70861 29.4474C4.70953 29.2541 4.71017 29.0608 4.71055 28.8675C4.7115 28.5721 4.71453 28.2769 4.71761 27.9815C4.71824 27.7935 4.71876 27.6055 4.71913 27.4175C4.72034 27.3294 4.72154 27.2413 4.72279 27.1505C4.72112 26.6802 4.70674 26.3547 4.39412 25.9767C3.94313 25.6761 3.61734 25.67 3.22753 26.0819ZM6.35046 26.0823C6.111 26.5272 6.19189 27.0872 6.2019 27.5777C6.2026 27.7049 6.20329 27.8321 6.204 27.9632C6.20586 28.3002 6.21065 28.6371 6.21606 28.9741C6.22107 29.3184 6.22329 29.6628 6.22575 30.0071C6.23097 30.6819 6.2393 31.3567 6.24959 32.0314C6.37382 32.0171 6.49805 32.0028 6.62605 31.9881C6.69593 31.9801 6.76581 31.9721 6.83781 31.9638C7.47666 31.8644 7.90869 31.3781 8.27824 30.8847C8.57867 30.3317 8.62347 29.7757 8.62271 29.162C8.62313 29.0861 8.62355 29.0102 8.62398 28.932C8.62454 28.7726 8.62459 28.6132 8.62417 28.4538C8.62386 28.2106 8.62616 27.9675 8.62862 27.7242C8.62885 27.5687 8.62891 27.4132 8.62881 27.2577C8.62971 27.1855 8.63061 27.1132 8.63154 27.0388C8.62764 26.602 8.57209 26.3224 8.30037 25.9767C7.95793 25.7484 7.7911 25.7466 7.38484 25.7387C7.27532 25.7348 7.1658 25.7309 7.05296 25.7269C6.73627 25.7817 6.57076 25.8471 6.35046 26.0823ZM10.1558 26.2697C10.0832 26.6643 10.0874 27.0535 10.091 27.4538C10.0905 27.569 10.0901 27.6842 10.0896 27.8029C10.0892 28.0462 10.0901 28.2895 10.0922 28.5328C10.0948 28.9051 10.0922 29.2772 10.0891 29.6495C10.0894 29.886 10.09 30.1225 10.091 30.359C10.09 30.4703 10.089 30.5816 10.088 30.6963C10.0937 31.3188 10.0937 31.3188 10.3815 31.8575C10.6651 32.0453 10.8649 32.1022 11.206 32.0783C11.8643 31.9375 12.4637 31.6024 12.8624 31.0541C13.3857 30.2424 13.3292 29.3249 13.3244 28.3974C13.3236 28.1488 13.3264 27.9004 13.3295 27.6518C13.3296 27.4927 13.3296 27.3336 13.3293 27.1745C13.3304 27.1008 13.3315 27.027 13.3326 26.951C13.3262 26.4679 13.2363 26.2172 12.8902 25.8791C12.5246 25.6963 12.0902 25.7507 11.6878 25.7448C11.595 25.7411 11.5021 25.7375 11.4065 25.7337C11.3164 25.7326 11.2263 25.7315 11.1335 25.7303C11.0514 25.7284 10.9693 25.7264 10.8847 25.7244C10.5017 25.8151 10.3803 25.9448 10.1558 26.2697ZM15.05 25.963C14.7486 26.4102 14.775 26.7939 14.7819 27.3222C14.7817 27.4241 14.7815 27.5261 14.7812 27.6311C14.7813 27.8464 14.7826 28.0618 14.785 28.2771C14.7884 28.6059 14.7871 28.9344 14.7852 29.2633C14.7858 29.4728 14.7868 29.6823 14.788 29.8917C14.7875 29.9897 14.7871 30.0877 14.7866 30.1886C14.7963 30.769 14.8511 31.0994 15.234 31.5431C15.6875 31.9524 16.046 32.0734 16.6462 32.0646C17.336 31.9723 17.893 31.591 18.3342 31.0682C18.6933 30.4562 18.7946 29.9032 18.7919 29.2074C18.7924 29.1273 18.793 29.0472 18.7935 28.9646C18.7941 28.7967 18.794 28.6287 18.7931 28.4607C18.7923 28.2041 18.7951 27.9478 18.7982 27.6912C18.7984 27.5273 18.7983 27.3633 18.798 27.1993C18.7991 27.1231 18.8002 27.0469 18.8014 26.9684C18.7967 26.6013 18.7637 26.3893 18.5635 26.0773C18.1157 25.6432 17.5591 25.7525 16.9658 25.7472C16.8331 25.7456 16.7004 25.7429 16.5677 25.7392C16.3758 25.7338 16.1839 25.732 15.9919 25.7303C15.8197 25.7274 15.8197 25.7274 15.6439 25.7244C15.3212 25.7628 15.3212 25.7628 15.05 25.963ZM20.5074 25.9767C20.3067 26.2777 20.2872 26.3443 20.2837 26.685C20.2825 26.7685 20.2812 26.852 20.2799 26.938C20.2797 27.028 20.2795 27.118 20.2793 27.2108C20.2786 27.3039 20.278 27.397 20.2773 27.4929C20.2763 27.6902 20.2759 27.8874 20.2759 28.0847C20.2755 28.3848 20.2719 28.6847 20.2682 28.9848C20.2676 29.1767 20.2673 29.3687 20.2671 29.5606C20.2657 29.6497 20.2643 29.7387 20.2628 29.8304C20.2676 30.5106 20.4139 31.0557 20.9015 31.5488C20.9668 31.5933 21.0321 31.6377 21.0994 31.6835C21.165 31.7297 21.2306 31.7759 21.2982 31.8235C21.7582 32.0965 22.2353 32.0838 22.7535 32.0314C23.3797 31.8685 23.6782 31.5058 24.0104 30.969C24.1752 30.6595 24.2307 30.4106 24.2325 30.0653C24.2331 29.9845 24.2338 29.9037 24.2344 29.8204C24.2345 29.7334 24.2346 29.6464 24.2347 29.5568C24.2351 29.4671 24.2354 29.3774 24.2357 29.285C24.2362 29.0953 24.2365 28.9056 24.2364 28.7159C24.2366 28.4257 24.2384 28.1355 24.2403 27.8453C24.2406 27.661 24.2408 27.4767 24.2408 27.2924C24.2415 27.2056 24.2422 27.1188 24.243 27.0294C24.2425 26.9077 24.2425 26.9077 24.2421 26.7835C24.2422 26.7124 24.2423 26.6413 24.2425 26.5681C24.2143 26.3337 24.1446 26.1781 24.023 25.9767C23.7008 25.7465 23.3974 25.7562 23.0098 25.7555C22.8895 25.7552 22.7691 25.755 22.6452 25.7547C22.4571 25.7558 22.4571 25.7558 22.2652 25.757C22.1398 25.7562 22.0145 25.7555 21.8853 25.7547C21.7048 25.7551 21.7048 25.7551 21.5206 25.7555C21.4106 25.7557 21.3005 25.7559 21.1872 25.7561C20.9013 25.7811 20.743 25.8169 20.5074 25.9767ZM25.9762 25.9767C25.8108 26.2519 25.7561 26.4581 25.754 26.7773C25.7531 26.8572 25.7522 26.9371 25.7512 27.0194C25.7513 27.105 25.7514 27.1905 25.7515 27.2787C25.751 27.3675 25.7506 27.4564 25.7502 27.548C25.7496 27.7358 25.7496 27.9237 25.75 28.1116C25.7503 28.3978 25.748 28.6838 25.7456 28.9699C25.7453 29.1528 25.7453 29.3357 25.7454 29.5187C25.7445 29.6036 25.7436 29.6886 25.7426 29.7761C25.7482 30.5145 25.9269 31.1032 26.4644 31.6408C27.0148 32.0315 27.5578 32.133 28.2222 32.0314C28.8757 31.846 29.2492 31.4329 29.5894 30.8595C29.6792 30.5902 29.7008 30.4233 29.7044 30.1451C29.7063 30.0179 29.7063 30.0179 29.7082 29.8883C29.7089 29.797 29.7096 29.7058 29.7104 29.6117C29.7111 29.5177 29.7119 29.4237 29.7127 29.3268C29.7141 29.1279 29.7151 28.929 29.7159 28.7301C29.7176 28.4257 29.7219 28.1215 29.7262 27.8171C29.7272 27.6239 29.728 27.4307 29.7287 27.2375C29.7304 27.1464 29.7321 27.0554 29.7338 26.9616C29.738 26.4548 29.738 26.4548 29.5014 26.02C28.9719 25.6558 28.3702 25.7634 27.7462 25.7631C27.5568 25.7613 27.5568 25.7613 27.3636 25.7595C27.2423 25.7593 27.1211 25.7591 26.9962 25.7589C26.8849 25.7585 26.7737 25.7581 26.659 25.7577C26.3689 25.7812 26.2112 25.8081 25.9762 25.9767ZM31.3472 26.172C31.1915 26.4835 31.2295 26.8215 31.2263 27.1639C31.2255 27.2436 31.2247 27.3234 31.2239 27.4056C31.2226 27.575 31.2215 27.7445 31.2208 27.9139C31.2191 28.1703 31.2148 28.4265 31.2105 28.6829C31.2014 29.6495 31.1999 30.4965 31.8252 31.2894C32.4363 31.7785 32.9733 32.0915 33.7753 32.0589C34.2466 31.9968 34.5429 31.7909 34.8446 31.4394C35.1902 30.9752 35.1844 30.5963 35.2064 30.0378C35.241 29.3741 35.241 29.3741 35.4488 29.1017C36.1063 28.9426 36.1063 28.9426 36.4422 29.1093C36.6919 29.3719 36.7019 29.5947 36.755 29.9501C36.8956 30.6798 37.1028 31.1464 37.701 31.5973C38.181 31.9096 38.5685 32.0394 39.1468 32.0825C39.4002 32.0203 39.5577 31.9108 39.7376 31.723C39.9755 31.3183 39.9122 30.8145 39.9082 30.359C39.9087 30.2438 39.9091 30.1286 39.9096 30.0099C39.9099 29.7666 39.909 29.5233 39.907 29.2801C39.9044 28.9077 39.907 28.5356 39.9101 28.1633C39.9098 27.9268 39.9091 27.6903 39.9082 27.4538C39.9092 27.3425 39.9102 27.2312 39.9112 27.1165C39.9044 26.4964 39.9044 26.4964 39.6251 25.9554C39.343 25.7736 39.2071 25.7197 38.8759 25.72C38.7872 25.7198 38.6984 25.7196 38.607 25.7194C38.5155 25.7217 38.424 25.7241 38.3297 25.7265C38.2381 25.7254 38.1466 25.7243 38.0523 25.7232C37.6363 25.7277 37.3718 25.7428 37.006 25.9519C36.8084 26.1808 36.7302 26.3329 36.6573 26.6237C36.5531 27.0309 36.5531 27.0309 36.2301 27.2462C35.8321 27.2794 35.69 27.2768 35.3512 27.0509C35.2645 26.8068 35.2092 26.5619 35.1501 26.3097C35.0352 26.0155 34.9393 25.9405 34.6676 25.7814C34.2641 25.7277 33.8617 25.7352 33.4549 25.7378C33.2585 25.7387 33.0624 25.7359 32.8661 25.7328C32.7416 25.7328 32.6172 25.7329 32.489 25.733C32.3186 25.7327 32.3186 25.7327 32.1447 25.7324C31.7741 25.7911 31.6131 25.9124 31.3472 26.172ZM41.5035 26.172C41.3845 26.5289 41.3881 26.8599 41.386 27.2318C41.3854 27.3073 41.3849 27.3828 41.3843 27.4606C41.3834 27.6207 41.3828 27.7808 41.3824 27.9409C41.3814 28.1833 41.3784 28.4256 41.3753 28.668C41.3679 29.7532 41.3977 30.6371 42.184 31.4718C42.6604 31.8776 43.1314 32.0411 43.7496 32.0314C43.7609 31.2886 43.7696 30.5458 43.7749 29.803C43.7774 29.458 43.7809 29.1131 43.7864 28.7682C43.7928 28.3714 43.7951 27.9746 43.7973 27.5777C43.7998 27.4542 43.8023 27.3307 43.8049 27.2035C43.8312 26.5217 43.8312 26.5217 43.5217 25.9476C43.201 25.7429 43.0054 25.7189 42.6265 25.7265C42.5188 25.7263 42.411 25.7262 42.3 25.7261C41.9314 25.7922 41.7665 25.9095 41.5035 26.172ZM45.4097 26.172C45.321 26.4383 45.2989 26.5986 45.2964 26.8729C45.2954 26.9547 45.2945 27.0366 45.2935 27.1209C45.2931 27.2091 45.2927 27.2973 45.2923 27.3882C45.2917 27.4793 45.2911 27.5705 45.2906 27.6644C45.2896 27.8575 45.289 28.0506 45.2886 28.2436C45.2877 28.5377 45.2847 28.8317 45.2816 29.1257C45.2809 29.3136 45.2804 29.5014 45.28 29.6892C45.2788 29.7766 45.2776 29.864 45.2764 29.954C45.2788 30.6317 45.3873 31.0966 45.8431 31.6225C46.2168 31.9414 46.3773 32.0314 46.8746 32.0314C46.8859 31.2886 46.8946 30.5458 46.8999 29.803C46.9024 29.458 46.9059 29.1131 46.9114 28.7682C46.9178 28.3714 46.9201 27.9746 46.9223 27.5777C46.9248 27.4542 46.9273 27.3307 46.9299 27.2035C46.9563 26.5201 46.9563 26.5201 46.6427 25.9472C46.4009 25.7699 46.4009 25.7699 46.1422 25.7265C45.8164 25.7998 45.6474 25.941 45.4097 26.172ZM18.9815 32.5441C18.1352 33.3017 17.2071 33.5521 16.0778 33.5329C15.1552 33.4378 14.4496 33.0365 13.8668 32.3244C13.8194 32.3621 13.7721 32.3999 13.7233 32.4388C12.6975 33.2358 11.6748 33.6501 10.3512 33.4962C9.75389 33.3007 9.29348 32.9947 8.88631 32.5197C8.82714 32.5656 8.76798 32.6116 8.70702 32.6589C7.79306 33.3381 6.91203 33.6484 5.76131 33.4962C5.49431 33.3932 5.31311 33.2745 5.07771 33.1056C5.01326 33.0734 4.94881 33.0412 4.8824 33.008C4.6985 33.0798 4.6985 33.0798 4.50398 33.1911C3.89443 33.5225 3.32414 33.5532 2.63631 33.4962C2.26246 33.3535 1.9701 33.161 1.65974 32.9103C1.44151 33.5234 1.43519 34.0946 1.44002 34.7414C1.43926 34.8411 1.43851 34.9408 1.43773 35.0435C1.44087 36.281 1.60595 37.3323 2.47151 38.2631C3.13045 38.8832 3.81723 39.0745 4.70464 39.0758C4.81122 39.0761 4.81122 39.0761 4.91996 39.0765C5.15934 39.0771 5.39871 39.0771 5.63808 39.077C5.81093 39.0773 5.98378 39.0777 6.15664 39.0781C6.63264 39.0791 7.10865 39.0795 7.58466 39.0797C8.09766 39.0801 8.61065 39.081 9.12365 39.0819C10.363 39.0838 11.6024 39.0848 12.8417 39.0857C13.4252 39.0861 14.0087 39.0866 14.5922 39.0871C16.5316 39.0888 18.4709 39.0902 20.4103 39.0909C20.9136 39.0911 21.417 39.0913 21.9203 39.0915C22.0454 39.0915 22.1705 39.0916 22.2994 39.0916C24.3265 39.0924 26.3535 39.0949 28.3806 39.0981C30.4612 39.1013 32.5418 39.1031 34.6224 39.1034C35.7908 39.1036 36.9592 39.1044 38.1276 39.1069C39.1226 39.1091 40.1175 39.1098 41.1125 39.1089C41.6201 39.1084 42.1277 39.1086 42.6354 39.1105C43.1003 39.1122 43.5652 39.1122 44.0302 39.1106C44.1981 39.1104 44.3661 39.1108 44.5341 39.112C45.8277 39.1204 46.7666 38.9678 47.7337 38.0434C48.5569 37.0858 48.5523 35.9574 48.5531 34.7597C48.5543 34.6571 48.5554 34.5546 48.5567 34.449C48.5577 33.8967 48.5264 33.4314 48.3394 32.9103C48.2935 32.9444 48.2475 32.9785 48.2002 33.0137C48.109 33.0803 48.109 33.0803 48.0159 33.1483C47.9259 33.2146 47.9259 33.2146 47.834 33.2822C47.3668 33.5874 46.8247 33.5378 46.2887 33.4962C45.8366 33.3909 45.4307 33.2198 45.0191 33.008C44.9446 33.0704 44.8701 33.1328 44.7933 33.1972C44.2707 33.5982 43.6987 33.549 43.066 33.4962C42.2848 33.3262 41.6495 33.0002 41.0152 32.5197C40.9528 32.6083 40.8903 32.6969 40.826 32.7882C40.4253 33.2592 39.9589 33.4572 39.3501 33.5336C38.2391 33.5735 37.3414 33.2971 36.5074 32.5578C36.3263 32.3926 36.3263 32.3926 36.0347 32.422C35.8617 32.56 35.8617 32.56 35.6868 32.7394C34.9535 33.3956 34.2306 33.5655 33.2546 33.5336C32.2864 33.4287 31.4722 33.0657 30.8014 32.3553C30.6713 32.2045 30.6713 32.2045 30.4683 32.2267C30.3958 32.3294 30.3958 32.3294 30.3219 32.4342C29.7583 33.0823 28.9583 33.4534 28.1093 33.5207C27.0179 33.5586 26.1969 33.3301 25.3376 32.6532C25.1949 32.5197 25.1949 32.5197 25.0972 32.3244C25.0328 32.3244 24.9683 32.3244 24.9019 32.3244C24.7894 32.4402 24.6769 32.5561 24.5647 32.6723C23.8005 33.3824 22.9491 33.5448 21.9299 33.5264C21.0118 33.4469 20.2933 33.0498 19.6285 32.422C19.5963 32.3576 19.564 32.2931 19.5308 32.2267C19.2533 32.2267 19.1806 32.3553 18.9815 32.5441Z" fill="#106FAE"/>
</g>
<defs>
<clipPath id="clip0_447_680">
<rect width="50" height="50" fill="white"/>
</clipPath>
</defs>
</svg>
