<svg width="45" height="45" viewBox="0 0 45 45" fill="none" xmlns="http://www.w3.org/2000/svg">
<g clip-path="url(#clip0_16_846)">
<path d="M22.4446 -0.0217929C22.5077 -0.0218523 22.5708 -0.0219116 22.6358 -0.0219727C26.0732 -0.0168364 29.1785 1.41546 31.6046 3.82797C31.9377 4.17142 32.2327 4.53934 32.519 4.92205C32.5818 5.00442 32.6446 5.08679 32.7092 5.17165C34.7864 8.02311 35.6328 11.5929 35.176 15.0893C34.7803 17.6001 33.6737 19.7043 32.4311 21.8849C32.3849 21.9664 32.3386 22.0479 32.2909 22.1319C32.0352 22.5823 31.7779 23.0317 31.5199 23.4808C31.2409 23.9667 30.9625 24.4528 30.6843 24.9391C30.6545 24.9912 30.6247 25.0433 30.5941 25.0969C30.1183 25.9289 29.6483 26.764 29.1811 27.6008C28.7268 28.4138 28.2655 29.2227 27.802 30.0305C27.6235 30.3419 27.4455 30.6535 27.2676 30.9651C27.1724 31.1318 27.0771 31.2984 26.9819 31.465C27.4561 31.5888 27.9311 31.6914 28.412 31.7856C31.3519 32.3677 34.7527 33.4328 36.5895 35.9749C37.2003 36.9635 37.3608 38.087 37.1161 39.2183C36.933 39.7668 36.6506 40.2376 36.2983 40.6935C36.2464 40.762 36.1946 40.8304 36.1411 40.9009C33.7661 43.7802 29.1899 44.5874 25.6936 44.9356C25.0675 44.9924 24.4464 45.0154 23.8179 45.018C23.7206 45.0187 23.6234 45.0193 23.5232 45.0199C23.2113 45.0214 22.8993 45.022 22.5874 45.0222C22.4276 45.0222 22.4276 45.0222 22.2646 45.0223C20.7135 45.021 19.1987 44.9904 17.6655 44.7365C17.5721 44.7219 17.4786 44.7073 17.3824 44.6922C14.3494 44.2078 10.5607 43.2076 8.61278 40.6056C7.8648 39.5172 7.63678 38.448 7.87636 37.1446C8.37791 35.4349 9.93193 34.3015 11.4253 33.481C13.3736 32.4544 15.5287 31.9569 17.684 31.5868C17.8493 31.558 17.8493 31.558 18.0171 31.465C17.3494 30.2668 16.6765 29.0718 15.9944 27.8818C15.5764 27.1525 15.1632 26.4206 14.7541 25.6862C14.3524 24.9652 13.9419 24.25 13.5237 23.5384C13.0792 22.7819 12.65 22.0189 12.2337 21.2466C12.0417 20.8904 11.8487 20.5355 11.645 20.1858C9.81842 17.0495 9.27064 13.4086 10.0963 9.86384C10.1779 9.55999 10.2703 9.2632 10.3706 8.96502C10.4065 8.85637 10.4424 8.74772 10.4794 8.63578C11.2502 6.40032 12.6345 4.28791 14.5015 2.81268C14.5911 2.74074 14.6807 2.66879 14.773 2.59467C17.0066 0.852278 19.6231 -0.0194211 22.4446 -0.0217929ZM14.4751 5.71603C12.4928 8.0086 11.6156 11.0686 11.7768 14.0627C11.9965 16.5245 13.0446 18.5753 14.2751 20.6799C14.5137 21.0904 14.7463 21.5043 14.9794 21.9179C15.0757 22.0885 15.1721 22.2592 15.2684 22.4298C15.4107 22.6818 15.5529 22.9339 15.6951 23.186C16.2888 24.2385 16.8857 25.289 17.4863 26.3376C17.9057 27.0701 18.3203 27.8052 18.7312 28.5427C19.1823 29.3524 19.6461 30.1538 20.1159 30.9529C20.5082 31.6229 20.8818 32.3018 21.2503 32.9852C21.6172 33.663 22.007 34.3247 22.4116 34.9806C22.7502 34.8678 22.7732 34.761 22.94 34.4516C23.0171 34.3104 23.0171 34.3104 23.0957 34.1664C23.1229 34.1157 23.1501 34.065 23.1781 34.0128C23.324 33.7409 23.4727 33.4705 23.6208 33.1998C23.6515 33.1436 23.6822 33.0873 23.7138 33.0293C24.0352 32.441 24.3681 31.8594 24.7023 31.2783C25.1517 30.4952 25.597 29.71 26.0371 28.9217C26.4517 28.1791 26.8702 27.4389 27.2931 26.7009C27.609 26.1497 27.9222 25.5969 28.2344 25.0435C28.6323 24.338 29.0331 23.6342 29.4356 22.9314C30.0724 21.8192 30.7066 20.7057 31.3269 19.5843C31.4156 19.4241 31.5047 19.2642 31.5942 19.1045C33.1588 16.3068 33.6794 13.1825 32.8102 10.0637C31.9539 7.14544 30.0936 4.70884 27.4176 3.22741C22.9485 0.850801 17.8064 2.05599 14.4751 5.71603ZM10.5787 36.5963C10.0926 37.1337 9.8082 37.6408 9.81888 38.373C9.8598 38.7275 10.0017 38.9915 10.1948 39.2873C10.227 39.3367 10.2592 39.3861 10.2923 39.437C12.0564 41.7673 15.9605 42.4015 18.6373 42.7805C19.8988 42.9513 21.1401 42.9999 22.4116 43.0007C22.4973 43.0007 22.583 43.0008 22.6713 43.0008C26.4764 42.9967 31.2653 42.5119 34.2768 39.9025C34.8093 39.3335 35.212 38.8123 35.188 38.0091C35.0553 37.1212 34.3993 36.4763 33.7086 35.9619C33.4639 35.7992 33.2147 35.6521 32.9585 35.508C32.8605 35.452 32.7625 35.3961 32.6615 35.3384C30.6959 34.2642 28.0133 33.4865 25.7515 33.4865C25.7197 33.5434 25.688 33.6003 25.6552 33.6589C25.3341 34.234 25.0123 34.8087 24.6898 35.383C24.5818 35.5754 24.4739 35.7679 24.3663 35.9605C24.2261 36.211 24.0853 36.461 23.9442 36.711C23.9024 36.786 23.8607 36.8609 23.8176 36.9382C23.2292 37.9761 23.2292 37.9761 22.8263 38.1368C22.5185 38.158 22.289 38.1628 21.9941 38.0623C21.4082 37.5252 21.0616 36.6688 20.6703 35.9804C20.6105 35.8755 20.5507 35.7705 20.4909 35.6656C20.3717 35.4564 20.2525 35.2472 20.1335 35.0379C19.8388 34.5204 19.5431 34.0035 19.2476 33.4865C16.4053 33.4865 12.6367 34.5839 10.5787 36.5963Z" fill="#106FAE"/>
<path d="M27.4222 7.82213C28.7424 9.16991 29.3802 10.8253 29.3997 12.7001C29.3812 14.4777 28.8078 16.08 27.598 17.4022C27.5461 17.4621 27.4942 17.5221 27.4407 17.5838C26.5758 18.5242 25.4558 19.0462 24.2581 19.4237C24.1847 19.4471 24.1113 19.4706 24.0356 19.4948C22.4385 19.9025 20.5998 19.5598 19.1605 18.8085C17.6102 17.8772 16.4888 16.5739 15.9085 14.8534C15.8805 14.7713 15.8525 14.6893 15.8237 14.6048C15.3118 12.8026 15.604 10.8373 16.4956 9.21293C17.4211 7.63212 18.9362 6.55932 20.6766 6.03136C23.1312 5.39869 25.5903 6.0842 27.4222 7.82213ZM18.9847 9.40416C18.9371 9.4514 18.8895 9.49865 18.8405 9.54732C17.9511 10.4734 17.6314 11.648 17.6337 12.8997C17.6706 14.2187 18.2301 15.2847 19.1189 16.2315C20.1081 17.1597 21.4032 17.6144 22.7461 17.5962C24.1121 17.5079 25.3783 16.8369 26.2796 15.8202C27.154 14.673 27.45 13.4539 27.3343 12.0409C27.1792 10.8985 26.6053 9.77646 25.7049 9.04779C25.2468 8.70329 24.7898 8.39076 24.2581 8.17369C24.1998 8.14752 24.1414 8.12135 24.0813 8.09438C22.31 7.42359 20.2249 8.02981 18.9847 9.40416Z" fill="#106FAE"/>
</g>
<defs>
<clipPath id="clip0_16_846">
<rect width="45" height="45" fill="white"/>
</clipPath>
</defs>
</svg>
