<svg width="50" height="50" viewBox="0 0 50 50" fill="none" xmlns="http://www.w3.org/2000/svg">
<path d="M23.0687 5.05949C23.2336 5.19954 23.2336 5.19954 23.4273 5.14489C23.7539 5.03935 24.0496 4.87102 24.3527 4.71235C27.5063 3.10705 31.2689 3.00338 34.6295 4.03618C36.1124 4.5302 37.4018 5.32386 38.5739 6.3481C38.6415 6.40701 38.7091 6.46592 38.7788 6.52662C41.1523 8.75417 42.2064 12.2433 42.3127 15.4091C42.3888 19.3608 41.3362 22.7259 39.4328 26.1484C39.2735 26.4364 39.1175 26.7259 38.963 27.0165C38.8781 27.1746 38.7932 27.3326 38.7082 27.4907C38.6714 27.5607 38.6346 27.6307 38.5967 27.7028C38.3811 28.0972 38.1713 28.3681 37.7927 28.6137C37.4997 28.6687 37.4997 28.6687 37.2067 28.6137C36.926 28.4123 36.926 28.4123 36.7185 28.1254C36.6157 27.4517 36.9119 26.9891 37.2312 26.4104C37.2836 26.3124 37.336 26.2145 37.3901 26.1136C37.6585 25.6141 37.9331 25.1181 38.2085 24.6224C40.2525 20.9381 41.2518 16.6306 40.1231 12.4646C40.0116 12.0802 39.8821 11.7048 39.7458 11.3286C39.7098 11.2266 39.6738 11.1246 39.6367 11.0196C39.1695 9.7985 38.4212 8.73442 37.4997 7.81294C37.4317 7.74496 37.3638 7.67698 37.2937 7.60695C35.0832 5.52552 32.1148 5.09343 29.2052 5.16292C27.4383 5.24148 25.4403 5.81045 24.0556 6.95387C23.7488 7.19023 23.5648 7.20299 23.1877 7.18619C22.8048 7.09503 22.541 6.87165 22.2321 6.63534C20.0762 5.06193 17.0109 4.90217 14.4589 5.28608C11.9295 5.72318 9.79229 6.88247 8.29286 8.99206C8.00364 9.43235 7.74963 9.87834 7.51924 10.352C7.47015 10.4507 7.42105 10.5494 7.37047 10.6511C5.82068 13.9866 5.9855 18.2708 7.22627 21.6801C7.63073 22.7732 8.12684 23.7981 8.6667 24.8295C8.74567 24.9818 8.82457 25.1341 8.9034 25.2864C9.26129 25.9769 9.62333 26.6649 9.99209 27.3496C11.8885 30.883 12.8318 34.5756 13.1612 38.5598C13.1673 38.6328 13.1733 38.7057 13.1796 38.7809C13.2087 39.1345 13.2359 39.488 13.26 39.842C13.3732 41.3896 13.6553 43.2623 14.8557 44.3608C15.2848 44.6857 15.5983 44.847 16.1435 44.8247C16.7555 44.7352 17.1502 44.4134 17.5443 43.9515C18.6153 42.4679 18.7596 40.6741 18.8145 38.9099C18.8934 36.4067 19.1817 33.7146 21.0984 31.8883C22.0102 31.172 23.0817 30.9469 24.2185 31.0551C25.1702 31.2904 26.0176 31.9025 26.5622 32.7153C27.7022 34.6493 27.9092 36.7091 27.9721 38.9165C28.0258 40.7222 28.1997 42.6951 29.437 44.1228C29.8824 44.503 30.2559 44.8128 30.8591 44.8247C31.5464 44.7051 32.0075 44.4046 32.4216 43.8481C33.436 42.2704 33.4915 40.327 33.6423 38.5136C33.7498 37.2323 33.864 35.9548 34.0665 34.6844C34.0801 34.5913 34.0936 34.4982 34.1076 34.4023C34.2001 33.8624 34.3035 33.5438 34.7653 33.2036C35.1071 33.1425 35.1071 33.1425 35.4489 33.2036C35.7358 33.405 35.7358 33.405 35.9372 33.6918C35.9838 34.2814 35.8666 34.841 35.7663 35.4191C35.5325 36.8333 35.415 38.2554 35.3008 39.6833C35.1327 41.7324 34.8442 44.1798 33.2204 45.6448C32.2037 46.3919 31.3205 46.6464 30.0778 46.4848C29.0182 46.2508 28.175 45.4981 27.5964 44.6049C26.5532 42.8005 26.2854 40.8968 26.2265 38.8493C26.1387 35.8813 26.1387 35.8813 24.8044 33.3012C24.4338 32.9683 24.0851 32.7856 23.5837 32.758C23.1808 32.7803 22.8788 32.9093 22.5316 33.1086C22.363 33.2036 22.363 33.2036 22.07 33.3012C21.9658 33.4795 21.9658 33.4795 21.8747 33.6918C21.7815 33.8365 21.6878 33.9809 21.5939 34.1252C20.6776 35.6473 20.6663 37.4593 20.6023 39.1818C20.5128 41.5199 20.1482 44.0164 18.3591 45.7036C17.6164 46.3275 16.7218 46.6517 15.7464 46.6099C14.651 46.4728 13.7884 45.9371 13.0837 45.0974C11.8987 43.4262 11.6902 41.6025 11.519 39.6152C11.0793 34.5305 9.70201 30.1584 7.1721 25.7344C4.76735 21.5215 3.83353 16.4393 5.09614 11.6948C5.6727 9.69274 6.65903 8.02738 8.10518 6.54341C8.16082 6.48059 8.21646 6.41778 8.27379 6.35306C11.4548 2.85393 19.3767 2.06704 23.0687 5.05949Z" fill="#106FAE"/>
<path d="M34.5172 12.6853C36.1093 14.0092 37.1386 16.0237 37.4019 18.0663C37.5562 20.6258 37.0682 22.931 35.3511 24.9023C35.0347 25.238 34.7087 25.5609 34.3746 25.8788C34.2767 25.9763 34.179 26.0739 34.0816 26.1718C34.1212 26.2359 34.1609 26.3 34.2018 26.3661C34.9917 27.6443 35.7761 28.9254 36.5473 30.2151C37.0384 31.0361 37.5337 31.8545 38.0306 32.672C38.0678 32.7333 38.1051 32.7946 38.1434 32.8578C38.3519 33.2008 38.5605 33.5437 38.7691 33.8866C38.8658 33.8544 38.9624 33.8222 39.062 33.789C40.3156 33.6949 40.3156 33.6949 40.8199 34.0819C41.3803 34.7164 41.8014 35.4333 42.2237 36.1632C42.3603 36.3971 42.4974 36.6308 42.6345 36.8644C42.6696 36.9242 42.7046 36.9841 42.7407 37.0457C43.17 37.7775 43.6121 38.5014 44.0542 39.2254C44.2165 39.4912 44.3784 39.7571 44.5395 40.0236C44.6666 40.2337 44.7949 40.443 44.9242 40.6517C44.9863 40.754 45.0485 40.8563 45.1125 40.9618C45.1683 41.0523 45.224 41.1429 45.2815 41.2363C45.5481 41.7924 45.4896 42.3289 45.3059 42.9015C44.7034 43.7373 43.5477 44.489 42.5327 44.6986C41.9362 44.7174 41.5 44.5989 41.0152 44.2382C40.8145 43.9971 40.8145 43.9971 40.6368 43.7011C40.5841 43.615 40.5841 43.615 40.5303 43.5272C40.4471 43.3907 40.3647 43.2537 40.2828 43.1164C40.1135 42.8328 39.9415 42.5509 39.7693 42.269C39.4864 41.8054 39.2048 41.3412 38.924 40.8763C38.6211 40.375 38.3162 39.8749 38.01 39.3756C37.8967 39.1905 37.7835 39.0054 37.6703 38.8203C37.5979 38.7022 37.5254 38.5842 37.4527 38.4662C36.3855 36.7338 36.3855 36.7338 36.523 35.9374C36.7644 35.2354 36.7644 35.2354 37.1166 35.0483C37.1786 35.0195 37.2405 34.9906 37.3042 34.9608C36.8809 34.1649 36.426 33.3919 35.9554 32.6232C35.8829 32.5045 35.8105 32.3858 35.7381 32.2671C35.6256 32.0825 35.5131 31.8981 35.4005 31.7136C35.1364 31.2811 34.8736 30.8478 34.6114 30.4141C33.5873 28.7186 33.5873 28.7186 32.5191 27.0507C32.4467 27.0825 32.3743 27.1144 32.2997 27.1472C30.2054 28.0162 27.8205 28.1158 25.6954 27.2704C23.4783 26.3084 21.7428 24.7265 20.8403 22.4487C20.1133 20.5354 20.0223 18.3488 20.7027 16.4062C20.7369 16.305 20.7712 16.2037 20.8064 16.0995C21.6485 13.8656 23.3086 12.3014 25.4329 11.2796C28.5843 9.94923 31.8807 10.6514 34.5172 12.6853ZM24.1206 14.1601C24.0587 14.2141 23.9968 14.2681 23.933 14.3237C22.7623 15.4089 22.0117 17.0905 21.9444 18.6748C21.8907 20.8884 22.511 22.6319 24.0424 24.2503C25.4048 25.5766 27.2579 26.2122 29.14 26.1928C30.1766 26.1309 31.1176 25.8808 32.0308 25.3905C32.1106 25.3496 32.1904 25.3087 32.2727 25.2666C33.874 24.3845 34.9871 22.9234 35.5464 21.1913C36.0597 19.3655 35.8026 17.4185 34.9032 15.7646C33.9407 14.1143 32.324 12.9451 30.4866 12.4572C28.1766 11.9075 25.8756 12.5787 24.1206 14.1601ZM38.9034 35.8214C38.8139 35.8737 38.8139 35.8737 38.7225 35.9269C38.5306 36.0402 38.5306 36.0402 38.2808 36.2304C38.2808 36.557 38.3357 36.6515 38.5001 36.9258C38.5733 37.0487 38.5733 37.0487 38.6478 37.1741C38.702 37.2635 38.7561 37.3529 38.8118 37.445C38.8679 37.5387 38.9239 37.6323 38.9817 37.7288C39.1705 38.0436 39.3603 38.3577 39.5503 38.6718C39.6195 38.7863 39.6886 38.9009 39.7577 39.0154C40.5567 40.3398 41.3607 41.6611 42.187 42.9687C42.543 42.8355 42.8621 42.6756 43.188 42.4804C43.2731 42.43 43.3582 42.3797 43.4459 42.3278C43.6634 42.2041 43.6634 42.2041 43.7495 41.9921C43.622 41.7286 43.622 41.7286 43.4329 41.4283C43.3983 41.3709 43.3636 41.3136 43.3279 41.2544C43.2128 41.0645 43.0967 40.8752 42.9805 40.6859C42.9005 40.5544 42.8205 40.4227 42.7407 40.2911C42.5748 40.0179 42.4085 39.7451 42.2419 39.4724C42.0018 39.0793 41.7635 38.6852 41.5256 38.2907C41.4152 38.1079 41.3048 37.9252 41.1944 37.7425C41.1246 37.627 41.0549 37.5115 40.9851 37.3959C40.6638 36.864 40.3402 36.3335 40.0035 35.8111C39.9582 35.7408 39.9129 35.6704 39.8663 35.5978C39.8265 35.5488 39.7867 35.4997 39.7456 35.4491C39.4212 35.4491 39.1733 35.6567 38.9034 35.8214Z" fill="#106FAE"/>
<path d="M13.086 6.93348C13.4059 7.14391 13.4671 7.29131 13.5743 7.6598C13.5743 8.0077 13.5743 8.0077 13.4461 8.25795C13.1423 8.53352 12.8203 8.71598 12.4665 8.92094C11.3959 9.58539 10.8348 10.5544 10.2582 11.6427C10.1563 11.8163 10.1563 11.8163 9.96103 12.0116C9.54999 12.0799 9.19402 12.0771 8.83188 11.8651C8.62526 11.5058 8.59896 11.2349 8.6915 10.8397C9.35762 9.28807 10.5062 7.91064 12.0118 7.1288C12.0785 7.09229 12.1452 7.05578 12.214 7.01817C12.5157 6.88259 12.761 6.89866 13.086 6.93348Z" fill="#106FAE"/>
</svg>
