<svg width="45" height="45" viewBox="0 0 45 45" fill="none" xmlns="http://www.w3.org/2000/svg">
<g clip-path="url(#clip0_16_815)">
<path d="M23.231 0.0770794C23.5963 0.294435 23.8818 0.579478 24.1744 0.884575C28.0274 4.71437 33.5702 6.24702 38.8501 6.43679C38.934 6.43994 39.018 6.44309 39.1044 6.44634C39.2613 6.4517 39.4183 6.45589 39.5753 6.45865C40.0856 6.47456 40.4523 6.56429 40.8541 6.90336C40.8953 6.95106 40.9366 6.99876 40.979 7.0479C41.0212 7.09447 41.0633 7.14103 41.1068 7.18901C41.4069 7.69972 41.4234 8.28592 41.4273 8.86267C41.4285 8.93723 41.4297 9.0118 41.4309 9.08862C41.4344 9.33467 41.4368 9.5807 41.4391 9.82676C41.4413 10.0011 41.4435 10.1754 41.4458 10.3497C41.4515 10.814 41.456 11.2784 41.46 11.7428C41.4624 12.0304 41.4652 12.3179 41.4679 12.6055C41.5028 16.3604 41.5041 20.0953 40.9571 23.8185C40.9433 23.916 40.9294 24.0134 40.9152 24.1138C40.1598 29.3634 38.066 34.3057 34.3653 38.1447C34.3183 38.1936 34.2714 38.2424 34.223 38.2928C33.6019 38.936 32.9627 39.5286 32.2559 40.0783C32.1726 40.1455 32.0894 40.2127 32.0036 40.2819C29.6442 42.1544 25.1541 45.2933 21.9727 45.0002C21.5922 44.9022 21.2364 44.7611 20.8741 44.6102C20.7248 44.5501 20.7248 44.5501 20.5725 44.4889C20.2765 44.3688 19.9818 44.2457 19.6875 44.1213C19.567 44.0706 19.567 44.0706 19.444 44.019C15.5393 42.3635 11.7469 39.8766 9.14067 36.4748C9.10473 36.4284 9.06878 36.3821 9.03175 36.3344C5.20455 31.3771 3.85246 25.1978 3.58708 19.0505C3.58327 18.9638 3.57947 18.8772 3.57555 18.7879C3.48675 16.6318 3.51338 14.4743 3.53484 12.3171C3.53764 12.0305 3.54016 11.7439 3.54263 11.4573C3.54672 11 3.55183 10.5428 3.55777 10.0855C3.55989 9.91467 3.56176 9.7438 3.56335 9.57294C3.56567 9.33616 3.56906 9.09942 3.57275 8.86267C3.57321 8.79401 3.57368 8.72536 3.57416 8.65463C3.58567 8.0504 3.64494 7.4608 4.07048 6.99847C4.1209 6.94159 4.17131 6.88472 4.22326 6.82612C4.60252 6.50234 5.01363 6.4745 5.49492 6.45773C5.6268 6.4517 5.75867 6.44566 5.89054 6.4396C5.99364 6.43527 5.99364 6.43527 6.09882 6.43085C8.14892 6.34253 10.1335 6.12006 12.129 5.62517C12.1956 5.60866 12.2622 5.59215 12.3309 5.57514C15.065 4.87762 17.7155 3.49677 19.8633 1.6701C19.9583 1.59029 20.0533 1.51053 20.1483 1.4308C20.5563 1.08749 20.9622 0.741958 21.363 0.39019C21.905 -0.0595729 22.5535 -0.178817 23.231 0.0770794ZM22.0002 4.15301C21.0789 5.00902 19.9795 5.69595 18.8965 6.3283C18.8408 6.36155 18.7851 6.3948 18.7277 6.42906C16.9063 7.51194 14.9552 8.22031 12.92 8.78924C12.852 8.80847 12.784 8.8277 12.714 8.84752C10.8149 9.37365 8.81369 9.52729 6.85551 9.66814C6.3795 22.05 6.3795 22.05 12.8578 35.7864C12.9363 35.8686 13.0149 35.9507 13.0957 36.0353C13.1516 36.0948 13.2075 36.1543 13.265 36.2156C13.6997 36.6669 14.1895 37.0504 14.6778 37.4416C14.7475 37.4996 14.8171 37.5576 14.8889 37.6174C15.5182 38.1367 16.1873 38.5863 16.875 39.0236C16.9292 39.0583 16.9834 39.0929 17.0392 39.1286C19.682 40.8549 19.682 40.8549 22.6075 41.6517C23.0635 41.5428 23.4811 41.3714 23.9118 41.1879C24.0044 41.1487 24.0971 41.1095 24.1926 41.0691C26.403 40.1205 28.4551 38.9639 30.3223 37.4416C30.3772 37.3968 30.4322 37.3521 30.4887 37.306C31.5648 36.4215 32.5475 35.4712 33.3985 34.3654C33.4355 34.318 33.4725 34.2706 33.5106 34.2218C38.7744 27.4475 38.3571 18.3154 38.1446 9.66814C38.0333 9.65892 38.0333 9.65892 37.9199 9.64952C32.5287 9.19464 26.6533 7.84479 22.6758 3.86736C22.2754 3.86736 22.2653 3.88841 22.0002 4.15301Z" fill="#106FAE"/>
<path d="M29.8162 16.6605C30.2189 16.8864 30.5053 17.2228 30.6385 17.6678C30.7713 18.3331 30.5801 18.7777 30.2337 19.3357C29.9736 19.6541 29.6865 19.9405 29.3935 20.2286C29.3084 20.3138 29.2235 20.3991 29.1387 20.4845C28.9099 20.7141 28.6799 20.9423 28.4495 21.1703C28.2077 21.4099 27.9671 21.6508 27.7264 21.8915C27.3223 22.2952 26.9175 22.698 26.512 23.1002C26.044 23.5645 25.5771 24.0299 25.1109 24.4959C24.6129 24.9935 24.1143 25.4904 23.6155 25.9871C23.4723 26.1297 23.3293 26.2724 23.1863 26.4151C22.9613 26.6396 22.7358 26.8637 22.51 27.0874C22.3882 27.2082 22.2668 27.3294 22.1455 27.4507C21.1045 28.4792 21.1045 28.4792 20.3735 28.5038C20.3106 28.5071 20.2477 28.5104 20.183 28.5138C19.3193 28.3747 18.7553 27.6857 18.169 27.0962C18.0663 26.9939 17.9635 26.8916 17.8606 26.7894C17.646 26.5757 17.4321 26.3614 17.2186 26.1467C16.9459 25.8725 16.6715 25.6001 16.3965 25.3282C16.184 25.1177 15.9727 24.9061 15.7615 24.6943C15.6608 24.5935 15.5597 24.493 15.4583 24.3928C14.3685 23.3149 14.3685 23.3149 14.3066 22.5211C14.3766 21.9242 14.5339 21.5657 14.9902 21.1539C15.3074 20.9343 15.5577 20.902 15.935 20.8958C16.0163 20.8935 16.0975 20.8912 16.1812 20.8889C16.8636 20.9665 17.269 21.4533 17.7251 21.9185C17.7965 21.9903 17.868 22.0621 17.9416 22.1361C18.1687 22.3648 18.395 22.5943 18.6212 22.8239C18.7754 22.9794 18.9296 23.1349 19.084 23.2903C19.4614 23.6706 19.8381 24.0517 20.2142 24.4334C20.4903 24.3111 20.6757 24.1688 20.8875 23.9546C20.95 23.8919 21.0124 23.8292 21.0768 23.7645C21.1444 23.6957 21.212 23.6269 21.2817 23.556C21.3536 23.4836 21.4256 23.4111 21.4997 23.3364C21.6559 23.179 21.8118 23.0213 21.9677 22.8635C22.2144 22.6137 22.4617 22.3646 22.7092 22.1156C23.4129 21.4077 24.1156 20.6987 24.8175 19.9889C25.2054 19.5968 25.5938 19.2053 25.983 18.8144C26.1887 18.6077 26.394 18.4006 26.5986 18.1929C26.8271 17.9611 27.0566 17.7303 27.2864 17.4998C27.387 17.3969 27.387 17.3969 27.4897 17.2918C28.1544 16.6296 28.8941 16.2576 29.8162 16.6605Z" fill="#106FAE"/>
</g>
<defs>
<clipPath id="clip0_16_815">
<rect width="45" height="45" fill="white"/>
</clipPath>
</defs>
</svg>
