<svg width="45" height="45" viewBox="0 0 45 45" fill="none" xmlns="http://www.w3.org/2000/svg">
<g clip-path="url(#clip0_16_856)">
<path d="M32.3437 20.0392C32.3873 20.079 32.431 20.1188 32.4759 20.1598C33.6215 21.2161 34.5334 22.4581 35.2504 23.8385C35.3232 23.9776 35.3993 24.1148 35.4758 24.2518C37.2064 27.4586 37.3344 31.5257 36.3139 34.964C35.6262 37.1158 34.4713 38.9492 32.9589 40.6056C32.8552 40.7204 32.8552 40.7204 32.7495 40.8374C30.849 42.8377 28.3147 44.0892 25.664 44.7365C25.603 44.7523 25.542 44.768 25.4792 44.7843C23.6039 45.2537 21.2039 45.2176 19.3358 44.7365C19.2653 44.7195 19.1947 44.7025 19.122 44.685C15.414 43.7805 12.1854 41.4536 10.1846 38.1972C10.0043 37.8904 9.83287 37.581 9.66788 37.2658C9.63819 37.2093 9.60851 37.1528 9.57793 37.0946C7.85367 33.7603 7.61419 29.7696 8.72545 26.2032C9.46473 23.9475 10.6769 22.0999 12.3046 20.3908C12.3631 20.3277 12.4215 20.2646 12.4817 20.1996C14.8563 17.7103 18.542 16.2739 21.9444 16.1748C25.8331 16.1244 29.4685 17.3891 32.3437 20.0392ZM17.2265 18.8088C17.1411 18.8473 17.1411 18.8473 17.054 18.8867C13.8433 20.3516 11.4927 23.0945 10.2587 26.3708C10.0323 27.0026 9.87688 27.6416 9.75577 28.3009C9.7262 28.4553 9.7262 28.4553 9.69603 28.6127C9.16665 31.876 9.97715 35.3124 11.8744 38.0125C11.9678 38.1412 12.0617 38.2695 12.1563 38.3974C12.2005 38.4575 12.2448 38.5177 12.2904 38.5797C12.3328 38.6353 12.3752 38.6909 12.4189 38.7483C12.4562 38.7973 12.4935 38.8463 12.532 38.8969C12.6763 39.0442 12.82 39.1169 13.0077 39.1994C13.0483 39.1238 13.0888 39.0483 13.1306 38.9704C14.5993 36.2866 16.7937 34.5973 19.6874 33.6623C19.6237 33.6119 19.5601 33.5614 19.4945 33.5095C18.0962 32.3819 17.2073 31.1802 16.9628 29.3556C16.8241 27.8506 17.2632 26.4074 18.1713 25.2028C19.1849 24.005 20.5386 23.3606 22.0879 23.2198C23.5656 23.1494 24.8527 23.5136 26.0155 24.4338C26.0758 24.4776 26.1361 24.5215 26.1982 24.5666C27.0275 25.2147 27.5852 26.2441 27.8612 27.2463C27.8808 27.3162 27.9004 27.3861 27.9206 27.4581C28.2868 28.9901 27.9462 30.497 27.169 31.8352C26.776 32.4604 26.241 32.9325 25.6506 33.3656C25.4788 33.4874 25.4788 33.4874 25.3124 33.6623C25.4197 33.6996 25.527 33.7368 25.6375 33.7752C27.3145 34.3682 28.6677 35.1604 29.9706 36.3869C30.0236 36.4342 30.0767 36.4816 30.1313 36.5304C30.9211 37.2648 31.5119 38.243 31.9921 39.1994C33.0139 38.8136 33.8266 36.9897 34.2651 36.0409C35.6586 32.9025 35.8606 29.3116 34.6408 26.0782C33.7536 23.8557 32.3263 21.8395 30.4101 20.3908C30.364 20.3552 30.3179 20.3197 30.2704 20.283C29.4866 19.6809 28.6734 19.2151 27.7733 18.8088C27.6687 18.7608 27.564 18.7129 27.4561 18.6635C24.2268 17.278 20.4147 17.3492 17.2265 18.8088ZM19.3527 26.0268C18.6236 26.9833 18.2627 28.0659 18.369 29.2677C18.5714 30.3978 19.0892 31.3629 19.9954 32.0782C20.9478 32.7298 21.9662 32.9963 23.1151 32.8713C24.2666 32.6468 25.2453 32.0765 25.9276 31.1134C26.5701 30.0417 26.8011 29.0048 26.5319 27.7736C26.2274 26.6875 25.6283 25.8182 24.6646 25.2152C22.8633 24.2243 20.7702 24.4948 19.3527 26.0268ZM15.6825 37.7708C14.9839 38.574 14.4701 39.4462 14.0624 40.4299C16.7445 42.6719 20.0843 43.8127 23.5821 43.539C25.195 43.3888 26.6652 42.9733 28.1249 42.2756C28.1854 42.2466 28.2459 42.2177 28.3083 42.1879C29.2915 41.7091 30.1712 41.1317 30.9374 40.342C29.7026 37.9085 27.9308 36.0715 25.3124 35.1564C24.5744 34.9332 23.7993 34.7483 23.0273 34.717C22.9422 34.7135 22.8571 34.7099 22.7694 34.7063C20.0255 34.6503 17.5477 35.7751 15.6825 37.7708Z" fill="#106FAE"/>
<path d="M5.70036 4.87256C6.19239 5.00142 6.49661 5.58337 6.76466 5.98767C6.80438 6.04669 6.8441 6.10571 6.88502 6.16652C7.01085 6.35367 7.136 6.54127 7.2611 6.7289C7.38697 6.91676 7.51298 7.10452 7.63906 7.29223C7.71718 7.40863 7.79515 7.52514 7.87296 7.64175C8.02036 7.86216 8.16806 8.0794 8.33068 8.28894C8.43664 8.43728 8.43664 8.43728 8.43664 8.61306C8.48482 8.59875 8.533 8.58443 8.58265 8.56968C9.08568 8.42042 9.58906 8.27233 10.0926 8.1249C10.2803 8.06978 10.468 8.01436 10.6555 7.95864C10.9256 7.87845 11.196 7.79934 11.4665 7.72042C11.5915 7.68293 11.5915 7.68293 11.719 7.64469C12.1575 7.51792 12.5456 7.42373 13.007 7.47048C13.2651 7.65176 13.2651 7.65176 13.4464 7.90993C13.4883 8.26969 13.482 8.4644 13.2974 8.77957C13.2269 8.8642 13.1565 8.94884 13.0839 9.03603C13.0036 9.13475 12.9234 9.23352 12.8432 9.33232C12.7993 9.38544 12.7554 9.43856 12.7101 9.4933C12.4421 9.82117 12.1843 10.1571 11.9248 10.4917C11.8733 10.5575 11.8218 10.6233 11.7687 10.6911C11.6702 10.8172 11.5724 10.9437 11.4752 11.0708C11.3844 11.1884 11.2916 11.3043 11.1965 11.4184C11.0521 11.5919 11.0521 11.5919 10.8976 11.865C10.9257 12.1022 10.9257 12.1022 11.0734 12.3045C11.1186 12.3784 11.1638 12.4524 11.2103 12.5287C11.2648 12.6088 11.3193 12.6889 11.3755 12.7714C11.4376 12.8629 11.4997 12.9545 11.5636 13.0488C11.6345 13.1523 11.7055 13.2557 11.7765 13.3592C11.8584 13.4791 11.9404 13.599 12.0223 13.719C12.1858 13.9578 12.3494 14.1964 12.5136 14.4348C12.5514 14.4896 12.5891 14.5445 12.6281 14.601C12.7064 14.7127 12.7861 14.8234 12.8671 14.9332C13.1346 15.2958 13.2706 15.5369 13.2706 15.9959C13.1524 16.2549 13.0873 16.3951 12.8312 16.5232C12.2278 16.5721 11.7741 16.4286 11.2134 16.2156C11.0862 16.1688 11.0862 16.1688 10.9563 16.121C10.6873 16.0218 10.4189 15.921 10.1505 15.8201C9.96744 15.7522 9.78433 15.6845 9.60119 15.6168C9.15396 15.4514 8.70723 15.2847 8.26086 15.117C8.23553 15.1699 8.21021 15.2229 8.18412 15.2775C8.04898 15.5382 7.87031 15.7605 7.68957 15.9904C7.61013 16.0925 7.53071 16.1945 7.4513 16.2966C7.41066 16.3487 7.37001 16.4007 7.32813 16.4544C7.173 16.6537 7.01944 16.8543 6.86604 17.055C6.75673 17.1976 6.64658 17.3395 6.53635 17.4814C6.40065 17.6581 6.26748 17.8368 6.13741 18.0177C5.70459 18.604 5.70459 18.604 5.30004 18.7479C4.95116 18.715 4.73012 18.6175 4.48156 18.3689C4.47335 18.2259 4.47124 18.0826 4.47158 17.9394C4.47159 17.8479 4.47159 17.7564 4.4716 17.6621C4.47206 17.5626 4.47251 17.4631 4.47298 17.3606C4.4731 17.2593 4.47323 17.1579 4.47335 17.0536C4.47385 16.7285 4.47495 16.4034 4.47607 16.0783C4.47651 15.8585 4.47691 15.6387 4.47727 15.4189C4.47824 14.8788 4.47971 14.3387 4.48156 13.7986C4.43409 13.7818 4.38661 13.7649 4.3377 13.7476C3.84258 13.5718 3.3479 13.3948 2.85346 13.2171C2.669 13.151 2.48444 13.0852 2.29976 13.0197C2.03396 12.9254 1.76857 12.8299 1.50323 12.7343C1.42091 12.7054 1.33859 12.6764 1.25377 12.6466C0.839184 12.4959 0.495062 12.357 0.174918 12.0408C0.122733 11.865 0.122733 11.865 0.130973 11.6892C0.131879 11.6312 0.132786 11.5732 0.13372 11.5135C0.191333 11.2676 0.259093 11.169 0.43859 10.9861C0.688418 10.873 0.948138 10.8014 1.21175 10.7272C1.28795 10.7047 1.36415 10.6823 1.44266 10.6591C1.68626 10.5875 1.93032 10.5176 2.17443 10.4478C2.33743 10.4002 2.50039 10.3524 2.66332 10.3046C3.0932 10.1787 3.52355 10.0546 3.95422 9.93142C4.01615 9.9137 4.07808 9.89599 4.1419 9.87774C4.2844 9.837 4.42693 9.79632 4.56945 9.75564C4.63337 9.23404 4.67157 8.72281 4.67897 8.19764C4.68186 8.05482 4.68478 7.91199 4.68772 7.76917C4.6919 7.54779 4.69581 7.32641 4.69925 7.10501C4.70275 6.88876 4.70728 6.67254 4.71193 6.45631C4.71267 6.39083 4.71341 6.32536 4.71417 6.2579C4.72379 5.84699 4.77471 5.48665 4.92101 5.09743C5.19947 4.9118 5.37208 4.89251 5.70036 4.87256ZM6.23937 8.08572C6.23589 8.16109 6.2324 8.23646 6.22882 8.31411C6.21506 8.59462 6.19982 8.875 6.18358 9.15538C6.17687 9.27657 6.17074 9.3978 6.16521 9.51905C6.15716 9.69366 6.14679 9.86817 6.13638 10.0427C6.13085 10.1476 6.12533 10.2525 6.11964 10.3607C6.05251 10.6887 5.98052 10.7897 5.71203 10.9861C5.45428 11.0906 5.45428 11.0906 5.15859 11.1742C5.05266 11.2048 4.94673 11.2354 4.83758 11.2669C4.72735 11.2975 4.61711 11.3281 4.50353 11.3596C4.39078 11.3918 4.27805 11.4241 4.16536 11.4565C3.89018 11.5351 3.61473 11.6126 3.33898 11.6892C3.57902 11.8493 3.76993 11.9345 4.03902 12.0298C4.12382 12.0602 4.20862 12.0905 4.29599 12.1218C4.38442 12.1531 4.47285 12.1844 4.56396 12.2166C4.73878 12.2786 4.91353 12.3409 5.08821 12.4033C5.1657 12.4308 5.24319 12.4582 5.32302 12.4864C5.86241 12.6931 5.86241 12.6931 5.9757 12.9197C5.98325 13.124 5.98511 13.3285 5.98428 13.5329C5.98416 13.5931 5.98403 13.6533 5.98391 13.7154C5.98341 13.9079 5.98231 14.1005 5.98119 14.293C5.98075 14.4235 5.98035 14.5539 5.97999 14.6844C5.97902 15.0044 5.9775 15.3243 5.9757 15.6443C6.20527 15.422 6.40893 15.1975 6.59917 14.9408C6.67242 14.8432 6.67242 14.8432 6.74715 14.7436C6.84825 14.6078 6.94918 14.4718 7.04996 14.3357C7.09879 14.2708 7.14762 14.2058 7.19793 14.1388C7.24172 14.0799 7.28551 14.0209 7.33062 13.9601C7.4823 13.7841 7.6235 13.657 7.8214 13.5349C8.39934 13.5487 8.89962 13.7396 9.43639 13.9414C9.59249 13.9999 9.74881 14.0579 9.90537 14.1152C9.97362 14.1408 10.0419 14.1665 10.1122 14.193C10.2878 14.2596 10.2878 14.2596 10.4581 14.1502C10.3927 14.0528 10.3927 14.0528 10.3259 13.9534C10.2009 13.7667 10.0766 13.5796 9.95275 13.3921C9.82753 13.2028 9.69953 13.0172 9.56823 12.8318C9.51203 12.7502 9.45584 12.6687 9.39794 12.5846C9.34616 12.5115 9.29439 12.4385 9.24104 12.3632C9.09578 12.0269 9.12248 11.8656 9.22765 11.5135C9.41092 11.2239 9.62383 10.9635 9.84289 10.7005C9.95672 10.5611 10.0703 10.4215 10.1835 10.2816C10.234 10.2206 10.2845 10.1596 10.3366 10.0968C10.4747 9.92654 10.4747 9.92654 10.546 9.66775C9.92453 9.77658 9.32899 9.93759 8.7264 10.1244C8.42848 10.1971 8.21315 10.2403 7.90929 10.1951C7.46502 9.85339 7.18358 9.35578 6.87658 8.89321C6.77476 8.74049 6.6727 8.58793 6.57034 8.43556C6.52572 8.3684 6.48111 8.30123 6.43515 8.23204C6.39955 8.18375 6.36395 8.13546 6.32726 8.08572C6.29826 8.08572 6.26925 8.08572 6.23937 8.08572Z" fill="#106FAE"/>
<path d="M39.8149 4.92188C40.0481 5.08331 40.1429 5.18689 40.2174 5.46047C40.2651 5.78661 40.2732 6.11042 40.2791 6.43936C40.2807 6.50905 40.2823 6.57873 40.284 6.65052C40.2891 6.87264 40.2938 7.09477 40.2983 7.3169C40.3043 7.6085 40.3108 7.90009 40.3175 8.19168C40.3187 8.25735 40.3199 8.32303 40.3211 8.39069C40.3318 8.85017 40.3744 9.2996 40.4301 9.75586C40.4776 9.76959 40.5251 9.78332 40.574 9.79746C41.069 9.94074 41.5637 10.0849 42.0582 10.2295C42.2427 10.2834 42.4273 10.337 42.6119 10.3904C42.8776 10.4673 43.1431 10.5449 43.4085 10.6228C43.4908 10.6464 43.5731 10.67 43.6579 10.6944C44.0486 10.8097 44.4049 10.9164 44.7368 11.1621C44.8745 11.4376 44.8995 11.745 44.8247 12.041C44.4777 12.372 44.1185 12.5144 43.6749 12.6676C43.6069 12.6918 43.539 12.7161 43.469 12.741C43.2528 12.818 43.0363 12.8937 42.8197 12.9694C42.6752 13.0205 42.5307 13.0717 42.3862 13.123C42.1816 13.1957 41.9769 13.2682 41.772 13.3401C41.3518 13.4876 40.9345 13.6413 40.518 13.7988C40.5189 13.8819 40.5189 13.8819 40.5198 13.9666C40.5256 14.5426 40.5296 15.1186 40.5325 15.6946C40.5338 15.9096 40.5356 16.1246 40.5379 16.3396C40.5411 16.6486 40.5426 16.9575 40.5438 17.2664C40.5451 17.3626 40.5465 17.4589 40.5479 17.558C40.5479 17.6477 40.5479 17.7374 40.548 17.8299C40.5488 17.9481 40.5488 17.9481 40.5497 18.0688C40.5111 18.3279 40.4361 18.4459 40.2544 18.6328C39.9415 18.7197 39.7384 18.763 39.4352 18.6338C39.1016 18.3834 38.8773 18.075 38.6284 17.7429C38.5754 17.6735 38.5225 17.604 38.468 17.5324C38.3572 17.3871 38.2468 17.2414 38.1366 17.0956C37.9718 16.8785 37.8052 16.6628 37.6379 16.4476C37.5341 16.3136 37.4303 16.1796 37.3265 16.0455C37.2776 15.9827 37.2286 15.9199 37.1782 15.8551C37.1332 15.7966 37.0882 15.7381 37.0419 15.6778C37.0023 15.6267 36.9627 15.5755 36.922 15.5228C36.8266 15.3809 36.8266 15.3809 36.7387 15.1172C36.6918 15.1348 36.645 15.1524 36.5966 15.1706C36.1066 15.3544 35.6161 15.5367 35.1251 15.718C34.9422 15.7858 34.7594 15.854 34.5768 15.9226C34.3137 16.0214 34.05 16.1188 33.7862 16.2158C33.7052 16.2466 33.6242 16.2773 33.5408 16.309C33.0615 16.4835 32.6791 16.5702 32.1684 16.5234C31.9109 16.3518 31.8365 16.2215 31.7235 15.9357C31.7362 15.2633 32.2648 14.7154 32.648 14.195C32.9521 13.7779 33.2487 13.3558 33.5417 12.9309C33.6278 12.8101 33.6278 12.8101 33.7156 12.6869C33.7681 12.6099 33.8206 12.533 33.8747 12.4537C33.9227 12.3848 33.9707 12.316 34.0202 12.245C34.1263 12.0396 34.1263 12.0396 34.0399 11.8115C33.8909 11.5364 33.7057 11.2992 33.5087 11.0577C33.4223 10.9498 33.3359 10.8417 33.2495 10.7336C33.2032 10.6759 33.1568 10.6181 33.109 10.5586C32.8346 10.2146 32.5649 9.867 32.2948 9.51966C32.2414 9.45126 32.188 9.38286 32.133 9.3124C32.0829 9.24812 32.0329 9.18385 31.9813 9.11763C31.9368 9.06056 31.8924 9.00349 31.8465 8.9447C31.5667 8.57422 31.4968 8.37696 31.5532 7.91016C31.7345 7.65198 31.7345 7.65198 31.9926 7.47071C32.5413 7.4151 33.014 7.56497 33.5331 7.72064C33.62 7.74601 33.707 7.77137 33.7965 7.7975C34.0725 7.87822 34.3482 7.96009 34.6239 8.042C34.8116 8.09712 34.9993 8.15216 35.1871 8.20713C35.646 8.34165 36.1046 8.47711 36.5629 8.61328C36.6019 8.51124 36.6019 8.51124 36.6417 8.40714C36.75 8.14674 36.8872 7.95356 37.0573 7.72888C37.3104 7.3883 37.554 7.04466 37.7879 6.69068C38.0472 6.29889 38.3082 5.90842 38.5734 5.52063C38.6385 5.42512 38.7035 5.32961 38.7705 5.23121C39.0484 4.8593 39.3737 4.85897 39.8149 4.92188ZM38.6723 8.08594C38.5881 8.20023 38.5078 8.3175 38.4293 8.43579C38.38 8.50915 38.3307 8.58251 38.2799 8.65809C38.1765 8.81316 38.0733 8.96834 37.9702 9.12363C37.2755 10.1563 37.2755 10.1563 36.9046 10.2345C36.3474 10.1533 35.8239 10.0003 35.2915 9.81993C34.9919 9.71925 34.7739 9.66797 34.4536 9.66797C34.5735 9.92766 34.7127 10.1377 34.8934 10.3591C34.9692 10.4543 34.9692 10.4543 35.0467 10.5515C35.1526 10.6835 35.2593 10.8148 35.3666 10.9456C35.6705 11.33 35.8834 11.6176 35.8598 12.1289C35.7496 12.3567 35.6483 12.5315 35.5028 12.7332C35.4666 12.7861 35.4304 12.8391 35.3931 12.8937C35.3204 13 35.247 13.1058 35.1728 13.2111C35.0296 13.4152 34.8928 13.6235 34.7557 13.8318C34.6844 13.9381 34.613 14.0443 34.5415 14.1504C34.8592 14.2563 34.9291 14.212 35.2322 14.09C35.3158 14.0576 35.3995 14.0252 35.4856 13.9918C35.6607 13.9222 35.8355 13.8522 36.0102 13.7817C36.4995 13.5931 36.8438 13.4623 37.354 13.623C37.5146 13.7391 37.5146 13.7391 37.6396 13.8977C37.6892 13.9596 37.7389 14.0214 37.79 14.0852C38.0677 14.4587 38.3449 14.8327 38.6158 15.2113C38.7205 15.3572 38.828 15.501 38.936 15.6445C38.965 15.6445 38.994 15.6445 39.0239 15.6445C39.0225 15.5634 39.0211 15.4822 39.0197 15.3986C39.0152 15.0974 39.0119 14.7962 39.0094 14.4949C39.0081 14.3646 39.0063 14.2342 39.004 14.1039C39.0008 13.9165 38.9993 13.7291 38.9981 13.5417C38.9968 13.4289 38.9954 13.3162 38.994 13.2C39.0239 12.9199 39.0239 12.9199 39.1358 12.7587C39.2981 12.6492 39.4485 12.5746 39.6316 12.5052C39.6985 12.4795 39.7655 12.4538 39.8345 12.4273C39.9041 12.4013 39.9738 12.3754 40.0456 12.3486C40.1133 12.3227 40.1809 12.2967 40.2506 12.27C40.7164 12.0929 41.1867 11.9315 41.6606 11.7773C41.4008 11.6041 41.2203 11.5417 40.9221 11.4622C40.783 11.4238 40.783 11.4238 40.6411 11.3846C40.446 11.3316 40.2508 11.2792 40.0554 11.2273C39.9161 11.1886 39.9161 11.1886 39.774 11.1491C39.6892 11.1263 39.6043 11.1034 39.5169 11.0799C39.2438 10.9685 39.1118 10.8723 38.936 10.6348C38.8799 10.3609 38.8799 10.3609 38.8632 10.0429C38.8564 9.92902 38.8496 9.81515 38.8426 9.69784C38.8371 9.57802 38.8316 9.4582 38.8261 9.33838C38.8194 9.21718 38.8126 9.09599 38.8055 8.9748C38.789 8.67856 38.7739 8.38232 38.7602 8.08594C38.7312 8.08594 38.7022 8.08594 38.6723 8.08594Z" fill="#106FAE"/>
<path d="M22.8516 0.000223231C23.2109 0.282905 23.3256 0.625428 23.4589 1.04736C23.4812 1.11501 23.5035 1.18265 23.5264 1.25235C23.5973 1.46821 23.6666 1.68451 23.736 1.90086C23.7828 2.04428 23.8298 2.18768 23.8769 2.33104C24.101 3.01635 24.3162 3.70356 24.5215 4.39475C24.599 4.39388 24.599 4.39388 24.6781 4.39298C25.217 4.38714 25.756 4.38317 26.295 4.38027C26.496 4.37895 26.697 4.37715 26.898 4.37486C27.1873 4.37166 27.4766 4.37017 27.7659 4.36901C27.8554 4.36764 27.945 4.36628 28.0373 4.36488C28.514 4.36477 28.8574 4.38552 29.2676 4.65843C29.4407 4.87674 29.4438 4.98835 29.4379 5.26817C29.2604 5.84791 28.6662 6.1731 28.1909 6.50962C28.1224 6.55859 28.054 6.60755 27.9834 6.658C27.7673 6.8123 27.5507 6.96593 27.334 7.11936C27.2615 7.17074 27.189 7.22212 27.1143 7.27506C26.6901 7.5756 26.2652 7.87519 25.8398 8.17405C25.9481 8.7076 26.0893 9.21762 26.2666 9.73205C26.3145 9.87485 26.3624 10.0177 26.4103 10.1605C26.4849 10.3821 26.56 10.6035 26.636 10.8247C26.71 11.0405 26.7823 11.2569 26.8544 11.4734C26.8773 11.5389 26.9003 11.6043 26.924 11.6718C27.0612 12.089 27.0924 12.3947 26.9824 12.8323C26.7957 13.052 26.7957 13.052 26.543 13.1838C25.9872 13.1695 25.6741 12.9611 25.2466 12.64C25.1832 12.594 25.1199 12.5479 25.0546 12.5005C24.8465 12.3488 24.6399 12.1953 24.4336 12.0412C24.2058 11.8712 23.9779 11.7011 23.7498 11.5315C23.6036 11.4225 23.4578 11.3129 23.3126 11.2026C23.246 11.1527 23.1794 11.1028 23.1108 11.0514C23.0522 11.0071 22.9936 10.9627 22.9332 10.917C22.7521 10.8035 22.6249 10.7447 22.4121 10.7229C22.1761 10.8625 21.966 11.0043 21.7474 11.1678C21.6829 11.2147 21.6183 11.2616 21.5518 11.3099C21.3396 11.4646 21.1287 11.6209 20.918 11.7776C20.6899 11.9463 20.4618 12.1149 20.2336 12.2834C20.0878 12.3914 19.9422 12.4997 19.797 12.6084C19.7304 12.658 19.6638 12.7077 19.5951 12.7588C19.5365 12.8027 19.4779 12.8466 19.4175 12.8919C19.1195 13.0962 18.9577 13.1849 18.5889 13.1783C18.2812 13.0959 18.2812 13.0959 18.0615 12.9147C17.8354 12.4718 17.992 12.0114 18.1324 11.555C18.1797 11.4114 18.2276 11.2681 18.2761 11.1249C18.3013 11.0485 18.3266 10.9721 18.3526 10.8934C18.4326 10.6514 18.5134 10.4097 18.5944 10.1681C18.6756 9.92483 18.7566 9.68153 18.8371 9.43808C18.8871 9.28711 18.9374 9.13627 18.9882 8.98557C19.0108 8.91748 19.0334 8.84938 19.0567 8.77922C19.0767 8.71947 19.0967 8.65973 19.1174 8.59817C19.1715 8.42294 19.1715 8.42294 19.1602 8.17405C18.9477 8.00463 18.7371 7.8526 18.512 7.70164C18.3753 7.60754 18.2386 7.51335 18.102 7.41909C18.0306 7.37015 17.9592 7.32123 17.8857 7.27081C17.5238 7.02128 17.1662 6.76596 16.8091 6.50962C16.7103 6.43963 16.7103 6.43963 16.6095 6.36822C15.7052 5.7193 15.7052 5.7193 15.5566 5.27366C15.5566 4.95054 15.6142 4.8179 15.8203 4.57054C16.1218 4.42329 16.3631 4.37304 16.6969 4.3748C16.8236 4.37482 16.8236 4.37482 16.9528 4.37484C17.0428 4.37575 17.1328 4.37665 17.2255 4.37759C17.3651 4.37796 17.3651 4.37796 17.5074 4.37834C17.8038 4.37932 18.1002 4.38153 18.3966 4.38377C18.5979 4.38465 18.7991 4.38545 19.0003 4.38617C19.4931 4.38811 19.9858 4.39105 20.4785 4.39475C20.4933 4.34728 20.5082 4.29981 20.5235 4.2509C20.6782 3.75593 20.8337 3.26122 20.9897 2.76665C21.0478 2.58215 21.1057 2.39759 21.1634 2.21296C21.2464 1.94728 21.3302 1.68184 21.4141 1.41643C21.4396 1.33411 21.4652 1.25179 21.4915 1.16697C21.6148 0.779457 21.7294 0.419931 21.9727 0.0881139C22.2477 -0.0494097 22.5537 -0.0610383 22.8516 0.000223231ZM22.4121 3.34007C22.3775 3.44252 22.3775 3.44252 22.3423 3.54705C22.2379 3.85544 22.1328 4.16355 22.0276 4.47166C21.9732 4.63294 21.9732 4.63294 21.9177 4.79747C21.8826 4.90001 21.8475 5.00254 21.8113 5.10818C21.763 5.2504 21.763 5.2504 21.7137 5.3955C21.6211 5.62522 21.6211 5.62522 21.4453 5.801C21.0834 5.88297 20.7367 5.89931 20.3666 5.89748C20.2652 5.8972 20.1638 5.89691 20.0593 5.89662C19.9547 5.89588 19.8502 5.89515 19.7424 5.89439C19.6358 5.89399 19.5292 5.8936 19.4194 5.89319C19.1572 5.89215 18.895 5.89071 18.6328 5.8889C19.0703 6.2449 19.5236 6.5789 19.9769 6.91423C20.0375 6.95938 20.0981 7.00453 20.1606 7.05104C20.2153 7.09161 20.2701 7.13218 20.3265 7.17397C20.5854 7.38035 20.7237 7.4978 20.8218 7.82112C20.8714 8.29253 20.6777 8.72552 20.5225 9.16282C20.4623 9.33516 20.4027 9.50772 20.3439 9.68055C20.3037 9.79412 20.3037 9.79412 20.2627 9.90998C20.1932 10.1205 20.1932 10.1205 20.3027 10.3713C20.3421 10.3412 20.3815 10.3111 20.4221 10.2801C20.6036 10.1417 20.7855 10.0038 20.9674 9.86595C21.0293 9.81859 21.0912 9.77123 21.155 9.72244C21.3378 9.58431 21.5223 9.44945 21.709 9.31663C21.7624 9.27839 21.8159 9.24015 21.871 9.20076C22.1322 9.03102 22.3132 8.96544 22.6257 8.95477C23.0391 9.08415 23.3194 9.29956 23.6536 9.56931C23.7745 9.66448 23.8956 9.75947 24.0168 9.85427C24.0731 9.89854 24.1295 9.94281 24.1875 9.98843C24.3782 10.1321 24.5766 10.2553 24.7852 10.3713C24.7257 9.798 24.5482 9.29764 24.3454 8.76045C24.1918 8.32841 24.125 8.01428 24.2578 7.55882C24.5457 7.16845 25.0181 6.90333 25.4114 6.62498C25.5545 6.52327 25.6976 6.42142 25.8405 6.31942C25.9037 6.27471 25.9668 6.23 26.0318 6.18394C26.2011 6.06336 26.2011 6.06336 26.3672 5.8889C26.2588 5.89028 26.2588 5.89028 26.1483 5.89169C25.8202 5.89534 25.4922 5.89763 25.1642 5.89988C25.0505 5.90135 24.9368 5.90283 24.8197 5.90435C24.71 5.90491 24.6004 5.90548 24.4875 5.90606C24.3363 5.90744 24.3363 5.90744 24.182 5.90885C23.9047 5.88878 23.7142 5.83731 23.4668 5.71311C23.3655 5.57853 23.3655 5.57853 23.2965 5.4055C23.269 5.33673 23.2414 5.26795 23.2131 5.1971C22.9941 4.58158 22.789 3.96162 22.5879 3.34007C22.5299 3.34007 22.4719 3.34007 22.4121 3.34007Z" fill="#106FAE"/>
</g>
<defs>
<clipPath id="clip0_16_856">
<rect width="45" height="45" fill="white"/>
</clipPath>
</defs>
</svg>
