<svg width="850" height="568" viewBox="0 0 850 568" fill="none" xmlns="http://www.w3.org/2000/svg">
<path d="M261.135 19.888H262.935V25.216H260.703V22H249.615V25.216H247.383V19.888H248.847C249.887 18.592 250.407 16.624 250.407 13.984V5.2H261.135V19.888ZM251.367 19.888H258.903V7.288H252.639V14.032C252.639 16.576 252.215 18.528 251.367 19.888ZM274.007 10H275.687V22H273.623V13.576L266.975 22H265.295V10H267.359V18.424L274.007 10ZM288.801 10H290.889V22H288.801V19.936C287.761 21.52 286.249 22.312 284.265 22.312C282.585 22.312 281.153 21.704 279.969 20.488C278.785 19.256 278.193 17.76 278.193 16C278.193 14.24 278.785 12.752 279.969 11.536C281.153 10.304 282.585 9.688 284.265 9.688C286.249 9.688 287.761 10.48 288.801 12.064V10ZM284.529 20.296C285.745 20.296 286.761 19.888 287.577 19.072C288.393 18.24 288.801 17.216 288.801 16C288.801 14.784 288.393 13.768 287.577 12.952C286.761 12.12 285.745 11.704 284.529 11.704C283.329 11.704 282.321 12.12 281.505 12.952C280.689 13.768 280.281 14.784 280.281 16C280.281 17.216 280.689 18.24 281.505 19.072C282.321 19.888 283.329 20.296 284.529 20.296ZM301.925 10V12.016H296.141V22H294.053V10H301.925ZM312.06 10H314.148V22H312.06V16.984H305.844V22H303.756V10H305.844V14.992H312.06V10ZM327.454 20.488C326.222 21.704 324.726 22.312 322.966 22.312C321.206 22.312 319.71 21.704 318.478 20.488C317.262 19.272 316.654 17.776 316.654 16C316.654 14.224 317.262 12.728 318.478 11.512C319.71 10.296 321.206 9.688 322.966 9.688C324.726 9.688 326.222 10.296 327.454 11.512C328.686 12.728 329.302 14.224 329.302 16C329.302 17.776 328.686 19.272 327.454 20.488ZM322.966 20.272C324.166 20.272 325.174 19.864 325.99 19.048C326.806 18.232 327.214 17.216 327.214 16C327.214 14.784 326.806 13.768 325.99 12.952C325.174 12.136 324.166 11.728 322.966 11.728C321.782 11.728 320.782 12.136 319.966 12.952C319.15 13.768 318.742 14.784 318.742 16C318.742 17.216 319.15 18.232 319.966 19.048C320.782 19.864 321.782 20.272 322.966 20.272ZM337.404 22.312C335.596 22.312 334.092 21.712 332.892 20.512C331.692 19.296 331.092 17.792 331.092 16C331.092 14.208 331.692 12.712 332.892 11.512C334.092 10.296 335.596 9.688 337.404 9.688C338.588 9.688 339.652 9.976 340.596 10.552C341.54 11.112 342.244 11.872 342.708 12.832L340.956 13.84C340.652 13.2 340.18 12.688 339.54 12.304C338.916 11.92 338.204 11.728 337.404 11.728C336.204 11.728 335.196 12.136 334.38 12.952C333.58 13.768 333.18 14.784 333.18 16C333.18 17.2 333.58 18.208 334.38 19.024C335.196 19.84 336.204 20.248 337.404 20.248C338.204 20.248 338.924 20.064 339.564 19.696C340.204 19.312 340.692 18.8 341.028 18.16L342.804 19.192C342.292 20.136 341.556 20.896 340.596 21.472C339.636 22.032 338.572 22.312 337.404 22.312ZM353.606 10V12.016H349.526V22H347.438V12.016H343.334V10H353.606ZM364.148 10H365.828V22H363.764V13.576L357.116 22H355.436V10H357.5V18.424L364.148 10ZM379.158 22H376.566L371.094 16.312V22H369.006V10H371.094V15.304L376.278 10H378.966L373.23 15.808L379.158 22ZM389.934 10H392.022V22H389.934V19.936C388.894 21.52 387.382 22.312 385.398 22.312C383.718 22.312 382.286 21.704 381.102 20.488C379.918 19.256 379.326 17.76 379.326 16C379.326 14.24 379.918 12.752 381.102 11.536C382.286 10.304 383.718 9.688 385.398 9.688C387.382 9.688 388.894 10.48 389.934 12.064V10ZM385.662 20.296C386.878 20.296 387.894 19.888 388.71 19.072C389.526 18.24 389.934 17.216 389.934 16C389.934 14.784 389.526 13.768 388.71 12.952C387.894 12.12 386.878 11.704 385.662 11.704C384.462 11.704 383.454 12.12 382.638 12.952C381.822 13.768 381.414 14.784 381.414 16C381.414 17.216 381.822 18.24 382.638 19.072C383.454 19.888 384.462 20.296 385.662 20.296ZM409.898 10H411.578V22H409.514V13.576L402.866 22H401.186V10H403.25V18.424L409.898 10ZM426.396 22.312C424.588 22.312 423.084 21.712 421.884 20.512C420.684 19.296 420.084 17.792 420.084 16C420.084 14.208 420.684 12.712 421.884 11.512C423.084 10.296 424.588 9.688 426.396 9.688C427.58 9.688 428.644 9.976 429.588 10.552C430.532 11.112 431.236 11.872 431.7 12.832L429.948 13.84C429.644 13.2 429.172 12.688 428.532 12.304C427.908 11.92 427.196 11.728 426.396 11.728C425.196 11.728 424.188 12.136 423.372 12.952C422.572 13.768 422.172 14.784 422.172 16C422.172 17.2 422.572 18.208 423.372 19.024C424.188 19.84 425.196 20.248 426.396 20.248C427.196 20.248 427.916 20.064 428.556 19.696C429.196 19.312 429.684 18.8 430.02 18.16L431.796 19.192C431.284 20.136 430.548 20.896 429.588 21.472C428.628 22.032 427.564 22.312 426.396 22.312ZM443.821 20.488C442.589 21.704 441.093 22.312 439.333 22.312C437.573 22.312 436.077 21.704 434.845 20.488C433.629 19.272 433.021 17.776 433.021 16C433.021 14.224 433.629 12.728 434.845 11.512C436.077 10.296 437.573 9.688 439.333 9.688C441.093 9.688 442.589 10.296 443.821 11.512C445.053 12.728 445.669 14.224 445.669 16C445.669 17.776 445.053 19.272 443.821 20.488ZM439.333 20.272C440.533 20.272 441.541 19.864 442.357 19.048C443.173 18.232 443.581 17.216 443.581 16C443.581 14.784 443.173 13.768 442.357 12.952C441.541 12.136 440.533 11.728 439.333 11.728C438.149 11.728 437.149 12.136 436.333 12.952C435.517 13.768 435.109 14.784 435.109 16C435.109 17.216 435.517 18.232 436.333 19.048C437.149 19.864 438.149 20.272 439.333 20.272ZM453.771 22.312C451.963 22.312 450.459 21.712 449.259 20.512C448.059 19.296 447.459 17.792 447.459 16C447.459 14.208 448.059 12.712 449.259 11.512C450.459 10.296 451.963 9.688 453.771 9.688C454.955 9.688 456.019 9.976 456.963 10.552C457.907 11.112 458.611 11.872 459.075 12.832L457.323 13.84C457.019 13.2 456.547 12.688 455.907 12.304C455.283 11.92 454.571 11.728 453.771 11.728C452.571 11.728 451.563 12.136 450.747 12.952C449.947 13.768 449.547 14.784 449.547 16C449.547 17.2 449.947 18.208 450.747 19.024C451.563 19.84 452.571 20.248 453.771 20.248C454.571 20.248 455.291 20.064 455.931 19.696C456.571 19.312 457.059 18.8 457.395 18.16L459.171 19.192C458.659 20.136 457.923 20.896 456.963 21.472C456.003 22.032 454.939 22.312 453.771 22.312ZM469.973 10V12.016H465.893V22H463.805V12.016H459.701V10H469.973ZM481.27 10H483.358V22H481.27V19.936C480.23 21.52 478.718 22.312 476.734 22.312C475.054 22.312 473.622 21.704 472.438 20.488C471.254 19.256 470.662 17.76 470.662 16C470.662 14.24 471.254 12.752 472.438 11.536C473.622 10.304 475.054 9.688 476.734 9.688C478.718 9.688 480.23 10.48 481.27 12.064V10ZM476.998 20.296C478.214 20.296 479.23 19.888 480.046 19.072C480.862 18.24 481.27 17.216 481.27 16C481.27 14.784 480.862 13.768 480.046 12.952C479.23 12.12 478.214 11.704 476.998 11.704C475.798 11.704 474.79 12.12 473.974 12.952C473.158 13.768 472.75 14.784 472.75 16C472.75 17.216 473.158 18.24 473.974 19.072C474.79 19.888 475.798 20.296 476.998 20.296ZM494.514 15.832C495.746 16.344 496.362 17.272 496.362 18.616C496.362 19.608 496.026 20.424 495.354 21.064C494.698 21.688 493.754 22 492.522 22H486.521V10H492.042C493.242 10 494.17 10.304 494.826 10.912C495.482 11.504 495.81 12.288 495.81 13.264C495.81 14.416 495.378 15.272 494.514 15.832ZM491.946 11.872H488.562V15.016H491.946C493.162 15.016 493.77 14.48 493.77 13.408C493.77 12.384 493.162 11.872 491.946 11.872ZM492.402 20.104C493.01 20.104 493.474 19.96 493.794 19.672C494.13 19.384 494.298 18.976 494.298 18.448C494.298 17.952 494.13 17.568 493.794 17.296C493.474 17.008 493.01 16.864 492.402 16.864H488.562V20.104H492.402ZM508.272 10V22H506.184V12.016H501.456V16.912C501.456 18.88 501.056 20.256 500.256 21.04C499.472 21.808 498.36 22.128 496.92 22V20.032C497.736 20.144 498.344 19.968 498.744 19.504C499.16 19.024 499.368 18.144 499.368 16.864V10H508.272ZM512.9 16.96C513.108 18.032 513.596 18.864 514.364 19.456C515.148 20.048 516.108 20.344 517.244 20.344C518.828 20.344 519.98 19.76 520.7 18.592L522.476 19.6C521.308 21.408 519.548 22.312 517.196 22.312C515.292 22.312 513.74 21.72 512.54 20.536C511.356 19.336 510.764 17.824 510.764 16C510.764 14.192 511.348 12.688 512.516 11.488C513.684 10.288 515.196 9.688 517.052 9.688C518.812 9.688 520.244 10.312 521.348 11.56C522.468 12.792 523.028 14.28 523.028 16.024C523.028 16.328 523.004 16.64 522.956 16.96H512.9ZM517.052 11.656C515.932 11.656 515.004 11.976 514.268 12.616C513.532 13.24 513.076 14.08 512.9 15.136H520.916C520.74 14 520.292 13.136 519.572 12.544C518.852 11.952 518.012 11.656 517.052 11.656ZM533.732 10H535.82V22H533.732V16.984H527.516V22H525.428V10H527.516V14.992H533.732V10ZM547.71 10H549.39V22H547.326V13.576L540.678 22H538.998V10H541.062V18.424L547.71 10ZM554.032 16.96C554.24 18.032 554.728 18.864 555.496 19.456C556.28 20.048 557.24 20.344 558.376 20.344C559.96 20.344 561.112 19.76 561.832 18.592L563.608 19.6C562.44 21.408 560.68 22.312 558.328 22.312C556.424 22.312 554.872 21.72 553.672 20.536C552.488 19.336 551.896 17.824 551.896 16C551.896 14.192 552.48 12.688 553.648 11.488C554.816 10.288 556.328 9.688 558.184 9.688C559.944 9.688 561.376 10.312 562.48 11.56C563.6 12.792 564.16 14.28 564.16 16.024C564.16 16.328 564.136 16.64 564.088 16.96H554.032ZM558.184 11.656C557.064 11.656 556.136 11.976 555.4 12.616C554.664 13.24 554.208 14.08 554.032 15.136H562.048C561.872 14 561.424 13.136 560.704 12.544C559.984 11.952 559.144 11.656 558.184 11.656ZM333.003 38V50H330.915V39.992H324.699V50H322.611V38H333.003ZM346.19 38V50H344.102V40.016H339.374V44.912C339.374 46.88 338.974 48.256 338.174 49.04C337.39 49.808 336.278 50.128 334.838 50V48.032C335.654 48.144 336.262 47.968 336.662 47.504C337.078 47.024 337.286 46.144 337.286 44.864V38H346.19ZM359.29 38H361.378V50H359.29V47.936C358.25 49.52 356.738 50.312 354.754 50.312C353.074 50.312 351.642 49.704 350.458 48.488C349.274 47.256 348.682 45.76 348.682 44C348.682 42.24 349.274 40.752 350.458 39.536C351.642 38.304 353.074 37.688 354.754 37.688C356.738 37.688 358.25 38.48 359.29 40.064V38ZM355.018 48.296C356.234 48.296 357.25 47.888 358.066 47.072C358.882 46.24 359.29 45.216 359.29 44C359.29 42.784 358.882 41.768 358.066 40.952C357.25 40.12 356.234 39.704 355.018 39.704C353.818 39.704 352.81 40.12 351.994 40.952C351.178 41.768 350.77 42.784 350.77 44C350.77 45.216 351.178 46.24 351.994 47.072C352.81 47.888 353.818 48.296 355.018 48.296ZM372.845 38H374.933V50H372.845V44.984H366.629V50H364.541V38H366.629V42.992H372.845V38ZM388.047 38H390.135V50H388.047V47.936C387.007 49.52 385.495 50.312 383.511 50.312C381.831 50.312 380.399 49.704 379.215 48.488C378.031 47.256 377.439 45.76 377.439 44C377.439 42.24 378.031 40.752 379.215 39.536C380.399 38.304 381.831 37.688 383.511 37.688C385.495 37.688 387.007 38.48 388.047 40.064V38ZM383.775 48.296C384.991 48.296 386.007 47.888 386.823 47.072C387.639 46.24 388.047 45.216 388.047 44C388.047 42.784 387.639 41.768 386.823 40.952C386.007 40.12 384.991 39.704 383.775 39.704C382.575 39.704 381.567 40.12 380.751 40.952C379.935 41.768 379.527 42.784 379.527 44C379.527 45.216 379.935 46.24 380.751 47.072C381.567 47.888 382.575 48.296 383.775 48.296ZM409.307 38V50H407.219V40.016H402.491V44.912C402.491 46.88 402.091 48.256 401.291 49.04C400.507 49.808 399.395 50.128 397.955 50V48.032C398.771 48.144 399.379 47.968 399.779 47.504C400.195 47.024 400.403 46.144 400.403 44.864V38H409.307ZM413.935 44.96C414.143 46.032 414.631 46.864 415.399 47.456C416.183 48.048 417.143 48.344 418.279 48.344C419.863 48.344 421.015 47.76 421.735 46.592L423.511 47.6C422.343 49.408 420.583 50.312 418.231 50.312C416.327 50.312 414.775 49.72 413.575 48.536C412.391 47.336 411.799 45.824 411.799 44C411.799 42.192 412.383 40.688 413.551 39.488C414.719 38.288 416.231 37.688 418.087 37.688C419.847 37.688 421.279 38.312 422.383 39.56C423.503 40.792 424.063 42.28 424.063 44.024C424.063 44.328 424.039 44.64 423.991 44.96H413.935ZM418.087 39.656C416.967 39.656 416.039 39.976 415.303 40.616C414.567 41.24 414.111 42.08 413.935 43.136H421.951C421.775 42 421.327 41.136 420.607 40.544C419.887 39.952 419.047 39.656 418.087 39.656ZM434.023 38H436.111V50H434.023V45.68C433.063 46.096 431.983 46.304 430.783 46.304C429.247 46.304 428.055 45.944 427.207 45.224C426.375 44.488 425.959 43.408 425.959 41.984V38H428.047V41.864C428.047 42.76 428.287 43.4 428.767 43.784C429.263 44.168 429.983 44.36 430.927 44.36C432.063 44.36 433.095 44.152 434.023 43.736V38ZM440.747 44.96C440.955 46.032 441.443 46.864 442.211 47.456C442.995 48.048 443.955 48.344 445.091 48.344C446.675 48.344 447.827 47.76 448.547 46.592L450.323 47.6C449.155 49.408 447.395 50.312 445.043 50.312C443.139 50.312 441.587 49.72 440.387 48.536C439.203 47.336 438.611 45.824 438.611 44C438.611 42.192 439.195 40.688 440.363 39.488C441.531 38.288 443.043 37.688 444.899 37.688C446.659 37.688 448.091 38.312 449.195 39.56C450.315 40.792 450.875 42.28 450.875 44.024C450.875 44.328 450.851 44.64 450.803 44.96H440.747ZM444.899 39.656C443.779 39.656 442.851 39.976 442.115 40.616C441.379 41.24 440.923 42.08 440.747 43.136H448.763C448.587 42 448.139 41.136 447.419 40.544C446.699 39.952 445.859 39.656 444.899 39.656ZM461.579 38H463.667V50H461.579V44.984H455.363V50H453.275V38H455.363V42.992H461.579V38ZM475.558 38H477.238V50H475.174V41.576L468.526 50H466.846V38H468.91V46.424L475.558 38ZM489.392 38V50H487.328V45.68H485.576L482.216 50H479.672L483.176 45.56C482.28 45.336 481.552 44.888 480.992 44.216C480.432 43.544 480.152 42.76 480.152 41.864C480.152 40.76 480.544 39.84 481.328 39.104C482.112 38.368 483.096 38 484.28 38H489.392ZM484.352 43.808H487.328V39.944H484.352C483.76 39.944 483.256 40.12 482.84 40.472C482.424 40.824 482.216 41.296 482.216 41.888C482.216 42.464 482.424 42.928 482.84 43.28C483.256 43.632 483.76 43.808 484.352 43.808Z" fill="#106FAE"/>
<path d="M674.506 175.2H676.762L671.362 188.016C670.754 189.456 669.978 190.504 669.034 191.16C668.09 191.8 666.938 192.08 665.578 192V189.936C666.506 190.032 667.258 189.896 667.834 189.528C668.41 189.16 668.89 188.528 669.274 187.632L669.442 187.248L663.754 175.2H666.01L670.474 184.8L674.506 175.2ZM682.47 192.312C680.662 192.312 679.158 191.712 677.958 190.512C676.758 189.296 676.158 187.792 676.158 186C676.158 184.208 676.758 182.712 677.958 181.512C679.158 180.296 680.662 179.688 682.47 179.688C683.654 179.688 684.718 179.976 685.662 180.552C686.606 181.112 687.31 181.872 687.774 182.832L686.022 183.84C685.718 183.2 685.246 182.688 684.606 182.304C683.982 181.92 683.27 181.728 682.47 181.728C681.27 181.728 680.262 182.136 679.446 182.952C678.646 183.768 678.246 184.784 678.246 186C678.246 187.2 678.646 188.208 679.446 189.024C680.262 189.84 681.27 190.248 682.47 190.248C683.27 190.248 683.99 190.064 684.63 189.696C685.27 189.312 685.758 188.8 686.094 188.16L687.87 189.192C687.358 190.136 686.622 190.896 685.662 191.472C684.702 192.032 683.638 192.312 682.47 192.312ZM698.672 180V182.016H694.592V192H692.504V182.016H688.4V180H698.672ZM709.969 180H712.057V192H709.969V189.936C708.929 191.52 707.417 192.312 705.433 192.312C703.753 192.312 702.321 191.704 701.137 190.488C699.953 189.256 699.361 187.76 699.361 186C699.361 184.24 699.953 182.752 701.137 181.536C702.321 180.304 703.753 179.688 705.433 179.688C707.417 179.688 708.929 180.48 709.969 182.064V180ZM705.697 190.296C706.913 190.296 707.929 189.888 708.745 189.072C709.561 188.24 709.969 187.216 709.969 186C709.969 184.784 709.561 183.768 708.745 182.952C707.929 182.12 706.913 181.704 705.697 181.704C704.497 181.704 703.489 182.12 702.673 182.952C701.857 183.768 701.449 184.784 701.449 186C701.449 187.216 701.857 188.24 702.673 189.072C703.489 189.888 704.497 190.296 705.697 190.296ZM723.525 180H725.613V192H723.525V186.984H717.309V192H715.221V180H717.309V184.992H723.525V180ZM738.919 190.488C737.687 191.704 736.191 192.312 734.431 192.312C732.671 192.312 731.175 191.704 729.943 190.488C728.727 189.272 728.119 187.776 728.119 186C728.119 184.224 728.727 182.728 729.943 181.512C731.175 180.296 732.671 179.688 734.431 179.688C736.191 179.688 737.687 180.296 738.919 181.512C740.151 182.728 740.767 184.224 740.767 186C740.767 187.776 740.151 189.272 738.919 190.488ZM734.431 190.272C735.631 190.272 736.639 189.864 737.455 189.048C738.271 188.232 738.679 187.216 738.679 186C738.679 184.784 738.271 183.768 737.455 182.952C736.639 182.136 735.631 181.728 734.431 181.728C733.247 181.728 732.247 182.136 731.431 182.952C730.615 183.768 730.207 184.784 730.207 186C730.207 187.216 730.615 188.232 731.431 189.048C732.247 189.864 733.247 190.272 734.431 190.272ZM751.221 185.832C752.453 186.344 753.069 187.272 753.069 188.616C753.069 189.608 752.733 190.424 752.061 191.064C751.405 191.688 750.461 192 749.229 192H743.229V180H748.749C749.949 180 750.877 180.304 751.533 180.912C752.189 181.504 752.517 182.288 752.517 183.264C752.517 184.416 752.085 185.272 751.221 185.832ZM748.653 181.872H745.269V185.016H748.653C749.869 185.016 750.477 184.48 750.477 183.408C750.477 182.384 749.869 181.872 748.653 181.872ZM749.109 190.104C749.717 190.104 750.181 189.96 750.501 189.672C750.837 189.384 751.005 188.976 751.005 188.448C751.005 187.952 750.837 187.568 750.501 187.296C750.181 187.008 749.717 186.864 749.109 186.864H745.269V190.104H749.109ZM765.474 192H762.882L757.41 186.312V192H755.322V180H757.41V185.304L762.594 180H765.282L759.546 185.808L765.474 192ZM776.25 180H778.338V192H776.25V189.936C775.21 191.52 773.698 192.312 771.714 192.312C770.034 192.312 768.602 191.704 767.418 190.488C766.234 189.256 765.642 187.76 765.642 186C765.642 184.24 766.234 182.752 767.418 181.536C768.602 180.304 770.034 179.688 771.714 179.688C773.698 179.688 775.21 180.48 776.25 182.064V180ZM771.978 190.296C773.194 190.296 774.21 189.888 775.026 189.072C775.842 188.24 776.25 187.216 776.25 186C776.25 184.784 775.842 183.768 775.026 182.952C774.21 182.12 773.194 181.704 771.978 181.704C770.778 181.704 769.77 182.12 768.954 182.952C768.138 183.768 767.73 184.784 767.73 186C767.73 187.216 768.138 188.24 768.954 189.072C769.77 189.888 770.778 190.296 771.978 190.296ZM633.118 220.312C631.342 220.312 629.878 219.728 628.726 218.56C627.574 217.392 626.998 215.888 626.998 214.048C626.998 212 627.294 210.424 627.886 209.32C628.494 208.216 629.726 207.216 631.582 206.32C631.918 206.16 632.374 205.952 632.95 205.696C633.542 205.44 633.974 205.248 634.246 205.12C634.518 204.976 634.822 204.792 635.158 204.568C635.494 204.328 635.742 204.072 635.902 203.8C636.078 203.512 636.206 203.184 636.286 202.816L637.966 203.776C637.918 204.032 637.854 204.272 637.774 204.496C637.694 204.704 637.574 204.912 637.414 205.12C637.27 205.312 637.142 205.48 637.03 205.624C636.918 205.768 636.726 205.928 636.454 206.104C636.198 206.264 636.006 206.384 635.878 206.464C635.766 206.544 635.534 206.664 635.182 206.824C634.846 206.984 634.614 207.096 634.486 207.16C634.374 207.208 634.11 207.32 633.694 207.496C633.278 207.656 633.022 207.76 632.926 207.808C631.838 208.272 631.038 208.744 630.526 209.224C630.03 209.704 629.67 210.312 629.446 211.048C629.958 210.408 630.598 209.936 631.366 209.632C632.134 209.328 632.902 209.176 633.67 209.176C635.174 209.176 636.446 209.688 637.486 210.712C638.542 211.736 639.07 213.056 639.07 214.672C639.07 216.304 638.51 217.656 637.39 218.728C636.27 219.784 634.846 220.312 633.118 220.312ZM630.31 217.24C631.062 217.944 631.998 218.296 633.118 218.296C634.238 218.296 635.158 217.952 635.878 217.264C636.614 216.576 636.982 215.712 636.982 214.672C636.982 213.6 636.63 212.728 635.926 212.056C635.238 211.368 634.326 211.024 633.19 211.024C632.166 211.024 631.238 211.352 630.406 212.008C629.59 212.648 629.182 213.496 629.182 214.552C629.182 215.64 629.558 216.536 630.31 217.24ZM647.911 207.688C649.591 207.688 651.023 208.304 652.207 209.536C653.391 210.752 653.983 212.24 653.983 214C653.983 215.76 653.391 217.256 652.207 218.488C651.023 219.704 649.591 220.312 647.911 220.312C645.927 220.312 644.415 219.52 643.375 217.936V224.8H641.287V208H643.375V210.064C644.415 208.48 645.927 207.688 647.911 207.688ZM647.647 218.296C648.847 218.296 649.855 217.888 650.671 217.072C651.487 216.24 651.895 215.216 651.895 214C651.895 212.784 651.487 211.768 650.671 210.952C649.855 210.12 648.847 209.704 647.647 209.704C646.431 209.704 645.415 210.12 644.599 210.952C643.783 211.768 643.375 212.784 643.375 214C643.375 215.216 643.783 216.24 644.599 217.072C645.415 217.888 646.431 218.296 647.647 218.296ZM657.939 214.96C658.147 216.032 658.635 216.864 659.403 217.456C660.187 218.048 661.147 218.344 662.283 218.344C663.867 218.344 665.019 217.76 665.739 216.592L667.515 217.6C666.347 219.408 664.587 220.312 662.235 220.312C660.331 220.312 658.779 219.72 657.579 218.536C656.395 217.336 655.803 215.824 655.803 214C655.803 212.192 656.387 210.688 657.555 209.488C658.723 208.288 660.235 207.688 662.091 207.688C663.851 207.688 665.283 208.312 666.387 209.56C667.507 210.792 668.067 212.28 668.067 214.024C668.067 214.328 668.043 214.64 667.995 214.96H657.939ZM662.091 209.656C660.971 209.656 660.043 209.976 659.307 210.616C658.571 211.24 658.115 212.08 657.939 213.136H665.955C665.779 212 665.331 211.136 664.611 210.544C663.891 209.952 663.051 209.656 662.091 209.656ZM680.619 220H678.027L672.555 214.312V220H670.467V208H672.555V213.304L677.739 208H680.427L674.691 213.808L680.619 220ZM682.923 214.96C683.131 216.032 683.619 216.864 684.387 217.456C685.171 218.048 686.131 218.344 687.267 218.344C688.851 218.344 690.003 217.76 690.723 216.592L692.499 217.6C691.331 219.408 689.571 220.312 687.219 220.312C685.315 220.312 683.763 219.72 682.563 218.536C681.379 217.336 680.787 215.824 680.787 214C680.787 212.192 681.371 210.688 682.539 209.488C683.707 208.288 685.219 207.688 687.075 207.688C688.835 207.688 690.267 208.312 691.371 209.56C692.491 210.792 693.051 212.28 693.051 214.024C693.051 214.328 693.027 214.64 692.979 214.96H682.923ZM687.075 209.656C685.955 209.656 685.027 209.976 684.291 210.616C683.555 211.24 683.099 212.08 682.923 213.136H690.939C690.763 212 690.315 211.136 689.595 210.544C688.875 209.952 688.035 209.656 687.075 209.656ZM703.91 208V210.016H699.83V220H697.742V210.016H693.638V208H703.91ZM705.206 213.64V211.624H713.966V213.64H705.206ZM722.982 220.312C721.174 220.312 719.67 219.712 718.47 218.512C717.27 217.296 716.67 215.792 716.67 214C716.67 212.208 717.27 210.712 718.47 209.512C719.67 208.296 721.174 207.688 722.982 207.688C724.166 207.688 725.23 207.976 726.174 208.552C727.118 209.112 727.822 209.872 728.286 210.832L726.534 211.84C726.23 211.2 725.758 210.688 725.118 210.304C724.494 209.92 723.782 209.728 722.982 209.728C721.782 209.728 720.774 210.136 719.958 210.952C719.158 211.768 718.758 212.784 718.758 214C718.758 215.2 719.158 216.208 719.958 217.024C720.774 217.84 721.782 218.248 722.982 218.248C723.782 218.248 724.502 218.064 725.142 217.696C725.782 217.312 726.27 216.8 726.606 216.16L728.382 217.192C727.87 218.136 727.134 218.896 726.174 219.472C725.214 220.032 724.15 220.312 722.982 220.312ZM739.179 208H740.859V220H738.795V211.576L732.147 220H730.467V208H732.531V216.424L739.179 208ZM749.677 220.312C747.869 220.312 746.365 219.712 745.165 218.512C743.965 217.296 743.365 215.792 743.365 214C743.365 212.208 743.965 210.712 745.165 209.512C746.365 208.296 747.869 207.688 749.677 207.688C750.861 207.688 751.925 207.976 752.869 208.552C753.813 209.112 754.517 209.872 754.981 210.832L753.229 211.84C752.925 211.2 752.453 210.688 751.813 210.304C751.189 209.92 750.477 209.728 749.677 209.728C748.477 209.728 747.469 210.136 746.653 210.952C745.853 211.768 745.453 212.784 745.453 214C745.453 215.2 745.853 216.208 746.653 217.024C747.469 217.84 748.477 218.248 749.677 218.248C750.477 218.248 751.197 218.064 751.837 217.696C752.477 217.312 752.965 216.8 753.301 216.16L755.077 217.192C754.565 218.136 753.829 218.896 752.869 219.472C751.909 220.032 750.845 220.312 749.677 220.312ZM765.879 208V210.016H761.799V220H759.711V210.016H755.607V208H765.879ZM768.704 214.96C768.912 216.032 769.4 216.864 770.168 217.456C770.952 218.048 771.912 218.344 773.048 218.344C774.632 218.344 775.784 217.76 776.504 216.592L778.28 217.6C777.112 219.408 775.352 220.312 773 220.312C771.096 220.312 769.544 219.72 768.344 218.536C767.16 217.336 766.568 215.824 766.568 214C766.568 212.192 767.152 210.688 768.32 209.488C769.488 208.288 771 207.688 772.856 207.688C774.616 207.688 776.048 208.312 777.152 209.56C778.272 210.792 778.832 212.28 778.832 214.024C778.832 214.328 778.808 214.64 778.76 214.96H768.704ZM772.856 209.656C771.736 209.656 770.808 209.976 770.072 210.616C769.336 211.24 768.88 212.08 768.704 213.136H776.72C776.544 212 776.096 211.136 775.376 210.544C774.656 209.952 773.816 209.656 772.856 209.656ZM793.232 208V220H791.192V211.288L787.376 217.432H787.112L783.296 211.288V220H781.232V208H783.464L787.232 214.072L791 208H793.232ZM801.484 212.32C802.684 212.32 803.676 212.68 804.46 213.4C805.26 214.104 805.66 215.024 805.66 216.16C805.66 217.296 805.26 218.224 804.46 218.944C803.676 219.648 802.684 220 801.484 220H796.42V208H798.508V212.32H801.484ZM807.22 208H809.308V220H807.22V208ZM801.484 218.056C802.076 218.056 802.572 217.888 802.972 217.552C803.388 217.2 803.596 216.736 803.596 216.16C803.596 215.584 803.388 215.12 802.972 214.768C802.572 214.416 802.076 214.24 801.484 214.24H798.508V218.056H801.484Z" fill="#106FAE"/>
<path d="M78.006 381.2H80.262L74.862 394.016C74.254 395.456 73.478 396.504 72.534 397.16C71.59 397.8 70.438 398.08 69.078 398V395.936C70.006 396.032 70.758 395.896 71.334 395.528C71.91 395.16 72.39 394.528 72.774 393.632L72.942 393.248L67.254 381.2H69.51L73.974 390.8L78.006 381.2ZM85.9701 398.312C84.1621 398.312 82.6581 397.712 81.4581 396.512C80.2581 395.296 79.6581 393.792 79.6581 392C79.6581 390.208 80.2581 388.712 81.4581 387.512C82.6581 386.296 84.1621 385.688 85.9701 385.688C87.1541 385.688 88.2181 385.976 89.1621 386.552C90.1061 387.112 90.8101 387.872 91.2741 388.832L89.5221 389.84C89.2181 389.2 88.7461 388.688 88.1061 388.304C87.4821 387.92 86.7701 387.728 85.9701 387.728C84.7701 387.728 83.7621 388.136 82.9461 388.952C82.1461 389.768 81.7461 390.784 81.7461 392C81.7461 393.2 82.1461 394.208 82.9461 395.024C83.7621 395.84 84.7701 396.248 85.9701 396.248C86.7701 396.248 87.4901 396.064 88.1301 395.696C88.7701 395.312 89.2581 394.8 89.5941 394.16L91.3701 395.192C90.8581 396.136 90.1221 396.896 89.1621 397.472C88.2021 398.032 87.1381 398.312 85.9701 398.312ZM102.172 386V388.016H98.0922V398H96.0042V388.016H91.9002V386H102.172ZM113.469 386H115.557V398H113.469V395.936C112.429 397.52 110.917 398.312 108.933 398.312C107.253 398.312 105.821 397.704 104.637 396.488C103.453 395.256 102.861 393.76 102.861 392C102.861 390.24 103.453 388.752 104.637 387.536C105.821 386.304 107.253 385.688 108.933 385.688C110.917 385.688 112.429 386.48 113.469 388.064V386ZM109.197 396.296C110.413 396.296 111.429 395.888 112.245 395.072C113.061 394.24 113.469 393.216 113.469 392C113.469 390.784 113.061 389.768 112.245 388.952C111.429 388.12 110.413 387.704 109.197 387.704C107.997 387.704 106.989 388.12 106.173 388.952C105.357 389.768 104.949 390.784 104.949 392C104.949 393.216 105.357 394.24 106.173 395.072C106.989 395.888 107.997 396.296 109.197 396.296ZM127.025 386H129.113V398H127.025V392.984H120.809V398H118.721V386H120.809V390.992H127.025V386ZM142.419 396.488C141.187 397.704 139.691 398.312 137.931 398.312C136.171 398.312 134.675 397.704 133.443 396.488C132.227 395.272 131.619 393.776 131.619 392C131.619 390.224 132.227 388.728 133.443 387.512C134.675 386.296 136.171 385.688 137.931 385.688C139.691 385.688 141.187 386.296 142.419 387.512C143.651 388.728 144.267 390.224 144.267 392C144.267 393.776 143.651 395.272 142.419 396.488ZM137.931 396.272C139.131 396.272 140.139 395.864 140.955 395.048C141.771 394.232 142.179 393.216 142.179 392C142.179 390.784 141.771 389.768 140.955 388.952C140.139 388.136 139.131 387.728 137.931 387.728C136.747 387.728 135.747 388.136 134.931 388.952C134.115 389.768 133.707 390.784 133.707 392C133.707 393.216 134.115 394.232 134.931 395.048C135.747 395.864 136.747 396.272 137.931 396.272ZM154.721 391.832C155.953 392.344 156.569 393.272 156.569 394.616C156.569 395.608 156.233 396.424 155.561 397.064C154.905 397.688 153.961 398 152.729 398H146.729V386H152.249C153.449 386 154.377 386.304 155.033 386.912C155.689 387.504 156.017 388.288 156.017 389.264C156.017 390.416 155.585 391.272 154.721 391.832ZM152.153 387.872H148.769V391.016H152.153C153.369 391.016 153.977 390.48 153.977 389.408C153.977 388.384 153.369 387.872 152.153 387.872ZM152.609 396.104C153.217 396.104 153.681 395.96 154.001 395.672C154.337 395.384 154.505 394.976 154.505 394.448C154.505 393.952 154.337 393.568 154.001 393.296C153.681 393.008 153.217 392.864 152.609 392.864H148.769V396.104H152.609ZM168.974 398H166.382L160.91 392.312V398H158.822V386H160.91V391.304L166.094 386H168.782L163.046 391.808L168.974 398ZM179.75 386H181.838V398H179.75V395.936C178.71 397.52 177.198 398.312 175.214 398.312C173.534 398.312 172.102 397.704 170.918 396.488C169.734 395.256 169.142 393.76 169.142 392C169.142 390.24 169.734 388.752 170.918 387.536C172.102 386.304 173.534 385.688 175.214 385.688C177.198 385.688 178.71 386.48 179.75 388.064V386ZM175.478 396.296C176.694 396.296 177.71 395.888 178.526 395.072C179.342 394.24 179.75 393.216 179.75 392C179.75 390.784 179.342 389.768 178.526 388.952C177.71 388.12 176.694 387.704 175.478 387.704C174.278 387.704 173.27 388.12 172.454 388.952C171.638 389.768 171.23 390.784 171.23 392C171.23 393.216 171.638 394.24 172.454 395.072C173.27 395.888 174.278 396.296 175.478 396.296ZM65.2861 413.688C66.9661 413.688 68.3981 414.304 69.5821 415.536C70.7661 416.752 71.3581 418.24 71.3581 420C71.3581 421.76 70.7661 423.256 69.5821 424.488C68.3981 425.704 66.9661 426.312 65.2861 426.312C63.3021 426.312 61.7901 425.52 60.7501 423.936V430.8H58.6621V414H60.7501V416.064C61.7901 414.48 63.3021 413.688 65.2861 413.688ZM65.0221 424.296C66.2221 424.296 67.2301 423.888 68.0461 423.072C68.8621 422.24 69.2701 421.216 69.2701 420C69.2701 418.784 68.8621 417.768 68.0461 416.952C67.2301 416.12 66.2221 415.704 65.0221 415.704C63.8061 415.704 62.7901 416.12 61.9741 416.952C61.1581 417.768 60.7501 418.784 60.7501 420C60.7501 421.216 61.1581 422.24 61.9741 423.072C62.7901 423.888 63.8061 424.296 65.0221 424.296ZM75.3136 420.96C75.5216 422.032 76.0096 422.864 76.7776 423.456C77.5616 424.048 78.5216 424.344 79.6576 424.344C81.2416 424.344 82.3936 423.76 83.1136 422.592L84.8896 423.6C83.7216 425.408 81.9616 426.312 79.6096 426.312C77.7056 426.312 76.1536 425.72 74.9536 424.536C73.7696 423.336 73.1776 421.824 73.1776 420C73.1776 418.192 73.7616 416.688 74.9296 415.488C76.0976 414.288 77.6096 413.688 79.4656 413.688C81.2256 413.688 82.6576 414.312 83.7616 415.56C84.8816 416.792 85.4416 418.28 85.4416 420.024C85.4416 420.328 85.4176 420.64 85.3696 420.96H75.3136ZM79.4656 415.656C78.3456 415.656 77.4176 415.976 76.6816 416.616C75.9456 417.24 75.4896 418.08 75.3136 419.136H83.3296C83.1536 418 82.7056 417.136 81.9856 416.544C81.2656 415.952 80.4256 415.656 79.4656 415.656ZM96.3011 414V416.016H92.2211V426H90.1331V416.016H86.0291V414H96.3011ZM99.1261 420.96C99.3341 422.032 99.8221 422.864 100.59 423.456C101.374 424.048 102.334 424.344 103.47 424.344C105.054 424.344 106.206 423.76 106.926 422.592L108.702 423.6C107.534 425.408 105.774 426.312 103.422 426.312C101.518 426.312 99.9661 425.72 98.7661 424.536C97.5821 423.336 96.9901 421.824 96.9901 420C96.9901 418.192 97.5741 416.688 98.7421 415.488C99.9101 414.288 101.422 413.688 103.278 413.688C105.038 413.688 106.47 414.312 107.574 415.56C108.694 416.792 109.254 418.28 109.254 420.024C109.254 420.328 109.23 420.64 109.182 420.96H99.1261ZM103.278 415.656C102.158 415.656 101.23 415.976 100.494 416.616C99.7581 417.24 99.3021 418.08 99.1261 419.136H107.142C106.966 418 106.518 417.136 105.798 416.544C105.078 415.952 104.238 415.656 103.278 415.656ZM113.622 412.2V410.376H120.102V412.2H113.622ZM120.366 414H122.046V426H119.982V417.576L113.334 426H111.654V414H113.718V422.424L120.366 414ZM133.529 414H135.617V426H133.529V420.984H127.313V426H125.225V414H127.313V418.992H133.529V414ZM140.259 420.96C140.467 422.032 140.955 422.864 141.723 423.456C142.507 424.048 143.467 424.344 144.603 424.344C146.187 424.344 147.339 423.76 148.059 422.592L149.835 423.6C148.667 425.408 146.907 426.312 144.555 426.312C142.651 426.312 141.099 425.72 139.899 424.536C138.715 423.336 138.123 421.824 138.123 420C138.123 418.192 138.707 416.688 139.875 415.488C141.043 414.288 142.555 413.688 144.411 413.688C146.171 413.688 147.603 414.312 148.707 415.56C149.827 416.792 150.387 418.28 150.387 420.024C150.387 420.328 150.363 420.64 150.315 420.96H140.259ZM144.411 415.656C143.291 415.656 142.363 415.976 141.627 416.616C140.891 417.24 140.435 418.08 140.259 419.136H148.275C148.099 418 147.651 417.136 146.931 416.544C146.211 415.952 145.371 415.656 144.411 415.656ZM159.411 413.688C161.091 413.688 162.523 414.304 163.707 415.536C164.891 416.752 165.483 418.24 165.483 420C165.483 421.76 164.891 423.256 163.707 424.488C162.523 425.704 161.091 426.312 159.411 426.312C157.427 426.312 155.915 425.52 154.875 423.936V430.8H152.787V414H154.875V416.064C155.915 414.48 157.427 413.688 159.411 413.688ZM159.147 424.296C160.347 424.296 161.355 423.888 162.171 423.072C162.987 422.24 163.395 421.216 163.395 420C163.395 418.784 162.987 417.768 162.171 416.952C161.355 416.12 160.347 415.704 159.147 415.704C157.931 415.704 156.915 416.12 156.099 416.952C155.283 417.768 154.875 418.784 154.875 420C154.875 421.216 155.283 422.24 156.099 423.072C156.915 423.888 157.931 424.296 159.147 424.296ZM178.103 424.488C176.871 425.704 175.375 426.312 173.615 426.312C171.855 426.312 170.359 425.704 169.127 424.488C167.911 423.272 167.303 421.776 167.303 420C167.303 418.224 167.911 416.728 169.127 415.512C170.359 414.296 171.855 413.688 173.615 413.688C175.375 413.688 176.871 414.296 178.103 415.512C179.335 416.728 179.951 418.224 179.951 420C179.951 421.776 179.335 423.272 178.103 424.488ZM173.615 424.272C174.815 424.272 175.823 423.864 176.639 423.048C177.455 422.232 177.863 421.216 177.863 420C177.863 418.784 177.455 417.768 176.639 416.952C175.823 416.136 174.815 415.728 173.615 415.728C172.431 415.728 171.431 416.136 170.615 416.952C169.799 417.768 169.391 418.784 169.391 420C169.391 421.216 169.799 422.232 170.615 423.048C171.431 423.864 172.431 424.272 173.615 424.272ZM190.404 419.832C191.636 420.344 192.252 421.272 192.252 422.616C192.252 423.608 191.916 424.424 191.244 425.064C190.588 425.688 189.644 426 188.412 426H182.412V414H187.932C189.132 414 190.06 414.304 190.716 414.912C191.372 415.504 191.7 416.288 191.7 417.264C191.7 418.416 191.268 419.272 190.404 419.832ZM187.836 415.872H184.452V419.016H187.836C189.052 419.016 189.66 418.48 189.66 417.408C189.66 416.384 189.052 415.872 187.836 415.872ZM188.292 424.104C188.9 424.104 189.364 423.96 189.684 423.672C190.02 423.384 190.188 422.976 190.188 422.448C190.188 421.952 190.02 421.568 189.684 421.296C189.364 421.008 188.9 420.864 188.292 420.864H184.452V424.104H188.292Z" fill="#106FAE"/>
<path d="M279.895 562.312C277.351 562.312 275.247 561.472 273.583 559.792C271.935 558.112 271.111 556.048 271.111 553.6C271.111 551.152 271.935 549.088 273.583 547.408C275.247 545.728 277.351 544.888 279.895 544.888C281.431 544.888 282.839 545.256 284.119 545.992C285.415 546.728 286.423 547.72 287.143 548.968L285.199 550.096C284.719 549.168 283.999 548.432 283.039 547.888C282.095 547.328 281.047 547.048 279.895 547.048C277.959 547.048 276.375 547.672 275.143 548.92C273.927 550.168 273.319 551.728 273.319 553.6C273.319 555.456 273.927 557.008 275.143 558.256C276.375 559.504 277.959 560.128 279.895 560.128C281.047 560.128 282.095 559.856 283.039 559.312C283.999 558.752 284.719 558.016 285.199 557.104L287.143 558.208C286.439 559.456 285.439 560.456 284.143 561.208C282.847 561.944 281.431 562.312 279.895 562.312ZM297.829 550H299.917V562H297.829V556.984H291.613V562H289.525V550H291.613V554.992H297.829V550ZM312.072 550V562H310.008V557.68H308.256L304.896 562H302.352L305.856 557.56C304.96 557.336 304.232 556.888 303.672 556.216C303.112 555.544 302.832 554.76 302.832 553.864C302.832 552.76 303.224 551.84 304.008 551.104C304.792 550.368 305.776 550 306.96 550H312.072ZM307.032 555.808H310.008V551.944H307.032C306.44 551.944 305.936 552.12 305.52 552.472C305.104 552.824 304.896 553.296 304.896 553.888C304.896 554.464 305.104 554.928 305.52 555.28C305.936 555.632 306.44 555.808 307.032 555.808ZM324.164 550V552.016H320.084V562H317.996V552.016H313.892V550H324.164ZM334.706 550H336.386V562H334.322V553.576L327.674 562H325.994V550H328.058V558.424L334.706 550ZM341.028 556.96C341.236 558.032 341.724 558.864 342.492 559.456C343.276 560.048 344.236 560.344 345.372 560.344C346.956 560.344 348.108 559.76 348.828 558.592L350.604 559.6C349.436 561.408 347.676 562.312 345.324 562.312C343.42 562.312 341.868 561.72 340.668 560.536C339.484 559.336 338.892 557.824 338.892 556C338.892 554.192 339.476 552.688 340.644 551.488C341.812 550.288 343.324 549.688 345.18 549.688C346.94 549.688 348.372 550.312 349.476 551.56C350.596 552.792 351.156 554.28 351.156 556.024C351.156 556.328 351.132 556.64 351.084 556.96H341.028ZM345.18 551.656C344.06 551.656 343.132 551.976 342.396 552.616C341.66 553.24 341.204 554.08 341.028 555.136H349.044C348.868 554 348.42 553.136 347.7 552.544C346.98 551.952 346.14 551.656 345.18 551.656ZM365.005 562.312C363.229 562.312 361.765 561.728 360.613 560.56C359.461 559.392 358.885 557.888 358.885 556.048C358.885 554 359.181 552.424 359.773 551.32C360.381 550.216 361.613 549.216 363.469 548.32C363.805 548.16 364.261 547.952 364.837 547.696C365.429 547.44 365.861 547.248 366.133 547.12C366.405 546.976 366.709 546.792 367.045 546.568C367.381 546.328 367.629 546.072 367.789 545.8C367.965 545.512 368.093 545.184 368.173 544.816L369.853 545.776C369.805 546.032 369.741 546.272 369.661 546.496C369.581 546.704 369.461 546.912 369.301 547.12C369.157 547.312 369.029 547.48 368.917 547.624C368.805 547.768 368.613 547.928 368.341 548.104C368.085 548.264 367.893 548.384 367.765 548.464C367.653 548.544 367.421 548.664 367.069 548.824C366.733 548.984 366.501 549.096 366.373 549.16C366.261 549.208 365.997 549.32 365.581 549.496C365.165 549.656 364.909 549.76 364.813 549.808C363.725 550.272 362.925 550.744 362.413 551.224C361.917 551.704 361.557 552.312 361.333 553.048C361.845 552.408 362.485 551.936 363.253 551.632C364.021 551.328 364.789 551.176 365.557 551.176C367.061 551.176 368.333 551.688 369.373 552.712C370.429 553.736 370.957 555.056 370.957 556.672C370.957 558.304 370.397 559.656 369.277 560.728C368.157 561.784 366.733 562.312 365.005 562.312ZM362.197 559.24C362.949 559.944 363.885 560.296 365.005 560.296C366.125 560.296 367.045 559.952 367.765 559.264C368.501 558.576 368.869 557.712 368.869 556.672C368.869 555.6 368.517 554.728 367.813 554.056C367.125 553.368 366.213 553.024 365.077 553.024C364.053 553.024 363.125 553.352 362.293 554.008C361.477 554.648 361.069 555.496 361.069 556.552C361.069 557.64 361.445 558.536 362.197 559.24ZM379.798 549.688C381.478 549.688 382.91 550.304 384.094 551.536C385.278 552.752 385.87 554.24 385.87 556C385.87 557.76 385.278 559.256 384.094 560.488C382.91 561.704 381.478 562.312 379.798 562.312C377.814 562.312 376.302 561.52 375.262 559.936V566.8H373.174V550H375.262V552.064C376.302 550.48 377.814 549.688 379.798 549.688ZM379.534 560.296C380.734 560.296 381.742 559.888 382.558 559.072C383.374 558.24 383.782 557.216 383.782 556C383.782 554.784 383.374 553.768 382.558 552.952C381.742 552.12 380.734 551.704 379.534 551.704C378.318 551.704 377.302 552.12 376.486 552.952C375.67 553.768 375.262 554.784 375.262 556C375.262 557.216 375.67 558.24 376.486 559.072C377.302 559.888 378.318 560.296 379.534 560.296ZM389.825 556.96C390.033 558.032 390.521 558.864 391.289 559.456C392.073 560.048 393.033 560.344 394.169 560.344C395.753 560.344 396.905 559.76 397.625 558.592L399.401 559.6C398.233 561.408 396.473 562.312 394.121 562.312C392.217 562.312 390.665 561.72 389.465 560.536C388.281 559.336 387.689 557.824 387.689 556C387.689 554.192 388.273 552.688 389.441 551.488C390.609 550.288 392.121 549.688 393.977 549.688C395.737 549.688 397.169 550.312 398.273 551.56C399.393 552.792 399.953 554.28 399.953 556.024C399.953 556.328 399.929 556.64 399.881 556.96H389.825ZM393.977 551.656C392.857 551.656 391.929 551.976 391.193 552.616C390.457 553.24 390.001 554.08 389.825 555.136H397.841C397.665 554 397.217 553.136 396.497 552.544C395.777 551.952 394.937 551.656 393.977 551.656ZM412.506 562H409.914L404.442 556.312V562H402.354V550H404.442V555.304L409.626 550H412.314L406.578 555.808L412.506 562ZM414.81 556.96C415.018 558.032 415.506 558.864 416.274 559.456C417.058 560.048 418.018 560.344 419.154 560.344C420.738 560.344 421.89 559.76 422.61 558.592L424.386 559.6C423.218 561.408 421.458 562.312 419.106 562.312C417.202 562.312 415.65 561.72 414.45 560.536C413.266 559.336 412.674 557.824 412.674 556C412.674 554.192 413.258 552.688 414.426 551.488C415.594 550.288 417.106 549.688 418.962 549.688C420.722 549.688 422.154 550.312 423.258 551.56C424.378 552.792 424.938 554.28 424.938 556.024C424.938 556.328 424.914 556.64 424.866 556.96H414.81ZM418.962 551.656C417.842 551.656 416.914 551.976 416.178 552.616C415.442 553.24 414.986 554.08 414.81 555.136H422.826C422.65 554 422.202 553.136 421.482 552.544C420.762 551.952 419.922 551.656 418.962 551.656ZM435.797 550V552.016H431.717V562H429.629V552.016H425.525V550H435.797ZM437.093 555.64V553.624H445.853V555.64H437.093ZM454.869 562.312C453.061 562.312 451.557 561.712 450.357 560.512C449.157 559.296 448.557 557.792 448.557 556C448.557 554.208 449.157 552.712 450.357 551.512C451.557 550.296 453.061 549.688 454.869 549.688C456.053 549.688 457.117 549.976 458.061 550.552C459.005 551.112 459.709 551.872 460.173 552.832L458.421 553.84C458.117 553.2 457.645 552.688 457.005 552.304C456.381 551.92 455.669 551.728 454.869 551.728C453.669 551.728 452.661 552.136 451.845 552.952C451.045 553.768 450.645 554.784 450.645 556C450.645 557.2 451.045 558.208 451.845 559.024C452.661 559.84 453.669 560.248 454.869 560.248C455.669 560.248 456.389 560.064 457.029 559.696C457.669 559.312 458.157 558.8 458.493 558.16L460.269 559.192C459.757 560.136 459.021 560.896 458.061 561.472C457.101 562.032 456.037 562.312 454.869 562.312ZM471.066 550H472.746V562H470.682V553.576L464.034 562H462.354V550H464.418V558.424L471.066 550ZM481.564 562.312C479.756 562.312 478.252 561.712 477.052 560.512C475.852 559.296 475.252 557.792 475.252 556C475.252 554.208 475.852 552.712 477.052 551.512C478.252 550.296 479.756 549.688 481.564 549.688C482.748 549.688 483.812 549.976 484.756 550.552C485.7 551.112 486.404 551.872 486.868 552.832L485.116 553.84C484.812 553.2 484.34 552.688 483.7 552.304C483.076 551.92 482.364 551.728 481.564 551.728C480.364 551.728 479.356 552.136 478.54 552.952C477.74 553.768 477.34 554.784 477.34 556C477.34 557.2 477.74 558.208 478.54 559.024C479.356 559.84 480.364 560.248 481.564 560.248C482.364 560.248 483.084 560.064 483.724 559.696C484.364 559.312 484.852 558.8 485.188 558.16L486.964 559.192C486.452 560.136 485.716 560.896 484.756 561.472C483.796 562.032 482.732 562.312 481.564 562.312ZM497.766 550V552.016H493.686V562H491.598V552.016H487.494V550H497.766ZM500.591 556.96C500.799 558.032 501.287 558.864 502.055 559.456C502.839 560.048 503.799 560.344 504.935 560.344C506.519 560.344 507.671 559.76 508.391 558.592L510.167 559.6C508.999 561.408 507.239 562.312 504.887 562.312C502.983 562.312 501.431 561.72 500.231 560.536C499.047 559.336 498.455 557.824 498.455 556C498.455 554.192 499.039 552.688 500.207 551.488C501.375 550.288 502.887 549.688 504.743 549.688C506.503 549.688 507.935 550.312 509.039 551.56C510.159 552.792 510.719 554.28 510.719 556.024C510.719 556.328 510.695 556.64 510.647 556.96H500.591ZM504.743 551.656C503.623 551.656 502.695 551.976 501.959 552.616C501.223 553.24 500.767 554.08 500.591 555.136H508.607C508.431 554 507.983 553.136 507.263 552.544C506.543 551.952 505.703 551.656 504.743 551.656ZM525.119 550V562H523.079V553.288L519.263 559.432H518.999L515.183 553.288V562H513.119V550H515.351L519.119 556.072L522.887 550H525.119ZM533.371 554.32C534.571 554.32 535.563 554.68 536.347 555.4C537.147 556.104 537.547 557.024 537.547 558.16C537.547 559.296 537.147 560.224 536.347 560.944C535.563 561.648 534.571 562 533.371 562H528.307V550H530.395V554.32H533.371ZM539.107 550H541.195V562H539.107V550ZM533.371 560.056C533.963 560.056 534.459 559.888 534.859 559.552C535.275 559.2 535.483 558.736 535.483 558.16C535.483 557.584 535.275 557.12 534.859 556.768C534.459 556.416 533.963 556.24 533.371 556.24H530.395V560.056H533.371Z" fill="#106FAE"/>
<path d="M44.7858 186.312C42.2418 186.312 40.1378 185.472 38.4738 183.792C36.8258 182.112 36.0018 180.048 36.0018 177.6C36.0018 175.152 36.8258 173.088 38.4738 171.408C40.1378 169.728 42.2418 168.888 44.7858 168.888C46.3218 168.888 47.7298 169.256 49.0098 169.992C50.3058 170.728 51.3138 171.72 52.0338 172.968L50.0898 174.096C49.6098 173.168 48.8898 172.432 47.9298 171.888C46.9858 171.328 45.9378 171.048 44.7858 171.048C42.8498 171.048 41.2658 171.672 40.0338 172.92C38.8178 174.168 38.2098 175.728 38.2098 177.6C38.2098 179.456 38.8178 181.008 40.0338 182.256C41.2658 183.504 42.8498 184.128 44.7858 184.128C45.9378 184.128 46.9858 183.856 47.9298 183.312C48.8898 182.752 49.6098 182.016 50.0898 181.104L52.0338 182.208C51.3298 183.456 50.3298 184.456 49.0338 185.208C47.7378 185.944 46.3218 186.312 44.7858 186.312ZM63.344 174V176.016H59.264V186H57.176V176.016H53.072V174H63.344ZM74.8331 184.488C73.6011 185.704 72.1051 186.312 70.3451 186.312C68.5851 186.312 67.0891 185.704 65.8571 184.488C64.6411 183.272 64.0331 181.776 64.0331 180C64.0331 178.224 64.6411 176.728 65.8571 175.512C67.0891 174.296 68.5851 173.688 70.3451 173.688C72.1051 173.688 73.6011 174.296 74.8331 175.512C76.0651 176.728 76.6811 178.224 76.6811 180C76.6811 181.776 76.0651 183.272 74.8331 184.488ZM70.3451 184.272C71.5451 184.272 72.5531 183.864 73.3691 183.048C74.1851 182.232 74.5931 181.216 74.5931 180C74.5931 178.784 74.1851 177.768 73.3691 176.952C72.5531 176.136 71.5451 175.728 70.3451 175.728C69.1611 175.728 68.1611 176.136 67.3451 176.952C66.5291 177.768 66.1211 178.784 66.1211 180C66.1211 181.216 66.5291 182.232 67.3451 183.048C68.1611 183.864 69.1611 184.272 70.3451 184.272ZM87.8546 174H89.5346V186H87.4706V177.576L80.8226 186H79.1426V174H81.2066V182.424L87.8546 174ZM104.713 174V186H102.673V177.288L98.8569 183.432H98.5929L94.7769 177.288V186H92.7129V174H94.9449L98.7129 180.072L102.481 174H104.713ZM118.028 184.488C116.796 185.704 115.3 186.312 113.54 186.312C111.78 186.312 110.284 185.704 109.052 184.488C107.836 183.272 107.228 181.776 107.228 180C107.228 178.224 107.836 176.728 109.052 175.512C110.284 174.296 111.78 173.688 113.54 173.688C115.3 173.688 116.796 174.296 118.028 175.512C119.26 176.728 119.876 178.224 119.876 180C119.876 181.776 119.26 183.272 118.028 184.488ZM113.54 184.272C114.74 184.272 115.748 183.864 116.564 183.048C117.38 182.232 117.788 181.216 117.788 180C117.788 178.784 117.38 177.768 116.564 176.952C115.748 176.136 114.74 175.728 113.54 175.728C112.356 175.728 111.356 176.136 110.54 176.952C109.724 177.768 109.316 178.784 109.316 180C109.316 181.216 109.724 182.232 110.54 183.048C111.356 183.864 112.356 184.272 113.54 184.272ZM127.978 186.312C126.17 186.312 124.666 185.712 123.466 184.512C122.266 183.296 121.666 181.792 121.666 180C121.666 178.208 122.266 176.712 123.466 175.512C124.666 174.296 126.17 173.688 127.978 173.688C129.162 173.688 130.226 173.976 131.17 174.552C132.114 175.112 132.818 175.872 133.282 176.832L131.53 177.84C131.226 177.2 130.754 176.688 130.114 176.304C129.49 175.92 128.778 175.728 127.978 175.728C126.778 175.728 125.77 176.136 124.954 176.952C124.154 177.768 123.754 178.784 123.754 180C123.754 181.2 124.154 182.208 124.954 183.024C125.77 183.84 126.778 184.248 127.978 184.248C128.778 184.248 129.498 184.064 130.138 183.696C130.778 183.312 131.266 182.8 131.602 182.16L133.378 183.192C132.866 184.136 132.13 184.896 131.17 185.472C130.21 186.032 129.146 186.312 127.978 186.312ZM144.18 174V176.016H140.1V186H138.012V176.016H133.908V174H144.18ZM151.074 178.32C152.274 178.32 153.266 178.68 154.05 179.4C154.85 180.104 155.25 181.024 155.25 182.16C155.25 183.296 154.85 184.224 154.05 184.944C153.266 185.648 152.274 186 151.074 186H146.01V174H148.098V178.32H151.074ZM151.074 184.056C151.666 184.056 152.162 183.888 152.562 183.552C152.978 183.2 153.186 182.736 153.186 182.16C153.186 181.584 152.978 181.12 152.562 180.768C152.162 180.416 151.666 180.24 151.074 180.24H148.098V184.056H151.074ZM7.11794 214.312C5.34194 214.312 3.87794 213.728 2.72594 212.56C1.57394 211.392 0.997938 209.888 0.997938 208.048C0.997938 206 1.29394 204.424 1.88594 203.32C2.49394 202.216 3.72594 201.216 5.58194 200.32C5.91794 200.16 6.37394 199.952 6.94994 199.696C7.54194 199.44 7.97394 199.248 8.24594 199.12C8.51794 198.976 8.82194 198.792 9.15794 198.568C9.49394 198.328 9.74194 198.072 9.90194 197.8C10.0779 197.512 10.2059 197.184 10.2859 196.816L11.9659 197.776C11.9179 198.032 11.8539 198.272 11.7739 198.496C11.6939 198.704 11.5739 198.912 11.4139 199.12C11.2699 199.312 11.1419 199.48 11.0299 199.624C10.9179 199.768 10.7259 199.928 10.4539 200.104C10.1979 200.264 10.0059 200.384 9.87794 200.464C9.76594 200.544 9.53394 200.664 9.18194 200.824C8.84594 200.984 8.61394 201.096 8.48594 201.16C8.37394 201.208 8.10994 201.32 7.69394 201.496C7.27794 201.656 7.02194 201.76 6.92594 201.808C5.83794 202.272 5.03794 202.744 4.52594 203.224C4.02994 203.704 3.66994 204.312 3.44594 205.048C3.95794 204.408 4.59794 203.936 5.36594 203.632C6.13394 203.328 6.90194 203.176 7.66994 203.176C9.17394 203.176 10.4459 203.688 11.4859 204.712C12.5419 205.736 13.0699 207.056 13.0699 208.672C13.0699 210.304 12.5099 211.656 11.3899 212.728C10.2699 213.784 8.84594 214.312 7.11794 214.312ZM4.30994 211.24C5.06194 211.944 5.99794 212.296 7.11794 212.296C8.23794 212.296 9.15794 211.952 9.87794 211.264C10.6139 210.576 10.9819 209.712 10.9819 208.672C10.9819 207.6 10.6299 206.728 9.92594 206.056C9.23794 205.368 8.32594 205.024 7.18994 205.024C6.16594 205.024 5.23794 205.352 4.40594 206.008C3.58994 206.648 3.18194 207.496 3.18194 208.552C3.18194 209.64 3.55794 210.536 4.30994 211.24ZM21.9111 201.688C23.5911 201.688 25.0231 202.304 26.2071 203.536C27.3911 204.752 27.9831 206.24 27.9831 208C27.9831 209.76 27.3911 211.256 26.2071 212.488C25.0231 213.704 23.5911 214.312 21.9111 214.312C19.9271 214.312 18.4151 213.52 17.3751 211.936V218.8H15.2871V202H17.3751V204.064C18.4151 202.48 19.9271 201.688 21.9111 201.688ZM21.6471 212.296C22.8471 212.296 23.8551 211.888 24.6711 211.072C25.4871 210.24 25.8951 209.216 25.8951 208C25.8951 206.784 25.4871 205.768 24.6711 204.952C23.8551 204.12 22.8471 203.704 21.6471 203.704C20.4311 203.704 19.4151 204.12 18.5991 204.952C17.7831 205.768 17.3751 206.784 17.3751 208C17.3751 209.216 17.7831 210.24 18.5991 211.072C19.4151 211.888 20.4311 212.296 21.6471 212.296ZM31.9386 208.96C32.1466 210.032 32.6346 210.864 33.4026 211.456C34.1866 212.048 35.1466 212.344 36.2826 212.344C37.8666 212.344 39.0186 211.76 39.7386 210.592L41.5146 211.6C40.3466 213.408 38.5866 214.312 36.2346 214.312C34.3306 214.312 32.7786 213.72 31.5786 212.536C30.3946 211.336 29.8026 209.824 29.8026 208C29.8026 206.192 30.3866 204.688 31.5546 203.488C32.7226 202.288 34.2346 201.688 36.0906 201.688C37.8506 201.688 39.2826 202.312 40.3866 203.56C41.5066 204.792 42.0666 206.28 42.0666 208.024C42.0666 208.328 42.0426 208.64 41.9946 208.96H31.9386ZM36.0906 203.656C34.9706 203.656 34.0426 203.976 33.3066 204.616C32.5706 205.24 32.1146 206.08 31.9386 207.136H39.9546C39.7786 206 39.3306 205.136 38.6106 204.544C37.8906 203.952 37.0506 203.656 36.0906 203.656ZM54.6188 214H52.0268L46.5548 208.312V214H44.4668V202H46.5548V207.304L51.7388 202H54.4268L48.6908 207.808L54.6188 214ZM56.923 208.96C57.131 210.032 57.619 210.864 58.387 211.456C59.171 212.048 60.131 212.344 61.267 212.344C62.851 212.344 64.003 211.76 64.723 210.592L66.499 211.6C65.331 213.408 63.571 214.312 61.219 214.312C59.315 214.312 57.763 213.72 56.563 212.536C55.379 211.336 54.787 209.824 54.787 208C54.787 206.192 55.371 204.688 56.539 203.488C57.707 202.288 59.219 201.688 61.075 201.688C62.835 201.688 64.267 202.312 65.371 203.56C66.491 204.792 67.051 206.28 67.051 208.024C67.051 208.328 67.027 208.64 66.979 208.96H56.923ZM61.075 203.656C59.955 203.656 59.027 203.976 58.291 204.616C57.555 205.24 57.099 206.08 56.923 207.136H64.939C64.763 206 64.315 205.136 63.595 204.544C62.875 203.952 62.035 203.656 61.075 203.656ZM77.9104 202V204.016H73.8304V214H71.7424V204.016H67.6384V202H77.9104ZM79.2063 207.64V205.624H87.9663V207.64H79.2063ZM96.9818 214.312C95.1738 214.312 93.6698 213.712 92.4698 212.512C91.2698 211.296 90.6698 209.792 90.6698 208C90.6698 206.208 91.2698 204.712 92.4698 203.512C93.6698 202.296 95.1738 201.688 96.9818 201.688C98.1658 201.688 99.2298 201.976 100.174 202.552C101.118 203.112 101.822 203.872 102.286 204.832L100.534 205.84C100.23 205.2 99.7578 204.688 99.1178 204.304C98.4938 203.92 97.7818 203.728 96.9818 203.728C95.7818 203.728 94.7738 204.136 93.9578 204.952C93.1578 205.768 92.7578 206.784 92.7578 208C92.7578 209.2 93.1578 210.208 93.9578 211.024C94.7738 211.84 95.7818 212.248 96.9818 212.248C97.7818 212.248 98.5018 212.064 99.1418 211.696C99.7818 211.312 100.27 210.8 100.606 210.16L102.382 211.192C101.87 212.136 101.134 212.896 100.174 213.472C99.2138 214.032 98.1498 214.312 96.9818 214.312ZM113.179 202H114.859V214H112.795V205.576L106.147 214H104.467V202H106.531V210.424L113.179 202ZM123.677 214.312C121.869 214.312 120.365 213.712 119.165 212.512C117.965 211.296 117.365 209.792 117.365 208C117.365 206.208 117.965 204.712 119.165 203.512C120.365 202.296 121.869 201.688 123.677 201.688C124.861 201.688 125.925 201.976 126.869 202.552C127.813 203.112 128.517 203.872 128.981 204.832L127.229 205.84C126.925 205.2 126.453 204.688 125.813 204.304C125.189 203.92 124.477 203.728 123.677 203.728C122.477 203.728 121.469 204.136 120.653 204.952C119.853 205.768 119.453 206.784 119.453 208C119.453 209.2 119.853 210.208 120.653 211.024C121.469 211.84 122.477 212.248 123.677 212.248C124.477 212.248 125.197 212.064 125.837 211.696C126.477 211.312 126.965 210.8 127.301 210.16L129.077 211.192C128.565 212.136 127.829 212.896 126.869 213.472C125.909 214.032 124.845 214.312 123.677 214.312ZM139.879 202V204.016H135.799V214H133.711V204.016H129.607V202H139.879ZM142.704 208.96C142.912 210.032 143.4 210.864 144.168 211.456C144.952 212.048 145.912 212.344 147.048 212.344C148.632 212.344 149.784 211.76 150.504 210.592L152.28 211.6C151.112 213.408 149.352 214.312 147 214.312C145.096 214.312 143.544 213.72 142.344 212.536C141.16 211.336 140.568 209.824 140.568 208C140.568 206.192 141.152 204.688 142.32 203.488C143.488 202.288 145 201.688 146.856 201.688C148.616 201.688 150.048 202.312 151.152 203.56C152.272 204.792 152.832 206.28 152.832 208.024C152.832 208.328 152.808 208.64 152.76 208.96H142.704ZM146.856 203.656C145.736 203.656 144.808 203.976 144.072 204.616C143.336 205.24 142.88 206.08 142.704 207.136H150.72C150.544 206 150.096 205.136 149.376 204.544C148.656 203.952 147.816 203.656 146.856 203.656ZM167.232 202V214H165.192V205.288L161.376 211.432H161.112L157.296 205.288V214H155.232V202H157.464L161.232 208.072L165 202H167.232ZM175.484 206.32C176.684 206.32 177.676 206.68 178.46 207.4C179.26 208.104 179.66 209.024 179.66 210.16C179.66 211.296 179.26 212.224 178.46 212.944C177.676 213.648 176.684 214 175.484 214H170.42V202H172.508V206.32H175.484ZM181.22 202H183.308V214H181.22V202ZM175.484 212.056C176.076 212.056 176.572 211.888 176.972 211.552C177.388 211.2 177.596 210.736 177.596 210.16C177.596 209.584 177.388 209.12 176.972 208.768C176.572 208.416 176.076 208.24 175.484 208.24H172.508V212.056H175.484Z" fill="#106FAE"/>
<path d="M691.828 381.2V398H689.596V383.312H681.868V398H679.636V381.2H691.828ZM705.225 386V398H703.137V388.016H698.409V392.912C698.409 394.88 698.009 396.256 697.209 397.04C696.425 397.808 695.313 398.128 693.873 398V396.032C694.689 396.144 695.297 395.968 695.697 395.504C696.113 395.024 696.321 394.144 696.321 392.864V386H705.225ZM718.325 386H720.413V398H718.325V395.936C717.285 397.52 715.773 398.312 713.789 398.312C712.109 398.312 710.677 397.704 709.493 396.488C708.309 395.256 707.717 393.76 707.717 392C707.717 390.24 708.309 388.752 709.493 387.536C710.677 386.304 712.109 385.688 713.789 385.688C715.773 385.688 717.285 386.48 718.325 388.064V386ZM714.053 396.296C715.269 396.296 716.285 395.888 717.101 395.072C717.917 394.24 718.325 393.216 718.325 392C718.325 390.784 717.917 389.768 717.101 388.952C716.285 388.12 715.269 387.704 714.053 387.704C712.853 387.704 711.845 388.12 711.029 388.952C710.213 389.768 709.805 390.784 709.805 392C709.805 393.216 710.213 394.24 711.029 395.072C711.845 395.888 712.853 396.296 714.053 396.296ZM731.88 386H733.968V398H731.88V392.984H725.664V398H723.576V386H725.664V390.992H731.88V386ZM747.275 396.488C746.043 397.704 744.547 398.312 742.787 398.312C741.027 398.312 739.531 397.704 738.299 396.488C737.083 395.272 736.475 393.776 736.475 392C736.475 390.224 737.083 388.728 738.299 387.512C739.531 386.296 741.027 385.688 742.787 385.688C744.547 385.688 746.043 386.296 747.275 387.512C748.507 388.728 749.122 390.224 749.122 392C749.122 393.776 748.507 395.272 747.275 396.488ZM742.787 396.272C743.987 396.272 744.995 395.864 745.811 395.048C746.627 394.232 747.035 393.216 747.035 392C747.035 390.784 746.627 389.768 745.811 388.952C744.995 388.136 743.987 387.728 742.787 387.728C741.603 387.728 740.603 388.136 739.787 388.952C738.971 389.768 738.562 390.784 738.562 392C738.562 393.216 738.971 394.232 739.787 395.048C740.603 395.864 741.603 396.272 742.787 396.272ZM759.576 391.832C760.808 392.344 761.424 393.272 761.424 394.616C761.424 395.608 761.088 396.424 760.416 397.064C759.76 397.688 758.816 398 757.584 398H751.584V386H757.104C758.304 386 759.232 386.304 759.888 386.912C760.544 387.504 760.872 388.288 760.872 389.264C760.872 390.416 760.44 391.272 759.576 391.832ZM757.008 387.872H753.624V391.016H757.008C758.224 391.016 758.832 390.48 758.832 389.408C758.832 388.384 758.224 387.872 757.008 387.872ZM757.464 396.104C758.072 396.104 758.536 395.96 758.856 395.672C759.192 395.384 759.36 394.976 759.36 394.448C759.36 393.952 759.192 393.568 758.856 393.296C758.536 393.008 758.072 392.864 757.464 392.864H753.624V396.104H757.464ZM768.742 390.32C769.942 390.32 770.934 390.68 771.718 391.4C772.518 392.104 772.918 393.024 772.918 394.16C772.918 395.296 772.518 396.224 771.718 396.944C770.934 397.648 769.942 398 768.742 398H763.678V386H765.766V390.32H768.742ZM774.478 386H776.566V398H774.478V386ZM768.742 396.056C769.334 396.056 769.83 395.888 770.23 395.552C770.646 395.2 770.854 394.736 770.854 394.16C770.854 393.584 770.646 393.12 770.23 392.768C769.83 392.416 769.334 392.24 768.742 392.24H765.766V396.056H768.742ZM781.22 392.96C781.428 394.032 781.916 394.864 782.684 395.456C783.468 396.048 784.428 396.344 785.564 396.344C787.148 396.344 788.3 395.76 789.02 394.592L790.796 395.6C789.628 397.408 787.868 398.312 785.516 398.312C783.612 398.312 782.06 397.72 780.86 396.536C779.676 395.336 779.084 393.824 779.084 392C779.084 390.192 779.668 388.688 780.836 387.488C782.004 386.288 783.516 385.688 785.372 385.688C787.132 385.688 788.564 386.312 789.668 387.56C790.788 388.792 791.348 390.28 791.348 392.024C791.348 392.328 791.324 392.64 791.276 392.96H781.22ZM785.372 387.656C784.252 387.656 783.324 387.976 782.588 388.616C781.852 389.24 781.396 390.08 781.22 391.136H789.236C789.06 390 788.612 389.136 787.892 388.544C787.172 387.952 786.332 387.656 785.372 387.656ZM641.753 414V426H639.665V415.992H633.449V426H631.361V414H641.753ZM655.06 424.488C653.828 425.704 652.332 426.312 650.572 426.312C648.812 426.312 647.316 425.704 646.084 424.488C644.868 423.272 644.26 421.776 644.26 420C644.26 418.224 644.868 416.728 646.084 415.512C647.316 414.296 648.812 413.688 650.572 413.688C652.332 413.688 653.828 414.296 655.06 415.512C656.292 416.728 656.908 418.224 656.908 420C656.908 421.776 656.292 423.272 655.06 424.488ZM650.572 424.272C651.772 424.272 652.78 423.864 653.596 423.048C654.412 422.232 654.82 421.216 654.82 420C654.82 418.784 654.412 417.768 653.596 416.952C652.78 416.136 651.772 415.728 650.572 415.728C649.388 415.728 648.388 416.136 647.572 416.952C646.756 417.768 646.348 418.784 646.348 420C646.348 421.216 646.756 422.232 647.572 423.048C648.388 423.864 649.388 424.272 650.572 424.272ZM665.009 426.312C663.201 426.312 661.697 425.712 660.497 424.512C659.297 423.296 658.697 421.792 658.697 420C658.697 418.208 659.297 416.712 660.497 415.512C661.697 414.296 663.201 413.688 665.009 413.688C666.193 413.688 667.257 413.976 668.201 414.552C669.145 415.112 669.849 415.872 670.313 416.832L668.561 417.84C668.257 417.2 667.785 416.688 667.145 416.304C666.521 415.92 665.809 415.728 665.009 415.728C663.809 415.728 662.801 416.136 661.985 416.952C661.185 417.768 660.785 418.784 660.785 420C660.785 421.2 661.185 422.208 661.985 423.024C662.801 423.84 663.809 424.248 665.009 424.248C665.809 424.248 666.529 424.064 667.169 423.696C667.809 423.312 668.297 422.8 668.633 422.16L670.409 423.192C669.897 424.136 669.161 424.896 668.201 425.472C667.241 426.032 666.177 426.312 665.009 426.312ZM673.771 420.96C673.979 422.032 674.467 422.864 675.235 423.456C676.019 424.048 676.979 424.344 678.115 424.344C679.699 424.344 680.851 423.76 681.571 422.592L683.347 423.6C682.179 425.408 680.419 426.312 678.067 426.312C676.163 426.312 674.611 425.72 673.411 424.536C672.227 423.336 671.635 421.824 671.635 420C671.635 418.192 672.219 416.688 673.387 415.488C674.555 414.288 676.067 413.688 677.923 413.688C679.683 413.688 681.115 414.312 682.219 415.56C683.339 416.792 683.899 418.28 683.899 420.024C683.899 420.328 683.875 420.64 683.827 420.96H673.771ZM677.923 415.656C676.803 415.656 675.875 415.976 675.139 416.616C674.403 417.24 673.947 418.08 673.771 419.136H681.787C681.611 418 681.163 417.136 680.443 416.544C679.723 415.952 678.883 415.656 677.923 415.656ZM702.619 424.008H704.275V429.216H702.211V426H686.299V414H688.387V424.008H693.427V414H695.515V424.008H700.531V414H702.619V424.008ZM707.521 420.96C707.729 422.032 708.217 422.864 708.985 423.456C709.769 424.048 710.729 424.344 711.865 424.344C713.449 424.344 714.601 423.76 715.321 422.592L717.097 423.6C715.929 425.408 714.169 426.312 711.817 426.312C709.913 426.312 708.361 425.72 707.161 424.536C705.977 423.336 705.385 421.824 705.385 420C705.385 418.192 705.969 416.688 707.137 415.488C708.305 414.288 709.817 413.688 711.673 413.688C713.433 413.688 714.865 414.312 715.969 415.56C717.089 416.792 717.649 418.28 717.649 420.024C717.649 420.328 717.625 420.64 717.577 420.96H707.521ZM711.673 415.656C710.553 415.656 709.625 415.976 708.889 416.616C708.153 417.24 707.697 418.08 707.521 419.136H715.537C715.361 418 714.913 417.136 714.193 416.544C713.473 415.952 712.633 415.656 711.673 415.656ZM728.353 414H730.441V426H728.353V420.984H722.137V426H720.049V414H722.137V418.992H728.353V414ZM742.331 414H744.011V426H741.947V417.576L735.299 426H733.619V414H735.683V422.424L742.331 414ZM756.165 414V426H754.101V421.68H752.349L748.989 426H746.445L749.949 421.56C749.053 421.336 748.325 420.888 747.765 420.216C747.205 419.544 746.925 418.76 746.925 417.864C746.925 416.76 747.317 415.84 748.101 415.104C748.885 414.368 749.869 414 751.053 414H756.165ZM751.125 419.808H754.101V415.944H751.125C750.533 415.944 750.029 416.12 749.613 416.472C749.197 416.824 748.989 417.296 748.989 417.888C748.989 418.464 749.197 418.928 749.613 419.28C750.029 419.632 750.533 419.808 751.125 419.808ZM773.322 419.832C774.554 420.344 775.17 421.272 775.17 422.616C775.17 423.608 774.834 424.424 774.162 425.064C773.506 425.688 772.562 426 771.33 426H765.33V414H770.85C772.05 414 772.978 414.304 773.634 414.912C774.29 415.504 774.618 416.288 774.618 417.264C774.618 418.416 774.186 419.272 773.322 419.832ZM770.754 415.872H767.37V419.016H770.754C771.97 419.016 772.578 418.48 772.578 417.408C772.578 416.384 771.97 415.872 770.754 415.872ZM771.21 424.104C771.818 424.104 772.282 423.96 772.602 423.672C772.938 423.384 773.106 422.976 773.106 422.448C773.106 421.952 772.938 421.568 772.602 421.296C772.282 421.008 771.818 420.864 771.21 420.864H767.37V424.104H771.21ZM784.048 413.688C785.728 413.688 787.16 414.304 788.344 415.536C789.528 416.752 790.12 418.24 790.12 420C790.12 421.76 789.528 423.256 788.344 424.488C787.16 425.704 785.728 426.312 784.048 426.312C782.064 426.312 780.552 425.52 779.512 423.936V430.8H777.424V414H779.512V416.064C780.552 414.48 782.064 413.688 784.048 413.688ZM783.784 424.296C784.984 424.296 785.992 423.888 786.808 423.072C787.624 422.24 788.032 421.216 788.032 420C788.032 418.784 787.624 417.768 786.808 416.952C785.992 416.12 784.984 415.704 783.784 415.704C782.568 415.704 781.552 416.12 780.736 416.952C779.92 417.768 779.512 418.784 779.512 420C779.512 421.216 779.92 422.24 780.736 423.072C781.552 423.888 782.568 424.296 783.784 424.296ZM802.547 414H804.635V426H802.547V423.936C801.507 425.52 799.995 426.312 798.011 426.312C796.331 426.312 794.899 425.704 793.715 424.488C792.531 423.256 791.939 421.76 791.939 420C791.939 418.24 792.531 416.752 793.715 415.536C794.899 414.304 796.331 413.688 798.011 413.688C799.995 413.688 801.507 414.48 802.547 416.064V414ZM798.275 424.296C799.491 424.296 800.507 423.888 801.323 423.072C802.139 422.24 802.547 421.216 802.547 420C802.547 418.784 802.139 417.768 801.323 416.952C800.507 416.12 799.491 415.704 798.275 415.704C797.075 415.704 796.067 416.12 795.251 416.952C794.435 417.768 794.027 418.784 794.027 420C794.027 421.216 794.435 422.24 795.251 423.072C796.067 423.888 797.075 424.296 798.275 424.296ZM815.359 414H817.447V426H815.359V421.68C814.399 422.096 813.319 422.304 812.119 422.304C810.583 422.304 809.391 421.944 808.543 421.224C807.711 420.488 807.295 419.408 807.295 417.984V414H809.383V417.864C809.383 418.76 809.623 419.4 810.103 419.784C810.599 420.168 811.319 420.36 812.263 420.36C813.399 420.36 814.431 420.152 815.359 419.736V414ZM830.555 414H832.643V426H830.555V423.936C829.515 425.52 828.003 426.312 826.019 426.312C824.339 426.312 822.907 425.704 821.723 424.488C820.539 423.256 819.947 421.76 819.947 420C819.947 418.24 820.539 416.752 821.723 415.536C822.907 414.304 824.339 413.688 826.019 413.688C828.003 413.688 829.515 414.48 830.555 416.064V414ZM826.283 424.296C827.499 424.296 828.515 423.888 829.331 423.072C830.147 422.24 830.555 421.216 830.555 420C830.555 418.784 830.147 417.768 829.331 416.952C828.515 416.12 827.499 415.704 826.283 415.704C825.083 415.704 824.075 416.12 823.259 416.952C822.443 417.768 822.035 418.784 822.035 420C822.035 421.216 822.443 422.24 823.259 423.072C824.075 423.888 825.083 424.296 826.283 424.296Z" fill="#106FAE"/>
<circle cx="407" cy="300.966" r="211" stroke="#3FC1C9" stroke-width="2"/>
<circle cx="407.001" cy="88.9655" r="10.9655" fill="#3FC1C9"/>
<circle cx="226.966" cy="194.966" r="10.9655" fill="#3FC1C9"/>
<circle cx="590.966" cy="194.966" r="10.9655" fill="#3FC1C9"/>
<g clip-path="url(#clip0_1577_12)">
<path d="M404.799 207.65C396.789 207.65 392.129 205.87 380.129 200.31C368.129 194.75 357.629 195.1 357.629 195.1C332.939 195.1 314.759 212.77 312.239 239.81C312.239 239.81 309.259 262.68 324.429 314.82C340.219 369.07 342.619 379.52 355.669 391.38C358.579 393.75 362.299 395.18 366.339 395.18C371.519 395.18 376.159 392.85 379.259 389.18C379.259 389.18 384.459 383.08 389.019 367.63C393.509 352.42 396.719 338.17 404.799 338.17C412.879 338.17 416.099 352.42 420.579 367.63C425.139 383.08 430.339 389.18 430.339 389.18C433.439 392.85 438.079 395.18 443.259 395.18C447.309 395.18 451.019 393.76 453.929 391.38C466.969 379.52 469.379 369.07 485.169 314.82C500.339 262.67 497.359 239.81 497.359 239.81C494.839 212.77 476.659 195.1 451.969 195.1C451.969 195.1 441.479 194.76 429.479 200.32C417.479 205.88 412.809 207.66 404.809 207.66L404.799 207.65Z" fill="white"/>
<g style="mix-blend-mode:multiply" opacity="0.45">
<path d="M357.879 376.25C339.889 327.69 326.949 273.11 324.979 239.67C324.129 225.26 327.939 210.64 334.129 201.47C321.969 208.9 313.859 222.4 312.239 239.81C312.239 239.81 309.259 262.68 324.429 314.82C340.219 369.07 342.619 379.52 355.669 391.38C358.579 393.75 362.299 395.18 366.339 395.18C370.379 395.18 374.369 393.63 377.329 391.09C364.719 392.33 357.879 376.25 357.879 376.25Z" fill="#D1E1F8"/>
</g>
<g style="mix-blend-mode:multiply" opacity="0.45">
<path d="M424.27 214.86C435.86 214.86 442.31 210.27 452.02 207.43C461.37 204.69 473.75 204.32 483.12 207.45C475.16 199.57 464.39 195.1 451.97 195.1C451.97 195.1 441.48 194.76 429.48 200.32C417.47 205.88 412.82 207.66 404.81 207.66C399.5 207.66 395.66 206.87 390.18 204.73C404.41 215.57 424.28 214.87 424.28 214.87L424.27 214.86Z" fill="#D1E1F8"/>
</g>
<path d="M448.16 208.69C433.41 217.67 413.91 218.28 398.5 210.55C393.34 208 388.63 204.63 384.51 200.71C389.13 204.03 394.03 206.88 399.16 209.13C414.62 215.92 432.76 215.43 448.17 208.69H448.16Z" fill="#7BA2D2"/>
<g style="mix-blend-mode:multiply" opacity="0.45">
<path d="M473.538 247.04C474.998 251.21 474.758 255.75 475.198 260.14C475.338 261.54 475.618 263.08 476.708 263.98C477.418 264.56 478.358 264.78 479.278 264.8C482.108 264.87 484.778 263.22 486.498 260.97C488.218 258.73 489.568 255.73 490.138 252.96C491.278 247.42 491.308 242.19 490.138 236.65C489.368 233.02 487.528 228.98 484.668 226.46C481.968 224.08 478.298 223.04 474.748 223.53C468.608 224.38 465.938 229.6 467.748 235.33C469.078 239.51 472.088 242.9 473.538 247.04Z" fill="#D1E1F8"/>
</g>
<path d="M409.17 208.06C401.16 208.06 396.5 206.28 384.5 200.72C372.5 195.16 362.01 195.5 362.01 195.5C337.32 195.5 319.14 213.17 316.62 240.21C316.62 240.21 313.64 263.07 328.81 315.21C344.59 369.45 347 379.9 360.04 391.76C362.95 394.13 366.67 395.56 370.71 395.56C375.89 395.56 380.53 393.23 383.63 389.56C383.63 389.56 388.83 383.46 393.39 368.01C397.87 352.8 401.09 338.55 409.17 338.55C417.25 338.55 420.46 352.8 424.95 368.01C429.51 383.46 434.71 389.56 434.71 389.56C437.81 393.23 442.45 395.56 447.63 395.56C451.68 395.56 455.39 394.14 458.3 391.76C471.34 379.9 473.75 369.45 489.53 315.21C504.7 263.07 501.72 240.21 501.72 240.21C499.21 213.17 481.03 195.5 456.34 195.5C456.34 195.5 445.85 195.16 433.85 200.71C421.85 206.27 417.19 208.05 409.18 208.05L409.17 208.06Z" stroke="#324969" stroke-miterlimit="10"/>
</g>
<circle cx="10.9655" cy="10.9655" r="10.9655" transform="matrix(1 0 0 -1 396.035 523.932)" fill="#3FC1C9"/>
<circle cx="10.9655" cy="10.9655" r="10.9655" transform="matrix(1 0 0 -1 216 417.861)" fill="#3FC1C9"/>
<circle cx="10.9655" cy="10.9655" r="10.9655" transform="matrix(1 0 0 -1 580 417.861)" fill="#3FC1C9"/>
<defs>
<clipPath id="clip0_1577_12">
<rect width="190.46" height="201.06" fill="white" transform="translate(312 195)"/>
</clipPath>
</defs>
</svg>
