<svg xmlns="http://www.w3.org/2000/svg" version="1.1" xmlns:xlink="http://www.w3.org/1999/xlink" xmlns:svgjs="http://svgjs.dev/svgjs" width="1000" height="1000"><g clip-path="url(#SvgjsClipPath1180)"><rect width="1000" height="1000" fill="#3fc1c9"></rect><g transform="matrix(3.4653465346534653,0,0,3.4653465346534653,169.05940594059405,150)"><svg xmlns="http://www.w3.org/2000/svg" version="1.1" xmlns:xlink="http://www.w3.org/1999/xlink" xmlns:svgjs="http://svgjs.dev/svgjs" width="191" height="202"><svg width="191" height="202" viewBox="0 0 191 202" fill="none" xmlns="http://www.w3.org/2000/svg">
<path d="M92.799 12.6501C84.789 12.6501 80.129 10.8701 68.129 5.31008C56.129 -0.24992 45.629 0.10008 45.629 0.10008C20.939 0.10008 2.75904 17.7701 0.239041 44.8101C0.239041 44.8101 -2.74096 67.6801 12.429 119.82C28.219 174.07 30.619 184.52 43.669 196.38C46.579 198.75 50.299 200.18 54.339 200.18C59.519 200.18 64.159 197.85 67.259 194.18C67.259 194.18 72.459 188.08 77.019 172.63C81.509 157.42 84.719 143.17 92.799 143.17C100.879 143.17 104.099 157.42 108.579 172.63C113.139 188.08 118.339 194.18 118.339 194.18C121.439 197.85 126.079 200.18 131.259 200.18C135.309 200.18 139.019 198.76 141.929 196.38C154.969 184.52 157.379 174.07 173.169 119.82C188.339 67.6701 185.359 44.8101 185.359 44.8101C182.839 17.7701 164.659 0.10008 139.969 0.10008C139.969 0.10008 129.479 -0.23992 117.479 5.32008C105.479 10.8801 100.809 12.6601 92.809 12.6601L92.799 12.6501Z" fill="white"></path>
<g style="mix-blend-mode:multiply" opacity="0.45">
<path d="M45.879 181.25C27.889 132.69 14.949 78.1097 12.979 44.6697C12.129 30.2597 15.939 15.6397 22.129 6.46973C9.96904 13.8997 1.85904 27.3997 0.239041 44.8097C0.239041 44.8097 -2.74096 67.6797 12.429 119.82C28.219 174.07 30.619 184.52 43.669 196.38C46.579 198.75 50.299 200.18 54.339 200.18C58.379 200.18 62.369 198.63 65.329 196.09C52.719 197.33 45.879 181.25 45.879 181.25Z" fill="#D1E1F8"></path>
</g>
<g style="mix-blend-mode:multiply" opacity="0.45">
<path d="M112.27 19.8597C123.86 19.8597 130.31 15.2697 140.02 12.4297C149.37 9.68974 161.75 9.31974 171.12 12.4497C163.16 4.56974 152.39 0.0997408 139.97 0.0997408C139.97 0.0997408 129.48 -0.240259 117.48 5.31974C105.47 10.8797 100.82 12.6597 92.8097 12.6597C87.4997 12.6597 83.6597 11.8697 78.1797 9.72974C92.4097 20.5697 112.28 19.8697 112.28 19.8697L112.27 19.8597Z" fill="#D1E1F8"></path>
</g>
<path d="M136.16 13.69C121.41 22.67 101.91 23.28 86.4998 15.55C81.3398 13 76.6298 9.62996 72.5098 5.70996C77.1298 9.02996 82.0298 11.88 87.1598 14.13C102.62 20.92 120.76 20.43 136.17 13.69H136.16Z" fill="#7BA2D2"></path>
<g style="mix-blend-mode:multiply" opacity="0.45">
<path d="M161.538 52.0396C162.998 56.2096 162.758 60.7496 163.198 65.1396C163.338 66.5396 163.618 68.0796 164.708 68.9796C165.418 69.5596 166.358 69.7796 167.278 69.7996C170.108 69.8696 172.778 68.2196 174.498 65.9696C176.218 63.7296 177.568 60.7296 178.138 57.9596C179.278 52.4196 179.308 47.1896 178.138 41.6496C177.368 38.0196 175.528 33.9796 172.668 31.4596C169.968 29.0796 166.298 28.0396 162.748 28.5296C156.608 29.3796 153.938 34.5996 155.748 40.3296C157.078 44.5096 160.088 47.8996 161.538 52.0396Z" fill="#D1E1F8"></path>
</g>
<path d="M97.1699 13.0601C89.1599 13.0601 84.4999 11.2801 72.4999 5.72014C60.4999 0.160144 50.0099 0.500144 50.0099 0.500144C25.3199 0.500144 7.1399 18.1701 4.6199 45.2101C4.6199 45.2101 1.6399 68.0701 16.8099 120.21C32.5899 174.45 34.9999 184.9 48.0399 196.76C50.9499 199.13 54.6699 200.56 58.7099 200.56C63.8899 200.56 68.5299 198.23 71.6299 194.56C71.6299 194.56 76.8299 188.46 81.3899 173.01C85.8699 157.8 89.0899 143.55 97.1699 143.55C105.25 143.55 108.46 157.8 112.95 173.01C117.51 188.46 122.71 194.56 122.71 194.56C125.81 198.23 130.45 200.56 135.63 200.56C139.68 200.56 143.39 199.14 146.3 196.76C159.34 184.9 161.75 174.45 177.53 120.21C192.7 68.0701 189.72 45.2101 189.72 45.2101C187.21 18.1701 169.03 0.500144 144.34 0.500144C144.34 0.500144 133.85 0.160144 121.85 5.71014C109.85 11.2701 105.19 13.0501 97.1799 13.0501L97.1699 13.0601Z" stroke="#324969" stroke-miterlimit="10"></path>
</svg></svg></g></g><defs><clipPath id="SvgjsClipPath1180"><rect width="1000" height="1000" x="0" y="0" rx="150" ry="150"></rect></clipPath></defs></svg>